<svg height="400" width="600" version="1.1" xmlns="http://www.w3.org/2000/svg"><g transform="translate(0,0)"  xmlns:xlink="http://www.w3.org/1999/xlink" version="1.1" class="highcharts-root" style="font-family:&quot;Lucida Grande&quot;, &quot;Lucida Sans Unicode&quot;, Arial, Helvetica, sans-serif;font-size:12px;" xmlns="http://www.w3.org/2000/svg" width="600" height="400" viewBox="0 0 600 400" aria-hidden="false" aria-label="Interactive chart"><desc aria-hidden="true">Created with Highcharts 8.1.2</desc><defs aria-hidden="true"><clipPath id="highcharts-5z8zkk7-111-"><rect x="0" y="0" width="580" height="337" fill="none"></rect></clipPath><clipPath id="highcharts-5z8zkk7-122"><circle cx="290" cy="168.5" r="117.95"></circle></clipPath><clipPath id="highcharts-5z8zkk7-133"><circle cx="290" cy="168.5" r="117.95"></circle></clipPath></defs><rect fill="#ffffff" class="highcharts-background" x="0" y="0" width="600" height="400" rx="0" ry="0" aria-hidden="true"></rect><rect fill="none" class="highcharts-plot-background" x="10" y="10" width="580" height="337" aria-hidden="true"></rect><g class="highcharts-pane-group" data-z-index="0" aria-hidden="true"></g><g class="highcharts-grid highcharts-xaxis-grid" data-z-index="1" aria-hidden="true"><path fill="none" stroke="#e6e6e6" stroke-width="1" data-z-index="1" class="highcharts-grid-line" d="M 300 178.5 L 300 60.55" opacity="1"></path><path fill="none" stroke="#e6e6e6" stroke-width="1" data-z-index="1" class="highcharts-grid-line" d="M 300 178.5 L 375.8167985625273 88.14505793411654" opacity="1"></path><path fill="none" stroke="#e6e6e6" stroke-width="1" data-z-index="1" class="highcharts-grid-line" d="M 300 178.5 L 416.15807446778996 158.01819744418557" opacity="1"></path><path fill="none" stroke="#e6e6e6" stroke-width="1" data-z-index="1" class="highcharts-grid-line" d="M 300 178.5 L 402.14769637637454 237.47499999999997" opacity="1"></path><path fill="none" stroke="#e6e6e6" stroke-width="1" data-z-index="1" class="highcharts-grid-line" d="M 300 178.5 L 340.34127590526265 289.3367446216979" opacity="1"></path><path fill="none" stroke="#e6e6e6" stroke-width="1" data-z-index="1" class="highcharts-grid-line" d="M 300 178.5 L 259.65872409473735 289.3367446216979" opacity="1"></path><path fill="none" stroke="#e6e6e6" stroke-width="1" data-z-index="1" class="highcharts-grid-line" d="M 300 178.5 L 197.85230362362546 237.47500000000005" opacity="1"></path><path fill="none" stroke="#e6e6e6" stroke-width="1" data-z-index="1" class="highcharts-grid-line" d="M 300 178.5 L 183.84192553221004 158.0181974441856" opacity="1"></path><path fill="none" stroke="#e6e6e6" stroke-width="1" data-z-index="1" class="highcharts-grid-line" d="M 300 178.5 L 224.18320143747266 88.14505793411655" opacity="1"></path><path fill="none" stroke="#e6e6e6" stroke-width="1" data-z-index="1" class="highcharts-grid-line" d="M 300 178.5 L 300 60.55" opacity="1"></path></g><g class="highcharts-grid highcharts-yaxis-grid" data-z-index="1" aria-hidden="true"><path fill="none" stroke="#e6e6e6" stroke-width="1" data-z-index="1" class="highcharts-grid-line" d="M 300 178.5 L 300 178.5 L 300 178.5 L 300 178.5 L 300 178.5 L 300 178.5 L 300 178.5 L 300 178.5 L 300 178.5 L 300 178.5 L 300 178.5" opacity="1"></path><path fill="none" stroke="#e6e6e6" stroke-width="1" data-z-index="1" class="highcharts-grid-line" d="M 300 139.18333333333334 L 325.2722661875091 148.38168597803883 L 338.71935815592997 171.6727324813952 L 334.04923212545816 198.15833333333333 L 313.44709196842086 215.44558154056597 L 286.55290803157914 215.44558154056597 L 265.95076787454184 198.15833333333336 L 261.28064184407003 171.6727324813952 L 274.7277338124909 148.38168597803886 L 300 139.18333333333334 L 300 139.18333333333334" opacity="1"></path><path fill="none" stroke="#e6e6e6" stroke-width="1" data-z-index="1" class="highcharts-grid-line" d="M 300 99.86666666666666 L 350.5445323750182 118.26337195607769 L 377.43871631185993 164.84546496279037 L 368.0984642509164 217.81666666666666 L 326.8941839368418 252.39116308113194 L 273.1058160631583 252.39116308113194 L 231.90153574908365 217.8166666666667 L 222.56128368814 164.8454649627904 L 249.45546762498176 118.26337195607769 L 300 99.86666666666666 L 300 99.86666666666666" opacity="1"></path><path fill="none" stroke="#e6e6e6" stroke-width="1" data-z-index="1" class="highcharts-grid-line" d="M 300 178.5 L 300 178.5 L 300 178.5 L 300 178.5 L 300 178.5 L 300 178.5 L 300 178.5 L 300 178.5 L 300 178.5 L 300 178.5 L 300 178.5" opacity="1"></path></g><rect fill="none" class="highcharts-plot-border" data-z-index="1" x="10" y="10" width="580" height="337" aria-hidden="true"></rect><g class="highcharts-axis highcharts-xaxis" data-z-index="2" aria-hidden="true"><path fill="none" class="highcharts-axis-line" data-z-index="7" d="M 300 60.55 A 117.95 117.95 0 1 1 299.88205001965827 60.55005897499508 M 300 178.5 A 0 0 0 1 0 300 178.5"></path></g><g class="highcharts-axis highcharts-yaxis" data-z-index="2" aria-hidden="true"><path fill="none" class="highcharts-axis-line" data-z-index="7" d="M 300 178.5 L 300 60.55"></path></g><g class="highcharts-series-group" data-z-index="3" aria-hidden="false"><g class="highcharts-series highcharts-series-0 highcharts-line-series" data-z-index="0.1" opacity="1" transform="translate(10,10) scale(1 1)" clip-path="url(#highcharts-5z8zkk7-122)" aria-hidden="true"><path fill="none" d="M 290 89.86666666666666 L 315.27226618750905 138.3816859780388 L 367.43871631186045 154.8454649627932 L 358.0984642509162 207.816666666667 L 316.8941839368438 242.3911630811312 L 263.1058160631552 242.39116308113086 L 221.90153574908328 207.81666666666604 L 212.56128368813972 154.8454649627921 L 264.72773381249226 138.3816859780377 L 290 89.86666666666666" class="highcharts-graph" data-z-index="1" stroke="#0F0" stroke-width="2" stroke-linejoin="round" stroke-linecap="round"></path></g><g class="highcharts-markers highcharts-series-0 highcharts-line-series" data-z-index="0.1" opacity="1" transform="translate(10,10) scale(1 1)" clip-path="none" aria-hidden="false" role="region" tabindex="-1" aria-label="Capaian, line 1 of 2 with 9 data points." style="outline: 0px;"><path fill="#0F0" d="M 290 94 A 4 4 0 1 1 290.00399999933336 93.99999800000016 Z" opacity="1" class="highcharts-point" tabindex="-1" role="img" aria-label="1. Kerjasama , 2. Capaian." style="outline: 0px;"></path><path fill="#0F0" d="M 315 142 A 4 4 0 1 1 315.00399999933336 141.99999800000018 Z" opacity="1" class="highcharts-point" tabindex="-1" role="img" aria-label="2. Mengelola Perubahan , 1. Capaian." style="outline: 0px;"></path><path fill="#0F0" d="M 367 159 A 4 4 0 1 1 367.00399999933336 158.99999800000018 Z" opacity="1" class="highcharts-point" tabindex="-1" role="img" aria-label="3. Perekat Bangsa, 2. Capaian." style="outline: 0px;"></path><path fill="#0F0" d="M 358 212 A 4 4 0 1 1 358.00399999933336 211.99999800000018 Z" opacity="1" class="highcharts-point" tabindex="-1" role="img" aria-label="4. Pengembangan Diri dan Orang Lain    , 2. Capaian." style="outline: 0px;"></path><path fill="#0F0" d="M 316 246 A 4 4 0 1 1 316.00399999933336 245.99999800000018 Z" opacity="1" class="highcharts-point" tabindex="-1" role="img" aria-label="5. Integritas, 2. Capaian." style="outline: 0px;"></path><path fill="#0F0" d="M 263 246 A 4 4 0 1 1 263.00399999933336 245.99999800000018 Z" opacity="1" class="highcharts-point" tabindex="-1" role="img" aria-label="6. Komunikasi , 2. Capaian." style="outline: 0px;"></path><path fill="#0F0" d="M 221 212 A 4 4 0 1 1 221.00399999933333 211.99999800000018 Z" opacity="1" class="highcharts-point" tabindex="-1" role="img" aria-label="7. Orientasi pada Hasil , 2. Capaian." style="outline: 0px;"></path><path fill="#0F0" d="M 212 159 A 4 4 0 1 1 212.00399999933333 158.99999800000018 Z" opacity="1" class="highcharts-point" tabindex="-1" role="img" aria-label="8. Pelayanan Publik, 2. Capaian." style="outline: 0px;"></path><path fill="#0F0" d="M 264 142 A 4 4 0 1 1 264.00399999933336 141.99999800000018 Z" opacity="1" class="highcharts-point" tabindex="-1" role="img" aria-label="9. Pengambilan Keputusan, 1. Capaian." style="outline: 0px;"></path></g><g class="highcharts-series highcharts-series-1 highcharts-line-series" data-z-index="0.1" opacity="1" transform="translate(10,10) scale(1 1)" clip-path="url(#highcharts-5z8zkk7-133)" aria-hidden="true"><path fill="none" d="M 290 89.86666666666666 L 340.5445323750181 108.2633719560776 L 367.43871631186045 154.8454649627932 L 358.0984642509162 207.816666666667 L 316.8941839368438 242.3911630811312 L 263.1058160631552 242.39116308113086 L 221.90153574908328 207.81666666666604 L 212.56128368813972 154.8454649627921 L 239.4554676249845 108.26337195607542 L 290 89.86666666666666" class="highcharts-graph" data-z-index="1" stroke="#FF0000" stroke-width="2" stroke-linejoin="round" stroke-linecap="round"></path></g><g class="highcharts-markers highcharts-series-1 highcharts-line-series" data-z-index="0.1" opacity="1" transform="translate(10,10) scale(1 1)" clip-path="none" aria-hidden="false" role="region" tabindex="-1" aria-label="Nilai Standar, line 2 of 2 with 9 data points." style="outline: 0px;"><path fill="#FF0000" d="M 290 86 L 294 90 L 290 94 L 286 90 Z" opacity="1" class="highcharts-point" tabindex="-1" role="img" aria-label="1. Kerjasama , 2. Nilai Standar." style="outline: 0px;"></path><path fill="#FF0000" d="M 340 104 L 344 108 L 340 112 L 336 108 Z" opacity="1" class="highcharts-point" tabindex="-1" role="img" aria-label="2. Mengelola Perubahan , 2. Nilai Standar." style="outline: 0px;"></path><path fill="#FF0000" d="M 367 151 L 371 155 L 367 159 L 363 155 Z" opacity="1" class="highcharts-point" tabindex="-1" role="img" aria-label="3. Perekat Bangsa, 2. Nilai Standar." style="outline: 0px;"></path><path fill="#FF0000" d="M 358 204 L 362 208 L 358 212 L 354 208 Z" opacity="1" class="highcharts-point" tabindex="-1" role="img" aria-label="4. Pengembangan Diri dan Orang Lain    , 2. Nilai Standar." style="outline: 0px;"></path><path fill="#FF0000" d="M 316 238 L 320 242 L 316 246 L 312 242 Z" opacity="1" class="highcharts-point" tabindex="-1" role="img" aria-label="5. Integritas, 2. Nilai Standar." style="outline: 0px;"></path><path fill="#FF0000" d="M 263 238 L 267 242 L 263 246 L 259 242 Z" opacity="1" class="highcharts-point" tabindex="-1" role="img" aria-label="6. Komunikasi , 2. Nilai Standar." style="outline: 0px;"></path><path fill="#FF0000" d="M 221 204 L 225 208 L 221 212 L 217 208 Z" opacity="1" class="highcharts-point" tabindex="-1" role="img" aria-label="7. Orientasi pada Hasil , 2. Nilai Standar." style="outline: 0px;"></path><path fill="#FF0000" d="M 212 151 L 216 155 L 212 159 L 208 155 Z" opacity="1" class="highcharts-point" tabindex="-1" role="img" aria-label="8. Pelayanan Publik, 2. Nilai Standar." style="outline: 0px;"></path><path fill="#FF0000" d="M 239 104 L 243 108 L 239 112 L 235 108 Z" opacity="1" class="highcharts-point" tabindex="-1" role="img" aria-label="9. Pengambilan Keputusan, 2. Nilai Standar." style="outline: 0px;"></path></g></g><text x="220" text-anchor="middle" class="highcharts-title" data-z-index="4" style="color:#333333;font-size:18px;fill:#333333;" y="24" aria-hidden="true"></text><text x="300" text-anchor="middle" class="highcharts-subtitle" data-z-index="4" style="color:#666666;fill:#666666;" y="24" aria-hidden="true"></text><text x="10" text-anchor="start" class="highcharts-caption" data-z-index="4" style="color:#666666;fill:#666666;" y="397" aria-hidden="true"></text><g class="highcharts-data-labels highcharts-series-0 highcharts-line-series" data-z-index="6" opacity="1" transform="translate(10,10) scale(1 1)" aria-hidden="true"><g class="highcharts-label highcharts-data-label highcharts-data-label-color-undefined" data-z-index="1" transform="translate(281,67)"><text x="5" data-z-index="1" y="16" style="color:#000000;font-size:11px;font-weight:bold;fill:#000000;"><tspan x="5" y="16" class="highcharts-text-outline" fill="#FFFFFF" stroke="#FFFFFF" stroke-width="2px" stroke-linejoin="round" style="">2</tspan><tspan x="5" y="16">2</tspan></text></g><g class="highcharts-label highcharts-data-label highcharts-data-label-color-undefined" data-z-index="1" transform="translate(307,115)"><text x="5" data-z-index="1" y="16" style="color:#000000;font-size:11px;font-weight:bold;fill:#000000;"><tspan x="5" y="16" class="highcharts-text-outline" fill="#FFFFFF" stroke="#FFFFFF" stroke-width="2px" stroke-linejoin="round">1</tspan><tspan x="5" y="16">1</tspan></text></g><g class="highcharts-label highcharts-data-label highcharts-data-label-color-undefined" data-z-index="1" transform="translate(359,132)"><text x="5" data-z-index="1" y="16" style="color:#000000;font-size:11px;font-weight:bold;fill:#000000;"><tspan x="5" y="16" class="highcharts-text-outline" fill="#FFFFFF" stroke="#FFFFFF" stroke-width="2px" stroke-linejoin="round">2</tspan><tspan x="5" y="16">2</tspan></text></g><g class="highcharts-label highcharts-data-label highcharts-data-label-color-undefined" data-z-index="1" transform="translate(349,185)"><text x="5" data-z-index="1" y="16" style="color:#000000;font-size:11px;font-weight:bold;fill:#000000;"><tspan x="5" y="16" class="highcharts-text-outline" fill="#FFFFFF" stroke="#FFFFFF" stroke-width="2px" stroke-linejoin="round">2</tspan><tspan x="5" y="16">2</tspan></text></g><g class="highcharts-label highcharts-data-label highcharts-data-label-color-undefined" data-z-index="1" transform="translate(308,219)"><text x="5" data-z-index="1" y="16" style="color:#000000;font-size:11px;font-weight:bold;fill:#000000;"><tspan x="5" y="16" class="highcharts-text-outline" fill="#FFFFFF" stroke="#FFFFFF" stroke-width="2px" stroke-linejoin="round">2</tspan><tspan x="5" y="16">2</tspan></text></g><g class="highcharts-label highcharts-data-label highcharts-data-label-color-undefined" data-z-index="1" transform="translate(254,219)"><text x="5" data-z-index="1" y="16" style="color:#000000;font-size:11px;font-weight:bold;fill:#000000;"><tspan x="5" y="16" class="highcharts-text-outline" fill="#FFFFFF" stroke="#FFFFFF" stroke-width="2px" stroke-linejoin="round">2</tspan><tspan x="5" y="16">2</tspan></text></g><g class="highcharts-label highcharts-data-label highcharts-data-label-color-undefined" data-z-index="1" transform="translate(213,185)"><text x="5" data-z-index="1" y="16" style="color:#000000;font-size:11px;font-weight:bold;fill:#000000;"><tspan x="5" y="16" class="highcharts-text-outline" fill="#FFFFFF" stroke="#FFFFFF" stroke-width="2px" stroke-linejoin="round">2</tspan><tspan x="5" y="16">2</tspan></text></g><g class="highcharts-label highcharts-data-label highcharts-data-label-color-undefined" data-z-index="1" transform="translate(204,132)"><text x="5" data-z-index="1" y="16" style="color:#000000;font-size:11px;font-weight:bold;fill:#000000;"><tspan x="5" y="16" class="highcharts-text-outline" fill="#FFFFFF" stroke="#FFFFFF" stroke-width="2px" stroke-linejoin="round">2</tspan><tspan x="5" y="16">2</tspan></text></g><g class="highcharts-label highcharts-data-label highcharts-data-label-color-undefined" data-z-index="1" transform="translate(256,115)"><text x="5" data-z-index="1" y="16" style="color:#000000;font-size:11px;font-weight:bold;fill:#000000;"><tspan x="5" y="16" class="highcharts-text-outline" fill="#FFFFFF" stroke="#FFFFFF" stroke-width="2px" stroke-linejoin="round">1</tspan><tspan x="5" y="16">1</tspan></text></g></g><g class="highcharts-data-labels highcharts-series-1 highcharts-line-series" data-z-index="6" opacity="1" transform="translate(10,10) scale(1 1)" aria-hidden="true"><g class="highcharts-label highcharts-data-label highcharts-data-label-color-undefined highcharts-data-label-hidden" data-z-index="1" transform="translate(281,67)" opacity="0" style="pointer-events:none;"><text x="5" data-z-index="1" y="16" style="color:#000000;font-size:11px;font-weight:bold;fill:#000000;"><tspan x="5" y="16" class="highcharts-text-outline" fill="#FFFFFF" stroke="#FFFFFF" stroke-width="2px" stroke-linejoin="round">2</tspan><tspan x="5" y="16">2</tspan></text></g><g class="highcharts-label highcharts-data-label highcharts-data-label-color-undefined" data-z-index="1" transform="translate(332,85)"><text x="5" data-z-index="1" y="16" style="color:#000000;font-size:11px;font-weight:bold;fill:#000000;"><tspan x="5" y="16" class="highcharts-text-outline" fill="#FFFFFF" stroke="#FFFFFF" stroke-width="2px" stroke-linejoin="round">2</tspan><tspan x="5" y="16">2</tspan></text></g><g class="highcharts-label highcharts-data-label highcharts-data-label-color-undefined highcharts-data-label-hidden" data-z-index="1" transform="translate(359,132)" opacity="0" style="pointer-events:none;"><text x="5" data-z-index="1" y="16" style="color:#000000;font-size:11px;font-weight:bold;fill:#000000;"><tspan x="5" y="16" class="highcharts-text-outline" fill="#FFFFFF" stroke="#FFFFFF" stroke-width="2px" stroke-linejoin="round">2</tspan><tspan x="5" y="16">2</tspan></text></g><g class="highcharts-label highcharts-data-label highcharts-data-label-color-undefined highcharts-data-label-hidden" data-z-index="1" transform="translate(349,185)" opacity="0" style="pointer-events:none;"><text x="5" data-z-index="1" y="16" style="color:#000000;font-size:11px;font-weight:bold;fill:#000000;"><tspan x="5" y="16" class="highcharts-text-outline" fill="#FFFFFF" stroke="#FFFFFF" stroke-width="2px" stroke-linejoin="round">2</tspan><tspan x="5" y="16">2</tspan></text></g><g class="highcharts-label highcharts-data-label highcharts-data-label-color-undefined highcharts-data-label-hidden" data-z-index="1" transform="translate(308,219)" opacity="0" style="pointer-events:none;"><text x="5" data-z-index="1" y="16" style="color:#000000;font-size:11px;font-weight:bold;fill:#000000;"><tspan x="5" y="16" class="highcharts-text-outline" fill="#FFFFFF" stroke="#FFFFFF" stroke-width="2px" stroke-linejoin="round">2</tspan><tspan x="5" y="16">2</tspan></text></g><g class="highcharts-label highcharts-data-label highcharts-data-label-color-undefined highcharts-data-label-hidden" data-z-index="1" transform="translate(254,219)" opacity="0" style="pointer-events:none;"><text x="5" data-z-index="1" y="16" style="color:#000000;font-size:11px;font-weight:bold;fill:#000000;"><tspan x="5" y="16" class="highcharts-text-outline" fill="#FFFFFF" stroke="#FFFFFF" stroke-width="2px" stroke-linejoin="round">2</tspan><tspan x="5" y="16">2</tspan></text></g><g class="highcharts-label highcharts-data-label highcharts-data-label-color-undefined highcharts-data-label-hidden" data-z-index="1" transform="translate(213,185)" opacity="0" style="pointer-events:none;"><text x="5" data-z-index="1" y="16" style="color:#000000;font-size:11px;font-weight:bold;fill:#000000;"><tspan x="5" y="16" class="highcharts-text-outline" fill="#FFFFFF" stroke="#FFFFFF" stroke-width="2px" stroke-linejoin="round">2</tspan><tspan x="5" y="16">2</tspan></text></g><g class="highcharts-label highcharts-data-label highcharts-data-label-color-undefined highcharts-data-label-hidden" data-z-index="1" transform="translate(204,132)" opacity="0" style="pointer-events:none;"><text x="5" data-z-index="1" y="16" style="color:#000000;font-size:11px;font-weight:bold;fill:#000000;"><tspan x="5" y="16" class="highcharts-text-outline" fill="#FFFFFF" stroke="#FFFFFF" stroke-width="2px" stroke-linejoin="round">2</tspan><tspan x="5" y="16">2</tspan></text></g><g class="highcharts-label highcharts-data-label highcharts-data-label-color-undefined" data-z-index="1" transform="translate(231,85)"><text x="5" data-z-index="1" y="16" style="color:#000000;font-size:11px;font-weight:bold;fill:#000000;"><tspan x="5" y="16" class="highcharts-text-outline" fill="#FFFFFF" stroke="#FFFFFF" stroke-width="2px" stroke-linejoin="round">2</tspan><tspan x="5" y="16">2</tspan></text></g></g><g class="highcharts-legend" data-z-index="7" transform="translate(206,359)" aria-hidden="true"><rect fill="none" class="highcharts-legend-box" rx="0" ry="0" x="0" y="0" width="188" height="26" visibility="visible"></rect><g data-z-index="1"><g><g class="highcharts-legend-item highcharts-line-series highcharts-color-undefined highcharts-series-0" data-z-index="1" transform="translate(8,3)"><path fill="none" d="M 0 11 L 16 11" class="highcharts-graph" stroke="#0F0" stroke-width="2"></path><path fill="#0F0" d="M 8 15 A 4 4 0 1 1 8.003999999333336 14.999998000000167 Z" class="highcharts-point" opacity="1"></path><text x="21" style="color:#333333;cursor:pointer;font-size:12px;font-weight:bold;fill:#333333;" text-anchor="start" data-z-index="2" y="15"><tspan>Capaian</tspan></text></g><g class="highcharts-legend-item highcharts-line-series highcharts-color-undefined highcharts-series-1" data-z-index="1" transform="translate(91.34375,3)"><path fill="none" d="M 0 11 L 16 11" class="highcharts-graph" stroke="#FF0000" stroke-width="2"></path><path fill="#FF0000" d="M 8 7 L 12 11 L 8 15 L 4 11 Z" class="highcharts-point" opacity="1"></path><text x="21" y="15" style="color:#333333;cursor:pointer;font-size:12px;font-weight:bold;fill:#333333;" text-anchor="start" data-z-index="2"><tspan>Nilai Standar</tspan></text></g></g></g></g><g class="highcharts-axis-labels highcharts-xaxis-labels" data-z-index="7" aria-hidden="true"><text x="300" style="color:#666666;cursor:default;font-size:11px;fill:#666666;" transform="translate(0,0) rotate(1 300 49.441467528693465)" text-anchor="middle" y="49.441467528693465" opacity="1"><tspan>Kerjasama</tspan></text><text x="385.4586127078254" style="color:#666666;cursor:default;font-size:11px;fill:#666666;" transform="translate(0,0) rotate(1 385.4586127078254 80.089778350926)" text-anchor="start" y="80.089778350926" opacity="1"><tspan>Mengelola Perubahan</tspan></text><text x="430.93019076297304" style="color:#666666;cursor:default;font-size:11px;fill:#666666;" transform="translate(0,0) rotate(1 430.93019076297304 159.1076483069786)" text-anchor="start" y="159.1076483069786" opacity="1"><tspan>Perekat Bangsa</tspan></text><text x="415.1380774331411" style="color:#666666;cursor:default;font-size:11px;fill:#666666;" transform="translate(0,0) rotate(1 415.1380774331411 247.85013754757225)" text-anchor="start" y="247.85013754757225" opacity="1"><tspan>Pengembangan Diri dan Orang Lain</tspan></text><text x="345.4715780551477" style="color:#666666;cursor:default;font-size:11px;fill:#666666;" transform="translate(0,0) rotate(1 345.4715780551477 307.3636874582156)" text-anchor="middle" y="307.3636874582156" opacity="1">Integritas</text><text x="254.52842194485234" style="color:#666666;cursor:default;font-size:11px;fill:#666666;" transform="translate(0,0) rotate(1 254.52842194485234 307.27206232441984)" text-anchor="middle" y="307.27206232441984" opacity="1"><tspan>Komunikasi</tspan></text><text x="184.8619225668589" style="color:#666666;cursor:default;font-size:11px;fill:#666666;" transform="translate(0,0) rotate(1 184.8619225668589 248.47487915925691)" text-anchor="end" y="248.47487915925691" opacity="1"><tspan>Orientasi pada Hasil</tspan></text><text x="169.06980923702693" style="color:#666666;cursor:default;font-size:11px;fill:#666666;" transform="translate(0,0) rotate(1 169.06980923702693 159.03265749806843)" text-anchor="end" y="159.03265749806843" opacity="1"><tspan>Pelayanan Publik</tspan></text><text x="214.5413872921746" style="color:#666666;cursor:default;font-size:11px;fill:#666666;" transform="translate(0,0) rotate(1 214.5413872921746 79.98683642233111)" text-anchor="end" y="79.98683642233111" opacity="1"><tspan>Pengambilan Keputusan</tspan></text><text x="0" style="color:#666666;cursor:default;font-size:11px;fill:#666666;" transform="translate(0,0) rotate(1 0 -9999)" text-anchor="middle" y="-9999">9</text></g><g class="highcharts-axis-labels highcharts-yaxis-labels" data-z-index="7" aria-hidden="true"></g></g></svg>