<svg height="400" width="600" version="1.1" xmlns="http://www.w3.org/2000/svg"><g transform="translate(0,0)"  xmlns:xlink="http://www.w3.org/1999/xlink" version="1.1" class="highcharts-root" style="font-family:&quot;Lucida Grande&quot;, &quot;Lucida Sans Unicode&quot;, Arial, Helvetica, sans-serif;font-size:12px;" xmlns="http://www.w3.org/2000/svg" width="600" height="400" viewBox="0 0 600 400" aria-hidden="false" aria-label="Interactive chart"><desc aria-hidden="true">Created with Highcharts 8.1.2</desc><defs aria-hidden="true"><clipPath id="highcharts-h9a2d0d-159-"><rect x="0" y="0" width="580" height="338" fill="none"></rect></clipPath><clipPath id="highcharts-h9a2d0d-170"><circle cx="290" cy="169" r="118.3"></circle></clipPath><clipPath id="highcharts-h9a2d0d-181"><circle cx="290" cy="169" r="118.3"></circle></clipPath></defs><rect fill="#ffffff" class="highcharts-background" x="0" y="0" width="600" height="400" rx="0" ry="0" aria-hidden="true"></rect><rect fill="none" class="highcharts-plot-background" x="10" y="10" width="580" height="338" aria-hidden="true"></rect><g class="highcharts-pane-group" data-z-index="0" aria-hidden="true"></g><g class="highcharts-grid highcharts-xaxis-grid" data-z-index="1" aria-hidden="true"><path fill="none" stroke="#e6e6e6" stroke-width="1" data-z-index="1" class="highcharts-grid-line" d="M 300 179 L 300 60.7" opacity="1"></path><path fill="none" stroke="#e6e6e6" stroke-width="1" data-z-index="1" class="highcharts-grid-line" d="M 300 179 L 376.0417742259176 88.3769423790249" opacity="1"></path><path fill="none" stroke="#e6e6e6" stroke-width="1" data-z-index="1" class="highcharts-grid-line" d="M 300 179 L 416.50275718134424 158.45742058200213" opacity="1"></path><path fill="none" stroke="#e6e6e6" stroke-width="1" data-z-index="1" class="highcharts-grid-line" d="M 300 179 L 402.4508052676991 238.14999999999998" opacity="1"></path><path fill="none" stroke="#e6e6e6" stroke-width="1" data-z-index="1" class="highcharts-grid-line" d="M 300 179 L 340.46098295542663 290.16563703897293" opacity="1"></path><path fill="none" stroke="#e6e6e6" stroke-width="1" data-z-index="1" class="highcharts-grid-line" d="M 300 179 L 259.53901704457337 290.16563703897293" opacity="1"></path><path fill="none" stroke="#e6e6e6" stroke-width="1" data-z-index="1" class="highcharts-grid-line" d="M 300 179 L 197.54919473230092 238.15000000000003" opacity="1"></path><path fill="none" stroke="#e6e6e6" stroke-width="1" data-z-index="1" class="highcharts-grid-line" d="M 300 179 L 183.49724281865576 158.4574205820022" opacity="1"></path><path fill="none" stroke="#e6e6e6" stroke-width="1" data-z-index="1" class="highcharts-grid-line" d="M 300 179 L 223.9582257740824 88.37694237902491" opacity="1"></path><path fill="none" stroke="#e6e6e6" stroke-width="1" data-z-index="1" class="highcharts-grid-line" d="M 300 179 L 300 60.7" opacity="1"></path></g><g class="highcharts-grid highcharts-yaxis-grid" data-z-index="1" aria-hidden="true"><path fill="none" stroke="#e6e6e6" stroke-width="1" data-z-index="1" class="highcharts-grid-line" d="M 300 179 L 300 179 L 300 179 L 300 179 L 300 179 L 300 179 L 300 179 L 300 179 L 300 179 L 300 179 L 300 179" opacity="1"></path><path fill="none" stroke="#e6e6e6" stroke-width="1" data-z-index="1" class="highcharts-grid-line" d="M 300 119.85 L 338.0208871129588 133.68847118951246 L 358.2513785906721 168.72871029100108 L 351.22540263384957 208.575 L 320.2304914777133 234.58281851948647 L 279.7695085222867 234.58281851948647 L 248.77459736615046 208.57500000000002 L 241.74862140932788 168.72871029100108 L 261.9791128870412 133.68847118951246 L 300 119.85 L 300 119.85" opacity="1"></path><path fill="none" stroke="#e6e6e6" stroke-width="1" data-z-index="1" class="highcharts-grid-line" d="M 300 60.7 L 376.0417742259176 88.3769423790249 L 416.50275718134424 158.45742058200213 L 402.4508052676991 238.14999999999998 L 340.46098295542663 290.16563703897293 L 259.53901704457337 290.16563703897293 L 197.54919473230092 238.15000000000003 L 183.49724281865576 158.4574205820022 L 223.9582257740824 88.37694237902491 L 300 60.7 L 300 60.7" opacity="1"></path></g><rect fill="none" class="highcharts-plot-border" data-z-index="1" x="10" y="10" width="580" height="338" aria-hidden="true"></rect><g class="highcharts-axis highcharts-xaxis" data-z-index="2" aria-hidden="true"><path fill="none" class="highcharts-axis-line" data-z-index="7" d="M 300 60.7 A 118.3 118.3 0 1 1 299.8817000197166 60.70005914999507 M 300 179 A 0 0 0 1 0 300 179"></path></g><g class="highcharts-axis highcharts-yaxis" data-z-index="2" aria-hidden="true"><path fill="none" class="highcharts-axis-line" data-z-index="7" d="M 300 179 L 300 60.7"></path></g><g class="highcharts-series-group" data-z-index="3" aria-hidden="false"><g class="highcharts-series highcharts-series-0 highcharts-line-series" data-z-index="0.1" opacity="1" transform="translate(10,10) scale(1 1)" clip-path="url(#highcharts-h9a2d0d-170)" aria-hidden="true"><path fill="none" d="M 290 169 L 290 169 L 290 169 L 290 169 L 290 169 L 290 169 L 290 169 L 290 169 L 290 169 L 290 169" class="highcharts-graph" data-z-index="1" stroke="#0F0" stroke-width="2" stroke-linejoin="round" stroke-linecap="round"></path></g><g class="highcharts-markers highcharts-series-0 highcharts-line-series" data-z-index="0.1" opacity="1" transform="translate(10,10) scale(1 1)" clip-path="none" aria-hidden="false" role="region" tabindex="-1" style="outline: currentcolor none 0px;" aria-label="Capaian, line 1 of 2 with 9 data points."><path fill="#0F0" d="M 290 173 A 4 4 0 1 1 290.00399999933336 172.99999800000018 Z" opacity="1" class="highcharts-point" tabindex="-1" style="outline: currentcolor none 0px;" role="img" aria-label="1. Integritas, 0. Capaian."></path><path fill="#0F0" d="M 290 173 A 4 4 0 1 1 290.00399999933336 172.99999800000018 Z" opacity="1" class="highcharts-point" tabindex="-1" style="outline: currentcolor none 0px;" role="img" aria-label="2. Kerjasama , 0. Capaian."></path><path fill="#0F0" d="M 290 173 A 4 4 0 1 1 290.00399999933336 172.99999800000018 Z" opacity="1" class="highcharts-point" tabindex="-1" style="outline: currentcolor none 0px;" role="img" aria-label="3. Komunikasi , 0. Capaian."></path><path fill="#0F0" d="M 290 173 A 4 4 0 1 1 290.00399999933336 172.99999800000018 Z" opacity="1" class="highcharts-point" tabindex="-1" style="outline: currentcolor none 0px;" role="img" aria-label="4. Orientasi pada Hasil , 0. Capaian."></path><path fill="#0F0" d="M 290 173 A 4 4 0 1 1 290.00399999933336 172.99999800000018 Z" opacity="1" class="highcharts-point" tabindex="-1" style="outline: currentcolor none 0px;" role="img" aria-label="5. Pelayanan Publik, 0. Capaian."></path><path fill="#0F0" d="M 290 173 A 4 4 0 1 1 290.00399999933336 172.99999800000018 Z" opacity="1" class="highcharts-point" tabindex="-1" style="outline: currentcolor none 0px;" role="img" aria-label="6. Pengembangan Diri dan Orang Lain    , 0. Capaian."></path><path fill="#0F0" d="M 290 173 A 4 4 0 1 1 290.00399999933336 172.99999800000018 Z" opacity="1" class="highcharts-point" tabindex="-1" style="outline: currentcolor none 0px;" role="img" aria-label="7. Mengelola Perubahan , 0. Capaian."></path><path fill="#0F0" d="M 290 173 A 4 4 0 1 1 290.00399999933336 172.99999800000018 Z" opacity="1" class="highcharts-point" tabindex="-1" style="outline: currentcolor none 0px;" role="img" aria-label="8. Pengambilan Keputusan, 0. Capaian."></path><path fill="#0F0" d="M 290 173 A 4 4 0 1 1 290.00399999933336 172.99999800000018 Z" opacity="1" class="highcharts-point" tabindex="-1" style="outline: currentcolor none 0px;" role="img" aria-label="9. Perekat Bangsa, 0. Capaian."></path></g><g class="highcharts-series highcharts-series-1 highcharts-line-series" data-z-index="0.1" opacity="1" transform="translate(10,10) scale(1 1)" clip-path="url(#highcharts-h9a2d0d-181)" aria-hidden="true"><path fill="none" d="M 290 80.275 L 347.0313306694381 101.03270678426858 L 377.3770678860087 153.5930654365048 L 366.8381039507741 213.36250000000035 L 320.3457372165722 252.37422777922887 L 259.65426278342665 252.37422777922848 L 213.16189604922528 213.36249999999927 L 202.6229321139915 153.59306543650357 L 232.96866933056486 101.03270678426611 L 290 80.275" class="highcharts-graph" data-z-index="1" stroke="#FF0000" stroke-width="2" stroke-linejoin="round" stroke-linecap="round"></path></g><g class="highcharts-markers highcharts-series-1 highcharts-line-series" data-z-index="0.1" opacity="1" transform="translate(10,10) scale(1 1)" clip-path="none" aria-hidden="false" role="region" tabindex="-1" style="outline: currentcolor none 0px;" aria-label="Nilai Standar, line 2 of 2 with 9 data points."><path fill="#FF0000" d="M 290 76 L 294 80 L 290 84 L 286 80 Z" opacity="1" class="highcharts-point" tabindex="-1" style="outline: currentcolor none 0px;" role="img" aria-label="1. Integritas, 3. Nilai Standar."></path><path fill="#FF0000" d="M 347 97 L 351 101 L 347 105 L 343 101 Z" opacity="1" class="highcharts-point" tabindex="-1" style="outline: currentcolor none 0px;" role="img" aria-label="2. Kerjasama , 3. Nilai Standar."></path><path fill="#FF0000" d="M 377 150 L 381 154 L 377 158 L 373 154 Z" opacity="1" class="highcharts-point" tabindex="-1" style="outline: currentcolor none 0px;" role="img" aria-label="3. Komunikasi , 3. Nilai Standar."></path><path fill="#FF0000" d="M 366 209 L 370 213 L 366 217 L 362 213 Z" opacity="1" class="highcharts-point" tabindex="-1" style="outline: currentcolor none 0px;" role="img" aria-label="4. Orientasi pada Hasil , 3. Nilai Standar."></path><path fill="#FF0000" d="M 320 248 L 324 252 L 320 256 L 316 252 Z" opacity="1" class="highcharts-point" tabindex="-1" style="outline: currentcolor none 0px;" role="img" aria-label="5. Pelayanan Publik, 3. Nilai Standar."></path><path fill="#FF0000" d="M 259 248 L 263 252 L 259 256 L 255 252 Z" opacity="1" class="highcharts-point" tabindex="-1" style="outline: currentcolor none 0px;" role="img" aria-label="6. Pengembangan Diri dan Orang Lain    , 3. Nilai Standar."></path><path fill="#FF0000" d="M 213 209 L 217 213 L 213 217 L 209 213 Z" opacity="1" class="highcharts-point" tabindex="-1" style="outline: currentcolor none 0px;" role="img" aria-label="7. Mengelola Perubahan , 3. Nilai Standar."></path><path fill="#FF0000" d="M 202 150 L 206 154 L 202 158 L 198 154 Z" opacity="1" class="highcharts-point" tabindex="-1" style="outline: currentcolor none 0px;" role="img" aria-label="8. Pengambilan Keputusan, 3. Nilai Standar."></path><path fill="#FF0000" d="M 232 97 L 236 101 L 232 105 L 228 101 Z" opacity="1" class="highcharts-point" tabindex="-1" style="outline: currentcolor none 0px;" role="img" aria-label="9. Perekat Bangsa, 3. Nilai Standar."></path></g></g><text x="220" text-anchor="middle" class="highcharts-title" data-z-index="4" style="color:#333333;font-size:18px;fill:#333333;" y="24" aria-hidden="true"></text><text x="300" text-anchor="middle" class="highcharts-subtitle" data-z-index="4" style="color:#666666;fill:#666666;" y="24" aria-hidden="true"></text><text x="10" text-anchor="start" class="highcharts-caption" data-z-index="4" style="color:#666666;fill:#666666;" y="397" aria-hidden="true"></text><g class="highcharts-data-labels highcharts-series-0 highcharts-line-series" data-z-index="6" opacity="1" transform="translate(10,10) scale(1 1)" aria-hidden="true"><g class="highcharts-label highcharts-data-label highcharts-data-label-color-undefined" data-z-index="1" transform="translate(282,146)"><text x="5" data-z-index="1" y="16" style="color:#000000;font-size:11px;font-weight:bold;fill:#000000;"><tspan x="5" y="16" class="highcharts-text-outline" fill="#FFFFFF" stroke="#FFFFFF" stroke-width="2px" stroke-linejoin="round" style="">0</tspan><tspan x="5" y="16">0</tspan></text></g><g class="highcharts-label highcharts-data-label highcharts-data-label-color-undefined highcharts-data-label-hidden" data-z-index="1" transform="translate(282,146)" opacity="0" style="pointer-events:none;"><text x="5" data-z-index="1" y="16" style="color:#000000;font-size:11px;font-weight:bold;fill:#000000;"><tspan x="5" y="16" class="highcharts-text-outline" fill="#FFFFFF" stroke="#FFFFFF" stroke-width="2px" stroke-linejoin="round">0</tspan><tspan x="5" y="16">0</tspan></text></g><g class="highcharts-label highcharts-data-label highcharts-data-label-color-undefined highcharts-data-label-hidden" data-z-index="1" transform="translate(282,146)" opacity="0" style="pointer-events:none;"><text x="5" data-z-index="1" y="16" style="color:#000000;font-size:11px;font-weight:bold;fill:#000000;"><tspan x="5" y="16" class="highcharts-text-outline" fill="#FFFFFF" stroke="#FFFFFF" stroke-width="2px" stroke-linejoin="round">0</tspan><tspan x="5" y="16">0</tspan></text></g><g class="highcharts-label highcharts-data-label highcharts-data-label-color-undefined highcharts-data-label-hidden" data-z-index="1" transform="translate(282,146)" opacity="0" style="pointer-events:none;"><text x="5" data-z-index="1" y="16" style="color:#000000;font-size:11px;font-weight:bold;fill:#000000;"><tspan x="5" y="16" class="highcharts-text-outline" fill="#FFFFFF" stroke="#FFFFFF" stroke-width="2px" stroke-linejoin="round">0</tspan><tspan x="5" y="16">0</tspan></text></g><g class="highcharts-label highcharts-data-label highcharts-data-label-color-undefined highcharts-data-label-hidden" data-z-index="1" transform="translate(282,146)" opacity="0" style="pointer-events:none;"><text x="5" data-z-index="1" y="16" style="color:#000000;font-size:11px;font-weight:bold;fill:#000000;"><tspan x="5" y="16" class="highcharts-text-outline" fill="#FFFFFF" stroke="#FFFFFF" stroke-width="2px" stroke-linejoin="round">0</tspan><tspan x="5" y="16">0</tspan></text></g><g class="highcharts-label highcharts-data-label highcharts-data-label-color-undefined highcharts-data-label-hidden" data-z-index="1" transform="translate(282,146)" opacity="0" style="pointer-events:none;"><text x="5" data-z-index="1" y="16" style="color:#000000;font-size:11px;font-weight:bold;fill:#000000;"><tspan x="5" y="16" class="highcharts-text-outline" fill="#FFFFFF" stroke="#FFFFFF" stroke-width="2px" stroke-linejoin="round">0</tspan><tspan x="5" y="16">0</tspan></text></g><g class="highcharts-label highcharts-data-label highcharts-data-label-color-undefined highcharts-data-label-hidden" data-z-index="1" transform="translate(282,146)" opacity="0" style="pointer-events:none;"><text x="5" data-z-index="1" y="16" style="color:#000000;font-size:11px;font-weight:bold;fill:#000000;"><tspan x="5" y="16" class="highcharts-text-outline" fill="#FFFFFF" stroke="#FFFFFF" stroke-width="2px" stroke-linejoin="round">0</tspan><tspan x="5" y="16">0</tspan></text></g><g class="highcharts-label highcharts-data-label highcharts-data-label-color-undefined highcharts-data-label-hidden" data-z-index="1" transform="translate(282,146)" opacity="0" style="pointer-events:none;"><text x="5" data-z-index="1" y="16" style="color:#000000;font-size:11px;font-weight:bold;fill:#000000;"><tspan x="5" y="16" class="highcharts-text-outline" fill="#FFFFFF" stroke="#FFFFFF" stroke-width="2px" stroke-linejoin="round">0</tspan><tspan x="5" y="16">0</tspan></text></g><g class="highcharts-label highcharts-data-label highcharts-data-label-color-undefined highcharts-data-label-hidden" data-z-index="1" transform="translate(282,146)" opacity="0" style="pointer-events:none;"><text x="5" data-z-index="1" y="16" style="color:#000000;font-size:11px;font-weight:bold;fill:#000000;"><tspan x="5" y="16" class="highcharts-text-outline" fill="#FFFFFF" stroke="#FFFFFF" stroke-width="2px" stroke-linejoin="round">0</tspan><tspan x="5" y="16">0</tspan></text></g></g><g class="highcharts-data-labels highcharts-series-1 highcharts-line-series" data-z-index="6" opacity="1" transform="translate(10,10) scale(1 1)" aria-hidden="true"><g class="highcharts-label highcharts-data-label highcharts-data-label-color-undefined" data-z-index="1" transform="translate(282,57)"><text x="5" data-z-index="1" y="16" style="color:#000000;font-size:11px;font-weight:bold;fill:#000000;"><tspan x="5" y="16" class="highcharts-text-outline" fill="#FFFFFF" stroke="#FFFFFF" stroke-width="2px" stroke-linejoin="round">3</tspan><tspan x="5" y="16">3</tspan></text></g><g class="highcharts-label highcharts-data-label highcharts-data-label-color-undefined" data-z-index="1" transform="translate(339,78)"><text x="5" data-z-index="1" y="16" style="color:#000000;font-size:11px;font-weight:bold;fill:#000000;"><tspan x="5" y="16" class="highcharts-text-outline" fill="#FFFFFF" stroke="#FFFFFF" stroke-width="2px" stroke-linejoin="round">3</tspan><tspan x="5" y="16">3</tspan></text></g><g class="highcharts-label highcharts-data-label highcharts-data-label-color-undefined" data-z-index="1" transform="translate(369,131)"><text x="5" data-z-index="1" y="16" style="color:#000000;font-size:11px;font-weight:bold;fill:#000000;"><tspan x="5" y="16" class="highcharts-text-outline" fill="#FFFFFF" stroke="#FFFFFF" stroke-width="2px" stroke-linejoin="round">3</tspan><tspan x="5" y="16">3</tspan></text></g><g class="highcharts-label highcharts-data-label highcharts-data-label-color-undefined" data-z-index="1" transform="translate(359,190)"><text x="5" data-z-index="1" y="16" style="color:#000000;font-size:11px;font-weight:bold;fill:#000000;"><tspan x="5" y="16" class="highcharts-text-outline" fill="#FFFFFF" stroke="#FFFFFF" stroke-width="2px" stroke-linejoin="round">3</tspan><tspan x="5" y="16">3</tspan></text></g><g class="highcharts-label highcharts-data-label highcharts-data-label-color-undefined" data-z-index="1" transform="translate(312,229)"><text x="5" data-z-index="1" y="16" style="color:#000000;font-size:11px;font-weight:bold;fill:#000000;"><tspan x="5" y="16" class="highcharts-text-outline" fill="#FFFFFF" stroke="#FFFFFF" stroke-width="2px" stroke-linejoin="round">3</tspan><tspan x="5" y="16">3</tspan></text></g><g class="highcharts-label highcharts-data-label highcharts-data-label-color-undefined" data-z-index="1" transform="translate(251,229)"><text x="5" data-z-index="1" y="16" style="color:#000000;font-size:11px;font-weight:bold;fill:#000000;"><tspan x="5" y="16" class="highcharts-text-outline" fill="#FFFFFF" stroke="#FFFFFF" stroke-width="2px" stroke-linejoin="round">3</tspan><tspan x="5" y="16">3</tspan></text></g><g class="highcharts-label highcharts-data-label highcharts-data-label-color-undefined" data-z-index="1" transform="translate(205,190)"><text x="5" data-z-index="1" y="16" style="color:#000000;font-size:11px;font-weight:bold;fill:#000000;"><tspan x="5" y="16" class="highcharts-text-outline" fill="#FFFFFF" stroke="#FFFFFF" stroke-width="2px" stroke-linejoin="round">3</tspan><tspan x="5" y="16">3</tspan></text></g><g class="highcharts-label highcharts-data-label highcharts-data-label-color-undefined" data-z-index="1" transform="translate(194,131)"><text x="5" data-z-index="1" y="16" style="color:#000000;font-size:11px;font-weight:bold;fill:#000000;"><tspan x="5" y="16" class="highcharts-text-outline" fill="#FFFFFF" stroke="#FFFFFF" stroke-width="2px" stroke-linejoin="round">3</tspan><tspan x="5" y="16">3</tspan></text></g><g class="highcharts-label highcharts-data-label highcharts-data-label-color-undefined" data-z-index="1" transform="translate(225,78)"><text x="5" data-z-index="1" y="16" style="color:#000000;font-size:11px;font-weight:bold;fill:#000000;"><tspan x="5" y="16" class="highcharts-text-outline" fill="#FFFFFF" stroke="#FFFFFF" stroke-width="2px" stroke-linejoin="round">3</tspan><tspan x="5" y="16">3</tspan></text></g></g><g class="highcharts-legend" data-z-index="7" transform="translate(205,360)" aria-hidden="true"><rect fill="none" class="highcharts-legend-box" rx="0" ry="0" x="0" y="0" width="190" height="25" visibility="visible"></rect><g data-z-index="1"><g><g class="highcharts-legend-item highcharts-line-series highcharts-color-undefined highcharts-series-0" data-z-index="1" transform="translate(8,3)"><path fill="none" d="M 0 11 L 16 11" class="highcharts-graph" stroke="#0F0" stroke-width="2"></path><path fill="#0F0" d="M 8 15 A 4 4 0 1 1 8.003999999333336 14.999998000000167 Z" class="highcharts-point" opacity="1"></path><text x="21" style="color:#333333;cursor:pointer;font-size:12px;font-weight:bold;fill:#333333;" text-anchor="start" data-z-index="2" y="15"><tspan>Capaian</tspan></text></g><g class="highcharts-legend-item highcharts-line-series highcharts-color-undefined highcharts-series-1" data-z-index="1" transform="translate(91.70000076293945,3)"><path fill="none" d="M 0 11 L 16 11" class="highcharts-graph" stroke="#FF0000" stroke-width="2"></path><path fill="#FF0000" d="M 8 7 L 12 11 L 8 15 L 4 11 Z" class="highcharts-point" opacity="1"></path><text x="21" y="15" style="color:#333333;cursor:pointer;font-size:12px;font-weight:bold;fill:#333333;" text-anchor="start" data-z-index="2"><tspan>Nilai Standar</tspan></text></g></g></g></g><g class="highcharts-axis-labels highcharts-xaxis-labels" data-z-index="7" aria-hidden="true"><text x="300" style="color:#666666;cursor:default;font-size:11px;fill:#666666;" transform="translate(0,0) rotate(1 300 49.636870307927325)" text-anchor="middle" y="49.636870307927325" opacity="1">Integritas</text><text x="385.6835883712157" style="color:#666666;cursor:default;font-size:11px;fill:#666666;" transform="translate(0,0) rotate(1 385.6835883712157 80.78853209629523)" text-anchor="start" y="80.78853209629523" opacity="1"><tspan>Kerjasama</tspan></text><text x="431.2748734765273" style="color:#666666;cursor:default;font-size:11px;fill:#666666;" transform="translate(0,0) rotate(1 431.2748734765273 159.70056094543781)" text-anchor="start" y="159.70056094543781" opacity="1"><tspan>Komunikasi</tspan></text><text x="415.44118632446566" style="color:#666666;cursor:default;font-size:11px;fill:#666666;" transform="translate(0,0) rotate(1 415.44118632446566 249.15870457892154)" text-anchor="start" y="249.15870457892154" opacity="1"><tspan>Orientasi pada Hasil</tspan></text><text x="345.59128510531167" style="color:#666666;cursor:default;font-size:11px;fill:#666666;" transform="translate(0,0) rotate(1 345.59128510531167 307.8932067185421)" text-anchor="middle" y="307.8932067185421" opacity="1"><tspan>Pelayanan Publik</tspan></text><text x="254.40871489468836" style="color:#666666;cursor:default;font-size:11px;fill:#666666;" transform="translate(0,0) rotate(1 254.40871489468836 307.146825474346)" text-anchor="end" y="307.146825474346" opacity="1"><tspan>Pengembangan Diri dan Orang Lain</tspan></text><text x="184.55881367553434" style="color:#666666;cursor:default;font-size:11px;fill:#666666;" transform="translate(0,0) rotate(1 184.55881367553434 249.0957304745887)" text-anchor="end" y="249.0957304745887" opacity="1"><tspan>Mengelola Perubahan</tspan></text><text x="168.72512652347265" style="color:#666666;cursor:default;font-size:11px;fill:#666666;" transform="translate(0,0) rotate(1 168.72512652347265 159.19545923355233)" text-anchor="end" y="159.19545923355233" opacity="1"><tspan>Pengambilan Keputusan</tspan></text><text x="214.3164116287843" style="color:#666666;cursor:default;font-size:11px;fill:#666666;" transform="translate(0,0) rotate(1 214.3164116287843 80.5914653513702)" text-anchor="end" y="80.5914653513702" opacity="1"><tspan>Perekat Bangsa</tspan></text><text x="0" style="color:#666666;cursor:default;font-size:11px;fill:#666666;" transform="translate(0,0) rotate(1 0 -9999)" text-anchor="middle" y="-9999">9</text></g><g class="highcharts-axis-labels highcharts-yaxis-labels" data-z-index="7" aria-hidden="true"></g></g></svg>