<svg height="400" width="600" version="1.1" xmlns="http://www.w3.org/2000/svg"><g transform="translate(0,0)"  xmlns:xlink="http://www.w3.org/1999/xlink" version="1.1" class="highcharts-root" style="font-family:&quot;Lucida Grande&quot;, &quot;Lucida Sans Unicode&quot;, Arial, Helvetica, sans-serif;font-size:12px;" xmlns="http://www.w3.org/2000/svg" width="600" height="400" viewBox="0 0 600 400" aria-hidden="false" aria-label="Interactive chart"><desc aria-hidden="true">Created with Highcharts 8.1.2</desc><defs aria-hidden="true"><clipPath id="highcharts-qnz25ww-176-"><rect x="0" y="0" width="580" height="336" fill="none"></rect></clipPath><clipPath id="highcharts-qnz25ww-187"><circle cx="290" cy="168" r="117.6"></circle></clipPath><clipPath id="highcharts-qnz25ww-198"><circle cx="290" cy="168" r="117.6"></circle></clipPath></defs><rect fill="#ffffff" class="highcharts-background" x="0" y="0" width="600" height="400" rx="0" ry="0" aria-hidden="true"></rect><rect fill="none" class="highcharts-plot-background" x="10" y="10" width="580" height="336" aria-hidden="true"></rect><g class="highcharts-pane-group" data-z-index="0" aria-hidden="true"></g><g class="highcharts-grid highcharts-xaxis-grid" data-z-index="1" aria-hidden="true"><path fill="none" stroke="#e6e6e6" stroke-width="1" data-z-index="1" class="highcharts-grid-line" d="M 300 178 L 300 60.400000000000006" opacity="1"></path><path fill="none" stroke="#e6e6e6" stroke-width="1" data-z-index="1" class="highcharts-grid-line" d="M 300 178 L 375.591822899137 87.91317348920819" opacity="1"></path><path fill="none" stroke="#e6e6e6" stroke-width="1" data-z-index="1" class="highcharts-grid-line" d="M 300 178 L 415.8133917542357 157.578974306369" opacity="1"></path><path fill="none" stroke="#e6e6e6" stroke-width="1" data-z-index="1" class="highcharts-grid-line" d="M 300 178 L 401.84458748505 236.79999999999998" opacity="1"></path><path fill="none" stroke="#e6e6e6" stroke-width="1" data-z-index="1" class="highcharts-grid-line" d="M 300 178 L 340.22156885509867 288.5078522044228" opacity="1"></path><path fill="none" stroke="#e6e6e6" stroke-width="1" data-z-index="1" class="highcharts-grid-line" d="M 300 178 L 259.77843114490133 288.5078522044228" opacity="1"></path><path fill="none" stroke="#e6e6e6" stroke-width="1" data-z-index="1" class="highcharts-grid-line" d="M 300 178 L 198.15541251495006 236.80000000000004" opacity="1"></path><path fill="none" stroke="#e6e6e6" stroke-width="1" data-z-index="1" class="highcharts-grid-line" d="M 300 178 L 184.18660824576432 157.57897430636902" opacity="1"></path><path fill="none" stroke="#e6e6e6" stroke-width="1" data-z-index="1" class="highcharts-grid-line" d="M 300 178 L 224.40817710086296 87.9131734892082" opacity="1"></path><path fill="none" stroke="#e6e6e6" stroke-width="1" data-z-index="1" class="highcharts-grid-line" d="M 300 178 L 300 60.400000000000006" opacity="1"></path></g><g class="highcharts-grid highcharts-yaxis-grid" data-z-index="1" aria-hidden="true"><path fill="none" stroke="#e6e6e6" stroke-width="1" data-z-index="1" class="highcharts-grid-line" d="M 300 178 L 300 178 L 300 178 L 300 178 L 300 178 L 300 178 L 300 178 L 300 178 L 300 178 L 300 178 L 300 178" opacity="1"></path><path fill="none" stroke="#e6e6e6" stroke-width="1" data-z-index="1" class="highcharts-grid-line" d="M 300 119.2 L 337.7959114495685 132.9565867446041 L 357.90669587711784 167.7894871531845 L 350.92229374252497 207.39999999999998 L 320.11078442754933 233.2539261022114 L 279.88921557245067 233.2539261022114 L 249.07770625747503 207.40000000000003 L 242.09330412288216 167.78948715318452 L 262.2040885504315 132.9565867446041 L 300 119.2 L 300 119.2" opacity="1"></path><path fill="none" stroke="#e6e6e6" stroke-width="1" data-z-index="1" class="highcharts-grid-line" d="M 300 60.400000000000006 L 375.591822899137 87.91317348920819 L 415.8133917542357 157.578974306369 L 401.84458748505 236.79999999999998 L 340.22156885509867 288.5078522044228 L 259.77843114490133 288.5078522044228 L 198.15541251495006 236.80000000000004 L 184.18660824576432 157.57897430636902 L 224.40817710086296 87.9131734892082 L 300 60.400000000000006 L 300 60.400000000000006" opacity="1"></path></g><rect fill="none" class="highcharts-plot-border" data-z-index="1" x="10" y="10" width="580" height="336" aria-hidden="true"></rect><g class="highcharts-axis highcharts-xaxis" data-z-index="2" aria-hidden="true"><path fill="none" class="highcharts-axis-line" data-z-index="7" d="M 300 60.400000000000006 A 117.6 117.6 0 1 1 299.8824000195999 60.40005879999511 M 300 178 A 0 0 0 1 0 300 178"></path></g><g class="highcharts-axis highcharts-yaxis" data-z-index="2" aria-hidden="true"><path fill="none" class="highcharts-axis-line" data-z-index="7" d="M 300 178 L 300 60.400000000000006"></path></g><g class="highcharts-series-group" data-z-index="3" aria-hidden="false"><g class="highcharts-series highcharts-series-0 highcharts-line-series" data-z-index="0.1" opacity="1" transform="translate(10,10) scale(1 1)" clip-path="url(#highcharts-qnz25ww-187)" aria-hidden="true"><path fill="none" d="M 290 109.2 L 327.79591144956845 122.95658674460404 L 333.43002190783864 160.34211536488996 L 328.1917203068936 190.05000000000018 L 310.1107844275508 223.25392610221087 L 269.8892155724484 223.25392610221058 L 251.80827969310604 190.04999999999964 L 232.09330412288193 157.7894871531858 L 261.6530664128251 134.21744005845179 L 290 109.2" class="highcharts-graph" data-z-index="1" stroke="#0F0" stroke-width="2" stroke-linejoin="round" stroke-linecap="round"></path></g><g class="highcharts-markers highcharts-series-0 highcharts-line-series" data-z-index="0.1" opacity="1" transform="translate(10,10) scale(1 1)" clip-path="none" aria-hidden="false" role="region" tabindex="-1" aria-label="Capaian, line 1 of 2 with 9 data points." style="outline: 0px;"><path fill="#0F0" d="M 290 113 A 4 4 0 1 1 290.00399999933336 112.99999800000016 Z" opacity="1" class="highcharts-point" tabindex="-1" role="img" aria-label="1. Integritas, 1. Capaian." style="outline: 0px;"></path><path fill="#0F0" d="M 327 127 A 4 4 0 1 1 327.00399999933336 126.99999800000016 Z" opacity="1" class="highcharts-point" tabindex="-1" role="img" aria-label="2. Kerjasama , 1. Capaian." style="outline: 0px;"></path><path fill="#0F0" d="M 333 164 A 4 4 0 1 1 333.00399999933336 163.99999800000018 Z" opacity="1" class="highcharts-point" tabindex="-1" role="img" aria-label="3. Komunikasi , 0.75. Capaian." style="outline: 0px;"></path><path fill="#0F0" d="M 328 194 A 4 4 0 1 1 328.00399999933336 193.99999800000018 Z" opacity="1" class="highcharts-point" tabindex="-1" role="img" aria-label="4. Orientasi pada Hasil , 0.75. Capaian." style="outline: 0px;"></path><path fill="#0F0" d="M 310 227 A 4 4 0 1 1 310.00399999933336 226.99999800000018 Z" opacity="1" class="highcharts-point" tabindex="-1" role="img" aria-label="5. Pelayanan Publik, 1. Capaian." style="outline: 0px;"></path><path fill="#0F0" d="M 269 227 A 4 4 0 1 1 269.00399999933336 226.99999800000018 Z" opacity="1" class="highcharts-point" tabindex="-1" role="img" aria-label="6. Pengembangan Diri dan Orang Lain    , 1. Capaian." style="outline: 0px;"></path><path fill="#0F0" d="M 251 194 A 4 4 0 1 1 251.00399999933333 193.99999800000018 Z" opacity="1" class="highcharts-point" tabindex="-1" role="img" aria-label="7. Mengelola Perubahan , 0.75. Capaian." style="outline: 0px;"></path><path fill="#0F0" d="M 232 162 A 4 4 0 1 1 232.00399999933333 161.99999800000018 Z" opacity="1" class="highcharts-point" tabindex="-1" role="img" aria-label="8. Pengambilan Keputusan, 1. Capaian." style="outline: 0px;"></path><path fill="#0F0" d="M 261 138 A 4 4 0 1 1 261.00399999933336 137.99999800000018 Z" opacity="1" class="highcharts-point" tabindex="-1" role="img" aria-label="9. Perekat Bangsa, 0.75. Capaian." style="outline: 0px;"></path></g><g class="highcharts-series highcharts-series-1 highcharts-line-series" data-z-index="0.1" opacity="1" transform="translate(10,10) scale(1 1)" clip-path="url(#highcharts-qnz25ww-198)" aria-hidden="true"><path fill="none" d="M 290 109.2 L 327.79591144956845 122.95658674460404 L 347.9066958771182 157.7894871531866 L 340.92229374252486 197.40000000000023 L 310.1107844275508 223.25392610221087 L 269.8892155724484 223.25392610221058 L 239.07770625747474 197.39999999999952 L 232.09330412288193 157.7894871531858 L 252.20408855043354 122.95658674460239 L 290 109.2" class="highcharts-graph" data-z-index="1" stroke="#FF0000" stroke-width="2" stroke-linejoin="round" stroke-linecap="round"></path></g><g class="highcharts-markers highcharts-series-1 highcharts-line-series" data-z-index="0.1" opacity="1" transform="translate(10,10) scale(1 1)" clip-path="none" aria-hidden="false" role="region" tabindex="-1" aria-label="Nilai Standar, line 2 of 2 with 9 data points." style="outline: 0px;"><path fill="#FF0000" d="M 290 105 L 294 109 L 290 113 L 286 109 Z" opacity="1" class="highcharts-point" tabindex="-1" role="img" aria-label="1. Integritas, 1. Nilai Standar." style="outline: 0px;"></path><path fill="#FF0000" d="M 327 119 L 331 123 L 327 127 L 323 123 Z" opacity="1" class="highcharts-point" tabindex="-1" role="img" aria-label="2. Kerjasama , 1. Nilai Standar." style="outline: 0px;"></path><path fill="#FF0000" d="M 347 154 L 351 158 L 347 162 L 343 158 Z" opacity="1" class="highcharts-point" tabindex="-1" role="img" aria-label="3. Komunikasi , 1. Nilai Standar." style="outline: 0px;"></path><path fill="#FF0000" d="M 340 193 L 344 197 L 340 201 L 336 197 Z" opacity="1" class="highcharts-point" tabindex="-1" role="img" aria-label="4. Orientasi pada Hasil , 1. Nilai Standar." style="outline: 0px;"></path><path fill="#FF0000" d="M 310 219 L 314 223 L 310 227 L 306 223 Z" opacity="1" class="highcharts-point" tabindex="-1" role="img" aria-label="5. Pelayanan Publik, 1. Nilai Standar." style="outline: 0px;"></path><path fill="#FF0000" d="M 269 219 L 273 223 L 269 227 L 265 223 Z" opacity="1" class="highcharts-point" tabindex="-1" role="img" aria-label="6. Pengembangan Diri dan Orang Lain    , 1. Nilai Standar." style="outline: 0px;"></path><path fill="#FF0000" d="M 239 193 L 243 197 L 239 201 L 235 197 Z" opacity="1" class="highcharts-point" tabindex="-1" role="img" aria-label="7. Mengelola Perubahan , 1. Nilai Standar." style="outline: 0px;"></path><path fill="#FF0000" d="M 232 154 L 236 158 L 232 162 L 228 158 Z" opacity="1" class="highcharts-point" tabindex="-1" role="img" aria-label="8. Pengambilan Keputusan, 1. Nilai Standar." style="outline: 0px;"></path><path fill="#FF0000" d="M 252 119 L 256 123 L 252 127 L 248 123 Z" opacity="1" class="highcharts-point" tabindex="-1" role="img" aria-label="9. Perekat Bangsa, 1. Nilai Standar." style="outline: 0px;"></path></g></g><text x="220" text-anchor="middle" class="highcharts-title" data-z-index="4" style="color:#333333;font-size:18px;fill:#333333;" y="24" aria-hidden="true"></text><text x="300" text-anchor="middle" class="highcharts-subtitle" data-z-index="4" style="color:#666666;fill:#666666;" y="25" aria-hidden="true"></text><text x="10" text-anchor="start" class="highcharts-caption" data-z-index="4" style="color:#666666;fill:#666666;" y="398" aria-hidden="true"></text><g class="highcharts-data-labels highcharts-series-0 highcharts-line-series" data-z-index="6" opacity="1" transform="translate(10,10) scale(1 1)" aria-hidden="true"><g class="highcharts-label highcharts-data-label highcharts-data-label-color-undefined" data-z-index="1" transform="translate(281,83)"><text x="5" data-z-index="1" y="16" style="color:#000000;font-size:11px;font-weight:bold;fill:#000000;"><tspan x="5" y="16" class="highcharts-text-outline" fill="#FFFFFF" stroke="#FFFFFF" stroke-width="2px" stroke-linejoin="round" style="">1</tspan><tspan x="5" y="16">1</tspan></text></g><g class="highcharts-label highcharts-data-label highcharts-data-label-color-undefined" data-z-index="1" transform="translate(318,97)"><text x="5" data-z-index="1" y="16" style="color:#000000;font-size:11px;font-weight:bold;fill:#000000;"><tspan x="5" y="16" class="highcharts-text-outline" fill="#FFFFFF" stroke="#FFFFFF" stroke-width="2px" stroke-linejoin="round">1</tspan><tspan x="5" y="16">1</tspan></text></g><g class="highcharts-label highcharts-data-label highcharts-data-label-color-undefined" data-z-index="1" transform="translate(313,134)"><text x="5" data-z-index="1" y="16" style="color:#000000;font-size:11px;font-weight:bold;fill:#000000;"><tspan x="5" y="16" class="highcharts-text-outline" fill="#FFFFFF" stroke="#FFFFFF" stroke-width="2px" stroke-linejoin="round" style="">0.75</tspan><tspan x="5" y="16">0.75</tspan></text></g><g class="highcharts-label highcharts-data-label highcharts-data-label-color-undefined" data-z-index="1" transform="translate(308,164)"><text x="5" data-z-index="1" y="16" style="color:#000000;font-size:11px;font-weight:bold;fill:#000000;"><tspan x="5" y="16" class="highcharts-text-outline" fill="#FFFFFF" stroke="#FFFFFF" stroke-width="2px" stroke-linejoin="round">0.75</tspan><tspan x="5" y="16">0.75</tspan></text></g><g class="highcharts-label highcharts-data-label highcharts-data-label-color-undefined" data-z-index="1" transform="translate(301,197)"><text x="5" data-z-index="1" y="16" style="color:#000000;font-size:11px;font-weight:bold;fill:#000000;"><tspan x="5" y="16" class="highcharts-text-outline" fill="#FFFFFF" stroke="#FFFFFF" stroke-width="2px" stroke-linejoin="round">1</tspan><tspan x="5" y="16">1</tspan></text></g><g class="highcharts-label highcharts-data-label highcharts-data-label-color-undefined" data-z-index="1" transform="translate(260,197)"><text x="5" data-z-index="1" y="16" style="color:#000000;font-size:11px;font-weight:bold;fill:#000000;"><tspan x="5" y="16" class="highcharts-text-outline" fill="#FFFFFF" stroke="#FFFFFF" stroke-width="2px" stroke-linejoin="round">1</tspan><tspan x="5" y="16">1</tspan></text></g><g class="highcharts-label highcharts-data-label highcharts-data-label-color-undefined" data-z-index="1" transform="translate(232,164)"><text x="5" data-z-index="1" y="16" style="color:#000000;font-size:11px;font-weight:bold;fill:#000000;"><tspan x="5" y="16" class="highcharts-text-outline" fill="#FFFFFF" stroke="#FFFFFF" stroke-width="2px" stroke-linejoin="round">0.75</tspan><tspan x="5" y="16">0.75</tspan></text></g><g class="highcharts-label highcharts-data-label highcharts-data-label-color-undefined" data-z-index="1" transform="translate(223,132)"><text x="5" data-z-index="1" y="16" style="color:#000000;font-size:11px;font-weight:bold;fill:#000000;"><tspan x="5" y="16" class="highcharts-text-outline" fill="#FFFFFF" stroke="#FFFFFF" stroke-width="2px" stroke-linejoin="round">1</tspan><tspan x="5" y="16">1</tspan></text></g><g class="highcharts-label highcharts-data-label highcharts-data-label-color-undefined" data-z-index="1" transform="translate(242,108)"><text x="5" data-z-index="1" y="16" style="color:#000000;font-size:11px;font-weight:bold;fill:#000000;"><tspan x="5" y="16" class="highcharts-text-outline" fill="#FFFFFF" stroke="#FFFFFF" stroke-width="2px" stroke-linejoin="round">0.75</tspan><tspan x="5" y="16">0.75</tspan></text></g></g><g class="highcharts-data-labels highcharts-series-1 highcharts-line-series" data-z-index="6" opacity="1" transform="translate(10,10) scale(1 1)" aria-hidden="true"><g class="highcharts-label highcharts-data-label highcharts-data-label-color-undefined highcharts-data-label-hidden" data-z-index="1" transform="translate(281,83)" opacity="0" style="pointer-events:none;"><text x="5" data-z-index="1" y="16" style="color:#000000;font-size:11px;font-weight:bold;fill:#000000;"><tspan x="5" y="16" class="highcharts-text-outline" fill="#FFFFFF" stroke="#FFFFFF" stroke-width="2px" stroke-linejoin="round">1</tspan><tspan x="5" y="16">1</tspan></text></g><g class="highcharts-label highcharts-data-label highcharts-data-label-color-undefined highcharts-data-label-hidden" data-z-index="1" transform="translate(318,97)" opacity="0" style="pointer-events:none;"><text x="5" data-z-index="1" y="16" style="color:#000000;font-size:11px;font-weight:bold;fill:#000000;"><tspan x="5" y="16" class="highcharts-text-outline" fill="#FFFFFF" stroke="#FFFFFF" stroke-width="2px" stroke-linejoin="round">1</tspan><tspan x="5" y="16">1</tspan></text></g><g class="highcharts-label highcharts-data-label highcharts-data-label-color-undefined highcharts-data-label-hidden" data-z-index="1" transform="translate(338,132)" opacity="0" style="pointer-events:none;"><text x="5" data-z-index="1" y="16" style="color:#000000;font-size:11px;font-weight:bold;fill:#000000;"><tspan x="5" y="16" class="highcharts-text-outline" fill="#FFFFFF" stroke="#FFFFFF" stroke-width="2px" stroke-linejoin="round">1</tspan><tspan x="5" y="16">1</tspan></text></g><g class="highcharts-label highcharts-data-label highcharts-data-label-color-undefined highcharts-data-label-hidden" data-z-index="1" transform="translate(331,171)" opacity="0" style="pointer-events:none;"><text x="5" data-z-index="1" y="16" style="color:#000000;font-size:11px;font-weight:bold;fill:#000000;"><tspan x="5" y="16" class="highcharts-text-outline" fill="#FFFFFF" stroke="#FFFFFF" stroke-width="2px" stroke-linejoin="round">1</tspan><tspan x="5" y="16">1</tspan></text></g><g class="highcharts-label highcharts-data-label highcharts-data-label-color-undefined highcharts-data-label-hidden" data-z-index="1" transform="translate(301,197)" opacity="0" style="pointer-events:none;"><text x="5" data-z-index="1" y="16" style="color:#000000;font-size:11px;font-weight:bold;fill:#000000;"><tspan x="5" y="16" class="highcharts-text-outline" fill="#FFFFFF" stroke="#FFFFFF" stroke-width="2px" stroke-linejoin="round">1</tspan><tspan x="5" y="16">1</tspan></text></g><g class="highcharts-label highcharts-data-label highcharts-data-label-color-undefined highcharts-data-label-hidden" data-z-index="1" transform="translate(260,197)" opacity="0" style="pointer-events:none;"><text x="5" data-z-index="1" y="16" style="color:#000000;font-size:11px;font-weight:bold;fill:#000000;"><tspan x="5" y="16" class="highcharts-text-outline" fill="#FFFFFF" stroke="#FFFFFF" stroke-width="2px" stroke-linejoin="round">1</tspan><tspan x="5" y="16">1</tspan></text></g><g class="highcharts-label highcharts-data-label highcharts-data-label-color-undefined highcharts-data-label-hidden" data-z-index="1" transform="translate(230,171)" opacity="0" style="pointer-events:none;"><text x="5" data-z-index="1" y="16" style="color:#000000;font-size:11px;font-weight:bold;fill:#000000;"><tspan x="5" y="16" class="highcharts-text-outline" fill="#FFFFFF" stroke="#FFFFFF" stroke-width="2px" stroke-linejoin="round">1</tspan><tspan x="5" y="16">1</tspan></text></g><g class="highcharts-label highcharts-data-label highcharts-data-label-color-undefined highcharts-data-label-hidden" data-z-index="1" transform="translate(223,132)" opacity="0" style="pointer-events:none;"><text x="5" data-z-index="1" y="16" style="color:#000000;font-size:11px;font-weight:bold;fill:#000000;"><tspan x="5" y="16" class="highcharts-text-outline" fill="#FFFFFF" stroke="#FFFFFF" stroke-width="2px" stroke-linejoin="round">1</tspan><tspan x="5" y="16">1</tspan></text></g><g class="highcharts-label highcharts-data-label highcharts-data-label-color-undefined highcharts-data-label-hidden" data-z-index="1" transform="translate(243,97)" opacity="0" style="pointer-events:none;"><text x="5" data-z-index="1" y="16" style="color:#000000;font-size:11px;font-weight:bold;fill:#000000;"><tspan x="5" y="16" class="highcharts-text-outline" fill="#FFFFFF" stroke="#FFFFFF" stroke-width="2px" stroke-linejoin="round">1</tspan><tspan x="5" y="16">1</tspan></text></g></g><g class="highcharts-legend" data-z-index="7" transform="translate(190,358)" aria-hidden="true"><rect fill="none" class="highcharts-legend-box" rx="0" ry="0" x="0" y="0" width="219" height="27" visibility="visible"></rect><g data-z-index="1"><g><g class="highcharts-legend-item highcharts-line-series highcharts-color-undefined highcharts-series-0" data-z-index="1" transform="translate(8,3)"><path fill="none" d="M 0 11 L 16 11" class="highcharts-graph" stroke="#0F0" stroke-width="2"></path><path fill="#0F0" d="M 8 15 A 4 4 0 1 1 8.003999999333336 14.999998000000167 Z" class="highcharts-point" opacity="1"></path><text x="21" style="color:#333333;cursor:pointer;font-size:12px;font-weight:bold;fill:#333333;" text-anchor="start" data-z-index="2" y="15"><tspan>Capaian</tspan></text></g><g class="highcharts-legend-item highcharts-line-series highcharts-color-undefined highcharts-series-1" data-z-index="1" transform="translate(103.11153411865234,3)"><path fill="none" d="M 0 11 L 16 11" class="highcharts-graph" stroke="#FF0000" stroke-width="2"></path><path fill="#FF0000" d="M 8 7 L 12 11 L 8 15 L 4 11 Z" class="highcharts-point" opacity="1"></path><text x="21" y="15" style="color:#333333;cursor:pointer;font-size:12px;font-weight:bold;fill:#333333;" text-anchor="start" data-z-index="2"><tspan>Nilai Standar</tspan></text></g></g></g></g><g class="highcharts-axis-labels highcharts-xaxis-labels" data-z-index="7" aria-hidden="true"><text x="300" style="color:#666666;cursor:default;font-size:11px;fill:#666666;" transform="translate(0,0) rotate(1 300 49.32248523054458)" text-anchor="middle" y="49.32248523054458" opacity="1">Integritas</text><text x="385.2336370444351" style="color:#666666;cursor:default;font-size:11px;fill:#666666;" transform="translate(0,0) rotate(1 385.2336370444351 79.1123422972252)" text-anchor="start" y="79.1123422972252" opacity="1"><tspan>Kerjasama</tspan></text><text x="430.58550804941876" style="color:#666666;cursor:default;font-size:11px;fill:#666666;" transform="translate(0,0) rotate(1 430.58550804941876 157.61569119443385)" text-anchor="start" y="157.61569119443385" opacity="1"><tspan>Komunikasi</tspan></text><text x="414.8349685418166" style="color:#666666;cursor:default;font-size:11px;fill:#666666;" transform="translate(0,0) rotate(1 414.8349685418166 246.49794374939228)" text-anchor="start" y="246.49794374939228" opacity="1"><tspan>Orientasi pada Hasil</tspan></text><text x="345.3518710049837" style="color:#666666;cursor:default;font-size:11px;fill:#666666;" transform="translate(0,0) rotate(1 345.3518710049837 304.9592592864823)" text-anchor="start" y="304.9592592864823" opacity="1"><tspan>Pelayanan Publik</tspan></text><text x="254.64812899501632" style="color:#666666;cursor:default;font-size:11px;fill:#666666;" transform="translate(0,0) rotate(1 254.64812899501632 297.82427534517177)" text-anchor="end" y="297.82427534517177" opacity="1"><tspan>Pengembangan Diri</tspan><tspan dy="14" x="254.64812899501632">dan Orang Lain</tspan></text><text x="185.16503145818348" style="color:#666666;cursor:default;font-size:11px;fill:#666666;" transform="translate(0,0) rotate(1 185.16503145818348 246.42044749915428)" text-anchor="end" y="246.42044749915428" opacity="1"><tspan>Mengelola Perubahan</tspan></text><text x="169.4144919505812" style="color:#666666;cursor:default;font-size:11px;fill:#666666;" transform="translate(0,0) rotate(1 169.4144919505812 150.54198540942164)" text-anchor="end" y="150.54198540942164" opacity="1"><tspan>Pengambilan</tspan><tspan dy="14" x="169.4144919505812">Keputusan</tspan></text><text x="214.7663629555649" style="color:#666666;cursor:default;font-size:11px;fill:#666666;" transform="translate(0,0) rotate(1 214.7663629555649 78.85449508225186)" text-anchor="end" y="78.85449508225186" opacity="1"><tspan>Perekat Bangsa</tspan></text><text x="0" style="color:#666666;cursor:default;font-size:11px;fill:#666666;" transform="translate(0,0) rotate(1 0 -9999)" text-anchor="middle" y="-9999">9</text></g><g class="highcharts-axis-labels highcharts-yaxis-labels" data-z-index="7" aria-hidden="true"></g></g></svg>