<svg height="400" width="600" version="1.1" xmlns="http://www.w3.org/2000/svg"><g transform="translate(0,0)"  xmlns:xlink="http://www.w3.org/1999/xlink" version="1.1" class="highcharts-root" style="font-family:&quot;Lucida Grande&quot;, &quot;Lucida Sans Unicode&quot;, Arial, Helvetica, sans-serif;font-size:12px;" xmlns="http://www.w3.org/2000/svg" width="600" height="400" viewBox="0 0 600 400" aria-hidden="false" aria-label="Interactive chart"><desc aria-hidden="true">Created with Highcharts 8.1.2</desc><defs aria-hidden="true"><clipPath id="highcharts-5y3t92i-100-"><rect x="0" y="0" width="580" height="335" fill="none"></rect></clipPath><clipPath id="highcharts-5y3t92i-111"><circle cx="290" cy="167.5" r="117.25"></circle></clipPath><clipPath id="highcharts-5y3t92i-122"><circle cx="290" cy="167.5" r="117.25"></circle></clipPath></defs><rect fill="#ffffff" class="highcharts-background" x="0" y="0" width="600" height="400" rx="0" ry="0" aria-hidden="true"></rect><rect fill="none" class="highcharts-plot-background" x="10" y="10" width="580" height="335" aria-hidden="true"></rect><g class="highcharts-pane-group" data-z-index="0" aria-hidden="true"></g><g class="highcharts-grid highcharts-xaxis-grid" data-z-index="1" aria-hidden="true"><path fill="none" stroke="#e6e6e6" stroke-width="1" data-z-index="1" class="highcharts-grid-line" d="M 300 177.5 L 300 60.25" opacity="1"></path><path fill="none" stroke="#e6e6e6" stroke-width="1" data-z-index="1" class="highcharts-grid-line" d="M 300 177.5 L 375.3668472357467 87.68128904429983" opacity="1"></path><path fill="none" stroke="#e6e6e6" stroke-width="1" data-z-index="1" class="highcharts-grid-line" d="M 300 177.5 L 415.4687090406814 157.1397511685524" opacity="1"></path><path fill="none" stroke="#e6e6e6" stroke-width="1" data-z-index="1" class="highcharts-grid-line" d="M 300 177.5 L 401.54147859372546 236.12499999999997" opacity="1"></path><path fill="none" stroke="#e6e6e6" stroke-width="1" data-z-index="1" class="highcharts-grid-line" d="M 300 177.5 L 340.1018618049347 287.67895978714773" opacity="1"></path><path fill="none" stroke="#e6e6e6" stroke-width="1" data-z-index="1" class="highcharts-grid-line" d="M 300 177.5 L 259.89813819506537 287.67895978714773" opacity="1"></path><path fill="none" stroke="#e6e6e6" stroke-width="1" data-z-index="1" class="highcharts-grid-line" d="M 300 177.5 L 198.4585214062746 236.12500000000003" opacity="1"></path><path fill="none" stroke="#e6e6e6" stroke-width="1" data-z-index="1" class="highcharts-grid-line" d="M 300 177.5 L 184.5312909593186 157.13975116855246" opacity="1"></path><path fill="none" stroke="#e6e6e6" stroke-width="1" data-z-index="1" class="highcharts-grid-line" d="M 300 177.5 L 224.63315276425325 87.68128904429985" opacity="1"></path><path fill="none" stroke="#e6e6e6" stroke-width="1" data-z-index="1" class="highcharts-grid-line" d="M 300 177.5 L 300 60.25" opacity="1"></path></g><g class="highcharts-grid highcharts-yaxis-grid" data-z-index="1" aria-hidden="true"><path fill="none" stroke="#e6e6e6" stroke-width="1" data-z-index="1" class="highcharts-grid-line" d="M 300 177.5 L 300 177.5 L 300 177.5 L 300 177.5 L 300 177.5 L 300 177.5 L 300 177.5 L 300 177.5 L 300 177.5 L 300 177.5 L 300 177.5" opacity="1"></path><path fill="none" stroke="#e6e6e6" stroke-width="1" data-z-index="1" class="highcharts-grid-line" d="M 300 118.875 L 337.68342361787336 132.59064452214992 L 357.7343545203407 167.31987558427622 L 350.7707392968627 206.8125 L 320.0509309024673 232.58947989357387 L 279.9490690975327 232.58947989357387 L 249.2292607031373 206.81250000000003 L 242.2656454796593 167.31987558427622 L 262.31657638212664 132.59064452214992 L 300 118.875 L 300 118.875" opacity="1"></path><path fill="none" stroke="#e6e6e6" stroke-width="1" data-z-index="1" class="highcharts-grid-line" d="M 300 60.25 L 375.3668472357467 87.68128904429983 L 415.4687090406814 157.1397511685524 L 401.54147859372546 236.12499999999997 L 340.1018618049347 287.67895978714773 L 259.89813819506537 287.67895978714773 L 198.4585214062746 236.12500000000003 L 184.5312909593186 157.13975116855246 L 224.63315276425325 87.68128904429985 L 300 60.25 L 300 60.25" opacity="1"></path></g><rect fill="none" class="highcharts-plot-border" data-z-index="1" x="10" y="10" width="580" height="335" aria-hidden="true"></rect><g class="highcharts-axis highcharts-xaxis" data-z-index="2" aria-hidden="true"><path fill="none" class="highcharts-axis-line" data-z-index="7" d="M 300 60.25 A 117.25 117.25 0 1 1 299.8827500195416 60.25005862499512 M 300 177.5 A 0 0 0 1 0 300 177.5"></path></g><g class="highcharts-axis highcharts-yaxis" data-z-index="2" aria-hidden="true"><path fill="none" class="highcharts-axis-line" data-z-index="7" d="M 300 177.5 L 300 60.25"></path></g><g class="highcharts-series-group" data-z-index="3" aria-hidden="false"><g class="highcharts-series highcharts-series-0 highcharts-line-series" data-z-index="0.1" opacity="1" transform="translate(10,10) scale(1 1)" clip-path="url(#highcharts-5y3t92i-111)" aria-hidden="true"><path fill="none" d="M 290 108.875 L 327.6834236178733 122.59064452214986 L 347.73435452034107 157.31987558427832 L 340.7707392968626 196.81250000000023 L 305.0381981768516 208.81710992018 L 269.9490690975304 222.58947989357307 L 251.92194552735276 189.48437499999966 L 232.26564547965907 157.3198755842775 L 252.31657638212863 122.59064452214821 L 290 108.875" class="highcharts-graph" data-z-index="1" stroke="#0F0" stroke-width="2" stroke-linejoin="round" stroke-linecap="round"></path></g><g class="highcharts-markers highcharts-series-0 highcharts-line-series" data-z-index="0.1" opacity="1" transform="translate(10,10) scale(1 1)" clip-path="none" aria-hidden="false" role="region" tabindex="-1" aria-label="Capaian, line 1 of 2 with 9 data points." style="outline: 0px;"><path fill="#0F0" d="M 290 113 A 4 4 0 1 1 290.00399999933336 112.99999800000016 Z" opacity="1" class="highcharts-point" tabindex="-1" role="img" aria-label="1. Integritas, 1. Capaian." style="outline: 0px;"></path><path fill="#0F0" d="M 327 127 A 4 4 0 1 1 327.00399999933336 126.99999800000016 Z" opacity="1" class="highcharts-point" tabindex="-1" role="img" aria-label="2. Kerjasama , 1. Capaian." style="outline: 0px;"></path><path fill="#0F0" d="M 347 161 A 4 4 0 1 1 347.00399999933336 160.99999800000018 Z" opacity="1" class="highcharts-point" tabindex="-1" role="img" aria-label="3. Komunikasi , 1. Capaian." style="outline: 0px;"></path><path fill="#0F0" d="M 340 201 A 4 4 0 1 1 340.00399999933336 200.99999800000018 Z" opacity="1" class="highcharts-point" tabindex="-1" role="img" aria-label="4. Pelayanan Publik, 1. Capaian." style="outline: 0px;"></path><path fill="#0F0" d="M 305 213 A 4 4 0 1 1 305.00399999933336 212.99999800000018 Z" opacity="1" class="highcharts-point" tabindex="-1" role="img" aria-label="5. Mengelola Perubahan , 0.75. Capaian." style="outline: 0px;"></path><path fill="#0F0" d="M 269 227 A 4 4 0 1 1 269.00399999933336 226.99999800000018 Z" opacity="1" class="highcharts-point" tabindex="-1" role="img" aria-label="6. Pengembangan Diri dan Orang Lain    , 1. Capaian." style="outline: 0px;"></path><path fill="#0F0" d="M 251 193 A 4 4 0 1 1 251.00399999933333 192.99999800000018 Z" opacity="1" class="highcharts-point" tabindex="-1" role="img" aria-label="7. Orientasi pada Hasil , 0.75. Capaian." style="outline: 0px;"></path><path fill="#0F0" d="M 232 161 A 4 4 0 1 1 232.00399999933333 160.99999800000018 Z" opacity="1" class="highcharts-point" tabindex="-1" role="img" aria-label="8. Pengambilan Keputusan, 1. Capaian." style="outline: 0px;"></path><path fill="#0F0" d="M 252 127 A 4 4 0 1 1 252.00399999933333 126.99999800000016 Z" opacity="1" class="highcharts-point" tabindex="-1" role="img" aria-label="9. Perekat Bangsa, 1. Capaian." style="outline: 0px;"></path></g><g class="highcharts-series highcharts-series-1 highcharts-line-series" data-z-index="0.1" opacity="1" transform="translate(10,10) scale(1 1)" clip-path="url(#highcharts-5y3t92i-122)" aria-hidden="true"><path fill="none" d="M 290 108.875 L 327.6834236178733 122.59064452214986 L 347.73435452034107 157.31987558427832 L 340.7707392968626 196.81250000000023 L 310.05093090246885 222.58947989357333 L 269.9490690975304 222.58947989357307 L 239.22926070313702 196.81249999999952 L 232.26564547965907 157.3198755842775 L 252.31657638212863 122.59064452214821 L 290 108.875" class="highcharts-graph" data-z-index="1" stroke="#FF0000" stroke-width="2" stroke-linejoin="round" stroke-linecap="round"></path></g><g class="highcharts-markers highcharts-series-1 highcharts-line-series" data-z-index="0.1" opacity="1" transform="translate(10,10) scale(1 1)" clip-path="none" aria-hidden="false" role="region" tabindex="-1" aria-label="Nilai Standar, line 2 of 2 with 9 data points." style="outline: 0px;"><path fill="#FF0000" d="M 290 105 L 294 109 L 290 113 L 286 109 Z" opacity="1" class="highcharts-point" tabindex="-1" role="img" aria-label="1. Integritas, 1. Nilai Standar." style="outline: 0px;"></path><path fill="#FF0000" d="M 327 119 L 331 123 L 327 127 L 323 123 Z" opacity="1" class="highcharts-point" tabindex="-1" role="img" aria-label="2. Kerjasama , 1. Nilai Standar." style="outline: 0px;"></path><path fill="#FF0000" d="M 347 153 L 351 157 L 347 161 L 343 157 Z" opacity="1" class="highcharts-point" tabindex="-1" role="img" aria-label="3. Komunikasi , 1. Nilai Standar." style="outline: 0px;"></path><path fill="#FF0000" d="M 340 193 L 344 197 L 340 201 L 336 197 Z" opacity="1" class="highcharts-point" tabindex="-1" role="img" aria-label="4. Pelayanan Publik, 1. Nilai Standar." style="outline: 0px;"></path><path fill="#FF0000" d="M 310 219 L 314 223 L 310 227 L 306 223 Z" opacity="1" class="highcharts-point" tabindex="-1" role="img" aria-label="5. Mengelola Perubahan , 1. Nilai Standar." style="outline: 0px;"></path><path fill="#FF0000" d="M 269 219 L 273 223 L 269 227 L 265 223 Z" opacity="1" class="highcharts-point" tabindex="-1" role="img" aria-label="6. Pengembangan Diri dan Orang Lain    , 1. Nilai Standar." style="outline: 0px;"></path><path fill="#FF0000" d="M 239 193 L 243 197 L 239 201 L 235 197 Z" opacity="1" class="highcharts-point" tabindex="-1" role="img" aria-label="7. Orientasi pada Hasil , 1. Nilai Standar." style="outline: 0px;"></path><path fill="#FF0000" d="M 232 153 L 236 157 L 232 161 L 228 157 Z" opacity="1" class="highcharts-point" tabindex="-1" role="img" aria-label="8. Pengambilan Keputusan, 1. Nilai Standar." style="outline: 0px;"></path><path fill="#FF0000" d="M 252 119 L 256 123 L 252 127 L 248 123 Z" opacity="1" class="highcharts-point" tabindex="-1" role="img" aria-label="9. Perekat Bangsa, 1. Nilai Standar." style="outline: 0px;"></path></g></g><text x="220" text-anchor="middle" class="highcharts-title" data-z-index="4" style="color:#333333;font-size:18px;fill:#333333;" y="24" aria-hidden="true"></text><text x="300" text-anchor="middle" class="highcharts-subtitle" data-z-index="4" style="color:#666666;fill:#666666;" y="25" aria-hidden="true"></text><text x="10" text-anchor="start" class="highcharts-caption" data-z-index="4" style="color:#666666;fill:#666666;" y="398" aria-hidden="true"></text><g class="highcharts-data-labels highcharts-series-0 highcharts-line-series" data-z-index="6" opacity="1" transform="translate(10,10) scale(1 1)" aria-hidden="true"><g class="highcharts-label highcharts-data-label highcharts-data-label-color-undefined" data-z-index="1" transform="translate(281,85)"><text x="5" data-z-index="1" y="16" style="color:#000000;font-size:11px;font-weight:bold;fill:#000000;"><tspan x="5" y="16" class="highcharts-text-outline" fill="#FFFFFF" stroke="#FFFFFF" stroke-width="2px" stroke-linejoin="round" style="">1</tspan><tspan x="5" y="16">1</tspan></text></g><g class="highcharts-label highcharts-data-label highcharts-data-label-color-undefined" data-z-index="1" transform="translate(318,99)"><text x="5" data-z-index="1" y="16" style="color:#000000;font-size:11px;font-weight:bold;fill:#000000;"><tspan x="5" y="16" class="highcharts-text-outline" fill="#FFFFFF" stroke="#FFFFFF" stroke-width="2px" stroke-linejoin="round">1</tspan><tspan x="5" y="16">1</tspan></text></g><g class="highcharts-label highcharts-data-label highcharts-data-label-color-undefined" data-z-index="1" transform="translate(338,133)"><text x="5" data-z-index="1" y="16" style="color:#000000;font-size:11px;font-weight:bold;fill:#000000;"><tspan x="5" y="16" class="highcharts-text-outline" fill="#FFFFFF" stroke="#FFFFFF" stroke-width="2px" stroke-linejoin="round">1</tspan><tspan x="5" y="16">1</tspan></text></g><g class="highcharts-label highcharts-data-label highcharts-data-label-color-undefined" data-z-index="1" transform="translate(332,173)"><text x="5" data-z-index="1" y="16" style="color:#000000;font-size:11px;font-weight:bold;fill:#000000;"><tspan x="5" y="16" class="highcharts-text-outline" fill="#FFFFFF" stroke="#FFFFFF" stroke-width="2px" stroke-linejoin="round">1</tspan><tspan x="5" y="16">1</tspan></text></g><g class="highcharts-label highcharts-data-label highcharts-data-label-color-undefined" data-z-index="1" transform="translate(285,185)"><text x="5" data-z-index="1" y="16" style="color:#000000;font-size:11px;font-weight:bold;fill:#000000;"><tspan x="5" y="16" class="highcharts-text-outline" fill="#FFFFFF" stroke="#FFFFFF" stroke-width="2px" stroke-linejoin="round" style="">0.75</tspan><tspan x="5" y="16">0.75</tspan></text></g><g class="highcharts-label highcharts-data-label highcharts-data-label-color-undefined" data-z-index="1" transform="translate(261,199)"><text x="5" data-z-index="1" y="16" style="color:#000000;font-size:11px;font-weight:bold;fill:#000000;"><tspan x="5" y="16" class="highcharts-text-outline" fill="#FFFFFF" stroke="#FFFFFF" stroke-width="2px" stroke-linejoin="round">1</tspan><tspan x="5" y="16">1</tspan></text></g><g class="highcharts-label highcharts-data-label highcharts-data-label-color-undefined" data-z-index="1" transform="translate(232,165)"><text x="5" data-z-index="1" y="16" style="color:#000000;font-size:11px;font-weight:bold;fill:#000000;"><tspan x="5" y="16" class="highcharts-text-outline" fill="#FFFFFF" stroke="#FFFFFF" stroke-width="2px" stroke-linejoin="round">0.75</tspan><tspan x="5" y="16">0.75</tspan></text></g><g class="highcharts-label highcharts-data-label highcharts-data-label-color-undefined" data-z-index="1" transform="translate(223,133)"><text x="5" data-z-index="1" y="16" style="color:#000000;font-size:11px;font-weight:bold;fill:#000000;"><tspan x="5" y="16" class="highcharts-text-outline" fill="#FFFFFF" stroke="#FFFFFF" stroke-width="2px" stroke-linejoin="round">1</tspan><tspan x="5" y="16">1</tspan></text></g><g class="highcharts-label highcharts-data-label highcharts-data-label-color-undefined" data-z-index="1" transform="translate(243,99)"><text x="5" data-z-index="1" y="16" style="color:#000000;font-size:11px;font-weight:bold;fill:#000000;"><tspan x="5" y="16" class="highcharts-text-outline" fill="#FFFFFF" stroke="#FFFFFF" stroke-width="2px" stroke-linejoin="round">1</tspan><tspan x="5" y="16">1</tspan></text></g></g><g class="highcharts-data-labels highcharts-series-1 highcharts-line-series" data-z-index="6" opacity="1" transform="translate(10,10) scale(1 1)" aria-hidden="true"><g class="highcharts-label highcharts-data-label highcharts-data-label-color-undefined highcharts-data-label-hidden" data-z-index="1" transform="translate(281,85)" opacity="0" style="pointer-events:none;"><text x="5" data-z-index="1" y="16" style="color:#000000;font-size:11px;font-weight:bold;fill:#000000;"><tspan x="5" y="16" class="highcharts-text-outline" fill="#FFFFFF" stroke="#FFFFFF" stroke-width="2px" stroke-linejoin="round">1</tspan><tspan x="5" y="16">1</tspan></text></g><g class="highcharts-label highcharts-data-label highcharts-data-label-color-undefined highcharts-data-label-hidden" data-z-index="1" transform="translate(318,99)" opacity="0" style="pointer-events:none;"><text x="5" data-z-index="1" y="16" style="color:#000000;font-size:11px;font-weight:bold;fill:#000000;"><tspan x="5" y="16" class="highcharts-text-outline" fill="#FFFFFF" stroke="#FFFFFF" stroke-width="2px" stroke-linejoin="round">1</tspan><tspan x="5" y="16">1</tspan></text></g><g class="highcharts-label highcharts-data-label highcharts-data-label-color-undefined highcharts-data-label-hidden" data-z-index="1" transform="translate(338,133)" opacity="0" style="pointer-events:none;"><text x="5" data-z-index="1" y="16" style="color:#000000;font-size:11px;font-weight:bold;fill:#000000;"><tspan x="5" y="16" class="highcharts-text-outline" fill="#FFFFFF" stroke="#FFFFFF" stroke-width="2px" stroke-linejoin="round">1</tspan><tspan x="5" y="16">1</tspan></text></g><g class="highcharts-label highcharts-data-label highcharts-data-label-color-undefined highcharts-data-label-hidden" data-z-index="1" transform="translate(332,173)" opacity="0" style="pointer-events:none;"><text x="5" data-z-index="1" y="16" style="color:#000000;font-size:11px;font-weight:bold;fill:#000000;"><tspan x="5" y="16" class="highcharts-text-outline" fill="#FFFFFF" stroke="#FFFFFF" stroke-width="2px" stroke-linejoin="round">1</tspan><tspan x="5" y="16">1</tspan></text></g><g class="highcharts-label highcharts-data-label highcharts-data-label-color-undefined highcharts-data-label-hidden" data-z-index="1" transform="translate(301,199)" opacity="0" style="pointer-events:none;"><text x="5" data-z-index="1" y="16" style="color:#000000;font-size:11px;font-weight:bold;fill:#000000;"><tspan x="5" y="16" class="highcharts-text-outline" fill="#FFFFFF" stroke="#FFFFFF" stroke-width="2px" stroke-linejoin="round">1</tspan><tspan x="5" y="16">1</tspan></text></g><g class="highcharts-label highcharts-data-label highcharts-data-label-color-undefined highcharts-data-label-hidden" data-z-index="1" transform="translate(261,199)" opacity="0" style="pointer-events:none;"><text x="5" data-z-index="1" y="16" style="color:#000000;font-size:11px;font-weight:bold;fill:#000000;"><tspan x="5" y="16" class="highcharts-text-outline" fill="#FFFFFF" stroke="#FFFFFF" stroke-width="2px" stroke-linejoin="round">1</tspan><tspan x="5" y="16">1</tspan></text></g><g class="highcharts-label highcharts-data-label highcharts-data-label-color-undefined highcharts-data-label-hidden" data-z-index="1" transform="translate(230,173)" opacity="0" style="pointer-events:none;"><text x="5" data-z-index="1" y="16" style="color:#000000;font-size:11px;font-weight:bold;fill:#000000;"><tspan x="5" y="16" class="highcharts-text-outline" fill="#FFFFFF" stroke="#FFFFFF" stroke-width="2px" stroke-linejoin="round">1</tspan><tspan x="5" y="16">1</tspan></text></g><g class="highcharts-label highcharts-data-label highcharts-data-label-color-undefined highcharts-data-label-hidden" data-z-index="1" transform="translate(223,133)" opacity="0" style="pointer-events:none;"><text x="5" data-z-index="1" y="16" style="color:#000000;font-size:11px;font-weight:bold;fill:#000000;"><tspan x="5" y="16" class="highcharts-text-outline" fill="#FFFFFF" stroke="#FFFFFF" stroke-width="2px" stroke-linejoin="round">1</tspan><tspan x="5" y="16">1</tspan></text></g><g class="highcharts-label highcharts-data-label highcharts-data-label-color-undefined highcharts-data-label-hidden" data-z-index="1" transform="translate(243,99)" opacity="0" style="pointer-events:none;"><text x="5" data-z-index="1" y="16" style="color:#000000;font-size:11px;font-weight:bold;fill:#000000;"><tspan x="5" y="16" class="highcharts-text-outline" fill="#FFFFFF" stroke="#FFFFFF" stroke-width="2px" stroke-linejoin="round">1</tspan><tspan x="5" y="16">1</tspan></text></g></g><g class="highcharts-legend" data-z-index="7" transform="translate(190,357)" aria-hidden="true"><rect fill="none" class="highcharts-legend-box" rx="0" ry="0" x="0" y="0" width="219" height="28" visibility="visible"></rect><g data-z-index="1"><g><g class="highcharts-legend-item highcharts-line-series highcharts-color-undefined highcharts-series-0" data-z-index="1" transform="translate(8,3)"><path fill="none" d="M 0 11 L 16 11" class="highcharts-graph" stroke="#0F0" stroke-width="2"></path><path fill="#0F0" d="M 8 15 A 4 4 0 1 1 8.003999999333336 14.999998000000167 Z" class="highcharts-point" opacity="1"></path><text x="21" style="color:#333333;cursor:pointer;font-size:12px;font-weight:bold;fill:#333333;" text-anchor="start" data-z-index="2" y="15"><tspan>Capaian</tspan></text></g><g class="highcharts-legend-item highcharts-line-series highcharts-color-undefined highcharts-series-1" data-z-index="1" transform="translate(102.75977325439453,3)"><path fill="none" d="M 0 11 L 16 11" class="highcharts-graph" stroke="#FF0000" stroke-width="2"></path><path fill="#FF0000" d="M 8 7 L 12 11 L 8 15 L 4 11 Z" class="highcharts-point" opacity="1"></path><text x="21" y="15" style="color:#333333;cursor:pointer;font-size:12px;font-weight:bold;fill:#333333;" text-anchor="start" data-z-index="2"><tspan>Nilai Standar</tspan></text></g></g></g></g><g class="highcharts-axis-labels highcharts-xaxis-labels" data-z-index="7" aria-hidden="true"><text x="300" style="color:#666666;cursor:default;font-size:11px;fill:#666666;" transform="translate(0,0) rotate(1 300 49.07099653782653)" text-anchor="middle" y="49.07099653782653" opacity="1">Integritas</text><text x="385.0086613810448" style="color:#666666;cursor:default;font-size:11px;fill:#666666;" transform="translate(0,0) rotate(1 385.0086613810448 79.65553330798244)" text-anchor="start" y="79.65553330798244" opacity="1"><tspan>Kerjasama</tspan></text><text x="430.24082533586454" style="color:#666666;cursor:default;font-size:11px;fill:#666666;" transform="translate(0,0) rotate(1 430.24082533586454 157.95591683325404)" text-anchor="start" y="157.95591683325404" opacity="1"><tspan>Komunikasi</tspan></text><text x="414.53185965049204" style="color:#666666;cursor:default;font-size:11px;fill:#666666;" transform="translate(0,0) rotate(1 414.53185965049204 246.75378747826204)" text-anchor="start" y="246.75378747826204" opacity="1"><tspan>Pelayanan Publik</tspan></text><text x="345.2321639548197" style="color:#666666;cursor:default;font-size:11px;fill:#666666;" transform="translate(0,0) rotate(1 345.2321639548197 304.67540791867725)" text-anchor="start" y="304.67540791867725" opacity="1"><tspan>Mengelola Perubahan</tspan></text><text x="254.7678360451803" style="color:#666666;cursor:default;font-size:11px;fill:#666666;" transform="translate(0,0) rotate(1 254.7678360451803 296.44168053527153)" text-anchor="end" y="296.44168053527153" opacity="1"><tspan>Pengembangan Diri</tspan><tspan dy="14" x="254.7678360451803">dan Orang Lain</tspan></text><text x="185.46814034950802" style="color:#666666;cursor:default;font-size:11px;fill:#666666;" transform="translate(0,0) rotate(1 185.46814034950802 246.60236949085524)" text-anchor="end" y="246.60236949085524" opacity="1"><tspan>Orientasi pada Hasil</tspan></text><text x="169.7591746641355" style="color:#666666;cursor:default;font-size:11px;fill:#666666;" transform="translate(0,0) rotate(1 169.7591746641355 149.55027568344752)" text-anchor="end" y="149.55027568344752" opacity="1"><tspan>Pengambilan</tspan><tspan dy="14" x="169.7591746641355">Keputusan</tspan></text><text x="214.99133861895515" style="color:#666666;cursor:default;font-size:11px;fill:#666666;" transform="translate(0,0) rotate(1 214.99133861895515 79.39769884224552)" text-anchor="end" y="79.39769884224552" opacity="1"><tspan>Perekat Bangsa</tspan></text><text x="0" style="color:#666666;cursor:default;font-size:11px;fill:#666666;" transform="translate(0,0) rotate(1 0 -9999)" text-anchor="middle" y="-9999">9</text></g><g class="highcharts-axis-labels highcharts-yaxis-labels" data-z-index="7" aria-hidden="true"></g></g></svg>