<svg height="400" width="600" version="1.1" xmlns="http://www.w3.org/2000/svg"><g transform="translate(0,0)"  xmlns:xlink="http://www.w3.org/1999/xlink" version="1.1" class="highcharts-root" style="font-family:&quot;Lucida Grande&quot;, &quot;Lucida Sans Unicode&quot;, Arial, Helvetica, sans-serif;font-size:12px;" xmlns="http://www.w3.org/2000/svg" width="600" height="400" viewBox="0 0 600 400" aria-hidden="false" aria-label="Interactive chart"><desc aria-hidden="true">Created with Highcharts 8.1.2</desc><defs aria-hidden="true"><clipPath id="highcharts-c245n1w-112-"><rect x="0" y="0" width="580" height="338" fill="none"></rect></clipPath><clipPath id="highcharts-c245n1w-129"><circle cx="290" cy="169" r="118.3"></circle></clipPath><clipPath id="highcharts-c245n1w-146"><circle cx="290" cy="169" r="118.3"></circle></clipPath></defs><rect fill="#ffffff" class="highcharts-background" x="0" y="0" width="600" height="400" rx="0" ry="0" aria-hidden="true"></rect><rect fill="none" class="highcharts-plot-background" x="10" y="10" width="580" height="338" aria-hidden="true"></rect><g class="highcharts-pane-group" data-z-index="0" aria-hidden="true"></g><g class="highcharts-grid highcharts-xaxis-grid" data-z-index="1" aria-hidden="true"><path fill="none" stroke="#e6e6e6" stroke-width="1" data-z-index="1" class="highcharts-grid-line" d="M 300 179 L 300 60.7" opacity="1"></path><path fill="none" stroke="#e6e6e6" stroke-width="1" data-z-index="1" class="highcharts-grid-line" d="M 300 179 L 348.11694487586715 70.92757236088032" opacity="1"></path><path fill="none" stroke="#e6e6e6" stroke-width="1" data-z-index="1" class="highcharts-grid-line" d="M 300 179 L 387.91403285397575 99.84184926774708" opacity="1"></path><path fill="none" stroke="#e6e6e6" stroke-width="1" data-z-index="1" class="highcharts-grid-line" d="M 300 179 L 412.50998587771664 142.44328956544373" opacity="1"></path><path fill="none" stroke="#e6e6e6" stroke-width="1" data-z-index="1" class="highcharts-grid-line" d="M 300 179 L 417.65194022206674 191.3657172045634" opacity="1"></path><path fill="none" stroke="#e6e6e6" stroke-width="1" data-z-index="1" class="highcharts-grid-line" d="M 300 179 L 402.4508052676991 238.14999999999998" opacity="1"></path><path fill="none" stroke="#e6e6e6" stroke-width="1" data-z-index="1" class="highcharts-grid-line" d="M 300 179 L 369.5349953461996 274.70671043455627" opacity="1"></path><path fill="none" stroke="#e6e6e6" stroke-width="1" data-z-index="1" class="highcharts-grid-line" d="M 300 179 L 324.59595302374095 294.7148611668092" opacity="1"></path><path fill="none" stroke="#e6e6e6" stroke-width="1" data-z-index="1" class="highcharts-grid-line" d="M 300 179 L 275.4040469762591 294.7148611668092" opacity="1"></path><path fill="none" stroke="#e6e6e6" stroke-width="1" data-z-index="1" class="highcharts-grid-line" d="M 300 179 L 230.46500465380046 274.70671043455627" opacity="1"></path><path fill="none" stroke="#e6e6e6" stroke-width="1" data-z-index="1" class="highcharts-grid-line" d="M 300 179 L 197.54919473230092 238.15000000000003" opacity="1"></path><path fill="none" stroke="#e6e6e6" stroke-width="1" data-z-index="1" class="highcharts-grid-line" d="M 300 179 L 182.34805977793326 191.36571720456348" opacity="1"></path><path fill="none" stroke="#e6e6e6" stroke-width="1" data-z-index="1" class="highcharts-grid-line" d="M 300 179 L 187.49001412228333 142.44328956544373" opacity="1"></path><path fill="none" stroke="#e6e6e6" stroke-width="1" data-z-index="1" class="highcharts-grid-line" d="M 300 179 L 212.08596714602425 99.84184926774711" opacity="1"></path><path fill="none" stroke="#e6e6e6" stroke-width="1" data-z-index="1" class="highcharts-grid-line" d="M 300 179 L 251.88305512413274 70.92757236088036" opacity="1"></path><path fill="none" stroke="#e6e6e6" stroke-width="1" data-z-index="1" class="highcharts-grid-line" d="M 300 179 L 300 60.7" opacity="1"></path></g><g class="highcharts-grid highcharts-yaxis-grid" data-z-index="1" aria-hidden="true"><path fill="none" stroke="#e6e6e6" stroke-width="1" data-z-index="1" class="highcharts-grid-line" d="M 300 179 L 300 179 L 300 179 L 300 179 L 300 179 L 300 179 L 300 179 L 300 179 L 300 179 L 300 179 L 300 179 L 300 179 L 300 179 L 300 179 L 300 179 L 300 179 L 300 179" opacity="1"></path><path fill="none" stroke="#e6e6e6" stroke-width="1" data-z-index="1" class="highcharts-grid-line" d="M 300 119.85 L 324.0584724379336 124.96378618044017 L 343.9570164269879 139.42092463387354 L 356.2549929388583 160.72164478272185 L 358.82597011103337 185.1828586022817 L 351.22540263384957 208.575 L 334.7674976730998 226.85335521727814 L 312.2979765118705 236.8574305834046 L 287.70202348812956 236.8574305834046 L 265.2325023269002 226.85335521727814 L 248.77459736615046 208.57500000000002 L 241.17402988896663 185.18285860228175 L 243.74500706114168 160.72164478272185 L 256.0429835730121 139.42092463387354 L 275.94152756206637 124.96378618044018 L 300 119.85 L 300 119.85" opacity="1"></path><path fill="none" stroke="#e6e6e6" stroke-width="1" data-z-index="1" class="highcharts-grid-line" d="M 300 60.7 L 348.11694487586715 70.92757236088032 L 387.91403285397575 99.84184926774708 L 412.50998587771664 142.44328956544373 L 417.65194022206674 191.3657172045634 L 402.4508052676991 238.14999999999998 L 369.5349953461996 274.70671043455627 L 324.59595302374095 294.7148611668092 L 275.4040469762591 294.7148611668092 L 230.46500465380046 274.70671043455627 L 197.54919473230092 238.15000000000003 L 182.34805977793326 191.36571720456348 L 187.49001412228333 142.44328956544373 L 212.08596714602425 99.84184926774711 L 251.88305512413274 70.92757236088036 L 300 60.7 L 300 60.7" opacity="1"></path></g><rect fill="none" class="highcharts-plot-border" data-z-index="1" x="10" y="10" width="580" height="338" aria-hidden="true"></rect><g class="highcharts-axis highcharts-xaxis" data-z-index="2" aria-hidden="true"><path fill="none" class="highcharts-axis-line" data-z-index="7" d="M 300 60.7 A 118.3 118.3 0 1 1 299.8817000197166 60.70005914999507 M 300 179 A 0 0 0 1 0 300 179"></path></g><g class="highcharts-axis highcharts-yaxis" data-z-index="2" aria-hidden="true"><path fill="none" class="highcharts-axis-line" data-z-index="7" d="M 300 179 L 300 60.7"></path></g><g class="highcharts-series-group" data-z-index="3" aria-hidden="false"><g class="highcharts-series highcharts-series-0 highcharts-line-series" data-z-index="0.1" opacity="1" transform="translate(10,10) scale(1 1)" clip-path="url(#highcharts-c245n1w-129)" aria-hidden="true"><path fill="none" d="M 290 169 L 290 169 L 290 169 L 290 169 L 290 169 L 290 169 L 290 169 L 290 169 L 290 169 L 290 169 L 290 169 L 290 169 L 290 169 L 290 169 L 290 169 L 290 169" class="highcharts-graph" data-z-index="1" stroke="#0F0" stroke-width="2" stroke-linejoin="round" stroke-linecap="round"></path></g><g class="highcharts-markers highcharts-series-0 highcharts-line-series" data-z-index="0.1" opacity="1" transform="translate(10,10) scale(1 1)" clip-path="none" aria-hidden="false" role="region" tabindex="-1" style="outline: currentcolor none 0px;" aria-label="Capaian, line 1 of 2 with 15 data points."><path fill="#0F0" d="M 290 173 A 4 4 0 1 1 290.00399999933336 172.99999800000018 Z" opacity="1" class="highcharts-point" tabindex="-1" style="outline: currentcolor none 0px;" role="img" aria-label="1. Perekat Bangsa, 0. Capaian."></path><path fill="#0F0" d="M 290 173 A 4 4 0 1 1 290.00399999933336 172.99999800000018 Z" opacity="1" class="highcharts-point" tabindex="-1" style="outline: currentcolor none 0px;" role="img" aria-label="2. Pengambilan Keputusan, 0. Capaian."></path><path fill="#0F0" d="M 290 173 A 4 4 0 1 1 290.00399999933336 172.99999800000018 Z" opacity="1" class="highcharts-point" tabindex="-1" style="outline: currentcolor none 0px;" role="img" aria-label="3. Pelaporan, 0. Capaian."></path><path fill="#0F0" d="M 290 173 A 4 4 0 1 1 290.00399999933336 172.99999800000018 Z" opacity="1" class="highcharts-point" tabindex="-1" style="outline: currentcolor none 0px;" role="img" aria-label="4. Administrasi, 0. Capaian."></path><path fill="#0F0" d="M 290 173 A 4 4 0 1 1 290.00399999933336 172.99999800000018 Z" opacity="1" class="highcharts-point" tabindex="-1" style="outline: currentcolor none 0px;" role="img" aria-label="5. Manajemen Aset, 0. Capaian."></path><path fill="#0F0" d="M 290 173 A 4 4 0 1 1 290.00399999933336 172.99999800000018 Z" opacity="1" class="highcharts-point" tabindex="-1" style="outline: currentcolor none 0px;" role="img" aria-label="6. Administrasi Kepegawaian, 0. Capaian."></path><path fill="#0F0" d="M 290 173 A 4 4 0 1 1 290.00399999933336 172.99999800000018 Z" opacity="1" class="highcharts-point" tabindex="-1" style="outline: currentcolor none 0px;" role="img" aria-label="7. Kamus Kompetensi Digital, 0. Capaian."></path><path fill="#0F0" d="M 290 173 A 4 4 0 1 1 290.00399999933336 172.99999800000018 Z" opacity="1" class="highcharts-point" tabindex="-1" style="outline: currentcolor none 0px;" role="img" aria-label="8. Kamus Sad Kerti, 0. Capaian."></path><path fill="#0F0" d="M 290 173 A 4 4 0 1 1 290.00399999933336 172.99999800000018 Z" opacity="1" class="highcharts-point" tabindex="-1" style="outline: currentcolor none 0px;" role="img" aria-label="9. Integritas, 0. Capaian."></path><path fill="#0F0" d="M 290 173 A 4 4 0 1 1 290.00399999933336 172.99999800000018 Z" opacity="1" class="highcharts-point" tabindex="-1" style="outline: currentcolor none 0px;" role="img" aria-label="10. Kerjasama , 0. Capaian."></path><path fill="#0F0" d="M 290 173 A 4 4 0 1 1 290.00399999933336 172.99999800000018 Z" opacity="1" class="highcharts-point" tabindex="-1" style="outline: currentcolor none 0px;" role="img" aria-label="11. Komunikasi , 0. Capaian."></path><path fill="#0F0" d="M 290 173 A 4 4 0 1 1 290.00399999933336 172.99999800000018 Z" opacity="1" class="highcharts-point" tabindex="-1" style="outline: currentcolor none 0px;" role="img" aria-label="12. Orientasi pada Hasil , 0. Capaian."></path><path fill="#0F0" d="M 290 173 A 4 4 0 1 1 290.00399999933336 172.99999800000018 Z" opacity="1" class="highcharts-point" tabindex="-1" style="outline: currentcolor none 0px;" role="img" aria-label="13. Pelayanan Publik, 0. Capaian."></path><path fill="#0F0" d="M 290 173 A 4 4 0 1 1 290.00399999933336 172.99999800000018 Z" opacity="1" class="highcharts-point" tabindex="-1" style="outline: currentcolor none 0px;" role="img" aria-label="14. Pengembangan Diri dan Orang Lain    , 0. Capaian."></path><path fill="#0F0" d="M 290 173 A 4 4 0 1 1 290.00399999933336 172.99999800000018 Z" opacity="1" class="highcharts-point" tabindex="-1" style="outline: currentcolor none 0px;" role="img" aria-label="15. Mengelola Perubahan , 0. Capaian."></path></g><g class="highcharts-series highcharts-series-1 highcharts-line-series" data-z-index="0.1" opacity="1" transform="translate(10,10) scale(1 1)" clip-path="url(#highcharts-c245n1w-146)" aria-hidden="true"><path fill="none" d="M 290 80.275 L 326.0877086569005 87.94567927066028 L 355.9355246404819 109.63138695081044 L 374.38248940828703 141.58246717408133 L 378.23895516654966 178.2742879034264 L 366.8381039507741 213.36250000000035 L 342.1512465096522 240.78003282591538 L 308.4469647678034 255.78614587510737 L 271.5530352321954 255.78614587510714 L 237.84875349034687 240.7800328259147 L 213.16189604922528 213.36249999999927 L 201.76104483345023 178.2742879034252 L 205.61751059171337 141.5824671740802 L 224.0644753595177 109.63138695081088 L 253.91229134309583 87.94567927066194 L 290 80.275" class="highcharts-graph" data-z-index="1" stroke="#FF0000" stroke-width="2" stroke-linejoin="round" stroke-linecap="round"></path></g><g class="highcharts-markers highcharts-series-1 highcharts-line-series" data-z-index="0.1" opacity="1" transform="translate(10,10) scale(1 1)" clip-path="none" aria-hidden="false" role="region" tabindex="-1" style="outline: currentcolor none 0px;" aria-label="Nilai Standar, line 2 of 2 with 15 data points."><path fill="#FF0000" d="M 290 76 L 294 80 L 290 84 L 286 80 Z" opacity="1" class="highcharts-point" tabindex="-1" style="outline: currentcolor none 0px;" role="img" aria-label="1. Perekat Bangsa, 3. Nilai Standar."></path><path fill="#FF0000" d="M 326 84 L 330 88 L 326 92 L 322 88 Z" opacity="1" class="highcharts-point" tabindex="-1" style="outline: currentcolor none 0px;" role="img" aria-label="2. Pengambilan Keputusan, 3. Nilai Standar."></path><path fill="#FF0000" d="M 355 106 L 359 110 L 355 114 L 351 110 Z" opacity="1" class="highcharts-point" tabindex="-1" style="outline: currentcolor none 0px;" role="img" aria-label="3. Pelaporan, 3. Nilai Standar."></path><path fill="#FF0000" d="M 374 138 L 378 142 L 374 146 L 370 142 Z" opacity="1" class="highcharts-point" tabindex="-1" style="outline: currentcolor none 0px;" role="img" aria-label="4. Administrasi, 3. Nilai Standar."></path><path fill="#FF0000" d="M 378 174 L 382 178 L 378 182 L 374 178 Z" opacity="1" class="highcharts-point" tabindex="-1" style="outline: currentcolor none 0px;" role="img" aria-label="5. Manajemen Aset, 3. Nilai Standar."></path><path fill="#FF0000" d="M 366 209 L 370 213 L 366 217 L 362 213 Z" opacity="1" class="highcharts-point" tabindex="-1" style="outline: currentcolor none 0px;" role="img" aria-label="6. Administrasi Kepegawaian, 3. Nilai Standar."></path><path fill="#FF0000" d="M 342 237 L 346 241 L 342 245 L 338 241 Z" opacity="1" class="highcharts-point" tabindex="-1" style="outline: currentcolor none 0px;" role="img" aria-label="7. Kamus Kompetensi Digital, 3. Nilai Standar."></path><path fill="#FF0000" d="M 308 252 L 312 256 L 308 260 L 304 256 Z" opacity="1" class="highcharts-point" tabindex="-1" style="outline: currentcolor none 0px;" role="img" aria-label="8. Kamus Sad Kerti, 3. Nilai Standar."></path><path fill="#FF0000" d="M 271 252 L 275 256 L 271 260 L 267 256 Z" opacity="1" class="highcharts-point" tabindex="-1" style="outline: currentcolor none 0px;" role="img" aria-label="9. Integritas, 3. Nilai Standar."></path><path fill="#FF0000" d="M 237 237 L 241 241 L 237 245 L 233 241 Z" opacity="1" class="highcharts-point" tabindex="-1" style="outline: currentcolor none 0px;" role="img" aria-label="10. Kerjasama , 3. Nilai Standar."></path><path fill="#FF0000" d="M 213 209 L 217 213 L 213 217 L 209 213 Z" opacity="1" class="highcharts-point" tabindex="-1" style="outline: currentcolor none 0px;" role="img" aria-label="11. Komunikasi , 3. Nilai Standar."></path><path fill="#FF0000" d="M 201 174 L 205 178 L 201 182 L 197 178 Z" opacity="1" class="highcharts-point" tabindex="-1" style="outline: currentcolor none 0px;" role="img" aria-label="12. Orientasi pada Hasil , 3. Nilai Standar."></path><path fill="#FF0000" d="M 205 138 L 209 142 L 205 146 L 201 142 Z" opacity="1" class="highcharts-point" tabindex="-1" style="outline: currentcolor none 0px;" role="img" aria-label="13. Pelayanan Publik, 3. Nilai Standar."></path><path fill="#FF0000" d="M 224 106 L 228 110 L 224 114 L 220 110 Z" opacity="1" class="highcharts-point" tabindex="-1" style="outline: currentcolor none 0px;" role="img" aria-label="14. Pengembangan Diri dan Orang Lain    , 3. Nilai Standar."></path><path fill="#FF0000" d="M 253 84 L 257 88 L 253 92 L 249 88 Z" opacity="1" class="highcharts-point" tabindex="-1" style="outline: currentcolor none 0px;" role="img" aria-label="15. Mengelola Perubahan , 3. Nilai Standar."></path></g></g><text x="220" text-anchor="middle" class="highcharts-title" data-z-index="4" style="color:#333333;font-size:18px;fill:#333333;" y="24" aria-hidden="true"></text><text x="300" text-anchor="middle" class="highcharts-subtitle" data-z-index="4" style="color:#666666;fill:#666666;" y="24" aria-hidden="true"></text><text x="10" text-anchor="start" class="highcharts-caption" data-z-index="4" style="color:#666666;fill:#666666;" y="397" aria-hidden="true"></text><g class="highcharts-data-labels highcharts-series-0 highcharts-line-series" data-z-index="6" opacity="1" transform="translate(10,10) scale(1 1)" aria-hidden="true"><g class="highcharts-label highcharts-data-label highcharts-data-label-color-undefined" data-z-index="1" transform="translate(282,147)"><text x="5" data-z-index="1" y="16" style="color:#000000;font-size:11px;font-weight:bold;fill:#000000;"><tspan x="5" y="16" class="highcharts-text-outline" fill="#FFFFFF" stroke="#FFFFFF" stroke-width="2px" stroke-linejoin="round" style="">0</tspan><tspan x="5" y="16">0</tspan></text></g><g class="highcharts-label highcharts-data-label highcharts-data-label-color-undefined highcharts-data-label-hidden" data-z-index="1" transform="translate(282,147)" opacity="0" style="pointer-events:none;"><text x="5" data-z-index="1" y="16" style="color:#000000;font-size:11px;font-weight:bold;fill:#000000;"><tspan x="5" y="16" class="highcharts-text-outline" fill="#FFFFFF" stroke="#FFFFFF" stroke-width="2px" stroke-linejoin="round">0</tspan><tspan x="5" y="16">0</tspan></text></g><g class="highcharts-label highcharts-data-label highcharts-data-label-color-undefined highcharts-data-label-hidden" data-z-index="1" transform="translate(282,147)" opacity="0" style="pointer-events:none;"><text x="5" data-z-index="1" y="16" style="color:#000000;font-size:11px;font-weight:bold;fill:#000000;"><tspan x="5" y="16" class="highcharts-text-outline" fill="#FFFFFF" stroke="#FFFFFF" stroke-width="2px" stroke-linejoin="round">0</tspan><tspan x="5" y="16">0</tspan></text></g><g class="highcharts-label highcharts-data-label highcharts-data-label-color-undefined highcharts-data-label-hidden" data-z-index="1" transform="translate(282,147)" opacity="0" style="pointer-events:none;"><text x="5" data-z-index="1" y="16" style="color:#000000;font-size:11px;font-weight:bold;fill:#000000;"><tspan x="5" y="16" class="highcharts-text-outline" fill="#FFFFFF" stroke="#FFFFFF" stroke-width="2px" stroke-linejoin="round">0</tspan><tspan x="5" y="16">0</tspan></text></g><g class="highcharts-label highcharts-data-label highcharts-data-label-color-undefined highcharts-data-label-hidden" data-z-index="1" transform="translate(282,147)" opacity="0" style="pointer-events:none;"><text x="5" data-z-index="1" y="16" style="color:#000000;font-size:11px;font-weight:bold;fill:#000000;"><tspan x="5" y="16" class="highcharts-text-outline" fill="#FFFFFF" stroke="#FFFFFF" stroke-width="2px" stroke-linejoin="round">0</tspan><tspan x="5" y="16">0</tspan></text></g><g class="highcharts-label highcharts-data-label highcharts-data-label-color-undefined highcharts-data-label-hidden" data-z-index="1" transform="translate(282,147)" opacity="0" style="pointer-events:none;"><text x="5" data-z-index="1" y="16" style="color:#000000;font-size:11px;font-weight:bold;fill:#000000;"><tspan x="5" y="16" class="highcharts-text-outline" fill="#FFFFFF" stroke="#FFFFFF" stroke-width="2px" stroke-linejoin="round">0</tspan><tspan x="5" y="16">0</tspan></text></g><g class="highcharts-label highcharts-data-label highcharts-data-label-color-undefined highcharts-data-label-hidden" data-z-index="1" transform="translate(282,147)" opacity="0" style="pointer-events:none;"><text x="5" data-z-index="1" y="16" style="color:#000000;font-size:11px;font-weight:bold;fill:#000000;"><tspan x="5" y="16" class="highcharts-text-outline" fill="#FFFFFF" stroke="#FFFFFF" stroke-width="2px" stroke-linejoin="round">0</tspan><tspan x="5" y="16">0</tspan></text></g><g class="highcharts-label highcharts-data-label highcharts-data-label-color-undefined highcharts-data-label-hidden" data-z-index="1" transform="translate(282,147)" opacity="0" style="pointer-events:none;"><text x="5" data-z-index="1" y="16" style="color:#000000;font-size:11px;font-weight:bold;fill:#000000;"><tspan x="5" y="16" class="highcharts-text-outline" fill="#FFFFFF" stroke="#FFFFFF" stroke-width="2px" stroke-linejoin="round">0</tspan><tspan x="5" y="16">0</tspan></text></g><g class="highcharts-label highcharts-data-label highcharts-data-label-color-undefined highcharts-data-label-hidden" data-z-index="1" transform="translate(282,147)" opacity="0" style="pointer-events:none;"><text x="5" data-z-index="1" y="16" style="color:#000000;font-size:11px;font-weight:bold;fill:#000000;"><tspan x="5" y="16" class="highcharts-text-outline" fill="#FFFFFF" stroke="#FFFFFF" stroke-width="2px" stroke-linejoin="round">0</tspan><tspan x="5" y="16">0</tspan></text></g><g class="highcharts-label highcharts-data-label highcharts-data-label-color-undefined highcharts-data-label-hidden" data-z-index="1" transform="translate(282,147)" opacity="0" style="pointer-events:none;"><text x="5" data-z-index="1" y="16" style="color:#000000;font-size:11px;font-weight:bold;fill:#000000;"><tspan x="5" y="16" class="highcharts-text-outline" fill="#FFFFFF" stroke="#FFFFFF" stroke-width="2px" stroke-linejoin="round">0</tspan><tspan x="5" y="16">0</tspan></text></g><g class="highcharts-label highcharts-data-label highcharts-data-label-color-undefined highcharts-data-label-hidden" data-z-index="1" transform="translate(282,147)" opacity="0" style="pointer-events:none;"><text x="5" data-z-index="1" y="16" style="color:#000000;font-size:11px;font-weight:bold;fill:#000000;"><tspan x="5" y="16" class="highcharts-text-outline" fill="#FFFFFF" stroke="#FFFFFF" stroke-width="2px" stroke-linejoin="round">0</tspan><tspan x="5" y="16">0</tspan></text></g><g class="highcharts-label highcharts-data-label highcharts-data-label-color-undefined highcharts-data-label-hidden" data-z-index="1" transform="translate(282,147)" opacity="0" style="pointer-events:none;"><text x="5" data-z-index="1" y="16" style="color:#000000;font-size:11px;font-weight:bold;fill:#000000;"><tspan x="5" y="16" class="highcharts-text-outline" fill="#FFFFFF" stroke="#FFFFFF" stroke-width="2px" stroke-linejoin="round">0</tspan><tspan x="5" y="16">0</tspan></text></g><g class="highcharts-label highcharts-data-label highcharts-data-label-color-undefined highcharts-data-label-hidden" data-z-index="1" transform="translate(282,147)" opacity="0" style="pointer-events:none;"><text x="5" data-z-index="1" y="16" style="color:#000000;font-size:11px;font-weight:bold;fill:#000000;"><tspan x="5" y="16" class="highcharts-text-outline" fill="#FFFFFF" stroke="#FFFFFF" stroke-width="2px" stroke-linejoin="round">0</tspan><tspan x="5" y="16">0</tspan></text></g><g class="highcharts-label highcharts-data-label highcharts-data-label-color-undefined highcharts-data-label-hidden" data-z-index="1" transform="translate(282,147)" opacity="0" style="pointer-events:none;"><text x="5" data-z-index="1" y="16" style="color:#000000;font-size:11px;font-weight:bold;fill:#000000;"><tspan x="5" y="16" class="highcharts-text-outline" fill="#FFFFFF" stroke="#FFFFFF" stroke-width="2px" stroke-linejoin="round">0</tspan><tspan x="5" y="16">0</tspan></text></g><g class="highcharts-label highcharts-data-label highcharts-data-label-color-undefined highcharts-data-label-hidden" data-z-index="1" transform="translate(282,147)" opacity="0" style="pointer-events:none;"><text x="5" data-z-index="1" y="16" style="color:#000000;font-size:11px;font-weight:bold;fill:#000000;"><tspan x="5" y="16" class="highcharts-text-outline" fill="#FFFFFF" stroke="#FFFFFF" stroke-width="2px" stroke-linejoin="round">0</tspan><tspan x="5" y="16">0</tspan></text></g></g><g class="highcharts-data-labels highcharts-series-1 highcharts-line-series" data-z-index="6" opacity="1" transform="translate(10,10) scale(1 1)" aria-hidden="true"><g class="highcharts-label highcharts-data-label highcharts-data-label-color-undefined" data-z-index="1" transform="translate(282,58)"><text x="5" data-z-index="1" y="16" style="color:#000000;font-size:11px;font-weight:bold;fill:#000000;"><tspan x="5" y="16" class="highcharts-text-outline" fill="#FFFFFF" stroke="#FFFFFF" stroke-width="2px" stroke-linejoin="round">3</tspan><tspan x="5" y="16">3</tspan></text></g><g class="highcharts-label highcharts-data-label highcharts-data-label-color-undefined" data-z-index="1" transform="translate(318,66)"><text x="5" data-z-index="1" y="16" style="color:#000000;font-size:11px;font-weight:bold;fill:#000000;"><tspan x="5" y="16" class="highcharts-text-outline" fill="#FFFFFF" stroke="#FFFFFF" stroke-width="2px" stroke-linejoin="round">3</tspan><tspan x="5" y="16">3</tspan></text></g><g class="highcharts-label highcharts-data-label highcharts-data-label-color-undefined" data-z-index="1" transform="translate(348,88)"><text x="5" data-z-index="1" y="16" style="color:#000000;font-size:11px;font-weight:bold;fill:#000000;"><tspan x="5" y="16" class="highcharts-text-outline" fill="#FFFFFF" stroke="#FFFFFF" stroke-width="2px" stroke-linejoin="round">3</tspan><tspan x="5" y="16">3</tspan></text></g><g class="highcharts-label highcharts-data-label highcharts-data-label-color-undefined" data-z-index="1" transform="translate(366,120)"><text x="5" data-z-index="1" y="16" style="color:#000000;font-size:11px;font-weight:bold;fill:#000000;"><tspan x="5" y="16" class="highcharts-text-outline" fill="#FFFFFF" stroke="#FFFFFF" stroke-width="2px" stroke-linejoin="round">3</tspan><tspan x="5" y="16">3</tspan></text></g><g class="highcharts-label highcharts-data-label highcharts-data-label-color-undefined" data-z-index="1" transform="translate(370,156)"><text x="5" data-z-index="1" y="16" style="color:#000000;font-size:11px;font-weight:bold;fill:#000000;"><tspan x="5" y="16" class="highcharts-text-outline" fill="#FFFFFF" stroke="#FFFFFF" stroke-width="2px" stroke-linejoin="round">3</tspan><tspan x="5" y="16">3</tspan></text></g><g class="highcharts-label highcharts-data-label highcharts-data-label-color-undefined" data-z-index="1" transform="translate(359,191)"><text x="5" data-z-index="1" y="16" style="color:#000000;font-size:11px;font-weight:bold;fill:#000000;"><tspan x="5" y="16" class="highcharts-text-outline" fill="#FFFFFF" stroke="#FFFFFF" stroke-width="2px" stroke-linejoin="round">3</tspan><tspan x="5" y="16">3</tspan></text></g><g class="highcharts-label highcharts-data-label highcharts-data-label-color-undefined" data-z-index="1" transform="translate(334,219)"><text x="5" data-z-index="1" y="16" style="color:#000000;font-size:11px;font-weight:bold;fill:#000000;"><tspan x="5" y="16" class="highcharts-text-outline" fill="#FFFFFF" stroke="#FFFFFF" stroke-width="2px" stroke-linejoin="round">3</tspan><tspan x="5" y="16">3</tspan></text></g><g class="highcharts-label highcharts-data-label highcharts-data-label-color-undefined" data-z-index="1" transform="translate(300,234)"><text x="5" data-z-index="1" y="16" style="color:#000000;font-size:11px;font-weight:bold;fill:#000000;"><tspan x="5" y="16" class="highcharts-text-outline" fill="#FFFFFF" stroke="#FFFFFF" stroke-width="2px" stroke-linejoin="round">3</tspan><tspan x="5" y="16">3</tspan></text></g><g class="highcharts-label highcharts-data-label highcharts-data-label-color-undefined" data-z-index="1" transform="translate(263,234)"><text x="5" data-z-index="1" y="16" style="color:#000000;font-size:11px;font-weight:bold;fill:#000000;"><tspan x="5" y="16" class="highcharts-text-outline" fill="#FFFFFF" stroke="#FFFFFF" stroke-width="2px" stroke-linejoin="round">3</tspan><tspan x="5" y="16">3</tspan></text></g><g class="highcharts-label highcharts-data-label highcharts-data-label-color-undefined" data-z-index="1" transform="translate(230,219)"><text x="5" data-z-index="1" y="16" style="color:#000000;font-size:11px;font-weight:bold;fill:#000000;"><tspan x="5" y="16" class="highcharts-text-outline" fill="#FFFFFF" stroke="#FFFFFF" stroke-width="2px" stroke-linejoin="round">3</tspan><tspan x="5" y="16">3</tspan></text></g><g class="highcharts-label highcharts-data-label highcharts-data-label-color-undefined" data-z-index="1" transform="translate(205,191)"><text x="5" data-z-index="1" y="16" style="color:#000000;font-size:11px;font-weight:bold;fill:#000000;"><tspan x="5" y="16" class="highcharts-text-outline" fill="#FFFFFF" stroke="#FFFFFF" stroke-width="2px" stroke-linejoin="round">3</tspan><tspan x="5" y="16">3</tspan></text></g><g class="highcharts-label highcharts-data-label highcharts-data-label-color-undefined" data-z-index="1" transform="translate(194,156)"><text x="5" data-z-index="1" y="16" style="color:#000000;font-size:11px;font-weight:bold;fill:#000000;"><tspan x="5" y="16" class="highcharts-text-outline" fill="#FFFFFF" stroke="#FFFFFF" stroke-width="2px" stroke-linejoin="round">3</tspan><tspan x="5" y="16">3</tspan></text></g><g class="highcharts-label highcharts-data-label highcharts-data-label-color-undefined" data-z-index="1" transform="translate(197,120)"><text x="5" data-z-index="1" y="16" style="color:#000000;font-size:11px;font-weight:bold;fill:#000000;"><tspan x="5" y="16" class="highcharts-text-outline" fill="#FFFFFF" stroke="#FFFFFF" stroke-width="2px" stroke-linejoin="round">3</tspan><tspan x="5" y="16">3</tspan></text></g><g class="highcharts-label highcharts-data-label highcharts-data-label-color-undefined" data-z-index="1" transform="translate(216,88)"><text x="5" data-z-index="1" y="16" style="color:#000000;font-size:11px;font-weight:bold;fill:#000000;"><tspan x="5" y="16" class="highcharts-text-outline" fill="#FFFFFF" stroke="#FFFFFF" stroke-width="2px" stroke-linejoin="round">3</tspan><tspan x="5" y="16">3</tspan></text></g><g class="highcharts-label highcharts-data-label highcharts-data-label-color-undefined" data-z-index="1" transform="translate(246,66)"><text x="5" data-z-index="1" y="16" style="color:#000000;font-size:11px;font-weight:bold;fill:#000000;"><tspan x="5" y="16" class="highcharts-text-outline" fill="#FFFFFF" stroke="#FFFFFF" stroke-width="2px" stroke-linejoin="round">3</tspan><tspan x="5" y="16">3</tspan></text></g></g><g class="highcharts-legend" data-z-index="7" transform="translate(205,360)" aria-hidden="true"><rect fill="none" class="highcharts-legend-box" rx="0" ry="0" x="0" y="0" width="190" height="25" visibility="visible"></rect><g data-z-index="1"><g><g class="highcharts-legend-item highcharts-line-series highcharts-color-undefined highcharts-series-0" data-z-index="1" transform="translate(8,3)"><path fill="none" d="M 0 11 L 16 11" class="highcharts-graph" stroke="#0F0" stroke-width="2"></path><path fill="#0F0" d="M 8 15 A 4 4 0 1 1 8.003999999333336 14.999998000000167 Z" class="highcharts-point" opacity="1"></path><text x="21" style="color:#333333;cursor:pointer;font-size:12px;font-weight:bold;fill:#333333;" text-anchor="start" data-z-index="2" y="15"><tspan>Capaian</tspan></text></g><g class="highcharts-legend-item highcharts-line-series highcharts-color-undefined highcharts-series-1" data-z-index="1" transform="translate(91.70000076293945,3)"><path fill="none" d="M 0 11 L 16 11" class="highcharts-graph" stroke="#FF0000" stroke-width="2"></path><path fill="#FF0000" d="M 8 7 L 12 11 L 8 15 L 4 11 Z" class="highcharts-point" opacity="1"></path><text x="21" y="15" style="color:#333333;cursor:pointer;font-size:12px;font-weight:bold;fill:#333333;" text-anchor="start" data-z-index="2"><tspan>Nilai Standar</tspan></text></g></g></g></g><g class="highcharts-axis-labels highcharts-xaxis-labels" data-z-index="7" aria-hidden="true"><text x="300" style="color:#666666;cursor:default;font-size:11px;fill:#666666;" transform="translate(0,0) rotate(1 300 49.663483479908145)" text-anchor="middle" y="49.663483479908145" opacity="1"><tspan>Perekat Bangsa</tspan></text><text x="354.2179945220042" style="color:#666666;cursor:default;font-size:11px;fill:#666666;" transform="translate(0,0) rotate(1 354.2179945220042 60.825445673573576)" text-anchor="start" y="60.825445673573576" opacity="1"><tspan>Pengambilan Keputusan</tspan></text><text x="399.06120523613663" style="color:#666666;cursor:default;font-size:11px;fill:#666666;" transform="translate(0,0) rotate(1 399.06120523613663 94.08229573979293)" text-anchor="start" y="94.08229573979293" opacity="1">Pelaporan</text><text x="426.775833622144" style="color:#666666;cursor:default;font-size:11px;fill:#666666;" transform="translate(0,0) rotate(1 426.775833622144 142.28348560396026)" text-anchor="start" y="142.28348560396026" opacity="1">Administrasi</text><text x="432.5697686525908" style="color:#666666;cursor:default;font-size:11px;fill:#666666;" transform="translate(0,0) rotate(1 432.5697686525908 196.87940758269335)" text-anchor="start" y="196.87940758269335" opacity="1"><tspan>Manajemen Aset</tspan></text><text x="415.44118632446566" style="color:#666666;cursor:default;font-size:11px;fill:#666666;" transform="translate(0,0) rotate(1 415.44118632446566 249.1520127841158)" text-anchor="start" y="249.1520127841158" opacity="1"><tspan>Administrasi Kepegawaian</tspan></text><text x="378.3517741305867" style="color:#666666;cursor:default;font-size:11px;fill:#666666;" transform="translate(0,0) rotate(1 378.3517741305867 290.35241340193704)" text-anchor="start" y="290.35241340193704" opacity="1"><tspan>Kamus Kompetensi Digital</tspan></text><text x="327.71462838600735" style="color:#666666;cursor:default;font-size:11px;fill:#666666;" transform="translate(0,0) rotate(1 327.71462838600735 313.71301720123114)" text-anchor="start" y="313.71301720123114" opacity="1"><tspan>Kamus Sad Kerti</tspan></text><text x="272.2853716139927" style="color:#666666;cursor:default;font-size:11px;fill:#666666;" transform="translate(0,0) rotate(1 272.2853716139927 313.5822393465218)" text-anchor="middle" y="313.5822393465218" opacity="1">Integritas</text><text x="221.64822586941335" style="color:#666666;cursor:default;font-size:11px;fill:#666666;" transform="translate(0,0) rotate(1 221.64822586941335 291.0358437997346)" text-anchor="end" y="291.0358437997346" opacity="1"><tspan>Kerjasama</tspan></text><text x="184.55881367553434" style="color:#666666;cursor:default;font-size:11px;fill:#666666;" transform="translate(0,0) rotate(1 184.55881367553434 250.1644279996224)" text-anchor="end" y="250.1644279996224" opacity="1"><tspan>Komunikasi</tspan></text><text x="167.43023134740915" style="color:#666666;cursor:default;font-size:11px;fill:#666666;" transform="translate(0,0) rotate(1 167.43023134740915 196.8006272674408)" text-anchor="end" y="196.8006272674408" opacity="1"><tspan>Orientasi pada Hasil</tspan></text><text x="173.22416637785602" style="color:#666666;cursor:default;font-size:11px;fill:#666666;" transform="translate(0,0) rotate(1 173.22416637785602 141.74850145384184)" text-anchor="end" y="141.74850145384184" opacity="1"><tspan>Pelayanan Publik</tspan></text><text x="200.9387947638633" style="color:#666666;cursor:default;font-size:11px;fill:#666666;" transform="translate(0,0) rotate(1 200.9387947638633 92.9489831567268)" text-anchor="end" y="92.9489831567268" opacity="1"><tspan>Pengembangan Diri dan Orang Lain</tspan></text><text x="245.78200547799574" style="color:#666666;cursor:default;font-size:11px;fill:#666666;" transform="translate(0,0) rotate(1 245.78200547799574 60.9284148316082)" text-anchor="end" y="60.9284148316082" opacity="1"><tspan>Mengelola Perubahan</tspan></text><text x="0" style="color:#666666;cursor:default;font-size:11px;fill:#666666;" transform="translate(0,0) rotate(1 0 -9999)" text-anchor="middle" y="-9999">15</text></g><g class="highcharts-axis-labels highcharts-yaxis-labels" data-z-index="7" aria-hidden="true"></g></g></svg>