<svg height="400" width="600" version="1.1" xmlns="http://www.w3.org/2000/svg"><g transform="translate(0,0)"  xmlns:xlink="http://www.w3.org/1999/xlink" version="1.1" class="highcharts-root" style="font-family:&quot;Lucida Grande&quot;, &quot;Lucida Sans Unicode&quot;, Arial, Helvetica, sans-serif;font-size:12px;" xmlns="http://www.w3.org/2000/svg" width="600" height="400" viewBox="0 0 600 400" aria-hidden="false" aria-label="Interactive chart"><desc aria-hidden="true">Created with Highcharts 8.1.2</desc><defs aria-hidden="true"><clipPath id="highcharts-2wq6nj7-100-"><rect x="0" y="0" width="580" height="336" fill="none"></rect></clipPath><clipPath id="highcharts-2wq6nj7-111"><circle cx="290" cy="168" r="117.6"></circle></clipPath><clipPath id="highcharts-2wq6nj7-122"><circle cx="290" cy="168" r="117.6"></circle></clipPath></defs><rect fill="#ffffff" class="highcharts-background" x="0" y="0" width="600" height="400" rx="0" ry="0" aria-hidden="true"></rect><rect fill="none" class="highcharts-plot-background" x="10" y="10" width="580" height="336" aria-hidden="true"></rect><g class="highcharts-pane-group" data-z-index="0" aria-hidden="true"></g><g class="highcharts-grid highcharts-xaxis-grid" data-z-index="1" aria-hidden="true"><path fill="none" stroke="#e6e6e6" stroke-width="1" data-z-index="1" class="highcharts-grid-line" d="M 300 178 L 300 60.400000000000006" opacity="1"></path><path fill="none" stroke="#e6e6e6" stroke-width="1" data-z-index="1" class="highcharts-grid-line" d="M 300 178 L 375.591822899137 87.91317348920819" opacity="1"></path><path fill="none" stroke="#e6e6e6" stroke-width="1" data-z-index="1" class="highcharts-grid-line" d="M 300 178 L 415.8133917542357 157.578974306369" opacity="1"></path><path fill="none" stroke="#e6e6e6" stroke-width="1" data-z-index="1" class="highcharts-grid-line" d="M 300 178 L 401.84458748505 236.79999999999998" opacity="1"></path><path fill="none" stroke="#e6e6e6" stroke-width="1" data-z-index="1" class="highcharts-grid-line" d="M 300 178 L 340.22156885509867 288.5078522044228" opacity="1"></path><path fill="none" stroke="#e6e6e6" stroke-width="1" data-z-index="1" class="highcharts-grid-line" d="M 300 178 L 259.77843114490133 288.5078522044228" opacity="1"></path><path fill="none" stroke="#e6e6e6" stroke-width="1" data-z-index="1" class="highcharts-grid-line" d="M 300 178 L 198.15541251495006 236.80000000000004" opacity="1"></path><path fill="none" stroke="#e6e6e6" stroke-width="1" data-z-index="1" class="highcharts-grid-line" d="M 300 178 L 184.18660824576432 157.57897430636902" opacity="1"></path><path fill="none" stroke="#e6e6e6" stroke-width="1" data-z-index="1" class="highcharts-grid-line" d="M 300 178 L 224.40817710086296 87.9131734892082" opacity="1"></path><path fill="none" stroke="#e6e6e6" stroke-width="1" data-z-index="1" class="highcharts-grid-line" d="M 300 178 L 300 60.400000000000006" opacity="1"></path></g><g class="highcharts-grid highcharts-yaxis-grid" data-z-index="1" aria-hidden="true"><path fill="none" stroke="#e6e6e6" stroke-width="1" data-z-index="1" class="highcharts-grid-line" d="M 300 178 L 300 178 L 300 178 L 300 178 L 300 178 L 300 178 L 300 178 L 300 178 L 300 178 L 300 178 L 300 178" opacity="1"></path><path fill="none" stroke="#e6e6e6" stroke-width="1" data-z-index="1" class="highcharts-grid-line" d="M 300 138.8 L 325.1972742997123 147.97105782973605 L 338.6044639180785 171.19299143545632 L 333.94819582835 197.6 L 313.4071896183662 214.8359507348076 L 286.5928103816338 214.8359507348076 L 266.05180417165 197.60000000000002 L 261.3955360819214 171.19299143545635 L 274.8027257002877 147.97105782973608 L 300 138.8 L 300 138.8" opacity="1"></path><path fill="none" stroke="#e6e6e6" stroke-width="1" data-z-index="1" class="highcharts-grid-line" d="M 300 99.60000000000001 L 350.3945485994247 117.94211565947214 L 377.2089278361571 164.38598287091267 L 367.89639165669996 217.2 L 326.8143792367324 251.6719014696152 L 273.1856207632676 251.6719014696152 L 232.10360834330004 217.20000000000002 L 222.7910721638429 164.3859828709127 L 249.6054514005753 117.94211565947214 L 300 99.60000000000001 L 300 99.60000000000001" opacity="1"></path><path fill="none" stroke="#e6e6e6" stroke-width="1" data-z-index="1" class="highcharts-grid-line" d="M 300 60.400000000000006 L 375.591822899137 87.91317348920819 L 415.8133917542357 157.578974306369 L 401.84458748505 236.79999999999998 L 340.22156885509867 288.5078522044228 L 259.77843114490133 288.5078522044228 L 198.15541251495006 236.80000000000004 L 184.18660824576432 157.57897430636902 L 224.40817710086296 87.9131734892082 L 300 60.400000000000006 L 300 60.400000000000006" opacity="1"></path></g><rect fill="none" class="highcharts-plot-border" data-z-index="1" x="10" y="10" width="580" height="336" aria-hidden="true"></rect><g class="highcharts-axis highcharts-xaxis" data-z-index="2" aria-hidden="true"><path fill="none" class="highcharts-axis-line" data-z-index="7" d="M 300 60.400000000000006 A 117.6 117.6 0 1 1 299.8824000195999 60.40005879999511 M 300 178 A 0 0 0 1 0 300 178"></path></g><g class="highcharts-axis highcharts-yaxis" data-z-index="2" aria-hidden="true"><path fill="none" class="highcharts-axis-line" data-z-index="7" d="M 300 178 L 300 60.400000000000006"></path></g><g class="highcharts-series-group" data-z-index="3" aria-hidden="false"><g class="highcharts-series highcharts-series-0 highcharts-line-series" data-z-index="0.1" opacity="1" transform="translate(10,10) scale(1 1)" clip-path="url(#highcharts-2wq6nj7-111)" aria-hidden="true"><path fill="none" d="M 290 99.4 L 334.0952300244965 115.44935120203803 L 357.5578118566379 156.08773501205104 L 332.43524478543736 192.5000000000002 L 306.75898702295905 214.04493841850905 L 273.2410129770403 214.04493841850882 L 247.5647552145623 192.4999999999996 L 241.74442010240162 159.4912392943215 L 258.50340712536126 130.46382228716865 L 290 99.4" class="highcharts-graph" data-z-index="1" stroke="#0F0" stroke-width="2" stroke-linejoin="round" stroke-linecap="round"></path></g><g class="highcharts-markers highcharts-series-0 highcharts-line-series" data-z-index="0.1" opacity="1" transform="translate(10,10) scale(1 1)" clip-path="none" aria-hidden="false" role="region" tabindex="-1" aria-label="Capaian, line 1 of 2 with 9 data points." style="outline: 0px;"><path fill="#0F0" d="M 290 103 A 4 4 0 1 1 290.00399999933336 102.99999800000016 Z" opacity="1" class="highcharts-point" tabindex="-1" role="img" aria-label="1. Integritas, 1.75. Capaian." style="outline: 0px;"></path><path fill="#0F0" d="M 334 119 A 4 4 0 1 1 334.00399999933336 118.99999800000016 Z" opacity="1" class="highcharts-point" tabindex="-1" role="img" aria-label="2. Kerjasama , 1.75. Capaian." style="outline: 0px;"></path><path fill="#0F0" d="M 357 160 A 4 4 0 1 1 357.00399999933336 159.99999800000018 Z" opacity="1" class="highcharts-point" tabindex="-1" role="img" aria-label="3. Komunikasi , 1.75. Capaian." style="outline: 0px;"></path><path fill="#0F0" d="M 332 197 A 4 4 0 1 1 332.00399999933336 196.99999800000018 Z" opacity="1" class="highcharts-point" tabindex="-1" role="img" aria-label="4. Orientasi pada Hasil , 1.25. Capaian." style="outline: 0px;"></path><path fill="#0F0" d="M 306 218 A 4 4 0 1 1 306.00399999933336 217.99999800000018 Z" opacity="1" class="highcharts-point" tabindex="-1" role="img" aria-label="5. Pelayanan Publik, 1.25. Capaian." style="outline: 0px;"></path><path fill="#0F0" d="M 273 218 A 4 4 0 1 1 273.00399999933336 217.99999800000018 Z" opacity="1" class="highcharts-point" tabindex="-1" role="img" aria-label="6. Pengembangan Diri dan Orang Lain    , 1.25. Capaian." style="outline: 0px;"></path><path fill="#0F0" d="M 247 196 A 4 4 0 1 1 247.00399999933333 195.99999800000018 Z" opacity="1" class="highcharts-point" tabindex="-1" role="img" aria-label="7. Mengelola Perubahan , 1.25. Capaian." style="outline: 0px;"></path><path fill="#0F0" d="M 241 163 A 4 4 0 1 1 241.00399999933333 162.99999800000018 Z" opacity="1" class="highcharts-point" tabindex="-1" role="img" aria-label="8. Pengambilan Keputusan, 1.25. Capaian." style="outline: 0px;"></path><path fill="#0F0" d="M 258 134 A 4 4 0 1 1 258.00399999933336 133.99999800000018 Z" opacity="1" class="highcharts-point" tabindex="-1" role="img" aria-label="9. Perekat Bangsa, 1.25. Capaian." style="outline: 0px;"></path></g><g class="highcharts-series highcharts-series-1 highcharts-line-series" data-z-index="0.1" opacity="1" transform="translate(10,10) scale(1 1)" clip-path="url(#highcharts-2wq6nj7-122)" aria-hidden="true"><path fill="none" d="M 290 89.60000000000001 L 340.3945485994246 107.94211565947205 L 367.2089278361576 154.38598287091548 L 357.8963916566998 207.20000000000033 L 316.81437923673445 241.67190146961448 L 263.1856207632646 241.6719014696141 L 222.10360834329964 207.19999999999936 L 212.79107216384259 154.3859828709144 L 239.60545140057803 107.94211565946986 L 290 89.60000000000001" class="highcharts-graph" data-z-index="1" stroke="#FF0000" stroke-width="2" stroke-linejoin="round" stroke-linecap="round"></path></g><g class="highcharts-markers highcharts-series-1 highcharts-line-series" data-z-index="0.1" opacity="1" transform="translate(10,10) scale(1 1)" clip-path="none" aria-hidden="false" role="region" tabindex="-1" aria-label="Nilai Standar, line 2 of 2 with 9 data points." style="outline: 0px;"><path fill="#FF0000" d="M 290 86 L 294 90 L 290 94 L 286 90 Z" opacity="1" class="highcharts-point" tabindex="-1" role="img" aria-label="1. Integritas, 2. Nilai Standar." style="outline: 0px;"></path><path fill="#FF0000" d="M 340 104 L 344 108 L 340 112 L 336 108 Z" opacity="1" class="highcharts-point" tabindex="-1" role="img" aria-label="2. Kerjasama , 2. Nilai Standar." style="outline: 0px;"></path><path fill="#FF0000" d="M 367 150 L 371 154 L 367 158 L 363 154 Z" opacity="1" class="highcharts-point" tabindex="-1" role="img" aria-label="3. Komunikasi , 2. Nilai Standar." style="outline: 0px;"></path><path fill="#FF0000" d="M 357 203 L 361 207 L 357 211 L 353 207 Z" opacity="1" class="highcharts-point" tabindex="-1" role="img" aria-label="4. Orientasi pada Hasil , 2. Nilai Standar." style="outline: 0px;"></path><path fill="#FF0000" d="M 316 238 L 320 242 L 316 246 L 312 242 Z" opacity="1" class="highcharts-point" tabindex="-1" role="img" aria-label="5. Pelayanan Publik, 2. Nilai Standar." style="outline: 0px;"></path><path fill="#FF0000" d="M 263 238 L 267 242 L 263 246 L 259 242 Z" opacity="1" class="highcharts-point" tabindex="-1" role="img" aria-label="6. Pengembangan Diri dan Orang Lain    , 2. Nilai Standar." style="outline: 0px;"></path><path fill="#FF0000" d="M 222 203 L 226 207 L 222 211 L 218 207 Z" opacity="1" class="highcharts-point" tabindex="-1" role="img" aria-label="7. Mengelola Perubahan , 2. Nilai Standar." style="outline: 0px;"></path><path fill="#FF0000" d="M 212 150 L 216 154 L 212 158 L 208 154 Z" opacity="1" class="highcharts-point" tabindex="-1" role="img" aria-label="8. Pengambilan Keputusan, 2. Nilai Standar." style="outline: 0px;"></path><path fill="#FF0000" d="M 239 104 L 243 108 L 239 112 L 235 108 Z" opacity="1" class="highcharts-point" tabindex="-1" role="img" aria-label="9. Perekat Bangsa, 2. Nilai Standar." style="outline: 0px;"></path></g></g><text x="220" text-anchor="middle" class="highcharts-title" data-z-index="4" style="color:#333333;font-size:18px;fill:#333333;" y="24" aria-hidden="true"></text><text x="300" text-anchor="middle" class="highcharts-subtitle" data-z-index="4" style="color:#666666;fill:#666666;" y="25" aria-hidden="true"></text><text x="10" text-anchor="start" class="highcharts-caption" data-z-index="4" style="color:#666666;fill:#666666;" y="398" aria-hidden="true"></text><g class="highcharts-data-labels highcharts-series-0 highcharts-line-series" data-z-index="6" opacity="1" transform="translate(10,10) scale(1 1)" aria-hidden="true"><g class="highcharts-label highcharts-data-label highcharts-data-label-color-undefined" data-z-index="1" transform="translate(270,73)"><text x="5" data-z-index="1" y="16" style="color:#000000;font-size:11px;font-weight:bold;fill:#000000;"><tspan x="5" y="16" class="highcharts-text-outline" fill="#FFFFFF" stroke="#FFFFFF" stroke-width="2px" stroke-linejoin="round" style="">1.75</tspan><tspan x="5" y="16">1.75</tspan></text></g><g class="highcharts-label highcharts-data-label highcharts-data-label-color-undefined" data-z-index="1" transform="translate(314,89)"><text x="5" data-z-index="1" y="16" style="color:#000000;font-size:11px;font-weight:bold;fill:#000000;"><tspan x="5" y="16" class="highcharts-text-outline" fill="#FFFFFF" stroke="#FFFFFF" stroke-width="2px" stroke-linejoin="round">1.75</tspan><tspan x="5" y="16">1.75</tspan></text></g><g class="highcharts-label highcharts-data-label highcharts-data-label-color-undefined" data-z-index="1" transform="translate(337,130)"><text x="5" data-z-index="1" y="16" style="color:#000000;font-size:11px;font-weight:bold;fill:#000000;"><tspan x="5" y="16" class="highcharts-text-outline" fill="#FFFFFF" stroke="#FFFFFF" stroke-width="2px" stroke-linejoin="round">1.75</tspan><tspan x="5" y="16">1.75</tspan></text></g><g class="highcharts-label highcharts-data-label highcharts-data-label-color-undefined" data-z-index="1" transform="translate(312,167)"><text x="5" data-z-index="1" y="16" style="color:#000000;font-size:11px;font-weight:bold;fill:#000000;"><tspan x="5" y="16" class="highcharts-text-outline" fill="#FFFFFF" stroke="#FFFFFF" stroke-width="2px" stroke-linejoin="round">1.25</tspan><tspan x="5" y="16">1.25</tspan></text></g><g class="highcharts-label highcharts-data-label highcharts-data-label-color-undefined" data-z-index="1" transform="translate(287,188)"><text x="5" data-z-index="1" y="16" style="color:#000000;font-size:11px;font-weight:bold;fill:#000000;"><tspan x="5" y="16" class="highcharts-text-outline" fill="#FFFFFF" stroke="#FFFFFF" stroke-width="2px" stroke-linejoin="round">1.25</tspan><tspan x="5" y="16">1.25</tspan></text></g><g class="highcharts-label highcharts-data-label highcharts-data-label-color-undefined" data-z-index="1" transform="translate(253,188)"><text x="5" data-z-index="1" y="16" style="color:#000000;font-size:11px;font-weight:bold;fill:#000000;"><tspan x="5" y="16" class="highcharts-text-outline" fill="#FFFFFF" stroke="#FFFFFF" stroke-width="2px" stroke-linejoin="round">1.25</tspan><tspan x="5" y="16">1.25</tspan></text></g><g class="highcharts-label highcharts-data-label highcharts-data-label-color-undefined" data-z-index="1" transform="translate(227,166)"><text x="5" data-z-index="1" y="16" style="color:#000000;font-size:11px;font-weight:bold;fill:#000000;"><tspan x="5" y="16" class="highcharts-text-outline" fill="#FFFFFF" stroke="#FFFFFF" stroke-width="2px" stroke-linejoin="round">1.25</tspan><tspan x="5" y="16">1.25</tspan></text></g><g class="highcharts-label highcharts-data-label highcharts-data-label-color-undefined" data-z-index="1" transform="translate(222,133)"><text x="5" data-z-index="1" y="16" style="color:#000000;font-size:11px;font-weight:bold;fill:#000000;"><tspan x="5" y="16" class="highcharts-text-outline" fill="#FFFFFF" stroke="#FFFFFF" stroke-width="2px" stroke-linejoin="round">1.25</tspan><tspan x="5" y="16">1.25</tspan></text></g><g class="highcharts-label highcharts-data-label highcharts-data-label-color-undefined" data-z-index="1" transform="translate(238,104)"><text x="5" data-z-index="1" y="16" style="color:#000000;font-size:11px;font-weight:bold;fill:#000000;"><tspan x="5" y="16" class="highcharts-text-outline" fill="#FFFFFF" stroke="#FFFFFF" stroke-width="2px" stroke-linejoin="round">1.25</tspan><tspan x="5" y="16">1.25</tspan></text></g></g><g class="highcharts-data-labels highcharts-series-1 highcharts-line-series" data-z-index="6" opacity="1" transform="translate(10,10) scale(1 1)" aria-hidden="true"><g class="highcharts-label highcharts-data-label highcharts-data-label-color-undefined highcharts-data-label-hidden" data-z-index="1" transform="translate(281,64)" opacity="0" style="pointer-events:none;"><text x="5" data-z-index="1" y="16" style="color:#000000;font-size:11px;font-weight:bold;fill:#000000;"><tspan x="5" y="16" class="highcharts-text-outline" fill="#FFFFFF" stroke="#FFFFFF" stroke-width="2px" stroke-linejoin="round" style="">2</tspan><tspan x="5" y="16">2</tspan></text></g><g class="highcharts-label highcharts-data-label highcharts-data-label-color-undefined highcharts-data-label-hidden" data-z-index="1" transform="translate(331,82)" opacity="0" style="pointer-events:none;"><text x="5" data-z-index="1" y="16" style="color:#000000;font-size:11px;font-weight:bold;fill:#000000;"><tspan x="5" y="16" class="highcharts-text-outline" fill="#FFFFFF" stroke="#FFFFFF" stroke-width="2px" stroke-linejoin="round">2</tspan><tspan x="5" y="16">2</tspan></text></g><g class="highcharts-label highcharts-data-label highcharts-data-label-color-undefined highcharts-data-label-hidden" data-z-index="1" transform="translate(358,128)" opacity="0" style="pointer-events:none;"><text x="5" data-z-index="1" y="16" style="color:#000000;font-size:11px;font-weight:bold;fill:#000000;"><tspan x="5" y="16" class="highcharts-text-outline" fill="#FFFFFF" stroke="#FFFFFF" stroke-width="2px" stroke-linejoin="round">2</tspan><tspan x="5" y="16">2</tspan></text></g><g class="highcharts-label highcharts-data-label highcharts-data-label-color-undefined" data-z-index="1" transform="translate(348,181)"><text x="5" data-z-index="1" y="16" style="color:#000000;font-size:11px;font-weight:bold;fill:#000000;"><tspan x="5" y="16" class="highcharts-text-outline" fill="#FFFFFF" stroke="#FFFFFF" stroke-width="2px" stroke-linejoin="round">2</tspan><tspan x="5" y="16">2</tspan></text></g><g class="highcharts-label highcharts-data-label highcharts-data-label-color-undefined" data-z-index="1" transform="translate(307,216)"><text x="5" data-z-index="1" y="16" style="color:#000000;font-size:11px;font-weight:bold;fill:#000000;"><tspan x="5" y="16" class="highcharts-text-outline" fill="#FFFFFF" stroke="#FFFFFF" stroke-width="2px" stroke-linejoin="round">2</tspan><tspan x="5" y="16">2</tspan></text></g><g class="highcharts-label highcharts-data-label highcharts-data-label-color-undefined" data-z-index="1" transform="translate(254,216)"><text x="5" data-z-index="1" y="16" style="color:#000000;font-size:11px;font-weight:bold;fill:#000000;"><tspan x="5" y="16" class="highcharts-text-outline" fill="#FFFFFF" stroke="#FFFFFF" stroke-width="2px" stroke-linejoin="round">2</tspan><tspan x="5" y="16">2</tspan></text></g><g class="highcharts-label highcharts-data-label highcharts-data-label-color-undefined" data-z-index="1" transform="translate(213,181)"><text x="5" data-z-index="1" y="16" style="color:#000000;font-size:11px;font-weight:bold;fill:#000000;"><tspan x="5" y="16" class="highcharts-text-outline" fill="#FFFFFF" stroke="#FFFFFF" stroke-width="2px" stroke-linejoin="round">2</tspan><tspan x="5" y="16">2</tspan></text></g><g class="highcharts-label highcharts-data-label highcharts-data-label-color-undefined" data-z-index="1" transform="translate(203,128)"><text x="5" data-z-index="1" y="16" style="color:#000000;font-size:11px;font-weight:bold;fill:#000000;"><tspan x="5" y="16" class="highcharts-text-outline" fill="#FFFFFF" stroke="#FFFFFF" stroke-width="2px" stroke-linejoin="round">2</tspan><tspan x="5" y="16">2</tspan></text></g><g class="highcharts-label highcharts-data-label highcharts-data-label-color-undefined" data-z-index="1" transform="translate(230,82)"><text x="5" data-z-index="1" y="16" style="color:#000000;font-size:11px;font-weight:bold;fill:#000000;"><tspan x="5" y="16" class="highcharts-text-outline" fill="#FFFFFF" stroke="#FFFFFF" stroke-width="2px" stroke-linejoin="round">2</tspan><tspan x="5" y="16">2</tspan></text></g></g><g class="highcharts-legend" data-z-index="7" transform="translate(191,358)" aria-hidden="true"><rect fill="none" class="highcharts-legend-box" rx="0" ry="0" x="0" y="0" width="218" height="27" visibility="visible"></rect><g data-z-index="1"><g><g class="highcharts-legend-item highcharts-line-series highcharts-color-undefined highcharts-series-0" data-z-index="1" transform="translate(8,3)"><path fill="none" d="M 0 11 L 16 11" class="highcharts-graph" stroke="#0F0" stroke-width="2"></path><path fill="#0F0" d="M 8 15 A 4 4 0 1 1 8.003999999333336 14.999998000000167 Z" class="highcharts-point" opacity="1"></path><text x="21" style="color:#333333;cursor:pointer;font-size:12px;font-weight:bold;fill:#333333;" text-anchor="start" data-z-index="2" y="15"><tspan>Capaian</tspan></text></g><g class="highcharts-legend-item highcharts-line-series highcharts-color-undefined highcharts-series-1" data-z-index="1" transform="translate(102.796875,3)"><path fill="none" d="M 0 11 L 16 11" class="highcharts-graph" stroke="#FF0000" stroke-width="2"></path><path fill="#FF0000" d="M 8 7 L 12 11 L 8 15 L 4 11 Z" class="highcharts-point" opacity="1"></path><text x="21" y="15" style="color:#333333;cursor:pointer;font-size:12px;font-weight:bold;fill:#333333;" text-anchor="start" data-z-index="2"><tspan>Nilai Standar</tspan></text></g></g></g></g><g class="highcharts-axis-labels highcharts-xaxis-labels" data-z-index="7" aria-hidden="true"><text x="300" style="color:#666666;cursor:default;font-size:11px;fill:#666666;" transform="translate(0,0) rotate(1 300 49.4936066729202)" text-anchor="middle" y="49.4936066729202" opacity="1">Integritas</text><text x="385.2336370444351" style="color:#666666;cursor:default;font-size:11px;fill:#666666;" transform="translate(0,0) rotate(1 385.2336370444351 78.88979072173174)" text-anchor="start" y="78.88979072173174" opacity="1"><tspan>Kerjasama</tspan></text><text x="430.58550804941876" style="color:#666666;cursor:default;font-size:11px;fill:#666666;" transform="translate(0,0) rotate(1 430.58550804941876 157.39558660685012)" text-anchor="start" y="157.39558660685012" opacity="1"><tspan>Komunikasi</tspan></text><text x="414.8349685418166" style="color:#666666;cursor:default;font-size:11px;fill:#666666;" transform="translate(0,0) rotate(1 414.8349685418166 246.2776620705872)" text-anchor="start" y="246.2776620705872" opacity="1"><tspan>Orientasi pada Hasil</tspan></text><text x="345.3518710049837" style="color:#666666;cursor:default;font-size:11px;fill:#666666;" transform="translate(0,0) rotate(1 345.3518710049837 304.7346649704084)" text-anchor="start" y="304.7346649704084" opacity="1"><tspan>Pelayanan Publik</tspan></text><text x="254.64812899501632" style="color:#666666;cursor:default;font-size:11px;fill:#666666;" transform="translate(0,0) rotate(1 254.64812899501632 297.6039215756759)" text-anchor="end" y="297.6039215756759" opacity="1"><tspan>Pengembangan Diri</tspan><tspan dy="14" x="254.64812899501632">dan Orang Lain</tspan></text><text x="185.16503145818348" style="color:#666666;cursor:default;font-size:11px;fill:#666666;" transform="translate(0,0) rotate(1 185.16503145818348 246.2006260577977)" text-anchor="end" y="246.2006260577977" opacity="1"><tspan>Mengelola Perubahan</tspan></text><text x="169.4144919505812" style="color:#666666;cursor:default;font-size:11px;fill:#666666;" transform="translate(0,0) rotate(1 169.4144919505812 150.32234366647165)" text-anchor="end" y="150.32234366647165" opacity="1"><tspan>Pengambilan</tspan><tspan dy="14" x="169.4144919505812">Keputusan</tspan></text><text x="214.7663629555649" style="color:#666666;cursor:default;font-size:11px;fill:#666666;" transform="translate(0,0) rotate(1 214.7663629555649 78.63182233908066)" text-anchor="end" y="78.63182233908066" opacity="1"><tspan>Perekat Bangsa</tspan></text><text x="0" style="color:#666666;cursor:default;font-size:11px;fill:#666666;" transform="translate(0,0) rotate(1 0 -9999)" text-anchor="middle" y="-9999">9</text></g><g class="highcharts-axis-labels highcharts-yaxis-labels" data-z-index="7" aria-hidden="true"></g></g></svg>