<svg height="400" width="600" version="1.1" xmlns="http://www.w3.org/2000/svg"><g transform="translate(0,0)"  xmlns:xlink="http://www.w3.org/1999/xlink" version="1.1" class="highcharts-root" style="font-family:&quot;Lucida Grande&quot;, &quot;Lucida Sans Unicode&quot;, Arial, Helvetica, sans-serif;font-size:12px;" xmlns="http://www.w3.org/2000/svg" width="600" height="400" viewBox="0 0 600 400" aria-hidden="false" aria-label="Interactive chart"><desc aria-hidden="true">Created with Highcharts 8.1.2</desc><defs aria-hidden="true"><clipPath id="highcharts-a130sx7-159-"><rect x="0" y="0" width="580" height="337" fill="none"></rect></clipPath><clipPath id="highcharts-a130sx7-170"><circle cx="290" cy="168.5" r="117.95"></circle></clipPath><clipPath id="highcharts-a130sx7-181"><circle cx="290" cy="168.5" r="117.95"></circle></clipPath></defs><rect fill="#ffffff" class="highcharts-background" x="0" y="0" width="600" height="400" rx="0" ry="0" aria-hidden="true"></rect><rect fill="none" class="highcharts-plot-background" x="10" y="10" width="580" height="337" aria-hidden="true"></rect><g class="highcharts-pane-group" data-z-index="0" aria-hidden="true"></g><g class="highcharts-grid highcharts-xaxis-grid" data-z-index="1" aria-hidden="true"><path fill="none" stroke="#e6e6e6" stroke-width="1" data-z-index="1" class="highcharts-grid-line" d="M 300 178.5 L 300 60.55" opacity="1"></path><path fill="none" stroke="#e6e6e6" stroke-width="1" data-z-index="1" class="highcharts-grid-line" d="M 300 178.5 L 375.8167985625273 88.14505793411654" opacity="1"></path><path fill="none" stroke="#e6e6e6" stroke-width="1" data-z-index="1" class="highcharts-grid-line" d="M 300 178.5 L 416.15807446778996 158.01819744418557" opacity="1"></path><path fill="none" stroke="#e6e6e6" stroke-width="1" data-z-index="1" class="highcharts-grid-line" d="M 300 178.5 L 402.14769637637454 237.47499999999997" opacity="1"></path><path fill="none" stroke="#e6e6e6" stroke-width="1" data-z-index="1" class="highcharts-grid-line" d="M 300 178.5 L 340.34127590526265 289.3367446216979" opacity="1"></path><path fill="none" stroke="#e6e6e6" stroke-width="1" data-z-index="1" class="highcharts-grid-line" d="M 300 178.5 L 259.65872409473735 289.3367446216979" opacity="1"></path><path fill="none" stroke="#e6e6e6" stroke-width="1" data-z-index="1" class="highcharts-grid-line" d="M 300 178.5 L 197.85230362362546 237.47500000000005" opacity="1"></path><path fill="none" stroke="#e6e6e6" stroke-width="1" data-z-index="1" class="highcharts-grid-line" d="M 300 178.5 L 183.84192553221004 158.0181974441856" opacity="1"></path><path fill="none" stroke="#e6e6e6" stroke-width="1" data-z-index="1" class="highcharts-grid-line" d="M 300 178.5 L 224.18320143747266 88.14505793411655" opacity="1"></path><path fill="none" stroke="#e6e6e6" stroke-width="1" data-z-index="1" class="highcharts-grid-line" d="M 300 178.5 L 300 60.55" opacity="1"></path></g><g class="highcharts-grid highcharts-yaxis-grid" data-z-index="1" aria-hidden="true"><path fill="none" stroke="#e6e6e6" stroke-width="1" data-z-index="1" class="highcharts-grid-line" d="M 300 178.5 L 300 178.5 L 300 178.5 L 300 178.5 L 300 178.5 L 300 178.5 L 300 178.5 L 300 178.5 L 300 178.5 L 300 178.5 L 300 178.5" opacity="1"></path><path fill="none" stroke="#e6e6e6" stroke-width="1" data-z-index="1" class="highcharts-grid-line" d="M 300 119.525 L 337.90839928126366 133.32252896705828 L 358.07903723389495 168.25909872209277 L 351.0738481881873 207.98749999999998 L 320.1706379526313 233.91837231084895 L 279.8293620473687 233.91837231084895 L 248.92615181181273 207.9875 L 241.92096276610502 168.2590987220928 L 262.09160071873634 133.32252896705828 L 300 119.525 L 300 119.525" opacity="1"></path><path fill="none" stroke="#e6e6e6" stroke-width="1" data-z-index="1" class="highcharts-grid-line" d="M 300 60.55 L 375.8167985625273 88.14505793411654 L 416.15807446778996 158.01819744418557 L 402.14769637637454 237.47499999999997 L 340.34127590526265 289.3367446216979 L 259.65872409473735 289.3367446216979 L 197.85230362362546 237.47500000000005 L 183.84192553221004 158.0181974441856 L 224.18320143747266 88.14505793411655 L 300 60.55 L 300 60.55" opacity="1"></path></g><rect fill="none" class="highcharts-plot-border" data-z-index="1" x="10" y="10" width="580" height="337" aria-hidden="true"></rect><g class="highcharts-axis highcharts-xaxis" data-z-index="2" aria-hidden="true"><path fill="none" class="highcharts-axis-line" data-z-index="7" d="M 300 60.55 A 117.95 117.95 0 1 1 299.88205001965827 60.55005897499508 M 300 178.5 A 0 0 0 1 0 300 178.5"></path></g><g class="highcharts-axis highcharts-yaxis" data-z-index="2" aria-hidden="true"><path fill="none" class="highcharts-axis-line" data-z-index="7" d="M 300 178.5 L 300 60.55"></path></g><g class="highcharts-series-group" data-z-index="3" aria-hidden="false"><g class="highcharts-series highcharts-series-0 highcharts-line-series" data-z-index="0.1" opacity="1" transform="translate(10,10) scale(1 1)" clip-path="url(#highcharts-a130sx7-170)" aria-hidden="true"><path fill="none" d="M 290 168.5 L 290 168.5 L 290 168.5 L 290 168.5 L 290 168.5 L 290 168.5 L 290 168.5 L 290 168.5 L 290 168.5 L 290 168.5" class="highcharts-graph" data-z-index="1" stroke="#0F0" stroke-width="2" stroke-linejoin="round" stroke-linecap="round"></path></g><g class="highcharts-markers highcharts-series-0 highcharts-line-series" data-z-index="0.1" opacity="1" transform="translate(10,10) scale(1 1)" clip-path="none" aria-hidden="false" role="region" tabindex="-1" style="outline: currentcolor none 0px;" aria-label="Capaian, line 1 of 2 with 9 data points."><path fill="#0F0" d="M 290 173 A 4 4 0 1 1 290.00399999933336 172.99999800000018 Z" opacity="1" class="highcharts-point" tabindex="-1" style="outline: currentcolor none 0px;" role="img" aria-label="1. Integritas, 0. Capaian."></path><path fill="#0F0" d="M 290 173 A 4 4 0 1 1 290.00399999933336 172.99999800000018 Z" opacity="1" class="highcharts-point" tabindex="-1" style="outline: currentcolor none 0px;" role="img" aria-label="2. Kerjasama , 0. Capaian."></path><path fill="#0F0" d="M 290 173 A 4 4 0 1 1 290.00399999933336 172.99999800000018 Z" opacity="1" class="highcharts-point" tabindex="-1" style="outline: currentcolor none 0px;" role="img" aria-label="3. Komunikasi , 0. Capaian."></path><path fill="#0F0" d="M 290 173 A 4 4 0 1 1 290.00399999933336 172.99999800000018 Z" opacity="1" class="highcharts-point" tabindex="-1" style="outline: currentcolor none 0px;" role="img" aria-label="4. Orientasi pada Hasil , 0. Capaian."></path><path fill="#0F0" d="M 290 173 A 4 4 0 1 1 290.00399999933336 172.99999800000018 Z" opacity="1" class="highcharts-point" tabindex="-1" style="outline: currentcolor none 0px;" role="img" aria-label="5. Pelayanan Publik, 0. Capaian."></path><path fill="#0F0" d="M 290 173 A 4 4 0 1 1 290.00399999933336 172.99999800000018 Z" opacity="1" class="highcharts-point" tabindex="-1" style="outline: currentcolor none 0px;" role="img" aria-label="6. Pengembangan Diri dan Orang Lain    , 0. Capaian."></path><path fill="#0F0" d="M 290 173 A 4 4 0 1 1 290.00399999933336 172.99999800000018 Z" opacity="1" class="highcharts-point" tabindex="-1" style="outline: currentcolor none 0px;" role="img" aria-label="7. Mengelola Perubahan , 0. Capaian."></path><path fill="#0F0" d="M 290 173 A 4 4 0 1 1 290.00399999933336 172.99999800000018 Z" opacity="1" class="highcharts-point" tabindex="-1" style="outline: currentcolor none 0px;" role="img" aria-label="8. Pengambilan Keputusan, 0. Capaian."></path><path fill="#0F0" d="M 290 173 A 4 4 0 1 1 290.00399999933336 172.99999800000018 Z" opacity="1" class="highcharts-point" tabindex="-1" style="outline: currentcolor none 0px;" role="img" aria-label="9. Perekat Bangsa, 0. Capaian."></path></g><g class="highcharts-series highcharts-series-1 highcharts-line-series" data-z-index="0.1" opacity="1" transform="translate(10,10) scale(1 1)" clip-path="url(#highcharts-a130sx7-181)" aria-hidden="true"><path fill="none" d="M 290 80.0375 L 346.86259892189537 100.7337934505873 L 377.118555850843 153.13864808314236 L 366.61077228228066 212.73125000000036 L 320.2559569289492 251.6275584662726 L 259.74404307104965 251.6275584662722 L 213.38922771771865 212.73124999999928 L 202.88144414915718 153.13864808314113 L 233.13740107810756 100.73379345058484 L 290 80.0375" class="highcharts-graph" data-z-index="1" stroke="#FF0000" stroke-width="2" stroke-linejoin="round" stroke-linecap="round"></path></g><g class="highcharts-markers highcharts-series-1 highcharts-line-series" data-z-index="0.1" opacity="1" transform="translate(10,10) scale(1 1)" clip-path="none" aria-hidden="false" role="region" tabindex="-1" style="outline: currentcolor none 0px;" aria-label="Nilai Standar, line 2 of 2 with 9 data points."><path fill="#FF0000" d="M 290 76 L 294 80 L 290 84 L 286 80 Z" opacity="1" class="highcharts-point" tabindex="-1" style="outline: currentcolor none 0px;" role="img" aria-label="1. Integritas, 3. Nilai Standar."></path><path fill="#FF0000" d="M 346 97 L 350 101 L 346 105 L 342 101 Z" opacity="1" class="highcharts-point" tabindex="-1" style="outline: currentcolor none 0px;" role="img" aria-label="2. Kerjasama , 3. Nilai Standar."></path><path fill="#FF0000" d="M 377 149 L 381 153 L 377 157 L 373 153 Z" opacity="1" class="highcharts-point" tabindex="-1" style="outline: currentcolor none 0px;" role="img" aria-label="3. Komunikasi , 3. Nilai Standar."></path><path fill="#FF0000" d="M 366 209 L 370 213 L 366 217 L 362 213 Z" opacity="1" class="highcharts-point" tabindex="-1" style="outline: currentcolor none 0px;" role="img" aria-label="4. Orientasi pada Hasil , 3. Nilai Standar."></path><path fill="#FF0000" d="M 320 248 L 324 252 L 320 256 L 316 252 Z" opacity="1" class="highcharts-point" tabindex="-1" style="outline: currentcolor none 0px;" role="img" aria-label="5. Pelayanan Publik, 3. Nilai Standar."></path><path fill="#FF0000" d="M 259 248 L 263 252 L 259 256 L 255 252 Z" opacity="1" class="highcharts-point" tabindex="-1" style="outline: currentcolor none 0px;" role="img" aria-label="6. Pengembangan Diri dan Orang Lain    , 3. Nilai Standar."></path><path fill="#FF0000" d="M 213 209 L 217 213 L 213 217 L 209 213 Z" opacity="1" class="highcharts-point" tabindex="-1" style="outline: currentcolor none 0px;" role="img" aria-label="7. Mengelola Perubahan , 3. Nilai Standar."></path><path fill="#FF0000" d="M 202 149 L 206 153 L 202 157 L 198 153 Z" opacity="1" class="highcharts-point" tabindex="-1" style="outline: currentcolor none 0px;" role="img" aria-label="8. Pengambilan Keputusan, 3. Nilai Standar."></path><path fill="#FF0000" d="M 233 97 L 237 101 L 233 105 L 229 101 Z" opacity="1" class="highcharts-point" tabindex="-1" style="outline: currentcolor none 0px;" role="img" aria-label="9. Perekat Bangsa, 3. Nilai Standar."></path></g></g><text x="220" text-anchor="middle" class="highcharts-title" data-z-index="4" style="color:#333333;font-size:18px;fill:#333333;" y="24" aria-hidden="true"></text><text x="300" text-anchor="middle" class="highcharts-subtitle" data-z-index="4" style="color:#666666;fill:#666666;" y="24" aria-hidden="true"></text><text x="10" text-anchor="start" class="highcharts-caption" data-z-index="4" style="color:#666666;fill:#666666;" y="397" aria-hidden="true"></text><g class="highcharts-data-labels highcharts-series-0 highcharts-line-series" data-z-index="6" opacity="1" transform="translate(10,10) scale(1 1)" aria-hidden="true"><g class="highcharts-label highcharts-data-label highcharts-data-label-color-undefined" data-z-index="1" transform="translate(282,145)"><text x="5" data-z-index="1" y="16" style="color:#000000;font-size:11px;font-weight:bold;fill:#000000;"><tspan x="5" y="16" class="highcharts-text-outline" fill="#FFFFFF" stroke="#FFFFFF" stroke-width="2px" stroke-linejoin="round" style="">0</tspan><tspan x="5" y="16">0</tspan></text></g><g class="highcharts-label highcharts-data-label highcharts-data-label-color-undefined highcharts-data-label-hidden" data-z-index="1" transform="translate(282,145)" opacity="0" style="pointer-events:none;"><text x="5" data-z-index="1" y="16" style="color:#000000;font-size:11px;font-weight:bold;fill:#000000;"><tspan x="5" y="16" class="highcharts-text-outline" fill="#FFFFFF" stroke="#FFFFFF" stroke-width="2px" stroke-linejoin="round">0</tspan><tspan x="5" y="16">0</tspan></text></g><g class="highcharts-label highcharts-data-label highcharts-data-label-color-undefined highcharts-data-label-hidden" data-z-index="1" transform="translate(282,145)" opacity="0" style="pointer-events:none;"><text x="5" data-z-index="1" y="16" style="color:#000000;font-size:11px;font-weight:bold;fill:#000000;"><tspan x="5" y="16" class="highcharts-text-outline" fill="#FFFFFF" stroke="#FFFFFF" stroke-width="2px" stroke-linejoin="round">0</tspan><tspan x="5" y="16">0</tspan></text></g><g class="highcharts-label highcharts-data-label highcharts-data-label-color-undefined highcharts-data-label-hidden" data-z-index="1" transform="translate(282,145)" opacity="0" style="pointer-events:none;"><text x="5" data-z-index="1" y="16" style="color:#000000;font-size:11px;font-weight:bold;fill:#000000;"><tspan x="5" y="16" class="highcharts-text-outline" fill="#FFFFFF" stroke="#FFFFFF" stroke-width="2px" stroke-linejoin="round">0</tspan><tspan x="5" y="16">0</tspan></text></g><g class="highcharts-label highcharts-data-label highcharts-data-label-color-undefined highcharts-data-label-hidden" data-z-index="1" transform="translate(282,145)" opacity="0" style="pointer-events:none;"><text x="5" data-z-index="1" y="16" style="color:#000000;font-size:11px;font-weight:bold;fill:#000000;"><tspan x="5" y="16" class="highcharts-text-outline" fill="#FFFFFF" stroke="#FFFFFF" stroke-width="2px" stroke-linejoin="round">0</tspan><tspan x="5" y="16">0</tspan></text></g><g class="highcharts-label highcharts-data-label highcharts-data-label-color-undefined highcharts-data-label-hidden" data-z-index="1" transform="translate(282,145)" opacity="0" style="pointer-events:none;"><text x="5" data-z-index="1" y="16" style="color:#000000;font-size:11px;font-weight:bold;fill:#000000;"><tspan x="5" y="16" class="highcharts-text-outline" fill="#FFFFFF" stroke="#FFFFFF" stroke-width="2px" stroke-linejoin="round">0</tspan><tspan x="5" y="16">0</tspan></text></g><g class="highcharts-label highcharts-data-label highcharts-data-label-color-undefined highcharts-data-label-hidden" data-z-index="1" transform="translate(282,145)" opacity="0" style="pointer-events:none;"><text x="5" data-z-index="1" y="16" style="color:#000000;font-size:11px;font-weight:bold;fill:#000000;"><tspan x="5" y="16" class="highcharts-text-outline" fill="#FFFFFF" stroke="#FFFFFF" stroke-width="2px" stroke-linejoin="round">0</tspan><tspan x="5" y="16">0</tspan></text></g><g class="highcharts-label highcharts-data-label highcharts-data-label-color-undefined highcharts-data-label-hidden" data-z-index="1" transform="translate(282,145)" opacity="0" style="pointer-events:none;"><text x="5" data-z-index="1" y="16" style="color:#000000;font-size:11px;font-weight:bold;fill:#000000;"><tspan x="5" y="16" class="highcharts-text-outline" fill="#FFFFFF" stroke="#FFFFFF" stroke-width="2px" stroke-linejoin="round">0</tspan><tspan x="5" y="16">0</tspan></text></g><g class="highcharts-label highcharts-data-label highcharts-data-label-color-undefined highcharts-data-label-hidden" data-z-index="1" transform="translate(282,145)" opacity="0" style="pointer-events:none;"><text x="5" data-z-index="1" y="16" style="color:#000000;font-size:11px;font-weight:bold;fill:#000000;"><tspan x="5" y="16" class="highcharts-text-outline" fill="#FFFFFF" stroke="#FFFFFF" stroke-width="2px" stroke-linejoin="round">0</tspan><tspan x="5" y="16">0</tspan></text></g></g><g class="highcharts-data-labels highcharts-series-1 highcharts-line-series" data-z-index="6" opacity="1" transform="translate(10,10) scale(1 1)" aria-hidden="true"><g class="highcharts-label highcharts-data-label highcharts-data-label-color-undefined" data-z-index="1" transform="translate(282,56)"><text x="5" data-z-index="1" y="16" style="color:#000000;font-size:11px;font-weight:bold;fill:#000000;"><tspan x="5" y="16" class="highcharts-text-outline" fill="#FFFFFF" stroke="#FFFFFF" stroke-width="2px" stroke-linejoin="round">3</tspan><tspan x="5" y="16">3</tspan></text></g><g class="highcharts-label highcharts-data-label highcharts-data-label-color-undefined" data-z-index="1" transform="translate(339,77)"><text x="5" data-z-index="1" y="16" style="color:#000000;font-size:11px;font-weight:bold;fill:#000000;"><tspan x="5" y="16" class="highcharts-text-outline" fill="#FFFFFF" stroke="#FFFFFF" stroke-width="2px" stroke-linejoin="round">3</tspan><tspan x="5" y="16">3</tspan></text></g><g class="highcharts-label highcharts-data-label highcharts-data-label-color-undefined" data-z-index="1" transform="translate(369,129)"><text x="5" data-z-index="1" y="16" style="color:#000000;font-size:11px;font-weight:bold;fill:#000000;"><tspan x="5" y="16" class="highcharts-text-outline" fill="#FFFFFF" stroke="#FFFFFF" stroke-width="2px" stroke-linejoin="round">3</tspan><tspan x="5" y="16">3</tspan></text></g><g class="highcharts-label highcharts-data-label highcharts-data-label-color-undefined" data-z-index="1" transform="translate(358,189)"><text x="5" data-z-index="1" y="16" style="color:#000000;font-size:11px;font-weight:bold;fill:#000000;"><tspan x="5" y="16" class="highcharts-text-outline" fill="#FFFFFF" stroke="#FFFFFF" stroke-width="2px" stroke-linejoin="round">3</tspan><tspan x="5" y="16">3</tspan></text></g><g class="highcharts-label highcharts-data-label highcharts-data-label-color-undefined" data-z-index="1" transform="translate(312,228)"><text x="5" data-z-index="1" y="16" style="color:#000000;font-size:11px;font-weight:bold;fill:#000000;"><tspan x="5" y="16" class="highcharts-text-outline" fill="#FFFFFF" stroke="#FFFFFF" stroke-width="2px" stroke-linejoin="round">3</tspan><tspan x="5" y="16">3</tspan></text></g><g class="highcharts-label highcharts-data-label highcharts-data-label-color-undefined" data-z-index="1" transform="translate(252,228)"><text x="5" data-z-index="1" y="16" style="color:#000000;font-size:11px;font-weight:bold;fill:#000000;"><tspan x="5" y="16" class="highcharts-text-outline" fill="#FFFFFF" stroke="#FFFFFF" stroke-width="2px" stroke-linejoin="round">3</tspan><tspan x="5" y="16">3</tspan></text></g><g class="highcharts-label highcharts-data-label highcharts-data-label-color-undefined" data-z-index="1" transform="translate(205,189)"><text x="5" data-z-index="1" y="16" style="color:#000000;font-size:11px;font-weight:bold;fill:#000000;"><tspan x="5" y="16" class="highcharts-text-outline" fill="#FFFFFF" stroke="#FFFFFF" stroke-width="2px" stroke-linejoin="round">3</tspan><tspan x="5" y="16">3</tspan></text></g><g class="highcharts-label highcharts-data-label highcharts-data-label-color-undefined" data-z-index="1" transform="translate(195,129)"><text x="5" data-z-index="1" y="16" style="color:#000000;font-size:11px;font-weight:bold;fill:#000000;"><tspan x="5" y="16" class="highcharts-text-outline" fill="#FFFFFF" stroke="#FFFFFF" stroke-width="2px" stroke-linejoin="round">3</tspan><tspan x="5" y="16">3</tspan></text></g><g class="highcharts-label highcharts-data-label highcharts-data-label-color-undefined" data-z-index="1" transform="translate(225,77)"><text x="5" data-z-index="1" y="16" style="color:#000000;font-size:11px;font-weight:bold;fill:#000000;"><tspan x="5" y="16" class="highcharts-text-outline" fill="#FFFFFF" stroke="#FFFFFF" stroke-width="2px" stroke-linejoin="round">3</tspan><tspan x="5" y="16">3</tspan></text></g></g><g class="highcharts-legend" data-z-index="7" transform="translate(197,359)" aria-hidden="true"><rect fill="none" class="highcharts-legend-box" rx="0" ry="0" x="0" y="0" width="206" height="26" visibility="visible"></rect><g data-z-index="1"><g><g class="highcharts-legend-item highcharts-line-series highcharts-color-undefined highcharts-series-0" data-z-index="1" transform="translate(8,3)"><path fill="none" d="M 0 11 L 16 11" class="highcharts-graph" stroke="#0F0" stroke-width="2"></path><path fill="#0F0" d="M 8 15 A 4 4 0 1 1 8.003999999333336 14.999998000000167 Z" class="highcharts-point" opacity="1"></path><text x="21" style="color:#333333;cursor:pointer;font-size:12px;font-weight:bold;fill:#333333;" text-anchor="start" data-z-index="2" y="15"><tspan>Capaian</tspan></text></g><g class="highcharts-legend-item highcharts-line-series highcharts-color-undefined highcharts-series-1" data-z-index="1" transform="translate(98,3)"><path fill="none" d="M 0 11 L 16 11" class="highcharts-graph" stroke="#FF0000" stroke-width="2"></path><path fill="#FF0000" d="M 8 7 L 12 11 L 8 15 L 4 11 Z" class="highcharts-point" opacity="1"></path><text x="21" y="15" style="color:#333333;cursor:pointer;font-size:12px;font-weight:bold;fill:#333333;" text-anchor="start" data-z-index="2"><tspan>Nilai Standar</tspan></text></g></g></g></g><g class="highcharts-axis-labels highcharts-xaxis-labels" data-z-index="7" aria-hidden="true"><text x="300" style="color:#666666;cursor:default;font-size:11px;fill:#666666;" transform="translate(0,0) rotate(1 300 49.14966078584775)" text-anchor="middle" y="49.14966078584775" opacity="1">Integritas</text><text x="385.4586127078254" style="color:#666666;cursor:default;font-size:11px;fill:#666666;" transform="translate(0,0) rotate(1 385.4586127078254 80.21914726030505)" text-anchor="start" y="80.21914726030505" opacity="1"><tspan>Kerjasama</tspan></text><text x="430.93019076297304" style="color:#666666;cursor:default;font-size:11px;fill:#666666;" transform="translate(0,0) rotate(1 430.93019076297304 158.92587353284296)" text-anchor="start" y="158.92587353284296" opacity="1"><tspan>Komunikasi</tspan></text><text x="415.1380774331411" style="color:#666666;cursor:default;font-size:11px;fill:#666666;" transform="translate(0,0) rotate(1 415.1380774331411 248.16452923457155)" text-anchor="start" y="248.16452923457155" opacity="1"><tspan>Orientasi pada Hasil</tspan></text><text x="345.4715780551477" style="color:#666666;cursor:default;font-size:11px;fill:#666666;" transform="translate(0,0) rotate(1 345.4715780551477 306.74383001311907)" text-anchor="middle" y="306.74383001311907" opacity="1"><tspan>Pelayanan Publik</tspan></text><text x="254.52842194485234" style="color:#666666;cursor:default;font-size:11px;fill:#666666;" transform="translate(0,0) rotate(1 254.52842194485234 306.0370075524091)" text-anchor="end" y="306.0370075524091" opacity="1"><tspan>Pengembangan Diri dan Orang Lain</tspan></text><text x="184.8619225668589" style="color:#666666;cursor:default;font-size:11px;fill:#666666;" transform="translate(0,0) rotate(1 184.8619225668589 248.11217201525974)" text-anchor="end" y="248.11217201525974" opacity="1"><tspan>Mengelola Perubahan</tspan></text><text x="169.06980923702693" style="color:#666666;cursor:default;font-size:11px;fill:#666666;" transform="translate(0,0) rotate(1 169.06980923702693 158.4459323558177)" text-anchor="end" y="158.4459323558177" opacity="1"><tspan>Pengambilan Keputusan</tspan></text><text x="214.5413872921746" style="color:#666666;cursor:default;font-size:11px;fill:#666666;" transform="translate(0,0) rotate(1 214.5413872921746 80.02717078949495)" text-anchor="end" y="80.02717078949495" opacity="1"><tspan>Perekat Bangsa</tspan></text><text x="0" style="color:#666666;cursor:default;font-size:11px;fill:#666666;" transform="translate(0,0) rotate(1 0 -9999)" text-anchor="middle" y="-9999">9</text></g><g class="highcharts-axis-labels highcharts-yaxis-labels" data-z-index="7" aria-hidden="true"></g></g></svg>