<svg height="400" width="600" version="1.1" xmlns="http://www.w3.org/2000/svg"><g transform="translate(0,0)"  xmlns:xlink="http://www.w3.org/1999/xlink" version="1.1" class="highcharts-root" style="font-family:&quot;Lucida Grande&quot;, &quot;Lucida Sans Unicode&quot;, Arial, Helvetica, sans-serif;font-size:12px;" xmlns="http://www.w3.org/2000/svg" width="600" height="400" viewBox="0 0 600 400" aria-hidden="false" aria-label="Interactive chart"><desc aria-hidden="true">Created with Highcharts 8.1.2</desc><defs aria-hidden="true"><clipPath id="highcharts-73d548k-96-"><rect x="0" y="0" width="454" height="375" fill="none"></rect></clipPath><clipPath id="highcharts-73d548k-107"><circle cx="227" cy="187.5" r="150"></circle></clipPath><clipPath id="highcharts-73d548k-118"><circle cx="227" cy="187.5" r="150"></circle></clipPath></defs><rect fill="#ffffff" class="highcharts-background" x="0" y="0" width="600" height="400" rx="0" ry="0" aria-hidden="true"></rect><rect fill="none" class="highcharts-plot-background" x="10" y="10" width="454" height="375" aria-hidden="true"></rect><g class="highcharts-pane-group" data-z-index="0" aria-hidden="true"></g><g class="highcharts-grid highcharts-xaxis-grid" data-z-index="1" aria-hidden="true"><path fill="none" stroke="#e6e6e6" stroke-width="1" data-z-index="1" class="highcharts-grid-line" d="M 237 197.5 L 237 47.5" opacity="1"></path><path fill="none" stroke="#e6e6e6" stroke-width="1" data-z-index="1" class="highcharts-grid-line" d="M 237 197.5 L 333.4181414529809 82.5933335321533" opacity="1"></path><path fill="none" stroke="#e6e6e6" stroke-width="1" data-z-index="1" class="highcharts-grid-line" d="M 237 197.5 L 384.72116295183116 171.45277334996044" opacity="1"></path><path fill="none" stroke="#e6e6e6" stroke-width="1" data-z-index="1" class="highcharts-grid-line" d="M 237 197.5 L 366.9038105676658 272.5" opacity="1"></path><path fill="none" stroke="#e6e6e6" stroke-width="1" data-z-index="1" class="highcharts-grid-line" d="M 237 197.5 L 288.30302149885034 338.45389311788625" opacity="1"></path><path fill="none" stroke="#e6e6e6" stroke-width="1" data-z-index="1" class="highcharts-grid-line" d="M 237 197.5 L 185.6969785011497 338.45389311788625" opacity="1"></path><path fill="none" stroke="#e6e6e6" stroke-width="1" data-z-index="1" class="highcharts-grid-line" d="M 237 197.5 L 107.09618943233423 272.50000000000006" opacity="1"></path><path fill="none" stroke="#e6e6e6" stroke-width="1" data-z-index="1" class="highcharts-grid-line" d="M 237 197.5 L 89.27883704816878 171.4527733499605" opacity="1"></path><path fill="none" stroke="#e6e6e6" stroke-width="1" data-z-index="1" class="highcharts-grid-line" d="M 237 197.5 L 140.58185854701907 82.59333353215331" opacity="1"></path><path fill="none" stroke="#e6e6e6" stroke-width="1" data-z-index="1" class="highcharts-grid-line" d="M 237 197.5 L 236.99999999999997 47.5" opacity="1"></path></g><g class="highcharts-grid highcharts-yaxis-grid" data-z-index="1" aria-hidden="true"><path fill="none" stroke="#e6e6e6" stroke-width="1" data-z-index="1" class="highcharts-grid-line" d="M 237 197.5 L 237 197.5 L 237 197.5 L 237 197.5 L 237 197.5 L 237 197.5 L 237 197.5 L 237 197.5 L 237 197.5 L 237 197.5 L 237 197.5" opacity="1"></path><path fill="none" stroke="#e6e6e6" stroke-width="1" data-z-index="1" class="highcharts-grid-line" d="M 237 147.5 L 269.139380484327 159.1977778440511 L 286.2403876506104 188.8175911166535 L 280.30127018922195 222.5 L 254.10100716628344 244.4846310392954 L 219.89899283371656 244.48463103929544 L 193.69872981077808 222.50000000000003 L 187.75961234938958 188.8175911166535 L 204.86061951567302 159.1977778440511 L 237 147.5 L 237 147.5" opacity="1"></path><path fill="none" stroke="#e6e6e6" stroke-width="1" data-z-index="1" class="highcharts-grid-line" d="M 237 97.5 L 301.27876096865396 120.89555568810219 L 335.4807753012208 180.13518223330698 L 323.6025403784439 247.5 L 271.2020143325669 291.4692620785908 L 202.79798566743312 291.4692620785909 L 150.39745962155615 247.50000000000003 L 138.51922469877917 180.135182233307 L 172.72123903134604 120.8955556881022 L 236.99999999999997 97.5 L 237 97.5" opacity="1"></path><path fill="none" stroke="#e6e6e6" stroke-width="1" data-z-index="1" class="highcharts-grid-line" d="M 237 47.5 L 333.4181414529809 82.5933335321533 L 384.72116295183116 171.45277334996044 L 366.9038105676658 272.5 L 288.30302149885034 338.45389311788625 L 185.6969785011497 338.45389311788625 L 107.09618943233423 272.50000000000006 L 89.27883704816878 171.4527733499605 L 140.58185854701907 82.59333353215331 L 236.99999999999997 47.5 L 237 47.5" opacity="1"></path></g><rect fill="none" class="highcharts-plot-border" data-z-index="1" x="10" y="10" width="454" height="375" aria-hidden="true"></rect><g class="highcharts-axis highcharts-xaxis" data-z-index="2" aria-hidden="true"><path fill="none" class="highcharts-axis-line" data-z-index="7" d="M 237 47.5 A 150 150 0 1 1 236.85000002499993 47.50007499999376 M 237 197.5 A 0 0 0 1 0 237 197.5"></path></g><g class="highcharts-axis highcharts-yaxis" data-z-index="2" aria-hidden="true"><path fill="none" class="highcharts-axis-line" data-z-index="7" d="M 237 197.5 L 237 47.5"></path></g><g class="highcharts-series-group" data-z-index="3" aria-hidden="false"><g class="highcharts-series highcharts-series-0 highcharts-line-series" data-z-index="0.1" opacity="1" transform="translate(10,10) scale(1 1)" clip-path="url(#highcharts-73d548k-107)" aria-hidden="true"><path fill="none" d="M 227 93.75 L 271.19164816594946 134.83444453557019 L 300.8605814759161 174.4763866749829 L 297.36456405748544 228.12500000000034 L 252.65151074942708 257.9769465589424 L 201.34848925057196 257.9769465589421 L 156.635435942514 228.12499999999935 L 153.13941852408408 174.47638667498188 L 182.8083518340528 134.83444453556825 L 227 93.75" class="highcharts-graph" data-z-index="1" stroke="#0F0" stroke-width="2" stroke-linejoin="round" stroke-linecap="round"></path></g><g class="highcharts-markers highcharts-series-0 highcharts-line-series" data-z-index="0.1" opacity="1" transform="translate(10,10) scale(1 1)" clip-path="none" aria-hidden="false" role="region" tabindex="-1" style="outline: 0px;" aria-label="Capaian, line 1 of 2 with 9 data points."><path fill="#0F0" d="M 227 98 A 4 4 0 1 1 227.00399999933333 97.99999800000016 Z" opacity="1" class="highcharts-point" tabindex="-1" style="outline: 0px;" role="img" aria-label="1. Integritas, 3.75. Capaian."></path><path fill="#0F0" d="M 271 139 A 4 4 0 1 1 271.00399999933336 138.99999800000018 Z" opacity="1" class="highcharts-point" tabindex="-1" style="outline: 0px;" role="img" aria-label="2. Kerjasama , 2.75. Capaian."></path><path fill="#0F0" d="M 300 178 A 4 4 0 1 1 300.00399999933336 177.99999800000018 Z" opacity="1" class="highcharts-point" tabindex="-1" style="outline: 0px;" role="img" aria-label="3. Komunikasi , 3. Capaian."></path><path fill="#0F0" d="M 297 232 A 4 4 0 1 1 297.00399999933336 231.99999800000018 Z" opacity="1" class="highcharts-point" tabindex="-1" style="outline: 0px;" role="img" aria-label="4. Orientasi pada Hasil , 3.25. Capaian."></path><path fill="#0F0" d="M 252 262 A 4 4 0 1 1 252.00399999933333 261.9999980000002 Z" opacity="1" class="highcharts-point" tabindex="-1" style="outline: 0px;" role="img" aria-label="5. Pelayanan Publik, 3. Capaian."></path><path fill="#0F0" d="M 201 262 A 4 4 0 1 1 201.00399999933333 261.9999980000002 Z" opacity="1" class="highcharts-point" tabindex="-1" style="outline: 0px;" role="img" aria-label="6. Pengembangan Diri dan Orang Lain    , 3. Capaian."></path><path fill="#0F0" d="M 156 232 A 4 4 0 1 1 156.00399999933333 231.99999800000018 Z" opacity="1" class="highcharts-point" tabindex="-1" style="outline: 0px;" role="img" aria-label="7. Mengelola Perubahan , 3.25. Capaian."></path><path fill="#0F0" d="M 153 178 A 4 4 0 1 1 153.00399999933333 177.99999800000018 Z" opacity="1" class="highcharts-point" tabindex="-1" style="outline: 0px;" role="img" aria-label="8. Pengambilan Keputusan, 3. Capaian."></path><path fill="#0F0" d="M 182 139 A 4 4 0 1 1 182.00399999933333 138.99999800000018 Z" opacity="1" class="highcharts-point" tabindex="-1" style="outline: 0px;" role="img" aria-label="9. Perekat Bangsa, 2.75. Capaian."></path></g><g class="highcharts-series highcharts-series-1 highcharts-line-series" data-z-index="0.1" opacity="1" transform="translate(10,10) scale(1 1)" clip-path="url(#highcharts-73d548k-118)" aria-hidden="true"><path fill="none" d="M 227 87.5 L 291.2787609686538 110.89555568810209 L 325.48077530122146 170.13518223331056 L 313.6025403784436 237.5000000000004 L 261.20201433256943 281.4692620785899 L 192.7979856674293 281.46926207858945 L 140.39745962155567 237.4999999999992 L 128.5192246987788 170.1351822333092 L 162.7212390313495 110.89555568809931 L 227 87.5" class="highcharts-graph" data-z-index="1" stroke="#FF0000" stroke-width="2" stroke-linejoin="round" stroke-linecap="round"></path></g><g class="highcharts-markers highcharts-series-1 highcharts-line-series" data-z-index="0.1" opacity="1" transform="translate(10,10) scale(1 1)" clip-path="none" aria-hidden="false" role="region" tabindex="-1" style="outline: 0px;" aria-label="Nilai Standar, line 2 of 2 with 9 data points."><path fill="#FF0000" d="M 227 84 L 231 88 L 227 92 L 223 88 Z" opacity="1" class="highcharts-point" tabindex="-1" style="outline: 0px;" role="img" aria-label="1. Integritas, 4. Nilai Standar."></path><path fill="#FF0000" d="M 291 107 L 295 111 L 291 115 L 287 111 Z" opacity="1" class="highcharts-point" tabindex="-1" style="outline: 0px;" role="img" aria-label="2. Kerjasama , 4. Nilai Standar."></path><path fill="#FF0000" d="M 325 166 L 329 170 L 325 174 L 321 170 Z" opacity="1" class="highcharts-point" tabindex="-1" style="outline: 0px;" role="img" aria-label="3. Komunikasi , 4. Nilai Standar."></path><path fill="#FF0000" d="M 313 234 L 317 238 L 313 242 L 309 238 Z" opacity="1" class="highcharts-point" tabindex="-1" style="outline: 0px;" role="img" aria-label="4. Orientasi pada Hasil , 4. Nilai Standar."></path><path fill="#FF0000" d="M 261 277 L 265 281 L 261 285 L 257 281 Z" opacity="1" class="highcharts-point" tabindex="-1" style="outline: 0px;" role="img" aria-label="5. Pelayanan Publik, 4. Nilai Standar."></path><path fill="#FF0000" d="M 192 277 L 196 281 L 192 285 L 188 281 Z" opacity="1" class="highcharts-point" tabindex="-1" style="outline: 0px;" role="img" aria-label="6. Pengembangan Diri dan Orang Lain    , 4. Nilai Standar."></path><path fill="#FF0000" d="M 140 233 L 144 237 L 140 241 L 136 237 Z" opacity="1" class="highcharts-point" tabindex="-1" style="outline: 0px;" role="img" aria-label="7. Mengelola Perubahan , 4. Nilai Standar."></path><path fill="#FF0000" d="M 128 166 L 132 170 L 128 174 L 124 170 Z" opacity="1" class="highcharts-point" tabindex="-1" style="outline: 0px;" role="img" aria-label="8. Pengambilan Keputusan, 4. Nilai Standar."></path><path fill="#FF0000" d="M 162 107 L 166 111 L 162 115 L 158 111 Z" opacity="1" class="highcharts-point" tabindex="-1" style="outline: 0px;" role="img" aria-label="9. Perekat Bangsa, 4. Nilai Standar."></path></g></g><text x="220" text-anchor="middle" class="highcharts-title" data-z-index="4" style="color:#333333;font-size:18px;fill:#333333;" y="24" aria-hidden="true"></text><text x="300" text-anchor="middle" class="highcharts-subtitle" data-z-index="4" style="color:#666666;fill:#666666;" y="25" aria-hidden="true"></text><text x="10" text-anchor="start" class="highcharts-caption" data-z-index="4" style="color:#666666;fill:#666666;" y="398" aria-hidden="true"></text><g class="highcharts-data-labels highcharts-series-0 highcharts-line-series" data-z-index="6" opacity="1" transform="translate(10,10) scale(1 1)" aria-hidden="true"><g class="highcharts-label highcharts-data-label highcharts-data-label-color-undefined" data-z-index="1" transform="translate(210,69)"><text x="5" data-z-index="1" y="16" style="color:#000000;font-size:11px;font-weight:bold;fill:#000000;"><tspan x="5" y="16" class="highcharts-text-outline" fill="#FFFFFF" stroke="#FFFFFF" stroke-width="2px" stroke-linejoin="round" style="">3.75</tspan><tspan x="5" y="16">3.75</tspan></text></g><g class="highcharts-label highcharts-data-label highcharts-data-label-color-undefined" data-z-index="1" transform="translate(255,110)"><text x="5" data-z-index="1" y="16" style="color:#000000;font-size:11px;font-weight:bold;fill:#000000;"><tspan x="5" y="16" class="highcharts-text-outline" fill="#FFFFFF" stroke="#FFFFFF" stroke-width="2px" stroke-linejoin="round">2.75</tspan><tspan x="5" y="16">2.75</tspan></text></g><g class="highcharts-label highcharts-data-label highcharts-data-label-color-undefined" data-z-index="1" transform="translate(293,149)"><text x="5" data-z-index="1" y="16" style="color:#000000;font-size:11px;font-weight:bold;fill:#000000;"><tspan x="5" y="16" class="highcharts-text-outline" fill="#FFFFFF" stroke="#FFFFFF" stroke-width="2px" stroke-linejoin="round" style="">3</tspan><tspan x="5" y="16">3</tspan></text></g><g class="highcharts-label highcharts-data-label highcharts-data-label-color-undefined" data-z-index="1" transform="translate(281,203)"><text x="5" data-z-index="1" y="16" style="color:#000000;font-size:11px;font-weight:bold;fill:#000000;"><tspan x="5" y="16" class="highcharts-text-outline" fill="#FFFFFF" stroke="#FFFFFF" stroke-width="2px" stroke-linejoin="round">3.25</tspan><tspan x="5" y="16">3.25</tspan></text></g><g class="highcharts-label highcharts-data-label highcharts-data-label-color-undefined" data-z-index="1" transform="translate(244,233)"><text x="5" data-z-index="1" y="16" style="color:#000000;font-size:11px;font-weight:bold;fill:#000000;"><tspan x="5" y="16" class="highcharts-text-outline" fill="#FFFFFF" stroke="#FFFFFF" stroke-width="2px" stroke-linejoin="round">3</tspan><tspan x="5" y="16">3</tspan></text></g><g class="highcharts-label highcharts-data-label highcharts-data-label-color-undefined" data-z-index="1" transform="translate(193,233)"><text x="5" data-z-index="1" y="16" style="color:#000000;font-size:11px;font-weight:bold;fill:#000000;"><tspan x="5" y="16" class="highcharts-text-outline" fill="#FFFFFF" stroke="#FFFFFF" stroke-width="2px" stroke-linejoin="round">3</tspan><tspan x="5" y="16">3</tspan></text></g><g class="highcharts-label highcharts-data-label highcharts-data-label-color-undefined" data-z-index="1" transform="translate(140,203)"><text x="5" data-z-index="1" y="16" style="color:#000000;font-size:11px;font-weight:bold;fill:#000000;"><tspan x="5" y="16" class="highcharts-text-outline" fill="#FFFFFF" stroke="#FFFFFF" stroke-width="2px" stroke-linejoin="round">3.25</tspan><tspan x="5" y="16">3.25</tspan></text></g><g class="highcharts-label highcharts-data-label highcharts-data-label-color-undefined" data-z-index="1" transform="translate(145,149)"><text x="5" data-z-index="1" y="16" style="color:#000000;font-size:11px;font-weight:bold;fill:#000000;"><tspan x="5" y="16" class="highcharts-text-outline" fill="#FFFFFF" stroke="#FFFFFF" stroke-width="2px" stroke-linejoin="round">3</tspan><tspan x="5" y="16">3</tspan></text></g><g class="highcharts-label highcharts-data-label highcharts-data-label-color-undefined" data-z-index="1" transform="translate(166,110)"><text x="5" data-z-index="1" y="16" style="color:#000000;font-size:11px;font-weight:bold;fill:#000000;"><tspan x="5" y="16" class="highcharts-text-outline" fill="#FFFFFF" stroke="#FFFFFF" stroke-width="2px" stroke-linejoin="round">2.75</tspan><tspan x="5" y="16">2.75</tspan></text></g></g><g class="highcharts-data-labels highcharts-series-1 highcharts-line-series" data-z-index="6" opacity="1" transform="translate(10,10) scale(1 1)" aria-hidden="true"><g class="highcharts-label highcharts-data-label highcharts-data-label-color-undefined highcharts-data-label-hidden" data-z-index="1" transform="translate(219,63)" opacity="0" style="pointer-events:none;"><text x="5" data-z-index="1" y="16" style="color:#000000;font-size:11px;font-weight:bold;fill:#000000;"><tspan x="5" y="16" class="highcharts-text-outline" fill="#FFFFFF" stroke="#FFFFFF" stroke-width="2px" stroke-linejoin="round">4</tspan><tspan x="5" y="16">4</tspan></text></g><g class="highcharts-label highcharts-data-label highcharts-data-label-color-undefined" data-z-index="1" transform="translate(283,86)"><text x="5" data-z-index="1" y="16" style="color:#000000;font-size:11px;font-weight:bold;fill:#000000;"><tspan x="5" y="16" class="highcharts-text-outline" fill="#FFFFFF" stroke="#FFFFFF" stroke-width="2px" stroke-linejoin="round">4</tspan><tspan x="5" y="16">4</tspan></text></g><g class="highcharts-label highcharts-data-label highcharts-data-label-color-undefined" data-z-index="1" transform="translate(317,145)"><text x="5" data-z-index="1" y="16" style="color:#000000;font-size:11px;font-weight:bold;fill:#000000;"><tspan x="5" y="16" class="highcharts-text-outline" fill="#FFFFFF" stroke="#FFFFFF" stroke-width="2px" stroke-linejoin="round">4</tspan><tspan x="5" y="16">4</tspan></text></g><g class="highcharts-label highcharts-data-label highcharts-data-label-color-undefined" data-z-index="1" transform="translate(305,213)"><text x="5" data-z-index="1" y="16" style="color:#000000;font-size:11px;font-weight:bold;fill:#000000;"><tspan x="5" y="16" class="highcharts-text-outline" fill="#FFFFFF" stroke="#FFFFFF" stroke-width="2px" stroke-linejoin="round">4</tspan><tspan x="5" y="16">4</tspan></text></g><g class="highcharts-label highcharts-data-label highcharts-data-label-color-undefined" data-z-index="1" transform="translate(253,256)"><text x="5" data-z-index="1" y="16" style="color:#000000;font-size:11px;font-weight:bold;fill:#000000;"><tspan x="5" y="16" class="highcharts-text-outline" fill="#FFFFFF" stroke="#FFFFFF" stroke-width="2px" stroke-linejoin="round">4</tspan><tspan x="5" y="16">4</tspan></text></g><g class="highcharts-label highcharts-data-label highcharts-data-label-color-undefined" data-z-index="1" transform="translate(184,256)"><text x="5" data-z-index="1" y="16" style="color:#000000;font-size:11px;font-weight:bold;fill:#000000;"><tspan x="5" y="16" class="highcharts-text-outline" fill="#FFFFFF" stroke="#FFFFFF" stroke-width="2px" stroke-linejoin="round">4</tspan><tspan x="5" y="16">4</tspan></text></g><g class="highcharts-label highcharts-data-label highcharts-data-label-color-undefined" data-z-index="1" transform="translate(132,212)"><text x="5" data-z-index="1" y="16" style="color:#000000;font-size:11px;font-weight:bold;fill:#000000;"><tspan x="5" y="16" class="highcharts-text-outline" fill="#FFFFFF" stroke="#FFFFFF" stroke-width="2px" stroke-linejoin="round">4</tspan><tspan x="5" y="16">4</tspan></text></g><g class="highcharts-label highcharts-data-label highcharts-data-label-color-undefined" data-z-index="1" transform="translate(120,145)"><text x="5" data-z-index="1" y="16" style="color:#000000;font-size:11px;font-weight:bold;fill:#000000;"><tspan x="5" y="16" class="highcharts-text-outline" fill="#FFFFFF" stroke="#FFFFFF" stroke-width="2px" stroke-linejoin="round">4</tspan><tspan x="5" y="16">4</tspan></text></g><g class="highcharts-label highcharts-data-label highcharts-data-label-color-undefined" data-z-index="1" transform="translate(154,86)"><text x="5" data-z-index="1" y="16" style="color:#000000;font-size:11px;font-weight:bold;fill:#000000;"><tspan x="5" y="16" class="highcharts-text-outline" fill="#FFFFFF" stroke="#FFFFFF" stroke-width="2px" stroke-linejoin="round">4</tspan><tspan x="5" y="16">4</tspan></text></g></g><g class="highcharts-legend" data-z-index="7" transform="translate(476,177)" aria-hidden="true"><rect fill="none" class="highcharts-legend-box" rx="0" ry="0" x="0" y="0" width="113" height="41" visibility="visible"></rect><g data-z-index="1"><g><g class="highcharts-legend-item highcharts-line-series highcharts-color-undefined highcharts-series-0" data-z-index="1" transform="translate(8,3)"><path fill="none" d="M 0 11 L 16 11" class="highcharts-graph" stroke="#0F0" stroke-width="2"></path><path fill="#0F0" d="M 8 15 A 4 4 0 1 1 8.003999999333336 14.999998000000167 Z" class="highcharts-point" opacity="1"></path><text x="21" style="color:#333333;cursor:pointer;font-size:12px;font-weight:bold;fill:#333333;" text-anchor="start" data-z-index="2" y="15"><tspan>Capaian</tspan></text></g><g class="highcharts-legend-item highcharts-line-series highcharts-color-undefined highcharts-series-1" data-z-index="1" transform="translate(8,18)"><path fill="none" d="M 0 11 L 16 11" class="highcharts-graph" stroke="#FF0000" stroke-width="2"></path><path fill="#FF0000" d="M 8 7 L 12 11 L 8 15 L 4 11 Z" class="highcharts-point" opacity="1"></path><text x="21" y="15" style="color:#333333;cursor:pointer;font-size:12px;font-weight:bold;fill:#333333;" text-anchor="start" data-z-index="2"><tspan>Nilai Standar</tspan></text></g></g></g></g><g class="highcharts-axis-labels highcharts-xaxis-labels" data-z-index="7" aria-hidden="true"><text x="237" style="color:#666666;cursor:default;font-size:11px;fill:#666666;" transform="translate(0,0) rotate(1 237 37.13848552648577)" text-anchor="middle" y="37.13848552648577" opacity="1">Integritas</text><text x="343.059955598279" style="color:#666666;cursor:default;font-size:11px;fill:#666666;" transform="translate(0,0) rotate(1 343.059955598279 74.10656102273424)" text-anchor="start" y="74.10656102273424" opacity="1"><tspan>Kerjasama</tspan></text><text x="399.49327924701436" style="color:#666666;cursor:default;font-size:11px;fill:#666666;" transform="translate(0,0) rotate(1 399.49327924701436 171.7805354170606)" text-anchor="start" y="171.7805354170606" opacity="1"><tspan>Komunikasi</tspan></text><text x="379.8941916244324" style="color:#666666;cursor:default;font-size:11px;fill:#666666;" transform="translate(0,0) rotate(1 379.8941916244324 282.55158594829527)" text-anchor="start" y="282.55158594829527" opacity="1"><tspan>Orientasi pada Hasil</tspan></text><text x="293.4333236487354" style="color:#666666;cursor:default;font-size:11px;fill:#666666;" transform="translate(0,0) rotate(1 293.4333236487354 355.2394695546727)" text-anchor="middle" y="355.2394695546727" opacity="1"><tspan>Pelayanan Publik</tspan></text><text x="180.56667635126468" style="color:#666666;cursor:default;font-size:11px;fill:#666666;" transform="translate(0,0) rotate(1 180.56667635126468 354.36408594399944)" text-anchor="end" y="354.36408594399944" opacity="1"><tspan>Pengembangan Diri dan Orang Lain</tspan></text><text x="94.10580837556765" style="color:#666666;cursor:default;font-size:11px;fill:#666666;" transform="translate(0,0) rotate(1 94.10580837556765 282.4836670043486)" text-anchor="end" y="282.4836670043486" opacity="1"><tspan>Mengelola Perubahan</tspan></text><text x="74.50672075298567" style="color:#666666;cursor:default;font-size:11px;fill:#666666;" transform="translate(0,0) rotate(1 74.50672075298567 171.2152228896514)" text-anchor="end" y="171.2152228896514" opacity="1"><tspan>Pengambilan Keputusan</tspan></text><text x="130.94004440172097" style="color:#666666;cursor:default;font-size:11px;fill:#666666;" transform="translate(0,0) rotate(1 130.94004440172097 73.88346106936658)" text-anchor="end" y="73.88346106936658" opacity="1"><tspan>Perekat Bangsa</tspan></text><text x="0" style="color:#666666;cursor:default;font-size:11px;fill:#666666;" transform="translate(0,0) rotate(1 0 -9999)" text-anchor="middle" y="-9999">9</text></g><g class="highcharts-axis-labels highcharts-yaxis-labels" data-z-index="7" aria-hidden="true"></g></g></svg>