<svg height="400" width="600" version="1.1" xmlns="http://www.w3.org/2000/svg"><g transform="translate(0,0)"  xmlns:xlink="http://www.w3.org/1999/xlink" version="1.1" class="highcharts-root" style="font-family:&quot;Lucida Grande&quot;, &quot;Lucida Sans Unicode&quot;, Arial, Helvetica, sans-serif;font-size:12px;" xmlns="http://www.w3.org/2000/svg" width="600" height="400" viewBox="0 0 600 400" aria-label="Interactive chart" aria-hidden="false"><desc aria-hidden="true">Created with Highcharts 8.1.2</desc><defs aria-hidden="true"><clipPath id="highcharts-a130sx7-185-"><rect x="0" y="0" width="522" height="333" fill="none"></rect></clipPath></defs><rect fill="#ffffff" class="highcharts-background" x="0" y="0" width="600" height="400" rx="0" ry="0" aria-hidden="true"></rect><rect fill="none" class="highcharts-plot-background" x="68" y="10" width="522" height="333" aria-hidden="true"></rect><g class="highcharts-pane-group" data-z-index="0" aria-hidden="true"></g><rect x="68" y="10" width="261" height="55.5" fill="#00b050" rx="1" ry="1" data-z-index="0" aria-hidden="true"></rect><rect x="329" y="10" width="174" height="55.5" fill="#92d050" rx="1" ry="1" data-z-index="0" aria-hidden="true"></rect><rect x="503" y="10" width="87" height="55.5" fill="#006600" rx="1" ry="1" data-z-index="0" aria-hidden="true"></rect><rect x="68" y="65.5" width="261" height="111" fill="#ffff00" rx="1" ry="1" data-z-index="0" aria-hidden="true"></rect><rect x="329" y="65.5" width="174" height="111" fill="#c4d79b" rx="1" ry="1" data-z-index="0" aria-hidden="true"></rect><rect x="503" y="65.5" width="87" height="111" fill="#92d050" rx="1" ry="1" data-z-index="0" aria-hidden="true"></rect><rect x="68" y="176.5" width="261" height="166.5" fill="#ff0000" rx="1" ry="1" data-z-index="0" aria-hidden="true"></rect><rect x="329" y="176.5" width="174" height="166.5" fill="#ffff00" rx="1" ry="1" data-z-index="0" aria-hidden="true"></rect><rect x="503" y="176.5" width="87" height="166.5" fill="#00b050" rx="1" ry="1" data-z-index="0" aria-hidden="true"></rect><g class="highcharts-grid highcharts-xaxis-grid" data-z-index="1" aria-hidden="true"><path fill="none" data-z-index="1" class="highcharts-grid-line" d="M 67.5 10 L 67.5 343" opacity="1"></path><path fill="none" data-z-index="1" class="highcharts-grid-line" d="M 176.5 10 L 176.5 343" opacity="1"></path><path fill="none" data-z-index="1" class="highcharts-grid-line" d="M 285.5 10 L 285.5 343" opacity="1"></path><path fill="none" data-z-index="1" class="highcharts-grid-line" d="M 393.5 10 L 393.5 343" opacity="1"></path><path fill="none" data-z-index="1" class="highcharts-grid-line" d="M 502.5 10 L 502.5 343" opacity="1"></path></g><g class="highcharts-grid highcharts-yaxis-grid" data-z-index="1" aria-hidden="true"><path fill="none" data-z-index="1" class="highcharts-grid-line" d="M 68 343.5 L 590 343.5" opacity="1"></path><path fill="none" data-z-index="1" class="highcharts-grid-line" d="M 68 276.5 L 590 276.5" opacity="1"></path><path fill="none" data-z-index="1" class="highcharts-grid-line" d="M 68 210.5 L 590 210.5" opacity="1"></path><path fill="none" data-z-index="1" class="highcharts-grid-line" d="M 68 143.5 L 590 143.5" opacity="1"></path><path fill="none" data-z-index="1" class="highcharts-grid-line" d="M 68 77.5 L 590 77.5" opacity="1"></path><path fill="none" data-z-index="1" class="highcharts-grid-line" d="M 68 10.5 L 590 10.5" opacity="1"></path></g><rect fill="none" class="highcharts-plot-border" data-z-index="1" x="68" y="10" width="522" height="333" aria-hidden="true"></rect><g class="highcharts-axis highcharts-xaxis" data-z-index="2" aria-hidden="true"><text x="329" data-z-index="7" text-anchor="middle" transform="translate(0,0)" class="highcharts-axis-title" style="color:#666666;fill:#666666;" y="382"><tspan>Potensi</tspan></text><path fill="none" class="highcharts-axis-line" stroke="#ccc" stroke-width="1" data-z-index="7" d="M 68 343.5 L 590 343.5"></path></g><g class="highcharts-axis highcharts-yaxis" data-z-index="2" aria-hidden="true"><text x="25" data-z-index="7" text-anchor="middle" transform="translate(0,0) rotate(270 25 176.5)" class="highcharts-axis-title" style="color:#666666;fill:#666666;" y="176.5"><tspan>Kompetensi</tspan></text><path fill="none" class="highcharts-axis-line" stroke="#ccc" stroke-width="1" data-z-index="7" d="M 67.5 10 L 67.5 343"></path></g><g class="highcharts-series-group" data-z-index="3" aria-hidden="false"><g class="highcharts-series highcharts-series-0 highcharts-line-series highcharts-color-0" data-z-index="0.1" opacity="1" transform="translate(68,10) scale(1 1)" clip-path="url(#highcharts-a130sx7-185-)" aria-hidden="true"><path fill="none" d="M 261 333 L 261 13.319999999999993" class="highcharts-graph" data-z-index="1" stroke="#7cb5ec" stroke-width="2" stroke-linejoin="round" stroke-linecap="round"></path></g><g class="highcharts-markers highcharts-series-0 highcharts-line-series highcharts-color-0" data-z-index="0.1" opacity="1" transform="translate(68,10) scale(1 1)" clip-path="none" aria-hidden="false" role="region" tabindex="-1" style="outline: currentcolor none 0px;" aria-label="SKP Kurang, series 1 of 7. Line with 2 data points."><path fill="#7cb5ec" d="M 261 337 A 4 4 0 1 1 261.00399999933336 336.9999980000002 Z" opacity="0" class="highcharts-point highcharts-color-0" tabindex="-1" style="outline: currentcolor none 0px;" role="img" aria-label="1. x, 60, 0. SKP Kurang."></path><path fill="#7cb5ec" d="M 261 17 A 4 4 0 1 1 261.00399999933336 16.99999800000017 Z" opacity="0" class="highcharts-point highcharts-color-0" tabindex="-1" style="outline: currentcolor none 0px;" role="img" aria-label="2. x, 60, 120. SKP Kurang."></path></g><g class="highcharts-series highcharts-series-1 highcharts-line-series highcharts-color-1" data-z-index="0.1" opacity="1" transform="translate(68,10) scale(1 1)" clip-path="url(#highcharts-a130sx7-185-)" aria-hidden="true"><path fill="none" d="M 0 173.16 L 522 173.16" class="highcharts-graph" data-z-index="1" stroke="#434348" stroke-width="2" stroke-linejoin="round" stroke-linecap="round"></path></g><g class="highcharts-markers highcharts-series-1 highcharts-line-series highcharts-color-1" data-z-index="0.1" opacity="1" transform="translate(68,10) scale(1 1)" clip-path="none" aria-hidden="false" role="region" tabindex="-1" style="outline: currentcolor none 0px;" aria-label="GM Kurang, series 2 of 7. Line with 2 data points."><path fill="#434348" d="M 0 169 L 4 173 L 0 177 L -4 173 Z" opacity="0" class="highcharts-point highcharts-color-1" tabindex="-1" style="outline: currentcolor none 0px;" role="img" aria-label="1. x, 0, 60. GM Kurang."></path><path fill="#434348" d="M 522 169 L 526 173 L 522 177 L 518 173 Z" opacity="0" class="highcharts-point highcharts-color-1" tabindex="-1" style="outline: currentcolor none 0px;" role="img" aria-label="2. x, 120, 60. GM Kurang."></path></g><g class="highcharts-series highcharts-series-2 highcharts-line-series highcharts-color-2" data-z-index="0.1" opacity="1" transform="translate(68,10) scale(1 1)" clip-path="url(#highcharts-a130sx7-185-)" aria-hidden="true"><path fill="none" d="M 435 170.49599999999998 L 435 13.319999999999993" class="highcharts-graph" data-z-index="1" stroke="#90ed7d" stroke-width="2" stroke-linejoin="round" stroke-linecap="round"></path></g><g class="highcharts-markers highcharts-series-2 highcharts-line-series highcharts-color-2" data-z-index="0.1" opacity="1" transform="translate(68,10) scale(1 1)" clip-path="none" aria-hidden="false" role="region" tabindex="-1" style="outline: currentcolor none 0px;" aria-label="SKP Sedang, series 3 of 7. Line with 2 data points."><path fill="#90ed7d" d="M 431 166 L 439 166 L 439 174 L 431 174 Z" opacity="0" class="highcharts-point highcharts-color-2" tabindex="-1" style="outline: currentcolor none 0px;" role="img" aria-label="1. x, 100, 61. SKP Sedang."></path><path fill="#90ed7d" d="M 431 9 L 439 9 L 439 17 L 431 17 Z" opacity="0" class="highcharts-point highcharts-color-2" tabindex="-1" style="outline: currentcolor none 0px;" role="img" aria-label="2. x, 100, 120. SKP Sedang."></path></g><g class="highcharts-series highcharts-series-3 highcharts-line-series highcharts-color-3" data-z-index="0.1" opacity="1" transform="translate(68,10) scale(1 1)" clip-path="url(#highcharts-a130sx7-185-)" aria-hidden="true"><path fill="none" d="M 0 66.59999999999997 L 522 66.59999999999997" class="highcharts-graph" data-z-index="1" stroke="#f7a35c" stroke-width="2" stroke-linejoin="round" stroke-linecap="round"></path></g><g class="highcharts-markers highcharts-series-3 highcharts-line-series highcharts-color-3" data-z-index="0.1" opacity="1" transform="translate(68,10) scale(1 1)" clip-path="none" aria-hidden="false" role="region" tabindex="-1" style="outline: currentcolor none 0px;" aria-label="GM Sedang, series 4 of 7. Line with 2 data points."><path fill="#f7a35c" d="M 0 63 L 4 71 L -4 71 Z" opacity="0" class="highcharts-point highcharts-color-3" tabindex="-1" style="outline: currentcolor none 0px;" role="img" aria-label="1. x, 0, 100. GM Sedang."></path><path fill="#f7a35c" d="M 522 63 L 526 71 L 518 71 Z" opacity="0" class="highcharts-point highcharts-color-3" tabindex="-1" style="outline: currentcolor none 0px;" role="img" aria-label="2. x, 120, 100. GM Sedang."></path></g><g class="highcharts-series highcharts-series-4 highcharts-line-series highcharts-color-4" data-z-index="0.1" opacity="1" transform="translate(68,10) scale(1 1)" clip-path="url(#highcharts-a130sx7-185-)" aria-hidden="true"><path fill="none" d="M 522 63.93599999999998 L 522 13.319999999999993" class="highcharts-graph" data-z-index="1" stroke="#8085e9" stroke-width="2" stroke-linejoin="round" stroke-linecap="round"></path></g><g class="highcharts-markers highcharts-series-4 highcharts-line-series highcharts-color-4" data-z-index="0.1" opacity="1" transform="translate(68,10) scale(1 1)" clip-path="none" aria-hidden="false" role="region" tabindex="-1" style="outline: currentcolor none 0px;" aria-label="SKP Baik, series 5 of 7. Line with 2 data points."><path fill="#8085e9" d="M 518 60 L 526 60 L 522 68 Z" opacity="0" class="highcharts-point highcharts-color-4" tabindex="-1" style="outline: currentcolor none 0px;" role="img" aria-label="1. x, 120, 101. SKP Baik."></path><path fill="#8085e9" d="M 518 9 L 526 9 L 522 17 Z" opacity="0" class="highcharts-point highcharts-color-4" tabindex="-1" style="outline: currentcolor none 0px;" role="img" aria-label="2. x, 120, 120. SKP Baik."></path></g><g class="highcharts-series highcharts-series-5 highcharts-line-series highcharts-color-5" data-z-index="0.1" opacity="1" transform="translate(68,10) scale(1 1)" clip-path="url(#highcharts-a130sx7-185-)" aria-hidden="true"><path fill="none" d="M 0 13.319999999999993 L 522 13.319999999999993" class="highcharts-graph" data-z-index="1" stroke="#f15c80" stroke-width="2" stroke-linejoin="round" stroke-linecap="round"></path></g><g class="highcharts-markers highcharts-series-5 highcharts-line-series highcharts-color-5" data-z-index="0.1" opacity="1" transform="translate(68,10) scale(1 1)" clip-path="none" aria-hidden="false" role="region" tabindex="-1" style="outline: currentcolor none 0px;" aria-label="GM Baik, series 6 of 7. Line with 2 data points."><path fill="#f15c80" d="M 2.4492935982947064e-16 17 A 4 4 0 1 1 0.003999999333335927 16.99999800000017 Z" opacity="0" class="highcharts-point highcharts-color-5" tabindex="-1" style="outline: currentcolor none 0px;" role="img" aria-label="1. x, 0, 120. GM Baik."></path><path fill="#f15c80" d="M 522 17 A 4 4 0 1 1 522.0039999993334 16.99999800000017 Z" opacity="0" class="highcharts-point highcharts-color-5" tabindex="-1" style="outline: currentcolor none 0px;" role="img" aria-label="2. x, 120, 120. GM Baik."></path></g><g class="highcharts-series highcharts-series-6 highcharts-scatter-series" data-z-index="0.1" opacity="1" transform="translate(68,10) scale(1 1)" clip-path="url(#highcharts-a130sx7-185-)" aria-hidden="true"></g><g class="highcharts-markers highcharts-series-6 highcharts-scatter-series" data-z-index="0.1" opacity="1" transform="translate(68,10) scale(1 1)" clip-path="none" aria-hidden="false" role="region" tabindex="-1" style="outline: currentcolor none 0px;" aria-label="Observations, series 7 of 7, scatter plot with 4 points."><path fill="blue" d="M 243 92 L 247 96 L 243 100 L 239 96 Z" opacity="1" class="highcharts-point" tabindex="-1" style="outline: currentcolor none 0px;" role="img" aria-label="1. x, 56, 88.888888888889. Observations."></path><path fill="blue" d="M 243 92 L 247 96 L 243 100 L 239 96 Z" opacity="1" class="highcharts-point" tabindex="-1" style="outline: currentcolor none 0px;" role="img" aria-label="2. x, 56, 88.888888888889. Observations."></path><path fill="blue" d="M 243 329 L 247 333 L 243 337 L 239 333 Z" opacity="1" class="highcharts-point" tabindex="-1" style="outline: currentcolor none 0px;" role="img" aria-label="3. x, 56, 0. Observations."></path><path fill="blue" d="M 243 329 L 247 333 L 243 337 L 239 333 Z" opacity="1" class="highcharts-point" tabindex="-1" style="outline: currentcolor none 0px;" role="img" aria-label="4. x, 56, 0. Observations."></path></g></g><text x="300" text-anchor="middle" class="highcharts-title" data-z-index="4" style="color:#333333;font-size:18px;fill:#333333;" y="24" aria-hidden="true"></text><text x="300" text-anchor="middle" class="highcharts-subtitle" data-z-index="4" style="color:#666666;fill:#666666;" y="24" aria-hidden="true"></text><text x="10" text-anchor="start" class="highcharts-caption" data-z-index="4" style="color:#666666;fill:#666666;" y="397" aria-hidden="true"></text><g class="highcharts-axis-labels highcharts-xaxis-labels" data-z-index="7" aria-hidden="true"><text x="0" style="color:#666666;cursor:default;font-size:11px;fill:#666666;" text-anchor="middle" transform="translate(0,0)" y="-9999">0</text><text x="503" style="color:#666666;cursor:default;font-size:11px;fill:#666666;" text-anchor="middle" transform="translate(0,0)" y="362" opacity="1">100</text><text x="176.75" style="color:#666666;cursor:default;font-size:11px;fill:#666666;" text-anchor="middle" transform="translate(0,0)" y="362" opacity="1">25</text><text x="285.5" style="color:#666666;cursor:default;font-size:11px;fill:#666666;" text-anchor="middle" transform="translate(0,0)" y="362" opacity="1">50</text><text x="394.25" style="color:#666666;cursor:default;font-size:11px;fill:#666666;" text-anchor="middle" transform="translate(0,0)" y="362" opacity="1">75</text></g><g class="highcharts-axis-labels highcharts-yaxis-labels" data-z-index="7" aria-hidden="true"><text x="53" style="color:#666666;cursor:default;font-size:11px;fill:#666666;" text-anchor="end" transform="translate(0,0)" y="347" opacity="1">0</text><text x="53" style="color:#666666;cursor:default;font-size:11px;fill:#666666;" text-anchor="end" transform="translate(0,0)" y="280" opacity="1">25</text><text x="53" style="color:#666666;cursor:default;font-size:11px;fill:#666666;" text-anchor="end" transform="translate(0,0)" y="214" opacity="1">50</text><text x="53" style="color:#666666;cursor:default;font-size:11px;fill:#666666;" text-anchor="end" transform="translate(0,0)" y="147" opacity="1">75</text><text x="53" style="color:#666666;cursor:default;font-size:11px;fill:#666666;" text-anchor="end" transform="translate(0,0)" y="81" opacity="1">100</text><text x="53" style="color:#666666;cursor:default;font-size:11px;fill:#666666;" text-anchor="end" transform="translate(0,0)" y="14" opacity="1">125</text></g><text x="198.5" y="41.5" data-z-index="99" aria-hidden="true">IV</text><text x="416" y="41.5" data-z-index="99" aria-hidden="true">VII</text><text x="546.5" y="41.5" data-z-index="99" aria-hidden="true">IX</text><text x="198.5" y="115.5" data-z-index="99" aria-hidden="true">II</text><text x="416" y="115.5" data-z-index="99" aria-hidden="true">V</text><text x="546.5" y="115.5" data-z-index="99" aria-hidden="true">VIII</text><text x="198.5" y="245" data-z-index="99" aria-hidden="true">I</text><text x="416" y="245" data-z-index="99" aria-hidden="true">III</text><text x="546.5" y="245" data-z-index="99" aria-hidden="true">VI</text></g></svg>