<svg height="400" width="600" version="1.1" xmlns="http://www.w3.org/2000/svg"><g transform="translate(0,0)"  xmlns:xlink="http://www.w3.org/1999/xlink" version="1.1" class="highcharts-root" style="font-family:&quot;Lucida Grande&quot;, &quot;Lucida Sans Unicode&quot;, Arial, Helvetica, sans-serif;font-size:12px;" xmlns="http://www.w3.org/2000/svg" width="600" height="400" viewBox="0 0 600 400" aria-label="Interactive chart" aria-hidden="false"><desc aria-hidden="true">Created with Highcharts 8.1.2</desc><defs aria-hidden="true"><clipPath id="highcharts-jbw30kd-126-"><rect x="0" y="0" width="521" height="333" fill="none"></rect></clipPath></defs><rect fill="#ffffff" class="highcharts-background" x="0" y="0" width="600" height="400" rx="0" ry="0" aria-hidden="true"></rect><rect fill="none" class="highcharts-plot-background" x="69" y="10" width="521" height="333" aria-hidden="true"></rect><g class="highcharts-pane-group" data-z-index="0" aria-hidden="true"></g><rect x="69" y="10" width="260.5" height="55.5" fill="#00b050" rx="1" ry="1" data-z-index="0" aria-hidden="true"></rect><rect x="329.5" y="10" width="173.66666666666666" height="55.5" fill="#92d050" rx="1" ry="1" data-z-index="0" aria-hidden="true"></rect><rect x="503.16666666666663" y="10" width="86.83333333333333" height="55.5" fill="#006600" rx="1" ry="1" data-z-index="0" aria-hidden="true"></rect><rect x="69" y="65.5" width="260.5" height="111" fill="#ffff00" rx="1" ry="1" data-z-index="0" aria-hidden="true"></rect><rect x="329.5" y="65.5" width="173.66666666666666" height="111" fill="#c4d79b" rx="1" ry="1" data-z-index="0" aria-hidden="true"></rect><rect x="503.16666666666663" y="65.5" width="86.83333333333333" height="111" fill="#92d050" rx="1" ry="1" data-z-index="0" aria-hidden="true"></rect><rect x="69" y="176.5" width="260.5" height="166.5" fill="#ff0000" rx="1" ry="1" data-z-index="0" aria-hidden="true"></rect><rect x="329.5" y="176.5" width="173.66666666666666" height="166.5" fill="#ffff00" rx="1" ry="1" data-z-index="0" aria-hidden="true"></rect><rect x="503.16666666666663" y="176.5" width="86.83333333333333" height="166.5" fill="#00b050" rx="1" ry="1" data-z-index="0" aria-hidden="true"></rect><g class="highcharts-grid highcharts-xaxis-grid" data-z-index="1" aria-hidden="true"><path fill="none" data-z-index="1" class="highcharts-grid-line" d="M 68.5 10 L 68.5 343" opacity="1"></path><path fill="none" data-z-index="1" class="highcharts-grid-line" d="M 177.5 10 L 177.5 343" opacity="1"></path><path fill="none" data-z-index="1" class="highcharts-grid-line" d="M 285.5 10 L 285.5 343" opacity="1"></path><path fill="none" data-z-index="1" class="highcharts-grid-line" d="M 394.5 10 L 394.5 343" opacity="1"></path><path fill="none" data-z-index="1" class="highcharts-grid-line" d="M 502.5 10 L 502.5 343" opacity="1"></path></g><g class="highcharts-grid highcharts-yaxis-grid" data-z-index="1" aria-hidden="true"><path fill="none" data-z-index="1" class="highcharts-grid-line" d="M 69 343.5 L 590 343.5" opacity="1"></path><path fill="none" data-z-index="1" class="highcharts-grid-line" d="M 69 276.5 L 590 276.5" opacity="1"></path><path fill="none" data-z-index="1" class="highcharts-grid-line" d="M 69 210.5 L 590 210.5" opacity="1"></path><path fill="none" data-z-index="1" class="highcharts-grid-line" d="M 69 143.5 L 590 143.5" opacity="1"></path><path fill="none" data-z-index="1" class="highcharts-grid-line" d="M 69 77.5 L 590 77.5" opacity="1"></path><path fill="none" data-z-index="1" class="highcharts-grid-line" d="M 69 10.5 L 590 10.5" opacity="1"></path></g><rect fill="none" class="highcharts-plot-border" data-z-index="1" x="69" y="10" width="521" height="333" aria-hidden="true"></rect><g class="highcharts-axis highcharts-xaxis" data-z-index="2" aria-hidden="true"><text x="329.5" data-z-index="7" text-anchor="middle" transform="translate(0,0)" class="highcharts-axis-title" style="color:#666666;fill:#666666;" y="382.3333339691162"><tspan>Potensi</tspan></text><path fill="none" class="highcharts-axis-line" stroke="#ccc" stroke-width="1" data-z-index="7" d="M 69 343.5 L 590 343.5"></path></g><g class="highcharts-axis highcharts-yaxis" data-z-index="2" aria-hidden="true"><text x="25.33572006225586" data-z-index="7" text-anchor="middle" transform="translate(0,0) rotate(270 25.33572006225586 176.5)" class="highcharts-axis-title" style="color:#666666;fill:#666666;" y="176.5"><tspan>Kompetensi</tspan></text><path fill="none" class="highcharts-axis-line" stroke="#ccc" stroke-width="1" data-z-index="7" d="M 68.5 10 L 68.5 343"></path></g><g class="highcharts-series-group" data-z-index="3" aria-hidden="false"><g class="highcharts-series highcharts-series-0 highcharts-line-series highcharts-color-0" data-z-index="0.1" opacity="1" transform="translate(69,10) scale(1 1)" clip-path="url(#highcharts-jbw30kd-126-)" aria-hidden="true"><path fill="none" d="M 260.5 333 L 260.5 13.319999999999993" class="highcharts-graph" data-z-index="1" stroke="#7cb5ec" stroke-width="2" stroke-linejoin="round" stroke-linecap="round"></path></g><g class="highcharts-markers highcharts-series-0 highcharts-line-series highcharts-color-0" data-z-index="0.1" opacity="1" transform="translate(69,10) scale(1 1)" clip-path="none" aria-hidden="false" role="region" tabindex="-1" aria-label="SKP Kurang, series 1 of 7. Line with 2 data points." style="outline: 0px;"><path fill="#7cb5ec" d="M 260 337 A 4 4 0 1 1 260.00399999933336 336.9999980000002 Z" opacity="0" class="highcharts-point highcharts-color-0" tabindex="-1" role="img" aria-label="1. x, 60, 0. SKP Kurang." style="outline: 0px;"></path><path fill="#7cb5ec" d="M 260 17 A 4 4 0 1 1 260.00399999933336 16.99999800000017 Z" opacity="0" class="highcharts-point highcharts-color-0" tabindex="-1" role="img" aria-label="2. x, 60, 120. SKP Kurang." style="outline: 0px;"></path></g><g class="highcharts-series highcharts-series-1 highcharts-line-series highcharts-color-1" data-z-index="0.1" opacity="1" transform="translate(69,10) scale(1 1)" clip-path="url(#highcharts-jbw30kd-126-)" aria-hidden="true"><path fill="none" d="M 0 173.16 L 521 173.16" class="highcharts-graph" data-z-index="1" stroke="#434348" stroke-width="2" stroke-linejoin="round" stroke-linecap="round"></path></g><g class="highcharts-markers highcharts-series-1 highcharts-line-series highcharts-color-1" data-z-index="0.1" opacity="1" transform="translate(69,10) scale(1 1)" clip-path="none" aria-hidden="false" role="region" tabindex="-1" aria-label="GM Kurang, series 2 of 7. Line with 2 data points." style="outline: 0px;"><path fill="#434348" d="M 0 169 L 4 173 L 0 177 L -4 173 Z" opacity="0" class="highcharts-point highcharts-color-1" tabindex="-1" role="img" aria-label="1. x, 0, 60. GM Kurang." style="outline: 0px;"></path><path fill="#434348" d="M 521 169 L 525 173 L 521 177 L 517 173 Z" opacity="0" class="highcharts-point highcharts-color-1" tabindex="-1" role="img" aria-label="2. x, 120, 60. GM Kurang." style="outline: 0px;"></path></g><g class="highcharts-series highcharts-series-2 highcharts-line-series highcharts-color-2" data-z-index="0.1" opacity="1" transform="translate(69,10) scale(1 1)" clip-path="url(#highcharts-jbw30kd-126-)" aria-hidden="true"><path fill="none" d="M 434.16666666667 170.49599999999998 L 434.16666666667 13.319999999999993" class="highcharts-graph" data-z-index="1" stroke="#90ed7d" stroke-width="2" stroke-linejoin="round" stroke-linecap="round"></path></g><g class="highcharts-markers highcharts-series-2 highcharts-line-series highcharts-color-2" data-z-index="0.1" opacity="1" transform="translate(69,10) scale(1 1)" clip-path="none" aria-hidden="false" role="region" tabindex="-1" aria-label="SKP Sedang, series 3 of 7. Line with 2 data points." style="outline: 0px;"><path fill="#90ed7d" d="M 430 166 L 438 166 L 438 174 L 430 174 Z" opacity="0" class="highcharts-point highcharts-color-2" tabindex="-1" role="img" aria-label="1. x, 100, 61. SKP Sedang." style="outline: 0px;"></path><path fill="#90ed7d" d="M 430 9 L 438 9 L 438 17 L 430 17 Z" opacity="0" class="highcharts-point highcharts-color-2" tabindex="-1" role="img" aria-label="2. x, 100, 120. SKP Sedang." style="outline: 0px;"></path></g><g class="highcharts-series highcharts-series-3 highcharts-line-series highcharts-color-3" data-z-index="0.1" opacity="1" transform="translate(69,10) scale(1 1)" clip-path="url(#highcharts-jbw30kd-126-)" aria-hidden="true"><path fill="none" d="M 0 66.59999999999997 L 521 66.59999999999997" class="highcharts-graph" data-z-index="1" stroke="#f7a35c" stroke-width="2" stroke-linejoin="round" stroke-linecap="round"></path></g><g class="highcharts-markers highcharts-series-3 highcharts-line-series highcharts-color-3" data-z-index="0.1" opacity="1" transform="translate(69,10) scale(1 1)" clip-path="none" aria-hidden="false" role="region" tabindex="-1" aria-label="GM Sedang, series 4 of 7. Line with 2 data points." style="outline: 0px;"><path fill="#f7a35c" d="M 0 63 L 4 71 L -4 71 Z" opacity="0" class="highcharts-point highcharts-color-3" tabindex="-1" role="img" aria-label="1. x, 0, 100. GM Sedang." style="outline: 0px;"></path><path fill="#f7a35c" d="M 521 63 L 525 71 L 517 71 Z" opacity="0" class="highcharts-point highcharts-color-3" tabindex="-1" role="img" aria-label="2. x, 120, 100. GM Sedang." style="outline: 0px;"></path></g><g class="highcharts-series highcharts-series-4 highcharts-line-series highcharts-color-4" data-z-index="0.1" opacity="1" transform="translate(69,10) scale(1 1)" clip-path="url(#highcharts-jbw30kd-126-)" aria-hidden="true"><path fill="none" d="M 521 63.93599999999998 L 521 13.319999999999993" class="highcharts-graph" data-z-index="1" stroke="#8085e9" stroke-width="2" stroke-linejoin="round" stroke-linecap="round"></path></g><g class="highcharts-markers highcharts-series-4 highcharts-line-series highcharts-color-4" data-z-index="0.1" opacity="1" transform="translate(69,10) scale(1 1)" clip-path="none" aria-hidden="false" role="region" tabindex="-1" aria-label="SKP Baik, series 5 of 7. Line with 2 data points." style="outline: 0px;"><path fill="#8085e9" d="M 517 60 L 525 60 L 521 68 Z" opacity="0" class="highcharts-point highcharts-color-4" tabindex="-1" role="img" aria-label="1. x, 120, 101. SKP Baik." style="outline: 0px;"></path><path fill="#8085e9" d="M 517 9 L 525 9 L 521 17 Z" opacity="0" class="highcharts-point highcharts-color-4" tabindex="-1" role="img" aria-label="2. x, 120, 120. SKP Baik." style="outline: 0px;"></path></g><g class="highcharts-series highcharts-series-5 highcharts-line-series highcharts-color-5" data-z-index="0.1" opacity="1" transform="translate(69,10) scale(1 1)" clip-path="url(#highcharts-jbw30kd-126-)" aria-hidden="true"><path fill="none" d="M 0 13.319999999999993 L 521 13.319999999999993" class="highcharts-graph" data-z-index="1" stroke="#f15c80" stroke-width="2" stroke-linejoin="round" stroke-linecap="round"></path></g><g class="highcharts-markers highcharts-series-5 highcharts-line-series highcharts-color-5" data-z-index="0.1" opacity="1" transform="translate(69,10) scale(1 1)" clip-path="none" aria-hidden="false" role="region" tabindex="-1" aria-label="GM Baik, series 6 of 7. Line with 2 data points." style="outline: 0px;"><path fill="#f15c80" d="M 2.4492935982947064e-16 17 A 4 4 0 1 1 0.003999999333335927 16.99999800000017 Z" opacity="0" class="highcharts-point highcharts-color-5" tabindex="-1" role="img" aria-label="1. x, 0, 120. GM Baik." style="outline: 0px;"></path><path fill="#f15c80" d="M 521 17 A 4 4 0 1 1 521.0039999993334 16.99999800000017 Z" opacity="0" class="highcharts-point highcharts-color-5" tabindex="-1" role="img" aria-label="2. x, 120, 120. GM Baik." style="outline: 0px;"></path></g><g class="highcharts-series highcharts-series-6 highcharts-scatter-series" data-z-index="0.1" opacity="1" transform="translate(69,10) scale(1 1)" clip-path="url(#highcharts-jbw30kd-126-)" aria-hidden="true"></g><g class="highcharts-markers highcharts-series-6 highcharts-scatter-series" data-z-index="0.1" opacity="1" transform="translate(69,10) scale(1 1)" clip-path="none" aria-hidden="false" role="region" tabindex="-1" aria-label="Observations, series 7 of 7, scatter plot with 1 point." style="outline: 0px;"><path fill="blue" d="M 335 137 L 339 141 L 335 145 L 331 141 Z" opacity="1" class="highcharts-point" tabindex="-1" role="img" aria-label="1. x, 77.304964539007, 72.222222222222. Observations." style="outline: 0px;"></path></g></g><text x="300" text-anchor="middle" class="highcharts-title" data-z-index="4" style="color:#333333;font-size:18px;fill:#333333;" y="24" aria-hidden="true"></text><text x="300" text-anchor="middle" class="highcharts-subtitle" data-z-index="4" style="color:#666666;fill:#666666;" y="25" aria-hidden="true"></text><text x="10" text-anchor="start" class="highcharts-caption" data-z-index="4" style="color:#666666;fill:#666666;" y="398" aria-hidden="true"></text><g class="highcharts-axis-labels highcharts-xaxis-labels" data-z-index="7" aria-hidden="true"><text x="0" style="color:#666666;cursor:default;font-size:11px;fill:#666666;" text-anchor="middle" transform="translate(0,0)" y="-9999">0</text><text x="503.16666666667" style="color:#666666;cursor:default;font-size:11px;fill:#666666;" text-anchor="middle" transform="translate(0,0)" y="362" opacity="1">100</text><text x="177.54166666667" style="color:#666666;cursor:default;font-size:11px;fill:#666666;" text-anchor="middle" transform="translate(0,0)" y="362" opacity="1">25</text><text x="286.08333333333" style="color:#666666;cursor:default;font-size:11px;fill:#666666;" text-anchor="middle" transform="translate(0,0)" y="362" opacity="1">50</text><text x="394.625" style="color:#666666;cursor:default;font-size:11px;fill:#666666;" text-anchor="middle" transform="translate(0,0)" y="362" opacity="1">75</text></g><g class="highcharts-axis-labels highcharts-yaxis-labels" data-z-index="7" aria-hidden="true"><text x="54" style="color:#666666;cursor:default;font-size:11px;fill:#666666;" text-anchor="end" transform="translate(0,0)" y="347" opacity="1">0</text><text x="54" style="color:#666666;cursor:default;font-size:11px;fill:#666666;" text-anchor="end" transform="translate(0,0)" y="281" opacity="1">25</text><text x="54" style="color:#666666;cursor:default;font-size:11px;fill:#666666;" text-anchor="end" transform="translate(0,0)" y="214" opacity="1">50</text><text x="54" style="color:#666666;cursor:default;font-size:11px;fill:#666666;" text-anchor="end" transform="translate(0,0)" y="148" opacity="1">75</text><text x="54" style="color:#666666;cursor:default;font-size:11px;fill:#666666;" text-anchor="end" transform="translate(0,0)" y="81" opacity="1">100</text><text x="54" style="color:#666666;cursor:default;font-size:11px;fill:#666666;" text-anchor="end" transform="translate(0,0)" y="14" opacity="1">125</text></g><text x="199.25" y="42.5" data-z-index="99" aria-hidden="true">IV</text><text x="416.3333333333333" y="42.5" data-z-index="99" aria-hidden="true">VII</text><text x="546.5833333333333" y="42.5" data-z-index="99" aria-hidden="true">IX</text><text x="199.25" y="116.5" data-z-index="99" aria-hidden="true">II</text><text x="416.3333333333333" y="116.5" data-z-index="99" aria-hidden="true">V</text><text x="546.5833333333333" y="116.5" data-z-index="99" aria-hidden="true">VIII</text><text x="199.25" y="246" data-z-index="99" aria-hidden="true">I</text><text x="416.3333333333333" y="246" data-z-index="99" aria-hidden="true">III</text><text x="546.5833333333333" y="246" data-z-index="99" aria-hidden="true">VI</text></g></svg>