<svg height="400" width="600" version="1.1" xmlns="http://www.w3.org/2000/svg"><g transform="translate(0,0)"  xmlns:xlink="http://www.w3.org/1999/xlink" version="1.1" class="highcharts-root" style="font-family:&quot;Lucida Grande&quot;, &quot;Lucida Sans Unicode&quot;, Arial, Helvetica, sans-serif;font-size:12px;" xmlns="http://www.w3.org/2000/svg" width="600" height="400" viewBox="0 0 600 400" aria-hidden="false" aria-label="Interactive chart"><desc aria-hidden="true">Created with Highcharts 8.1.2</desc><defs aria-hidden="true"><clipPath id="highcharts-h9q9m7b-70-"><rect x="0" y="0" width="580" height="338" fill="none"></rect></clipPath><clipPath id="highcharts-h9q9m7b-83"><circle cx="290" cy="169" r="118.3"></circle></clipPath><clipPath id="highcharts-h9q9m7b-96"><circle cx="290" cy="169" r="118.3"></circle></clipPath></defs><rect fill="#ffffff" class="highcharts-background" x="0" y="0" width="600" height="400" rx="0" ry="0" aria-hidden="true"></rect><rect fill="none" class="highcharts-plot-background" x="10" y="10" width="580" height="338" aria-hidden="true"></rect><g class="highcharts-pane-group" data-z-index="0" aria-hidden="true"></g><g class="highcharts-grid highcharts-xaxis-grid" data-z-index="1" aria-hidden="true"><path fill="none" stroke="#e6e6e6" stroke-width="1" data-z-index="1" class="highcharts-grid-line" d="M 300 179 L 300 60.7" opacity="1"></path><path fill="none" stroke="#e6e6e6" stroke-width="1" data-z-index="1" class="highcharts-grid-line" d="M 300 179 L 363.9578087049972 79.47970706607128" opacity="1"></path><path fill="none" stroke="#e6e6e6" stroke-width="1" data-z-index="1" class="highcharts-grid-line" d="M 300 179 L 407.60946505043955 129.85640396187685" opacity="1"></path><path fill="none" stroke="#e6e6e6" stroke-width="1" data-z-index="1" class="highcharts-grid-line" d="M 300 179 L 417.09587657451436 195.83584536772963" opacity="1"></path><path fill="none" stroke="#e6e6e6" stroke-width="1" data-z-index="1" class="highcharts-grid-line" d="M 300 179 L 389.4051746461088 256.47002482572725" opacity="1"></path><path fill="none" stroke="#e6e6e6" stroke-width="1" data-z-index="1" class="highcharts-grid-line" d="M 300 179 L 333.3289614743411 292.50801877859504" opacity="1"></path><path fill="none" stroke="#e6e6e6" stroke-width="1" data-z-index="1" class="highcharts-grid-line" d="M 300 179 L 266.6710385256589 292.50801877859504" opacity="1"></path><path fill="none" stroke="#e6e6e6" stroke-width="1" data-z-index="1" class="highcharts-grid-line" d="M 300 179 L 210.59482535389128 256.47002482572725" opacity="1"></path><path fill="none" stroke="#e6e6e6" stroke-width="1" data-z-index="1" class="highcharts-grid-line" d="M 300 179 L 182.90412342548566 195.83584536772963" opacity="1"></path><path fill="none" stroke="#e6e6e6" stroke-width="1" data-z-index="1" class="highcharts-grid-line" d="M 300 179 L 192.39053494956045 129.85640396187688" opacity="1"></path><path fill="none" stroke="#e6e6e6" stroke-width="1" data-z-index="1" class="highcharts-grid-line" d="M 300 179 L 236.04219129500282 79.47970706607126" opacity="1"></path><path fill="none" stroke="#e6e6e6" stroke-width="1" data-z-index="1" class="highcharts-grid-line" d="M 300 179 L 300 60.7" opacity="1"></path></g><g class="highcharts-grid highcharts-yaxis-grid" data-z-index="1" aria-hidden="true"><path fill="none" stroke="#e6e6e6" stroke-width="1" data-z-index="1" class="highcharts-grid-line" d="M 300 179 L 300 179 L 300 179 L 300 179 L 300 179 L 300 179 L 300 179 L 300 179 L 300 179 L 300 179 L 300 179 L 300 179 L 300 179" opacity="1"></path><path fill="none" stroke="#e6e6e6" stroke-width="1" data-z-index="1" class="highcharts-grid-line" d="M 300 119.85 L 331.9789043524986 129.23985353303564 L 353.8047325252198 154.4282019809384 L 358.5479382872572 187.41792268386482 L 344.7025873230544 217.73501241286363 L 316.66448073717055 235.75400938929752 L 283.33551926282945 235.75400938929752 L 255.29741267694564 217.73501241286363 L 241.45206171274282 187.41792268386482 L 246.19526747478022 154.42820198093844 L 268.0210956475014 129.2398535330356 L 300 119.85 L 300 119.85" opacity="1"></path><path fill="none" stroke="#e6e6e6" stroke-width="1" data-z-index="1" class="highcharts-grid-line" d="M 300 60.7 L 363.9578087049972 79.47970706607128 L 407.60946505043955 129.85640396187685 L 417.09587657451436 195.83584536772963 L 389.4051746461088 256.47002482572725 L 333.3289614743411 292.50801877859504 L 266.6710385256589 292.50801877859504 L 210.59482535389128 256.47002482572725 L 182.90412342548566 195.83584536772963 L 192.39053494956045 129.85640396187688 L 236.04219129500282 79.47970706607126 L 300 60.7 L 300 60.7" opacity="1"></path></g><rect fill="none" class="highcharts-plot-border" data-z-index="1" x="10" y="10" width="580" height="338" aria-hidden="true"></rect><g class="highcharts-axis highcharts-xaxis" data-z-index="2" aria-hidden="true"><path fill="none" class="highcharts-axis-line" data-z-index="7" d="M 300 60.7 A 118.3 118.3 0 1 1 299.8817000197166 60.70005914999507 M 300 179 A 0 0 0 1 0 300 179"></path></g><g class="highcharts-axis highcharts-yaxis" data-z-index="2" aria-hidden="true"><path fill="none" class="highcharts-axis-line" data-z-index="7" d="M 300 179 L 300 60.7"></path></g><g class="highcharts-series-group" data-z-index="3" aria-hidden="false"><g class="highcharts-series highcharts-series-0 highcharts-line-series" data-z-index="0.1" opacity="1" transform="translate(10,10) scale(1 1)" clip-path="url(#highcharts-h9q9m7b-83)" aria-hidden="true"><path fill="none" d="M 290 80.275 L 337.9683565287476 94.3597802995533 L 370.7070987878294 132.1423029714071 L 377.82190743088523 181.62688402580073 L 357.05388098458235 227.10251861929453 L 314.996721105753 254.1310140839471 L 265.00327889424585 254.13101408394675 L 222.94611901541685 227.10251861929362 L 231.45206171274305 177.41792268386638 L 209.2929012121711 132.14230297140602 L 258.0210956474998 119.2398535330367 L 290 80.275" class="highcharts-graph" data-z-index="1" stroke="#0F0" stroke-width="2" stroke-linejoin="round" stroke-linecap="round"></path></g><g class="highcharts-markers highcharts-series-0 highcharts-line-series" data-z-index="0.1" opacity="1" transform="translate(10,10) scale(1 1)" clip-path="none" aria-hidden="false" role="region" tabindex="-1" style="outline: currentcolor none 0px;" aria-label="Capaian, line 1 of 2 with 11 data points."><path fill="#0F0" d="M 290 84 A 4 4 0 1 1 290.00399999933336 83.99999800000016 Z" opacity="1" class="highcharts-point" tabindex="-1" style="outline: currentcolor none 0px;" role="img" aria-label="1. Daya Analisa, 3. Capaian."></path><path fill="#0F0" d="M 337 98 A 4 4 0 1 1 337.00399999933336 97.99999800000016 Z" opacity="1" class="highcharts-point" tabindex="-1" style="outline: currentcolor none 0px;" role="img" aria-label="2. Logika Berpikir, 3. Capaian."></path><path fill="#0F0" d="M 370 136 A 4 4 0 1 1 370.00399999933336 135.99999800000018 Z" opacity="1" class="highcharts-point" tabindex="-1" style="outline: currentcolor none 0px;" role="img" aria-label="3. Berpikir Kritis, 3. Capaian."></path><path fill="#0F0" d="M 377 186 A 4 4 0 1 1 377.00399999933336 185.99999800000018 Z" opacity="1" class="highcharts-point" tabindex="-1" style="outline: currentcolor none 0px;" role="img" aria-label="4. Sistematika Kerja, 3. Capaian."></path><path fill="#0F0" d="M 357 231 A 4 4 0 1 1 357.00399999933336 230.99999800000018 Z" opacity="1" class="highcharts-point" tabindex="-1" style="outline: currentcolor none 0px;" role="img" aria-label="5. Inisiatif, 3. Capaian."></path><path fill="#0F0" d="M 314 258 A 4 4 0 1 1 314.00399999933336 257.9999980000002 Z" opacity="1" class="highcharts-point" tabindex="-1" style="outline: currentcolor none 0px;" role="img" aria-label="6. Daya Tahan Kerja, 3. Capaian."></path><path fill="#0F0" d="M 265 258 A 4 4 0 1 1 265.00399999933336 257.9999980000002 Z" opacity="1" class="highcharts-point" tabindex="-1" style="outline: currentcolor none 0px;" role="img" aria-label="7. Dorongan Berprestasi, 3. Capaian."></path><path fill="#0F0" d="M 222 231 A 4 4 0 1 1 222.00399999933333 230.99999800000018 Z" opacity="1" class="highcharts-point" tabindex="-1" style="outline: currentcolor none 0px;" role="img" aria-label="8. Tanggung Jawab, 3. Capaian."></path><path fill="#0F0" d="M 231 181 A 4 4 0 1 1 231.00399999933333 180.99999800000018 Z" opacity="1" class="highcharts-point" tabindex="-1" style="outline: currentcolor none 0px;" role="img" aria-label="9. Keterampilan Interpersonal, 2. Capaian."></path><path fill="#0F0" d="M 209 136 A 4 4 0 1 1 209.00399999933333 135.99999800000018 Z" opacity="1" class="highcharts-point" tabindex="-1" style="outline: currentcolor none 0px;" role="img" aria-label="10. Kepercayaan Diri, 3. Capaian."></path><path fill="#0F0" d="M 258 123 A 4 4 0 1 1 258.00399999933336 122.99999800000016 Z" opacity="1" class="highcharts-point" tabindex="-1" style="outline: currentcolor none 0px;" role="img" aria-label="11. Stabilitas Emosi, 2. Capaian."></path></g><g class="highcharts-series highcharts-series-1 highcharts-line-series" data-z-index="0.1" opacity="1" transform="translate(10,10) scale(1 1)" clip-path="url(#highcharts-h9q9m7b-96)" aria-hidden="true"><path fill="none" d="M 290 80.275 L 337.9683565287476 94.3597802995533 L 370.7070987878294 132.1423029714071 L 377.82190743088523 181.62688402580073 L 357.05388098458235 227.10251861929453 L 314.996721105753 254.1310140839471 L 265.00327889424585 254.13101408394675 L 222.94611901541685 227.10251861929362 L 202.1780925691146 181.62688402579957 L 209.2929012121711 132.14230297140602 L 242.03164347124965 94.35978029955503 L 290 80.275" class="highcharts-graph" data-z-index="1" stroke="#FF0000" stroke-width="2" stroke-linejoin="round" stroke-linecap="round"></path></g><g class="highcharts-markers highcharts-series-1 highcharts-line-series" data-z-index="0.1" opacity="1" transform="translate(10,10) scale(1 1)" clip-path="none" aria-hidden="false" role="region" tabindex="-1" style="outline: currentcolor none 0px;" aria-label="Nilai Standar, line 2 of 2 with 11 data points."><path fill="#FF0000" d="M 290 76 L 294 80 L 290 84 L 286 80 Z" opacity="1" class="highcharts-point" tabindex="-1" style="outline: currentcolor none 0px;" role="img" aria-label="1. Daya Analisa, 3. Nilai Standar."></path><path fill="#FF0000" d="M 337 90 L 341 94 L 337 98 L 333 94 Z" opacity="1" class="highcharts-point" tabindex="-1" style="outline: currentcolor none 0px;" role="img" aria-label="2. Logika Berpikir, 3. Nilai Standar."></path><path fill="#FF0000" d="M 370 128 L 374 132 L 370 136 L 366 132 Z" opacity="1" class="highcharts-point" tabindex="-1" style="outline: currentcolor none 0px;" role="img" aria-label="3. Berpikir Kritis, 3. Nilai Standar."></path><path fill="#FF0000" d="M 377 178 L 381 182 L 377 186 L 373 182 Z" opacity="1" class="highcharts-point" tabindex="-1" style="outline: currentcolor none 0px;" role="img" aria-label="4. Sistematika Kerja, 3. Nilai Standar."></path><path fill="#FF0000" d="M 357 223 L 361 227 L 357 231 L 353 227 Z" opacity="1" class="highcharts-point" tabindex="-1" style="outline: currentcolor none 0px;" role="img" aria-label="5. Inisiatif, 3. Nilai Standar."></path><path fill="#FF0000" d="M 314 250 L 318 254 L 314 258 L 310 254 Z" opacity="1" class="highcharts-point" tabindex="-1" style="outline: currentcolor none 0px;" role="img" aria-label="6. Daya Tahan Kerja, 3. Nilai Standar."></path><path fill="#FF0000" d="M 265 250 L 269 254 L 265 258 L 261 254 Z" opacity="1" class="highcharts-point" tabindex="-1" style="outline: currentcolor none 0px;" role="img" aria-label="7. Dorongan Berprestasi, 3. Nilai Standar."></path><path fill="#FF0000" d="M 222 223 L 226 227 L 222 231 L 218 227 Z" opacity="1" class="highcharts-point" tabindex="-1" style="outline: currentcolor none 0px;" role="img" aria-label="8. Tanggung Jawab, 3. Nilai Standar."></path><path fill="#FF0000" d="M 202 178 L 206 182 L 202 186 L 198 182 Z" opacity="1" class="highcharts-point" tabindex="-1" style="outline: currentcolor none 0px;" role="img" aria-label="9. Keterampilan Interpersonal, 3. Nilai Standar."></path><path fill="#FF0000" d="M 209 128 L 213 132 L 209 136 L 205 132 Z" opacity="1" class="highcharts-point" tabindex="-1" style="outline: currentcolor none 0px;" role="img" aria-label="10. Kepercayaan Diri, 3. Nilai Standar."></path><path fill="#FF0000" d="M 242 90 L 246 94 L 242 98 L 238 94 Z" opacity="1" class="highcharts-point" tabindex="-1" style="outline: currentcolor none 0px;" role="img" aria-label="11. Stabilitas Emosi, 3. Nilai Standar."></path></g></g><text x="220" text-anchor="middle" class="highcharts-title" data-z-index="4" style="color:#333333;font-size:18px;fill:#333333;" y="24" aria-hidden="true"></text><text x="300" text-anchor="middle" class="highcharts-subtitle" data-z-index="4" style="color:#666666;fill:#666666;" y="24" aria-hidden="true"></text><text x="10" text-anchor="start" class="highcharts-caption" data-z-index="4" style="color:#666666;fill:#666666;" y="397" aria-hidden="true"></text><g class="highcharts-data-labels highcharts-series-0 highcharts-line-series" data-z-index="6" opacity="1" transform="translate(10,10) scale(1 1)" aria-hidden="true"><g class="highcharts-label highcharts-data-label highcharts-data-label-color-undefined" data-z-index="1" transform="translate(282,58)"><text x="5" data-z-index="1" y="16" style="color:#000000;font-size:11px;font-weight:bold;fill:#000000;"><tspan x="5" y="16" class="highcharts-text-outline" fill="#FFFFFF" stroke="#FFFFFF" stroke-width="2px" stroke-linejoin="round" style="">3</tspan><tspan x="5" y="16">3</tspan></text></g><g class="highcharts-label highcharts-data-label highcharts-data-label-color-undefined" data-z-index="1" transform="translate(330,72)"><text x="5" data-z-index="1" y="16" style="color:#000000;font-size:11px;font-weight:bold;fill:#000000;"><tspan x="5" y="16" class="highcharts-text-outline" fill="#FFFFFF" stroke="#FFFFFF" stroke-width="2px" stroke-linejoin="round">3</tspan><tspan x="5" y="16">3</tspan></text></g><g class="highcharts-label highcharts-data-label highcharts-data-label-color-undefined" data-z-index="1" transform="translate(363,110)"><text x="5" data-z-index="1" y="16" style="color:#000000;font-size:11px;font-weight:bold;fill:#000000;"><tspan x="5" y="16" class="highcharts-text-outline" fill="#FFFFFF" stroke="#FFFFFF" stroke-width="2px" stroke-linejoin="round">3</tspan><tspan x="5" y="16">3</tspan></text></g><g class="highcharts-label highcharts-data-label highcharts-data-label-color-undefined" data-z-index="1" transform="translate(370,160)"><text x="5" data-z-index="1" y="16" style="color:#000000;font-size:11px;font-weight:bold;fill:#000000;"><tspan x="5" y="16" class="highcharts-text-outline" fill="#FFFFFF" stroke="#FFFFFF" stroke-width="2px" stroke-linejoin="round">3</tspan><tspan x="5" y="16">3</tspan></text></g><g class="highcharts-label highcharts-data-label highcharts-data-label-color-undefined" data-z-index="1" transform="translate(349,205)"><text x="5" data-z-index="1" y="16" style="color:#000000;font-size:11px;font-weight:bold;fill:#000000;"><tspan x="5" y="16" class="highcharts-text-outline" fill="#FFFFFF" stroke="#FFFFFF" stroke-width="2px" stroke-linejoin="round">3</tspan><tspan x="5" y="16">3</tspan></text></g><g class="highcharts-label highcharts-data-label highcharts-data-label-color-undefined" data-z-index="1" transform="translate(307,232)"><text x="5" data-z-index="1" y="16" style="color:#000000;font-size:11px;font-weight:bold;fill:#000000;"><tspan x="5" y="16" class="highcharts-text-outline" fill="#FFFFFF" stroke="#FFFFFF" stroke-width="2px" stroke-linejoin="round">3</tspan><tspan x="5" y="16">3</tspan></text></g><g class="highcharts-label highcharts-data-label highcharts-data-label-color-undefined" data-z-index="1" transform="translate(257,232)"><text x="5" data-z-index="1" y="16" style="color:#000000;font-size:11px;font-weight:bold;fill:#000000;"><tspan x="5" y="16" class="highcharts-text-outline" fill="#FFFFFF" stroke="#FFFFFF" stroke-width="2px" stroke-linejoin="round">3</tspan><tspan x="5" y="16">3</tspan></text></g><g class="highcharts-label highcharts-data-label highcharts-data-label-color-undefined" data-z-index="1" transform="translate(215,205)"><text x="5" data-z-index="1" y="16" style="color:#000000;font-size:11px;font-weight:bold;fill:#000000;"><tspan x="5" y="16" class="highcharts-text-outline" fill="#FFFFFF" stroke="#FFFFFF" stroke-width="2px" stroke-linejoin="round">3</tspan><tspan x="5" y="16">3</tspan></text></g><g class="highcharts-label highcharts-data-label highcharts-data-label-color-undefined" data-z-index="1" transform="translate(223,155)"><text x="5" data-z-index="1" y="16" style="color:#000000;font-size:11px;font-weight:bold;fill:#000000;"><tspan x="5" y="16" class="highcharts-text-outline" fill="#FFFFFF" stroke="#FFFFFF" stroke-width="2px" stroke-linejoin="round">2</tspan><tspan x="5" y="16">2</tspan></text></g><g class="highcharts-label highcharts-data-label highcharts-data-label-color-undefined" data-z-index="1" transform="translate(201,110)"><text x="5" data-z-index="1" y="16" style="color:#000000;font-size:11px;font-weight:bold;fill:#000000;"><tspan x="5" y="16" class="highcharts-text-outline" fill="#FFFFFF" stroke="#FFFFFF" stroke-width="2px" stroke-linejoin="round">3</tspan><tspan x="5" y="16">3</tspan></text></g><g class="highcharts-label highcharts-data-label highcharts-data-label-color-undefined" data-z-index="1" transform="translate(250,97)"><text x="5" data-z-index="1" y="16" style="color:#000000;font-size:11px;font-weight:bold;fill:#000000;"><tspan x="5" y="16" class="highcharts-text-outline" fill="#FFFFFF" stroke="#FFFFFF" stroke-width="2px" stroke-linejoin="round">2</tspan><tspan x="5" y="16">2</tspan></text></g></g><g class="highcharts-data-labels highcharts-series-1 highcharts-line-series" data-z-index="6" opacity="1" transform="translate(10,10) scale(1 1)" aria-hidden="true"><g class="highcharts-label highcharts-data-label highcharts-data-label-color-undefined highcharts-data-label-hidden" data-z-index="1" transform="translate(282,58)" opacity="0" style="pointer-events:none;"><text x="5" data-z-index="1" y="16" style="color:#000000;font-size:11px;font-weight:bold;fill:#000000;"><tspan x="5" y="16" class="highcharts-text-outline" fill="#FFFFFF" stroke="#FFFFFF" stroke-width="2px" stroke-linejoin="round">3</tspan><tspan x="5" y="16">3</tspan></text></g><g class="highcharts-label highcharts-data-label highcharts-data-label-color-undefined highcharts-data-label-hidden" data-z-index="1" transform="translate(330,72)" opacity="0" style="pointer-events:none;"><text x="5" data-z-index="1" y="16" style="color:#000000;font-size:11px;font-weight:bold;fill:#000000;"><tspan x="5" y="16" class="highcharts-text-outline" fill="#FFFFFF" stroke="#FFFFFF" stroke-width="2px" stroke-linejoin="round">3</tspan><tspan x="5" y="16">3</tspan></text></g><g class="highcharts-label highcharts-data-label highcharts-data-label-color-undefined highcharts-data-label-hidden" data-z-index="1" transform="translate(363,110)" opacity="0" style="pointer-events:none;"><text x="5" data-z-index="1" y="16" style="color:#000000;font-size:11px;font-weight:bold;fill:#000000;"><tspan x="5" y="16" class="highcharts-text-outline" fill="#FFFFFF" stroke="#FFFFFF" stroke-width="2px" stroke-linejoin="round">3</tspan><tspan x="5" y="16">3</tspan></text></g><g class="highcharts-label highcharts-data-label highcharts-data-label-color-undefined highcharts-data-label-hidden" data-z-index="1" transform="translate(370,160)" opacity="0" style="pointer-events:none;"><text x="5" data-z-index="1" y="16" style="color:#000000;font-size:11px;font-weight:bold;fill:#000000;"><tspan x="5" y="16" class="highcharts-text-outline" fill="#FFFFFF" stroke="#FFFFFF" stroke-width="2px" stroke-linejoin="round">3</tspan><tspan x="5" y="16">3</tspan></text></g><g class="highcharts-label highcharts-data-label highcharts-data-label-color-undefined highcharts-data-label-hidden" data-z-index="1" transform="translate(349,205)" opacity="0" style="pointer-events:none;"><text x="5" data-z-index="1" y="16" style="color:#000000;font-size:11px;font-weight:bold;fill:#000000;"><tspan x="5" y="16" class="highcharts-text-outline" fill="#FFFFFF" stroke="#FFFFFF" stroke-width="2px" stroke-linejoin="round">3</tspan><tspan x="5" y="16">3</tspan></text></g><g class="highcharts-label highcharts-data-label highcharts-data-label-color-undefined highcharts-data-label-hidden" data-z-index="1" transform="translate(307,232)" opacity="0" style="pointer-events:none;"><text x="5" data-z-index="1" y="16" style="color:#000000;font-size:11px;font-weight:bold;fill:#000000;"><tspan x="5" y="16" class="highcharts-text-outline" fill="#FFFFFF" stroke="#FFFFFF" stroke-width="2px" stroke-linejoin="round">3</tspan><tspan x="5" y="16">3</tspan></text></g><g class="highcharts-label highcharts-data-label highcharts-data-label-color-undefined highcharts-data-label-hidden" data-z-index="1" transform="translate(257,232)" opacity="0" style="pointer-events:none;"><text x="5" data-z-index="1" y="16" style="color:#000000;font-size:11px;font-weight:bold;fill:#000000;"><tspan x="5" y="16" class="highcharts-text-outline" fill="#FFFFFF" stroke="#FFFFFF" stroke-width="2px" stroke-linejoin="round">3</tspan><tspan x="5" y="16">3</tspan></text></g><g class="highcharts-label highcharts-data-label highcharts-data-label-color-undefined highcharts-data-label-hidden" data-z-index="1" transform="translate(215,205)" opacity="0" style="pointer-events:none;"><text x="5" data-z-index="1" y="16" style="color:#000000;font-size:11px;font-weight:bold;fill:#000000;"><tspan x="5" y="16" class="highcharts-text-outline" fill="#FFFFFF" stroke="#FFFFFF" stroke-width="2px" stroke-linejoin="round">3</tspan><tspan x="5" y="16">3</tspan></text></g><g class="highcharts-label highcharts-data-label highcharts-data-label-color-undefined" data-z-index="1" transform="translate(194,160)"><text x="5" data-z-index="1" y="16" style="color:#000000;font-size:11px;font-weight:bold;fill:#000000;"><tspan x="5" y="16" class="highcharts-text-outline" fill="#FFFFFF" stroke="#FFFFFF" stroke-width="2px" stroke-linejoin="round">3</tspan><tspan x="5" y="16">3</tspan></text></g><g class="highcharts-label highcharts-data-label highcharts-data-label-color-undefined highcharts-data-label-hidden" data-z-index="1" transform="translate(201,110)" opacity="0" style="pointer-events:none;"><text x="5" data-z-index="1" y="16" style="color:#000000;font-size:11px;font-weight:bold;fill:#000000;"><tspan x="5" y="16" class="highcharts-text-outline" fill="#FFFFFF" stroke="#FFFFFF" stroke-width="2px" stroke-linejoin="round">3</tspan><tspan x="5" y="16">3</tspan></text></g><g class="highcharts-label highcharts-data-label highcharts-data-label-color-undefined" data-z-index="1" transform="translate(234,72)"><text x="5" data-z-index="1" y="16" style="color:#000000;font-size:11px;font-weight:bold;fill:#000000;"><tspan x="5" y="16" class="highcharts-text-outline" fill="#FFFFFF" stroke="#FFFFFF" stroke-width="2px" stroke-linejoin="round">3</tspan><tspan x="5" y="16">3</tspan></text></g></g><g class="highcharts-legend" data-z-index="7" transform="translate(205,360)" aria-hidden="true"><rect fill="none" class="highcharts-legend-box" rx="0" ry="0" x="0" y="0" width="190" height="25" visibility="visible"></rect><g data-z-index="1"><g><g class="highcharts-legend-item highcharts-line-series highcharts-color-undefined highcharts-series-0" data-z-index="1" transform="translate(8,3)"><path fill="none" d="M 0 11 L 16 11" class="highcharts-graph" stroke="#0F0" stroke-width="2"></path><path fill="#0F0" d="M 8 15 A 4 4 0 1 1 8.003999999333336 14.999998000000167 Z" class="highcharts-point" opacity="1"></path><text x="21" style="color:#333333;cursor:pointer;font-size:12px;font-weight:bold;fill:#333333;" text-anchor="start" data-z-index="2" y="15"><tspan>Capaian</tspan></text></g><g class="highcharts-legend-item highcharts-line-series highcharts-color-undefined highcharts-series-1" data-z-index="1" transform="translate(91.70000076293945,3)"><path fill="none" d="M 0 11 L 16 11" class="highcharts-graph" stroke="#FF0000" stroke-width="2"></path><path fill="#FF0000" d="M 8 7 L 12 11 L 8 15 L 4 11 Z" class="highcharts-point" opacity="1"></path><text x="21" y="15" style="color:#333333;cursor:pointer;font-size:12px;font-weight:bold;fill:#333333;" text-anchor="start" data-z-index="2"><tspan>Nilai Standar</tspan></text></g></g></g></g><g class="highcharts-axis-labels highcharts-xaxis-labels" data-z-index="7" aria-hidden="true"><text x="300" style="color:#666666;cursor:default;font-size:11px;fill:#666666;" transform="translate(0,0) rotate(1 300 49.819063101002214)" text-anchor="middle" y="49.819063101002214" opacity="1"><tspan>Daya Analisa</tspan></text><text x="372.06742096683115" style="color:#666666;cursor:default;font-size:11px;fill:#666666;" transform="translate(0,0) rotate(1 372.06742096683115 70.81784290109772)" text-anchor="start" y="70.81784290109772" opacity="1"><tspan>Logika Berpikir</tspan></text><text x="421.2539449807573" style="color:#666666;cursor:default;font-size:11px;fill:#666666;" transform="translate(0,0) rotate(1 421.2539449807573 127.72791483540331)" text-anchor="start" y="127.72791483540331" opacity="1"><tspan>Berpikir Kritis</tspan></text><text x="431.94319820272835" style="color:#666666;cursor:default;font-size:11px;fill:#666666;" transform="translate(0,0) rotate(1 431.94319820272835 201.88200829607396)" text-anchor="start" y="201.88200829607396" opacity="1"><tspan>Sistematika Kerja</tspan></text><text x="400.7414182614226" style="color:#666666;cursor:default;font-size:11px;fill:#666666;" transform="translate(0,0) rotate(1 400.7414182614226 270.97388886818874)" text-anchor="start" y="270.97388886818874" opacity="1">Inisiatif</text><text x="337.55494982696257" style="color:#666666;cursor:default;font-size:11px;fill:#666666;" transform="translate(0,0) rotate(1 337.55494982696257 310.81578050187574)" text-anchor="start" y="310.81578050187574" opacity="1"><tspan>Daya Tahan Kerja</tspan></text><text x="262.44505017303743" style="color:#666666;cursor:default;font-size:11px;fill:#666666;" transform="translate(0,0) rotate(1 262.44505017303743 310.5957115149607)" text-anchor="end" y="310.5957115149607" opacity="1"><tspan>Dorongan Berprestasi</tspan></text><text x="199.2585817385774" style="color:#666666;cursor:default;font-size:11px;fill:#666666;" transform="translate(0,0) rotate(1 199.2585817385774 270.2190420821332)" text-anchor="end" y="270.2190420821332" opacity="1"><tspan>Tanggung Jawab</tspan></text><text x="168.05680179727167" style="color:#666666;cursor:default;font-size:11px;fill:#666666;" transform="translate(0,0) rotate(1 168.05680179727167 201.52588022620284)" text-anchor="end" y="201.52588022620284" opacity="1"><tspan>Keterampilan Interpersonal</tspan></text><text x="178.74605501924265" style="color:#666666;cursor:default;font-size:11px;fill:#666666;" transform="translate(0,0) rotate(1 178.74605501924265 127.56593643987313)" text-anchor="end" y="127.56593643987313" opacity="1"><tspan>Kepercayaan Diri</tspan></text><text x="227.93257903316885" style="color:#666666;cursor:default;font-size:11px;fill:#666666;" transform="translate(0,0) rotate(1 227.93257903316885 71.20764353026928)" text-anchor="end" y="71.20764353026928" opacity="1"><tspan>Stabilitas Emosi</tspan></text><text x="0" style="color:#666666;cursor:default;font-size:11px;fill:#666666;" transform="translate(0,0) rotate(1 0 -9999)" text-anchor="middle" y="-9999">11</text></g><g class="highcharts-axis-labels highcharts-yaxis-labels" data-z-index="7" aria-hidden="true"></g></g></svg>