<svg height="400" width="600" version="1.1" xmlns="http://www.w3.org/2000/svg"><g transform="translate(0,0)"  xmlns:xlink="http://www.w3.org/1999/xlink" version="1.1" class="highcharts-root" style="font-family:&quot;Lucida Grande&quot;, &quot;Lucida Sans Unicode&quot;, Arial, Helvetica, sans-serif;font-size:12px;" xmlns="http://www.w3.org/2000/svg" width="600" height="400" viewBox="0 0 600 400" aria-hidden="false" aria-label="Interactive chart"><desc aria-hidden="true">Created with Highcharts 8.1.2</desc><defs aria-hidden="true"><clipPath id="highcharts-5z8zkk7-77-"><rect x="0" y="0" width="580" height="337" fill="none"></rect></clipPath><clipPath id="highcharts-5z8zkk7-92"><circle cx="290" cy="168.5" r="117.95"></circle></clipPath><clipPath id="highcharts-5z8zkk7-107"><circle cx="290" cy="168.5" r="117.95"></circle></clipPath></defs><rect fill="#ffffff" class="highcharts-background" x="0" y="0" width="600" height="400" rx="0" ry="0" aria-hidden="true"></rect><rect fill="none" class="highcharts-plot-background" x="10" y="10" width="580" height="337" aria-hidden="true"></rect><g class="highcharts-pane-group" data-z-index="0" aria-hidden="true"></g><g class="highcharts-grid highcharts-xaxis-grid" data-z-index="1" aria-hidden="true"><path fill="none" stroke="#e6e6e6" stroke-width="1" data-z-index="1" class="highcharts-grid-line" d="M 300 178.5 L 300 60.55" opacity="1"></path><path fill="none" stroke="#e6e6e6" stroke-width="1" data-z-index="1" class="highcharts-grid-line" d="M 300 178.5 L 354.8140981425625 74.06046177420389" opacity="1"></path><path fill="none" stroke="#e6e6e6" stroke-width="1" data-z-index="1" class="highcharts-grid-line" d="M 300 178.5 L 397.0709469821568 111.49676312306018" opacity="1"></path><path fill="none" stroke="#e6e6e6" stroke-width="1" data-z-index="1" class="highcharts-grid-line" d="M 300 178.5 L 417.0900116998655 164.28269856388462" opacity="1"></path><path fill="none" stroke="#e6e6e6" stroke-width="1" data-z-index="1" class="highcharts-grid-line" d="M 300 178.5 L 410.2851658247447 220.32564642666705" opacity="1"></path><path fill="none" stroke="#e6e6e6" stroke-width="1" data-z-index="1" class="highcharts-grid-line" d="M 300 178.5 L 378.2153175395018 266.78684274678136" opacity="1"></path><path fill="none" stroke="#e6e6e6" stroke-width="1" data-z-index="1" class="highcharts-grid-line" d="M 300 178.5 L 328.2272826027175 293.02258736540284" opacity="1"></path><path fill="none" stroke="#e6e6e6" stroke-width="1" data-z-index="1" class="highcharts-grid-line" d="M 300 178.5 L 271.7727173972826 293.02258736540284" opacity="1"></path><path fill="none" stroke="#e6e6e6" stroke-width="1" data-z-index="1" class="highcharts-grid-line" d="M 300 178.5 L 221.78468246049823 266.7868427467814" opacity="1"></path><path fill="none" stroke="#e6e6e6" stroke-width="1" data-z-index="1" class="highcharts-grid-line" d="M 300 178.5 L 189.71483417525533 220.3256464266671" opacity="1"></path><path fill="none" stroke="#e6e6e6" stroke-width="1" data-z-index="1" class="highcharts-grid-line" d="M 300 178.5 L 182.9099883001345 164.28269856388474" opacity="1"></path><path fill="none" stroke="#e6e6e6" stroke-width="1" data-z-index="1" class="highcharts-grid-line" d="M 300 178.5 L 202.92905301784322 111.49676312306019" opacity="1"></path><path fill="none" stroke="#e6e6e6" stroke-width="1" data-z-index="1" class="highcharts-grid-line" d="M 300 178.5 L 245.18590185743744 74.06046177420393" opacity="1"></path><path fill="none" stroke="#e6e6e6" stroke-width="1" data-z-index="1" class="highcharts-grid-line" d="M 300 178.5 L 300 60.55" opacity="1"></path></g><g class="highcharts-grid highcharts-yaxis-grid" data-z-index="1" aria-hidden="true"><path fill="none" stroke="#e6e6e6" stroke-width="1" data-z-index="1" class="highcharts-grid-line" d="M 300 178.5 L 300 178.5 L 300 178.5 L 300 178.5 L 300 178.5 L 300 178.5 L 300 178.5 L 300 178.5 L 300 178.5 L 300 178.5 L 300 178.5 L 300 178.5 L 300 178.5 L 300 178.5 L 300 178.5" opacity="1"></path><path fill="none" stroke="#e6e6e6" stroke-width="1" data-z-index="1" class="highcharts-grid-line" d="M 300 139.18333333333334 L 318.2713660475208 143.6868205914013 L 332.3569823273856 156.1655877076867 L 339.03000389995515 173.76089952129487 L 336.7617219415816 192.44188214222237 L 326.0717725131673 207.92894758226046 L 309.4090942009058 216.6741957884676 L 290.5909057990942 216.6741957884676 L 273.9282274868327 207.92894758226046 L 263.2382780584185 192.44188214222237 L 260.96999610004485 173.7608995212949 L 267.6430176726144 156.16558770768674 L 281.72863395247913 143.6868205914013 L 300 139.18333333333334 L 300 139.18333333333334" opacity="1"></path><path fill="none" stroke="#e6e6e6" stroke-width="1" data-z-index="1" class="highcharts-grid-line" d="M 300 99.86666666666666 L 336.5427320950417 108.87364118280259 L 364.7139646547712 133.83117541537345 L 378.0600077999103 169.02179904258975 L 373.5234438831631 206.3837642844447 L 352.14354502633455 237.3578951645209 L 318.81818840181165 254.84839157693523 L 281.1818115981884 254.84839157693523 L 247.85645497366548 237.35789516452093 L 226.4765561168369 206.38376428444474 L 221.93999220008968 169.0217990425898 L 235.2860353452288 133.83117541537345 L 263.45726790495826 108.87364118280261 L 300 99.86666666666666 L 300 99.86666666666666" opacity="1"></path><path fill="none" stroke="#e6e6e6" stroke-width="1" data-z-index="1" class="highcharts-grid-line" d="M 300 178.5 L 300 178.5 L 300 178.5 L 300 178.5 L 300 178.5 L 300 178.5 L 300 178.5 L 300 178.5 L 300 178.5 L 300 178.5 L 300 178.5 L 300 178.5 L 300 178.5 L 300 178.5 L 300 178.5" opacity="1"></path></g><rect fill="none" class="highcharts-plot-border" data-z-index="1" x="10" y="10" width="580" height="337" aria-hidden="true"></rect><g class="highcharts-axis highcharts-xaxis" data-z-index="2" aria-hidden="true"><path fill="none" class="highcharts-axis-line" data-z-index="7" d="M 300 60.55 A 117.95 117.95 0 1 1 299.88205001965827 60.55005897499508 M 300 178.5 A 0 0 0 1 0 300 178.5"></path></g><g class="highcharts-axis highcharts-yaxis" data-z-index="2" aria-hidden="true"><path fill="none" class="highcharts-axis-line" data-z-index="7" d="M 300 178.5 L 300 60.55"></path></g><g class="highcharts-series-group" data-z-index="3" aria-hidden="false"><g class="highcharts-series highcharts-series-0 highcharts-line-series" data-z-index="0.1" opacity="1" transform="translate(10,10) scale(1 1)" clip-path="url(#highcharts-5z8zkk7-92)" aria-hidden="true"><path fill="none" d="M 290 109.52499999999999 L 308.27136604752076 133.68682059140124 L 354.713964654771 123.8311754153732 L 329.0300038999553 163.7608995212962 L 345.1425829123721 189.4128232133342 L 342.1435450263351 227.3578951645204 L 294.7045471004535 187.58709789423366 L 280.5909057990924 206.6741957884672 L 224.8205687170801 242.0723689556496 L 234.85741708762762 189.41282321333347 L 231.4549941500671 161.39134928194352 L 273.82150883630675 157.33279385384404 L 253.45726790496082 98.87364118280128 L 290 109.52499999999999" class="highcharts-graph" data-z-index="1" stroke="#0F0" stroke-width="2" stroke-linejoin="round" stroke-linecap="round"></path></g><g class="highcharts-markers highcharts-series-0 highcharts-line-series" data-z-index="0.1" opacity="1" transform="translate(10,10) scale(1 1)" clip-path="none" aria-hidden="false" role="region" tabindex="-1" aria-label="Capaian, line 1 of 2 with 13 data points." style="outline: 0px;"><path fill="#0F0" d="M 290 114 A 4 4 0 1 1 290.00399999933336 113.99999800000016 Z" opacity="1" class="highcharts-point" tabindex="-1" role="img" aria-label="1. Berpikir Sistematis, 3. Capaian." style="outline: 0px;"></path><path fill="#0F0" d="M 308 138 A 4 4 0 1 1 308.00399999933336 137.99999800000018 Z" opacity="1" class="highcharts-point" tabindex="-1" role="img" aria-label="2. Berpikir Konseptual, 2. Capaian." style="outline: 0px;"></path><path fill="#0F0" d="M 354 128 A 4 4 0 1 1 354.00399999933336 127.99999800000016 Z" opacity="1" class="highcharts-point" tabindex="-1" role="img" aria-label="3. Dorongan Berprestasi, 4. Capaian." style="outline: 0px;"></path><path fill="#0F0" d="M 329 168 A 4 4 0 1 1 329.00399999933336 167.99999800000018 Z" opacity="1" class="highcharts-point" tabindex="-1" role="img" aria-label="4. Daya Tahan Kerja, 2. Capaian." style="outline: 0px;"></path><path fill="#0F0" d="M 345 193 A 4 4 0 1 1 345.00399999933336 192.99999800000018 Z" opacity="1" class="highcharts-point" tabindex="-1" role="img" aria-label="5. Inisiatif, 3. Capaian." style="outline: 0px;"></path><path fill="#0F0" d="M 342 231 A 4 4 0 1 1 342.00399999933336 230.99999800000018 Z" opacity="1" class="highcharts-point" tabindex="-1" role="img" aria-label="6. Pengendalian Diri, 4. Capaian." style="outline: 0px;"></path><path fill="#0F0" d="M 294 192 A 4 4 0 1 1 294.00399999933336 191.99999800000018 Z" opacity="1" class="highcharts-point" tabindex="-1" role="img" aria-label="7. Daya Analisa, 1. Capaian." style="outline: 0px;"></path><path fill="#0F0" d="M 280 211 A 4 4 0 1 1 280.00399999933336 210.99999800000018 Z" opacity="1" class="highcharts-point" tabindex="-1" role="img" aria-label="8. Sistematika Kerja, 2. Capaian." style="outline: 0px;"></path><path fill="#0F0" d="M 224 246 A 4 4 0 1 1 224.00399999933333 245.99999800000018 Z" opacity="1" class="highcharts-point" tabindex="-1" role="img" aria-label="9. Kemampuan Analisis, 5. Capaian." style="outline: 0px;"></path><path fill="#0F0" d="M 234 193 A 4 4 0 1 1 234.00399999933333 192.99999800000018 Z" opacity="1" class="highcharts-point" tabindex="-1" role="img" aria-label="10. Kerjasama, 3. Capaian." style="outline: 0px;"></path><path fill="#0F0" d="M 231 165 A 4 4 0 1 1 231.00399999933333 164.99999800000018 Z" opacity="1" class="highcharts-point" tabindex="-1" role="img" aria-label="11. Logika Berpikir, 3. Capaian." style="outline: 0px;"></path><path fill="#0F0" d="M 273 161 A 4 4 0 1 1 273.00399999933336 160.99999800000018 Z" opacity="1" class="highcharts-point" tabindex="-1" role="img" aria-label="12. Dorongan Berprestasi, 1. Capaian." style="outline: 0px;"></path><path fill="#0F0" d="M 253 103 A 4 4 0 1 1 253.00399999933333 102.99999800000016 Z" opacity="1" class="highcharts-point" tabindex="-1" role="img" aria-label="13. Stabilitas Emosi, 4. Capaian." style="outline: 0px;"></path></g><g class="highcharts-series highcharts-series-1 highcharts-line-series" data-z-index="0.1" opacity="1" transform="translate(10,10) scale(1 1)" clip-path="url(#highcharts-5z8zkk7-107)" aria-hidden="true"><path fill="none" d="M 290 109.52499999999999 L 317.40704907128116 116.28023088710188 L 338.5354734910783 134.99838156152987 L 348.545005849933 161.39134928194431 L 345.1425829123721 189.4128232133342 L 329.10765876975137 212.6434213733903 L 304.1136413013606 225.76129368270097 L 275.8863586986387 225.76129368270077 L 250.89234123024806 212.64342137338977 L 234.85741708762762 189.41282321333347 L 231.4549941500671 161.39134928194352 L 241.4645265089202 134.9983815615321 L 262.5929509287206 116.28023088710096 L 290 109.52499999999999" class="highcharts-graph" data-z-index="1" stroke="#FF0000" stroke-width="2" stroke-linejoin="round" stroke-linecap="round"></path></g><g class="highcharts-markers highcharts-series-1 highcharts-line-series" data-z-index="0.1" opacity="1" transform="translate(10,10) scale(1 1)" clip-path="none" aria-hidden="false" role="region" tabindex="-1" aria-label="Nilai Standar, line 2 of 2 with 13 data points." style="outline: 0px;"><path fill="#FF0000" d="M 290 106 L 294 110 L 290 114 L 286 110 Z" opacity="1" class="highcharts-point" tabindex="-1" role="img" aria-label="1. Berpikir Sistematis, 3. Nilai Standar." style="outline: 0px;"></path><path fill="#FF0000" d="M 317 112 L 321 116 L 317 120 L 313 116 Z" opacity="1" class="highcharts-point" tabindex="-1" role="img" aria-label="2. Berpikir Konseptual, 3. Nilai Standar." style="outline: 0px;"></path><path fill="#FF0000" d="M 338 131 L 342 135 L 338 139 L 334 135 Z" opacity="1" class="highcharts-point" tabindex="-1" role="img" aria-label="3. Dorongan Berprestasi, 3. Nilai Standar." style="outline: 0px;"></path><path fill="#FF0000" d="M 348 157 L 352 161 L 348 165 L 344 161 Z" opacity="1" class="highcharts-point" tabindex="-1" role="img" aria-label="4. Daya Tahan Kerja, 3. Nilai Standar." style="outline: 0px;"></path><path fill="#FF0000" d="M 345 185 L 349 189 L 345 193 L 341 189 Z" opacity="1" class="highcharts-point" tabindex="-1" role="img" aria-label="5. Inisiatif, 3. Nilai Standar." style="outline: 0px;"></path><path fill="#FF0000" d="M 329 209 L 333 213 L 329 217 L 325 213 Z" opacity="1" class="highcharts-point" tabindex="-1" role="img" aria-label="6. Pengendalian Diri, 3. Nilai Standar." style="outline: 0px;"></path><path fill="#FF0000" d="M 304 222 L 308 226 L 304 230 L 300 226 Z" opacity="1" class="highcharts-point" tabindex="-1" role="img" aria-label="7. Daya Analisa, 3. Nilai Standar." style="outline: 0px;"></path><path fill="#FF0000" d="M 275 222 L 279 226 L 275 230 L 271 226 Z" opacity="1" class="highcharts-point" tabindex="-1" role="img" aria-label="8. Sistematika Kerja, 3. Nilai Standar." style="outline: 0px;"></path><path fill="#FF0000" d="M 250 209 L 254 213 L 250 217 L 246 213 Z" opacity="1" class="highcharts-point" tabindex="-1" role="img" aria-label="9. Kemampuan Analisis, 3. Nilai Standar." style="outline: 0px;"></path><path fill="#FF0000" d="M 234 185 L 238 189 L 234 193 L 230 189 Z" opacity="1" class="highcharts-point" tabindex="-1" role="img" aria-label="10. Kerjasama, 3. Nilai Standar." style="outline: 0px;"></path><path fill="#FF0000" d="M 231 157 L 235 161 L 231 165 L 227 161 Z" opacity="1" class="highcharts-point" tabindex="-1" role="img" aria-label="11. Logika Berpikir, 3. Nilai Standar." style="outline: 0px;"></path><path fill="#FF0000" d="M 241 131 L 245 135 L 241 139 L 237 135 Z" opacity="1" class="highcharts-point" tabindex="-1" role="img" aria-label="12. Dorongan Berprestasi, 3. Nilai Standar." style="outline: 0px;"></path><path fill="#FF0000" d="M 262 112 L 266 116 L 262 120 L 258 116 Z" opacity="1" class="highcharts-point" tabindex="-1" role="img" aria-label="13. Stabilitas Emosi, 3. Nilai Standar." style="outline: 0px;"></path></g></g><text x="220" text-anchor="middle" class="highcharts-title" data-z-index="4" style="color:#333333;font-size:18px;fill:#333333;" y="24" aria-hidden="true"></text><text x="300" text-anchor="middle" class="highcharts-subtitle" data-z-index="4" style="color:#666666;fill:#666666;" y="24" aria-hidden="true"></text><text x="10" text-anchor="start" class="highcharts-caption" data-z-index="4" style="color:#666666;fill:#666666;" y="397" aria-hidden="true"></text><g class="highcharts-data-labels highcharts-series-0 highcharts-line-series" data-z-index="6" opacity="1" transform="translate(10,10) scale(1 1)" aria-hidden="true"><g class="highcharts-label highcharts-data-label highcharts-data-label-color-undefined" data-z-index="1" transform="translate(281,87)"><text x="5" data-z-index="1" y="16" style="color:#000000;font-size:11px;font-weight:bold;fill:#000000;"><tspan x="5" y="16" class="highcharts-text-outline" fill="#FFFFFF" stroke="#FFFFFF" stroke-width="2px" stroke-linejoin="round" style="">3</tspan><tspan x="5" y="16">3</tspan></text></g><g class="highcharts-label highcharts-data-label highcharts-data-label-color-undefined" data-z-index="1" transform="translate(300,111)"><text x="5" data-z-index="1" y="16" style="color:#000000;font-size:11px;font-weight:bold;fill:#000000;"><tspan x="5" y="16" class="highcharts-text-outline" fill="#FFFFFF" stroke="#FFFFFF" stroke-width="2px" stroke-linejoin="round">2</tspan><tspan x="5" y="16">2</tspan></text></g><g class="highcharts-label highcharts-data-label highcharts-data-label-color-undefined" data-z-index="1" transform="translate(346,101)"><text x="5" data-z-index="1" y="16" style="color:#000000;font-size:11px;font-weight:bold;fill:#000000;"><tspan x="5" y="16" class="highcharts-text-outline" fill="#FFFFFF" stroke="#FFFFFF" stroke-width="2px" stroke-linejoin="round">4</tspan><tspan x="5" y="16">4</tspan></text></g><g class="highcharts-label highcharts-data-label highcharts-data-label-color-undefined" data-z-index="1" transform="translate(320,141)"><text x="5" data-z-index="1" y="16" style="color:#000000;font-size:11px;font-weight:bold;fill:#000000;"><tspan x="5" y="16" class="highcharts-text-outline" fill="#FFFFFF" stroke="#FFFFFF" stroke-width="2px" stroke-linejoin="round">2</tspan><tspan x="5" y="16">2</tspan></text></g><g class="highcharts-label highcharts-data-label highcharts-data-label-color-undefined" data-z-index="1" transform="translate(336,166)"><text x="5" data-z-index="1" y="16" style="color:#000000;font-size:11px;font-weight:bold;fill:#000000;"><tspan x="5" y="16" class="highcharts-text-outline" fill="#FFFFFF" stroke="#FFFFFF" stroke-width="2px" stroke-linejoin="round">3</tspan><tspan x="5" y="16">3</tspan></text></g><g class="highcharts-label highcharts-data-label highcharts-data-label-color-undefined" data-z-index="1" transform="translate(333,204)"><text x="5" data-z-index="1" y="16" style="color:#000000;font-size:11px;font-weight:bold;fill:#000000;"><tspan x="5" y="16" class="highcharts-text-outline" fill="#FFFFFF" stroke="#FFFFFF" stroke-width="2px" stroke-linejoin="round">4</tspan><tspan x="5" y="16">4</tspan></text></g><g class="highcharts-label highcharts-data-label highcharts-data-label-color-undefined" data-z-index="1" transform="translate(286,165)"><text x="5" data-z-index="1" y="16" style="color:#000000;font-size:11px;font-weight:bold;fill:#000000;"><tspan x="5" y="16" class="highcharts-text-outline" fill="#FFFFFF" stroke="#FFFFFF" stroke-width="2px" stroke-linejoin="round">1</tspan><tspan x="5" y="16">1</tspan></text></g><g class="highcharts-label highcharts-data-label highcharts-data-label-color-undefined" data-z-index="1" transform="translate(272,184)"><text x="5" data-z-index="1" y="16" style="color:#000000;font-size:11px;font-weight:bold;fill:#000000;"><tspan x="5" y="16" class="highcharts-text-outline" fill="#FFFFFF" stroke="#FFFFFF" stroke-width="2px" stroke-linejoin="round">2</tspan><tspan x="5" y="16">2</tspan></text></g><g class="highcharts-label highcharts-data-label highcharts-data-label-color-undefined" data-z-index="1" transform="translate(216,219)"><text x="5" data-z-index="1" y="16" style="color:#000000;font-size:11px;font-weight:bold;fill:#000000;"><tspan x="5" y="16" class="highcharts-text-outline" fill="#FFFFFF" stroke="#FFFFFF" stroke-width="2px" stroke-linejoin="round">5</tspan><tspan x="5" y="16">5</tspan></text></g><g class="highcharts-label highcharts-data-label highcharts-data-label-color-undefined" data-z-index="1" transform="translate(226,166)"><text x="5" data-z-index="1" y="16" style="color:#000000;font-size:11px;font-weight:bold;fill:#000000;"><tspan x="5" y="16" class="highcharts-text-outline" fill="#FFFFFF" stroke="#FFFFFF" stroke-width="2px" stroke-linejoin="round">3</tspan><tspan x="5" y="16">3</tspan></text></g><g class="highcharts-label highcharts-data-label highcharts-data-label-color-undefined" data-z-index="1" transform="translate(223,138)"><text x="5" data-z-index="1" y="16" style="color:#000000;font-size:11px;font-weight:bold;fill:#000000;"><tspan x="5" y="16" class="highcharts-text-outline" fill="#FFFFFF" stroke="#FFFFFF" stroke-width="2px" stroke-linejoin="round">3</tspan><tspan x="5" y="16">3</tspan></text></g><g class="highcharts-label highcharts-data-label highcharts-data-label-color-undefined" data-z-index="1" transform="translate(265,134)"><text x="5" data-z-index="1" y="16" style="color:#000000;font-size:11px;font-weight:bold;fill:#000000;"><tspan x="5" y="16" class="highcharts-text-outline" fill="#FFFFFF" stroke="#FFFFFF" stroke-width="2px" stroke-linejoin="round">1</tspan><tspan x="5" y="16">1</tspan></text></g><g class="highcharts-label highcharts-data-label highcharts-data-label-color-undefined" data-z-index="1" transform="translate(245,76)"><text x="5" data-z-index="1" y="16" style="color:#000000;font-size:11px;font-weight:bold;fill:#000000;"><tspan x="5" y="16" class="highcharts-text-outline" fill="#FFFFFF" stroke="#FFFFFF" stroke-width="2px" stroke-linejoin="round">4</tspan><tspan x="5" y="16">4</tspan></text></g></g><g class="highcharts-data-labels highcharts-series-1 highcharts-line-series" data-z-index="6" opacity="1" transform="translate(10,10) scale(1 1)" aria-hidden="true"><g class="highcharts-label highcharts-data-label highcharts-data-label-color-undefined highcharts-data-label-hidden" data-z-index="1" transform="translate(281,87)" opacity="0" style="pointer-events:none;"><text x="5" data-z-index="1" y="16" style="color:#000000;font-size:11px;font-weight:bold;fill:#000000;"><tspan x="5" y="16" class="highcharts-text-outline" fill="#FFFFFF" stroke="#FFFFFF" stroke-width="2px" stroke-linejoin="round">3</tspan><tspan x="5" y="16">3</tspan></text></g><g class="highcharts-label highcharts-data-label highcharts-data-label-color-undefined" data-z-index="1" transform="translate(309,93)"><text x="5" data-z-index="1" y="16" style="color:#000000;font-size:11px;font-weight:bold;fill:#000000;"><tspan x="5" y="16" class="highcharts-text-outline" fill="#FFFFFF" stroke="#FFFFFF" stroke-width="2px" stroke-linejoin="round">3</tspan><tspan x="5" y="16">3</tspan></text></g><g class="highcharts-label highcharts-data-label highcharts-data-label-color-undefined" data-z-index="1" transform="translate(330,112)"><text x="5" data-z-index="1" y="16" style="color:#000000;font-size:11px;font-weight:bold;fill:#000000;"><tspan x="5" y="16" class="highcharts-text-outline" fill="#FFFFFF" stroke="#FFFFFF" stroke-width="2px" stroke-linejoin="round">3</tspan><tspan x="5" y="16">3</tspan></text></g><g class="highcharts-label highcharts-data-label highcharts-data-label-color-undefined" data-z-index="1" transform="translate(340,138)"><text x="5" data-z-index="1" y="16" style="color:#000000;font-size:11px;font-weight:bold;fill:#000000;"><tspan x="5" y="16" class="highcharts-text-outline" fill="#FFFFFF" stroke="#FFFFFF" stroke-width="2px" stroke-linejoin="round">3</tspan><tspan x="5" y="16">3</tspan></text></g><g class="highcharts-label highcharts-data-label highcharts-data-label-color-undefined highcharts-data-label-hidden" data-z-index="1" transform="translate(336,166)" opacity="0" style="pointer-events:none;"><text x="5" data-z-index="1" y="16" style="color:#000000;font-size:11px;font-weight:bold;fill:#000000;"><tspan x="5" y="16" class="highcharts-text-outline" fill="#FFFFFF" stroke="#FFFFFF" stroke-width="2px" stroke-linejoin="round">3</tspan><tspan x="5" y="16">3</tspan></text></g><g class="highcharts-label highcharts-data-label highcharts-data-label-color-undefined" data-z-index="1" transform="translate(320,190)"><text x="5" data-z-index="1" y="16" style="color:#000000;font-size:11px;font-weight:bold;fill:#000000;"><tspan x="5" y="16" class="highcharts-text-outline" fill="#FFFFFF" stroke="#FFFFFF" stroke-width="2px" stroke-linejoin="round">3</tspan><tspan x="5" y="16">3</tspan></text></g><g class="highcharts-label highcharts-data-label highcharts-data-label-color-undefined" data-z-index="1" transform="translate(295,203)"><text x="5" data-z-index="1" y="16" style="color:#000000;font-size:11px;font-weight:bold;fill:#000000;"><tspan x="5" y="16" class="highcharts-text-outline" fill="#FFFFFF" stroke="#FFFFFF" stroke-width="2px" stroke-linejoin="round">3</tspan><tspan x="5" y="16">3</tspan></text></g><g class="highcharts-label highcharts-data-label highcharts-data-label-color-undefined" data-z-index="1" transform="translate(267,203)"><text x="5" data-z-index="1" y="16" style="color:#000000;font-size:11px;font-weight:bold;fill:#000000;"><tspan x="5" y="16" class="highcharts-text-outline" fill="#FFFFFF" stroke="#FFFFFF" stroke-width="2px" stroke-linejoin="round">3</tspan><tspan x="5" y="16">3</tspan></text></g><g class="highcharts-label highcharts-data-label highcharts-data-label-color-undefined" data-z-index="1" transform="translate(242,190)"><text x="5" data-z-index="1" y="16" style="color:#000000;font-size:11px;font-weight:bold;fill:#000000;"><tspan x="5" y="16" class="highcharts-text-outline" fill="#FFFFFF" stroke="#FFFFFF" stroke-width="2px" stroke-linejoin="round">3</tspan><tspan x="5" y="16">3</tspan></text></g><g class="highcharts-label highcharts-data-label highcharts-data-label-color-undefined highcharts-data-label-hidden" data-z-index="1" transform="translate(226,166)" opacity="0" style="pointer-events:none;"><text x="5" data-z-index="1" y="16" style="color:#000000;font-size:11px;font-weight:bold;fill:#000000;"><tspan x="5" y="16" class="highcharts-text-outline" fill="#FFFFFF" stroke="#FFFFFF" stroke-width="2px" stroke-linejoin="round">3</tspan><tspan x="5" y="16">3</tspan></text></g><g class="highcharts-label highcharts-data-label highcharts-data-label-color-undefined highcharts-data-label-hidden" data-z-index="1" transform="translate(223,138)" opacity="0" style="pointer-events:none;"><text x="5" data-z-index="1" y="16" style="color:#000000;font-size:11px;font-weight:bold;fill:#000000;"><tspan x="5" y="16" class="highcharts-text-outline" fill="#FFFFFF" stroke="#FFFFFF" stroke-width="2px" stroke-linejoin="round">3</tspan><tspan x="5" y="16">3</tspan></text></g><g class="highcharts-label highcharts-data-label highcharts-data-label-color-undefined" data-z-index="1" transform="translate(233,112)"><text x="5" data-z-index="1" y="16" style="color:#000000;font-size:11px;font-weight:bold;fill:#000000;"><tspan x="5" y="16" class="highcharts-text-outline" fill="#FFFFFF" stroke="#FFFFFF" stroke-width="2px" stroke-linejoin="round">3</tspan><tspan x="5" y="16">3</tspan></text></g><g class="highcharts-label highcharts-data-label highcharts-data-label-color-undefined" data-z-index="1" transform="translate(254,93)"><text x="5" data-z-index="1" y="16" style="color:#000000;font-size:11px;font-weight:bold;fill:#000000;"><tspan x="5" y="16" class="highcharts-text-outline" fill="#FFFFFF" stroke="#FFFFFF" stroke-width="2px" stroke-linejoin="round">3</tspan><tspan x="5" y="16">3</tspan></text></g></g><g class="highcharts-legend" data-z-index="7" transform="translate(206,359)" aria-hidden="true"><rect fill="none" class="highcharts-legend-box" rx="0" ry="0" x="0" y="0" width="188" height="26" visibility="visible"></rect><g data-z-index="1"><g><g class="highcharts-legend-item highcharts-line-series highcharts-color-undefined highcharts-series-0" data-z-index="1" transform="translate(8,3)"><path fill="none" d="M 0 11 L 16 11" class="highcharts-graph" stroke="#0F0" stroke-width="2"></path><path fill="#0F0" d="M 8 15 A 4 4 0 1 1 8.003999999333336 14.999998000000167 Z" class="highcharts-point" opacity="1"></path><text x="21" style="color:#333333;cursor:pointer;font-size:12px;font-weight:bold;fill:#333333;" text-anchor="start" data-z-index="2" y="15"><tspan>Capaian</tspan></text></g><g class="highcharts-legend-item highcharts-line-series highcharts-color-undefined highcharts-series-1" data-z-index="1" transform="translate(91.34375,3)"><path fill="none" d="M 0 11 L 16 11" class="highcharts-graph" stroke="#FF0000" stroke-width="2"></path><path fill="#FF0000" d="M 8 7 L 12 11 L 8 15 L 4 11 Z" class="highcharts-point" opacity="1"></path><text x="21" y="15" style="color:#333333;cursor:pointer;font-size:12px;font-weight:bold;fill:#333333;" text-anchor="start" data-z-index="2"><tspan>Nilai Standar</tspan></text></g></g></g></g><g class="highcharts-axis-labels highcharts-xaxis-labels" data-z-index="7" aria-hidden="true"><text x="300" style="color:#666666;cursor:default;font-size:11px;fill:#666666;" transform="translate(0,0) rotate(1 300 49.094873644603034)" text-anchor="middle" y="49.094873644603034" opacity="1"><tspan>Berpikir Sistematis</tspan></text><text x="361.78494572321904" style="color:#666666;cursor:default;font-size:11px;fill:#666666;" transform="translate(0,0) rotate(1 361.78494572321904 64.27890958943853)" text-anchor="start" y="64.27890958943853" opacity="1"><tspan>Berpikir Konseptual</tspan></text><text x="409.4157049705616" style="color:#666666;cursor:default;font-size:11px;fill:#666666;" transform="translate(0,0) rotate(1 409.4157049705616 106.40477068019828)" text-anchor="start" y="106.40477068019828" opacity="1"><tspan>Dorongan Berprestasi</tspan></text><text x="431.9806448113363" style="color:#666666;cursor:default;font-size:11px;fill:#666666;" transform="translate(0,0) rotate(1 431.9806448113363 166.0874227734529)" text-anchor="start" y="166.0874227734529" opacity="1"><tspan>Daya Tahan Kerja</tspan></text><text x="424.3104094650259" style="color:#666666;cursor:default;font-size:11px;fill:#666666;" transform="translate(0,0) rotate(1 424.3104094650259 229.6477190458868)" text-anchor="start" y="229.6477190458868" opacity="1">Inisiatif</text><text x="388.16215741311373" style="color:#666666;cursor:default;font-size:11px;fill:#666666;" transform="translate(0,0) rotate(1 388.16215741311373 281.6092805886075)" text-anchor="start" y="281.6092805886075" opacity="1"><tspan>Pengendalian Diri</tspan></text><text x="331.81701756703086" style="color:#666666;cursor:default;font-size:11px;fill:#666666;" transform="translate(0,0) rotate(1 331.81701756703086 311.386420674766)" text-anchor="start" y="311.386420674766" opacity="1"><tspan>Daya Analisa</tspan></text><text x="268.18298243296925" style="color:#666666;cursor:default;font-size:11px;fill:#666666;" transform="translate(0,0) rotate(1 268.18298243296925 311.1955349793583)" text-anchor="end" y="311.1955349793583" opacity="1"><tspan>Sistematika Kerja</tspan></text><text x="211.83784258688632" style="color:#666666;cursor:default;font-size:11px;fill:#666666;" transform="translate(0,0) rotate(1 211.83784258688632 281.4817962134602)" text-anchor="end" y="281.4817962134602" opacity="1"><tspan>Kemampuan Analisis</tspan></text><text x="175.68959053497412" style="color:#666666;cursor:default;font-size:11px;fill:#666666;" transform="translate(0,0) rotate(1 175.68959053497412 229.5361872609986)" text-anchor="end" y="229.5361872609986" opacity="1">Kerjasama</text><text x="168.01935518866372" style="color:#666666;cursor:default;font-size:11px;fill:#666666;" transform="translate(0,0) rotate(1 168.01935518866372 166.16077741925966)" text-anchor="end" y="166.16077741925966" opacity="1"><tspan>Logika Berpikir</tspan></text><text x="190.58429502943835" style="color:#666666;cursor:default;font-size:11px;fill:#666666;" transform="translate(0,0) rotate(1 190.58429502943835 106.40477068019831)" text-anchor="end" y="106.40477068019831" opacity="1"><tspan>Dorongan Berprestasi</tspan></text><text x="238.2150542767809" style="color:#666666;cursor:default;font-size:11px;fill:#666666;" transform="translate(0,0) rotate(1 238.2150542767809 64.45070671530559)" text-anchor="end" y="64.45070671530559" opacity="1"><tspan>Stabilitas Emosi</tspan></text><text x="0" style="color:#666666;cursor:default;font-size:11px;fill:#666666;" transform="translate(0,0) rotate(1 0 -9999)" text-anchor="middle" y="-9999">13</text></g><g class="highcharts-axis-labels highcharts-yaxis-labels" data-z-index="7" aria-hidden="true"></g></g></svg>