<svg height="400" width="600" version="1.1" xmlns="http://www.w3.org/2000/svg"><g transform="translate(0,0)"  xmlns:xlink="http://www.w3.org/1999/xlink" version="1.1" class="highcharts-root" style="font-family:&quot;Lucida Grande&quot;, &quot;Lucida Sans Unicode&quot;, Arial, Helvetica, sans-serif;font-size:12px;" xmlns="http://www.w3.org/2000/svg" width="600" height="400" viewBox="0 0 600 400" aria-hidden="false" aria-label="Interactive chart"><desc aria-hidden="true">Created with Highcharts 8.1.2</desc><defs aria-hidden="true"><clipPath id="highcharts-k4w3uw1-42-"><rect x="0" y="0" width="580" height="338" fill="none"></rect></clipPath><clipPath id="highcharts-k4w3uw1-47"><circle cx="290" cy="169" r="118.3"></circle></clipPath><clipPath id="highcharts-k4w3uw1-52"><circle cx="290" cy="169" r="118.3"></circle></clipPath></defs><rect fill="#ffffff" class="highcharts-background" x="0" y="0" width="600" height="400" rx="0" ry="0" aria-hidden="true"></rect><rect fill="none" class="highcharts-plot-background" x="10" y="10" width="580" height="338" aria-hidden="true"></rect><g class="highcharts-pane-group" data-z-index="0" aria-hidden="true"></g><g class="highcharts-grid highcharts-xaxis-grid" data-z-index="1" aria-hidden="true"><path fill="none" stroke="#e6e6e6" stroke-width="1" data-z-index="1" class="highcharts-grid-line" d="M 300 179 L 300 60.7" opacity="1"></path><path fill="none" stroke="#e6e6e6" stroke-width="1" data-z-index="1" class="highcharts-grid-line" d="M 300 179 L 402.4508052676991 238.14999999999998" opacity="1"></path><path fill="none" stroke="#e6e6e6" stroke-width="1" data-z-index="1" class="highcharts-grid-line" d="M 300 179 L 197.54919473230092 238.15000000000003" opacity="1"></path><path fill="none" stroke="#e6e6e6" stroke-width="1" data-z-index="1" class="highcharts-grid-line" d="M 300 179 L 300 60.7" opacity="1"></path></g><g class="highcharts-grid highcharts-yaxis-grid" data-z-index="1" aria-hidden="true"><path fill="none" stroke="#e6e6e6" stroke-width="1" data-z-index="1" class="highcharts-grid-line" d="M 300 179 L 300 179 L 300 179 L 300 179 L 300 179" opacity="1"></path><path fill="none" stroke="#e6e6e6" stroke-width="1" data-z-index="1" class="highcharts-grid-line" d="M 300 119.85 L 351.22540263384957 208.575 L 248.77459736615046 208.57500000000002 L 300 119.85 L 300 119.85" opacity="1"></path><path fill="none" stroke="#e6e6e6" stroke-width="1" data-z-index="1" class="highcharts-grid-line" d="M 300 60.7 L 402.4508052676991 238.14999999999998 L 197.54919473230092 238.15000000000003 L 300 60.7 L 300 60.7" opacity="1"></path></g><rect fill="none" class="highcharts-plot-border" data-z-index="1" x="10" y="10" width="580" height="338" aria-hidden="true"></rect><g class="highcharts-axis highcharts-xaxis" data-z-index="2" aria-hidden="true"><path fill="none" class="highcharts-axis-line" data-z-index="7" d="M 300 60.7 A 118.3 118.3 0 1 1 299.8817000197166 60.70005914999507 M 300 179 A 0 0 0 1 0 300 179"></path></g><g class="highcharts-axis highcharts-yaxis" data-z-index="2" aria-hidden="true"><path fill="none" class="highcharts-axis-line" data-z-index="7" d="M 300 179 L 300 60.7"></path></g><g class="highcharts-series-group" data-z-index="3" aria-hidden="false"><g class="highcharts-series highcharts-series-0 highcharts-line-series" data-z-index="0.1" opacity="1" transform="translate(10,10) scale(1 1)" clip-path="url(#highcharts-k4w3uw1-47)" aria-hidden="true"><path fill="none" d="M 290 169 L 290 169 L 290 169 L 290 169" class="highcharts-graph" data-z-index="1" stroke="#0F0" stroke-width="2" stroke-linejoin="round" stroke-linecap="round"></path></g><g class="highcharts-markers highcharts-series-0 highcharts-line-series" data-z-index="0.1" opacity="1" transform="translate(10,10) scale(1 1)" clip-path="none" aria-hidden="false" role="region" tabindex="-1" style="outline: currentcolor none 0px;" aria-label="Capaian, line 1 of 2 with 3 data points."><path fill="#0F0" d="M 290 173 A 4 4 0 1 1 290.00399999933336 172.99999800000018 Z" opacity="1" class="highcharts-point" tabindex="-1" style="outline: currentcolor none 0px;" role="img" aria-label="1. Daya Analisa, 0. Capaian."></path><path fill="#0F0" d="M 290 173 A 4 4 0 1 1 290.00399999933336 172.99999800000018 Z" opacity="1" class="highcharts-point" tabindex="-1" style="outline: currentcolor none 0px;" role="img" aria-label="2. Logika Berpikir, 0. Capaian."></path><path fill="#0F0" d="M 290 173 A 4 4 0 1 1 290.00399999933336 172.99999800000018 Z" opacity="1" class="highcharts-point" tabindex="-1" style="outline: currentcolor none 0px;" role="img" aria-label="3. Berpikir Kritis, 0. Capaian."></path></g><g class="highcharts-series highcharts-series-1 highcharts-line-series" data-z-index="0.1" opacity="1" transform="translate(10,10) scale(1 1)" clip-path="url(#highcharts-k4w3uw1-52)" aria-hidden="true"><path fill="none" d="M 290 80.275 L 366.8381039507741 213.36250000000035 L 213.16189604922528 213.36249999999927 L 290 80.275" class="highcharts-graph" data-z-index="1" stroke="#FF0000" stroke-width="2" stroke-linejoin="round" stroke-linecap="round"></path></g><g class="highcharts-markers highcharts-series-1 highcharts-line-series" data-z-index="0.1" opacity="1" transform="translate(10,10) scale(1 1)" clip-path="none" aria-hidden="false" role="region" tabindex="-1" style="outline: currentcolor none 0px;" aria-label="Nilai Standar, line 2 of 2 with 3 data points."><path fill="#FF0000" d="M 290 76 L 294 80 L 290 84 L 286 80 Z" opacity="1" class="highcharts-point" tabindex="-1" style="outline: currentcolor none 0px;" role="img" aria-label="1. Daya Analisa, 3. Nilai Standar."></path><path fill="#FF0000" d="M 366 209 L 370 213 L 366 217 L 362 213 Z" opacity="1" class="highcharts-point" tabindex="-1" style="outline: currentcolor none 0px;" role="img" aria-label="2. Logika Berpikir, 3. Nilai Standar."></path><path fill="#FF0000" d="M 213 209 L 217 213 L 213 217 L 209 213 Z" opacity="1" class="highcharts-point" tabindex="-1" style="outline: currentcolor none 0px;" role="img" aria-label="3. Berpikir Kritis, 3. Nilai Standar."></path></g></g><text x="220" text-anchor="middle" class="highcharts-title" data-z-index="4" style="color:#333333;font-size:18px;fill:#333333;" y="24" aria-hidden="true"></text><text x="300" text-anchor="middle" class="highcharts-subtitle" data-z-index="4" style="color:#666666;fill:#666666;" y="24" aria-hidden="true"></text><text x="10" text-anchor="start" class="highcharts-caption" data-z-index="4" style="color:#666666;fill:#666666;" y="397" aria-hidden="true"></text><g class="highcharts-data-labels highcharts-series-0 highcharts-line-series" data-z-index="6" opacity="1" transform="translate(10,10) scale(1 1)" aria-hidden="true"><g class="highcharts-label highcharts-data-label highcharts-data-label-color-undefined" data-z-index="1" transform="translate(282,146)"><text x="5" data-z-index="1" y="16" style="color:#000000;font-size:11px;font-weight:bold;fill:#000000;"><tspan x="5" y="16" class="highcharts-text-outline" fill="#FFFFFF" stroke="#FFFFFF" stroke-width="2px" stroke-linejoin="round" style="">0</tspan><tspan x="5" y="16">0</tspan></text></g><g class="highcharts-label highcharts-data-label highcharts-data-label-color-undefined highcharts-data-label-hidden" data-z-index="1" transform="translate(282,146)" opacity="0" style="pointer-events:none;"><text x="5" data-z-index="1" y="16" style="color:#000000;font-size:11px;font-weight:bold;fill:#000000;"><tspan x="5" y="16" class="highcharts-text-outline" fill="#FFFFFF" stroke="#FFFFFF" stroke-width="2px" stroke-linejoin="round">0</tspan><tspan x="5" y="16">0</tspan></text></g><g class="highcharts-label highcharts-data-label highcharts-data-label-color-undefined highcharts-data-label-hidden" data-z-index="1" transform="translate(282,146)" opacity="0" style="pointer-events:none;"><text x="5" data-z-index="1" y="16" style="color:#000000;font-size:11px;font-weight:bold;fill:#000000;"><tspan x="5" y="16" class="highcharts-text-outline" fill="#FFFFFF" stroke="#FFFFFF" stroke-width="2px" stroke-linejoin="round">0</tspan><tspan x="5" y="16">0</tspan></text></g></g><g class="highcharts-data-labels highcharts-series-1 highcharts-line-series" data-z-index="6" opacity="1" transform="translate(10,10) scale(1 1)" aria-hidden="true"><g class="highcharts-label highcharts-data-label highcharts-data-label-color-undefined" data-z-index="1" transform="translate(282,57)"><text x="5" data-z-index="1" y="16" style="color:#000000;font-size:11px;font-weight:bold;fill:#000000;"><tspan x="5" y="16" class="highcharts-text-outline" fill="#FFFFFF" stroke="#FFFFFF" stroke-width="2px" stroke-linejoin="round">3</tspan><tspan x="5" y="16">3</tspan></text></g><g class="highcharts-label highcharts-data-label highcharts-data-label-color-undefined" data-z-index="1" transform="translate(359,190)"><text x="5" data-z-index="1" y="16" style="color:#000000;font-size:11px;font-weight:bold;fill:#000000;"><tspan x="5" y="16" class="highcharts-text-outline" fill="#FFFFFF" stroke="#FFFFFF" stroke-width="2px" stroke-linejoin="round">3</tspan><tspan x="5" y="16">3</tspan></text></g><g class="highcharts-label highcharts-data-label highcharts-data-label-color-undefined" data-z-index="1" transform="translate(205,190)"><text x="5" data-z-index="1" y="16" style="color:#000000;font-size:11px;font-weight:bold;fill:#000000;"><tspan x="5" y="16" class="highcharts-text-outline" fill="#FFFFFF" stroke="#FFFFFF" stroke-width="2px" stroke-linejoin="round">3</tspan><tspan x="5" y="16">3</tspan></text></g></g><g class="highcharts-legend" data-z-index="7" transform="translate(205,360)" aria-hidden="true"><rect fill="none" class="highcharts-legend-box" rx="0" ry="0" x="0" y="0" width="190" height="25" visibility="visible"></rect><g data-z-index="1"><g><g class="highcharts-legend-item highcharts-line-series highcharts-color-undefined highcharts-series-0" data-z-index="1" transform="translate(8,3)"><path fill="none" d="M 0 11 L 16 11" class="highcharts-graph" stroke="#0F0" stroke-width="2"></path><path fill="#0F0" d="M 8 15 A 4 4 0 1 1 8.003999999333336 14.999998000000167 Z" class="highcharts-point" opacity="1"></path><text x="21" style="color:#333333;cursor:pointer;font-size:12px;font-weight:bold;fill:#333333;" text-anchor="start" data-z-index="2" y="15"><tspan>Capaian</tspan></text></g><g class="highcharts-legend-item highcharts-line-series highcharts-color-undefined highcharts-series-1" data-z-index="1" transform="translate(91.70000076293945,3)"><path fill="none" d="M 0 11 L 16 11" class="highcharts-graph" stroke="#FF0000" stroke-width="2"></path><path fill="#FF0000" d="M 8 7 L 12 11 L 8 15 L 4 11 Z" class="highcharts-point" opacity="1"></path><text x="21" y="15" style="color:#333333;cursor:pointer;font-size:12px;font-weight:bold;fill:#333333;" text-anchor="start" data-z-index="2"><tspan>Nilai Standar</tspan></text></g></g></g></g><g class="highcharts-axis-labels highcharts-xaxis-labels" data-z-index="7" aria-hidden="true"><text x="300" style="color:#666666;cursor:default;font-size:11px;fill:#666666;" transform="translate(0,0) rotate(1 300 49.510776664760385)" text-anchor="middle" y="49.510776664760385" opacity="1"><tspan>Daya Analisa</tspan></text><text x="415.44118632446566" style="color:#666666;cursor:default;font-size:11px;fill:#666666;" transform="translate(0,0) rotate(1 415.44118632446566 249.34864496671597)" text-anchor="start" y="249.34864496671597" opacity="1"><tspan>Logika Berpikir</tspan></text><text x="184.55881367553434" style="color:#666666;cursor:default;font-size:11px;fill:#666666;" transform="translate(0,0) rotate(1 184.55881367553434 249.3944575336139)" text-anchor="end" y="249.3944575336139" opacity="1"><tspan>Berpikir Kritis</tspan></text><text x="0" style="color:#666666;cursor:default;font-size:11px;fill:#666666;" transform="translate(0,0) rotate(1 0 -9999)" text-anchor="middle" y="-9999">3</text></g><g class="highcharts-axis-labels highcharts-yaxis-labels" data-z-index="7" aria-hidden="true"></g></g></svg>