<svg height="400" width="600" version="1.1" xmlns="http://www.w3.org/2000/svg"><g transform="translate(0,0)"  xmlns:xlink="http://www.w3.org/1999/xlink" version="1.1" class="highcharts-root" style="font-family:&quot;Lucida Grande&quot;, &quot;Lucida Sans Unicode&quot;, Arial, Helvetica, sans-serif;font-size:12px;" xmlns="http://www.w3.org/2000/svg" width="600" height="400" viewBox="0 0 600 400" aria-hidden="false" aria-label="Interactive chart"><desc aria-hidden="true">Created with Highcharts 8.1.2</desc><defs aria-hidden="true"><clipPath id="highcharts-8k28rt4-68-"><rect x="0" y="0" width="580" height="337" fill="none"></rect></clipPath><clipPath id="highcharts-8k28rt4-80"><circle cx="290" cy="168.5" r="117.95"></circle></clipPath><clipPath id="highcharts-8k28rt4-92"><circle cx="290" cy="168.5" r="117.95"></circle></clipPath></defs><rect fill="#ffffff" class="highcharts-background" x="0" y="0" width="600" height="400" rx="0" ry="0" aria-hidden="true"></rect><rect fill="none" class="highcharts-plot-background" x="10" y="10" width="580" height="337" aria-hidden="true"></rect><g class="highcharts-pane-group" data-z-index="0" aria-hidden="true"></g><g class="highcharts-grid highcharts-xaxis-grid" data-z-index="1" aria-hidden="true"><path fill="none" stroke="#e6e6e6" stroke-width="1" data-z-index="1" class="highcharts-grid-line" d="M 300 178.5 L 300 60.55" opacity="1"></path><path fill="none" stroke="#e6e6e6" stroke-width="1" data-z-index="1" class="highcharts-grid-line" d="M 300 178.5 L 369.3292705078972 83.07644551347495" opacity="1"></path><path fill="none" stroke="#e6e6e6" stroke-width="1" data-z-index="1" class="highcharts-grid-line" d="M 300 178.5 L 412.17711609701337 142.05144551347496" opacity="1"></path><path fill="none" stroke="#e6e6e6" stroke-width="1" data-z-index="1" class="highcharts-grid-line" d="M 300 178.5 L 412.17711609701337 214.94855448652504" opacity="1"></path><path fill="none" stroke="#e6e6e6" stroke-width="1" data-z-index="1" class="highcharts-grid-line" d="M 300 178.5 L 369.3292705078972 273.92355448652506" opacity="1"></path><path fill="none" stroke="#e6e6e6" stroke-width="1" data-z-index="1" class="highcharts-grid-line" d="M 300 178.5 L 300 296.45" opacity="1"></path><path fill="none" stroke="#e6e6e6" stroke-width="1" data-z-index="1" class="highcharts-grid-line" d="M 300 178.5 L 230.6707294921028 273.92355448652506" opacity="1"></path><path fill="none" stroke="#e6e6e6" stroke-width="1" data-z-index="1" class="highcharts-grid-line" d="M 300 178.5 L 187.82288390298663 214.94855448652507" opacity="1"></path><path fill="none" stroke="#e6e6e6" stroke-width="1" data-z-index="1" class="highcharts-grid-line" d="M 300 178.5 L 187.82288390298663 142.05144551347496" opacity="1"></path><path fill="none" stroke="#e6e6e6" stroke-width="1" data-z-index="1" class="highcharts-grid-line" d="M 300 178.5 L 230.6707294921028 83.07644551347497" opacity="1"></path><path fill="none" stroke="#e6e6e6" stroke-width="1" data-z-index="1" class="highcharts-grid-line" d="M 300 178.5 L 300 60.55" opacity="1"></path></g><g class="highcharts-grid highcharts-yaxis-grid" data-z-index="1" aria-hidden="true"><path fill="none" stroke="#e6e6e6" stroke-width="1" data-z-index="1" class="highcharts-grid-line" d="M 300 178.5 L 300 178.5 L 300 178.5 L 300 178.5 L 300 178.5 L 300 178.5 L 300 178.5 L 300 178.5 L 300 178.5 L 300 178.5 L 300 178.5 L 300 178.5" opacity="1"></path><path fill="none" stroke="#e6e6e6" stroke-width="1" data-z-index="1" class="highcharts-grid-line" d="M 300 119.525 L 334.66463525394863 130.78822275673747 L 356.0885580485067 160.27572275673748 L 356.0885580485067 196.72427724326252 L 334.66463525394863 226.21177724326253 L 300 237.475 L 265.3353647460514 226.21177724326253 L 243.91144195149332 196.72427724326252 L 243.91144195149332 160.27572275673748 L 265.33536474605137 130.78822275673747 L 300 119.525 L 300 119.525" opacity="1"></path><path fill="none" stroke="#e6e6e6" stroke-width="1" data-z-index="1" class="highcharts-grid-line" d="M 300 60.55 L 369.3292705078972 83.07644551347495 L 412.17711609701337 142.05144551347496 L 412.17711609701337 214.94855448652504 L 369.3292705078972 273.92355448652506 L 300 296.45 L 230.6707294921028 273.92355448652506 L 187.82288390298663 214.94855448652507 L 187.82288390298663 142.05144551347496 L 230.6707294921028 83.07644551347497 L 300 60.55 L 300 60.55" opacity="1"></path></g><rect fill="none" class="highcharts-plot-border" data-z-index="1" x="10" y="10" width="580" height="337" aria-hidden="true"></rect><g class="highcharts-axis highcharts-xaxis" data-z-index="2" aria-hidden="true"><path fill="none" class="highcharts-axis-line" data-z-index="7" d="M 300 60.55 A 117.95 117.95 0 1 1 299.88205001965827 60.55005897499508 M 300 178.5 A 0 0 0 1 0 300 178.5"></path></g><g class="highcharts-axis highcharts-yaxis" data-z-index="2" aria-hidden="true"><path fill="none" class="highcharts-axis-line" data-z-index="7" d="M 300 178.5 L 300 60.55"></path></g><g class="highcharts-series-group" data-z-index="3" aria-hidden="false"><g class="highcharts-series highcharts-series-0 highcharts-line-series" data-z-index="0.1" opacity="1" transform="translate(10,10) scale(1 1)" clip-path="url(#highcharts-8k28rt4-80)" aria-hidden="true"><path fill="none" d="M 290 168.5 L 290 168.5 L 290 168.5 L 290 168.5 L 290 168.5 L 290 168.5 L 290 168.5 L 290 168.5 L 290 168.5 L 290 168.5 L 290 168.5" class="highcharts-graph" data-z-index="1" stroke="#0F0" stroke-width="2" stroke-linejoin="round" stroke-linecap="round"></path></g><g class="highcharts-markers highcharts-series-0 highcharts-line-series" data-z-index="0.1" opacity="1" transform="translate(10,10) scale(1 1)" clip-path="none" aria-hidden="false" role="region" tabindex="-1" style="outline: 0px;" aria-label="Capaian, line 1 of 2 with 10 data points."><path fill="#0F0" d="M 290 173 A 4 4 0 1 1 290.00399999933336 172.99999800000018 Z" opacity="1" class="highcharts-point" tabindex="-1" style="outline: 0px;" role="img" aria-label="1. Daya Analisa, 0. Capaian."></path><path fill="#0F0" d="M 290 173 A 4 4 0 1 1 290.00399999933336 172.99999800000018 Z" opacity="1" class="highcharts-point" tabindex="-1" style="outline: 0px;" role="img" aria-label="2. Logika Berpikir, 0. Capaian."></path><path fill="#0F0" d="M 290 173 A 4 4 0 1 1 290.00399999933336 172.99999800000018 Z" opacity="1" class="highcharts-point" tabindex="-1" style="outline: 0px;" role="img" aria-label="3. Sistematika Kerja, 0. Capaian."></path><path fill="#0F0" d="M 290 173 A 4 4 0 1 1 290.00399999933336 172.99999800000018 Z" opacity="1" class="highcharts-point" tabindex="-1" style="outline: 0px;" role="img" aria-label="4. Inisiatif, 0. Capaian."></path><path fill="#0F0" d="M 290 173 A 4 4 0 1 1 290.00399999933336 172.99999800000018 Z" opacity="1" class="highcharts-point" tabindex="-1" style="outline: 0px;" role="img" aria-label="5. Daya Tahan Kerja, 0. Capaian."></path><path fill="#0F0" d="M 290 173 A 4 4 0 1 1 290.00399999933336 172.99999800000018 Z" opacity="1" class="highcharts-point" tabindex="-1" style="outline: 0px;" role="img" aria-label="6. Kepemimpinan, 0. Capaian."></path><path fill="#0F0" d="M 290 173 A 4 4 0 1 1 290.00399999933336 172.99999800000018 Z" opacity="1" class="highcharts-point" tabindex="-1" style="outline: 0px;" role="img" aria-label="7. Dorongan Berprestasi, 0. Capaian."></path><path fill="#0F0" d="M 290 173 A 4 4 0 1 1 290.00399999933336 172.99999800000018 Z" opacity="1" class="highcharts-point" tabindex="-1" style="outline: 0px;" role="img" aria-label="8. Tanggung Jawab, 0. Capaian."></path><path fill="#0F0" d="M 290 173 A 4 4 0 1 1 290.00399999933336 172.99999800000018 Z" opacity="1" class="highcharts-point" tabindex="-1" style="outline: 0px;" role="img" aria-label="9. Keterampilan Interpersonal, 0. Capaian."></path><path fill="#0F0" d="M 290 173 A 4 4 0 1 1 290.00399999933336 172.99999800000018 Z" opacity="1" class="highcharts-point" tabindex="-1" style="outline: 0px;" role="img" aria-label="10. Kepercayaan Diri, 0. Capaian."></path></g><g class="highcharts-series highcharts-series-1 highcharts-line-series" data-z-index="0.1" opacity="1" transform="translate(10,10) scale(1 1)" clip-path="url(#highcharts-8k28rt4-92)" aria-hidden="true"><path fill="none" d="M 290 80.0375 L 341.996952880923 96.93233413510627 L 374.13283707275957 141.16358413510477 L 374.13283707275934 195.83641586489583 L 341.9969528809254 240.06766586489198 L 289.9999999999994 256.9625 L 238.00304711907364 240.0676658648913 L 205.86716292724026 195.8364158648947 L 205.86716292724083 141.1635841351036 L 238.00304711907512 96.93233413510765 L 290 80.0375" class="highcharts-graph" data-z-index="1" stroke="#FF0000" stroke-width="2" stroke-linejoin="round" stroke-linecap="round"></path></g><g class="highcharts-markers highcharts-series-1 highcharts-line-series" data-z-index="0.1" opacity="1" transform="translate(10,10) scale(1 1)" clip-path="none" aria-hidden="false" role="region" tabindex="-1" style="outline: 0px;" aria-label="Nilai Standar, line 2 of 2 with 10 data points."><path fill="#FF0000" d="M 290 76 L 294 80 L 290 84 L 286 80 Z" opacity="1" class="highcharts-point" tabindex="-1" style="outline: 0px;" role="img" aria-label="1. Daya Analisa, 3. Nilai Standar."></path><path fill="#FF0000" d="M 341 93 L 345 97 L 341 101 L 337 97 Z" opacity="1" class="highcharts-point" tabindex="-1" style="outline: 0px;" role="img" aria-label="2. Logika Berpikir, 3. Nilai Standar."></path><path fill="#FF0000" d="M 374 137 L 378 141 L 374 145 L 370 141 Z" opacity="1" class="highcharts-point" tabindex="-1" style="outline: 0px;" role="img" aria-label="3. Sistematika Kerja, 3. Nilai Standar."></path><path fill="#FF0000" d="M 374 192 L 378 196 L 374 200 L 370 196 Z" opacity="1" class="highcharts-point" tabindex="-1" style="outline: 0px;" role="img" aria-label="4. Inisiatif, 3. Nilai Standar."></path><path fill="#FF0000" d="M 341 236 L 345 240 L 341 244 L 337 240 Z" opacity="1" class="highcharts-point" tabindex="-1" style="outline: 0px;" role="img" aria-label="5. Daya Tahan Kerja, 3. Nilai Standar."></path><path fill="#FF0000" d="M 289 253 L 293 257 L 289 261 L 285 257 Z" opacity="1" class="highcharts-point" tabindex="-1" style="outline: 0px;" role="img" aria-label="6. Kepemimpinan, 3. Nilai Standar."></path><path fill="#FF0000" d="M 238 236 L 242 240 L 238 244 L 234 240 Z" opacity="1" class="highcharts-point" tabindex="-1" style="outline: 0px;" role="img" aria-label="7. Dorongan Berprestasi, 3. Nilai Standar."></path><path fill="#FF0000" d="M 205 192 L 209 196 L 205 200 L 201 196 Z" opacity="1" class="highcharts-point" tabindex="-1" style="outline: 0px;" role="img" aria-label="8. Tanggung Jawab, 3. Nilai Standar."></path><path fill="#FF0000" d="M 205 137 L 209 141 L 205 145 L 201 141 Z" opacity="1" class="highcharts-point" tabindex="-1" style="outline: 0px;" role="img" aria-label="9. Keterampilan Interpersonal, 3. Nilai Standar."></path><path fill="#FF0000" d="M 238 93 L 242 97 L 238 101 L 234 97 Z" opacity="1" class="highcharts-point" tabindex="-1" style="outline: 0px;" role="img" aria-label="10. Kepercayaan Diri, 3. Nilai Standar."></path></g></g><text x="220" text-anchor="middle" class="highcharts-title" data-z-index="4" style="color:#333333;font-size:18px;fill:#333333;" y="24" aria-hidden="true"></text><text x="300" text-anchor="middle" class="highcharts-subtitle" data-z-index="4" style="color:#666666;fill:#666666;" y="25" aria-hidden="true"></text><text x="10" text-anchor="start" class="highcharts-caption" data-z-index="4" style="color:#666666;fill:#666666;" y="398" aria-hidden="true"></text><g class="highcharts-data-labels highcharts-series-0 highcharts-line-series" data-z-index="6" opacity="1" transform="translate(10,10) scale(1 1)" aria-hidden="true"><g class="highcharts-label highcharts-data-label highcharts-data-label-color-undefined" data-z-index="1" transform="translate(282,144)"><text x="5" data-z-index="1" y="16" style="color:#000000;font-size:11px;font-weight:bold;fill:#000000;"><tspan x="5" y="16" class="highcharts-text-outline" fill="#FFFFFF" stroke="#FFFFFF" stroke-width="2px" stroke-linejoin="round" style="">0</tspan><tspan x="5" y="16">0</tspan></text></g><g class="highcharts-label highcharts-data-label highcharts-data-label-color-undefined highcharts-data-label-hidden" data-z-index="1" transform="translate(282,144)" opacity="0" style="pointer-events:none;"><text x="5" data-z-index="1" y="16" style="color:#000000;font-size:11px;font-weight:bold;fill:#000000;"><tspan x="5" y="16" class="highcharts-text-outline" fill="#FFFFFF" stroke="#FFFFFF" stroke-width="2px" stroke-linejoin="round">0</tspan><tspan x="5" y="16">0</tspan></text></g><g class="highcharts-label highcharts-data-label highcharts-data-label-color-undefined highcharts-data-label-hidden" data-z-index="1" transform="translate(282,144)" opacity="0" style="pointer-events:none;"><text x="5" data-z-index="1" y="16" style="color:#000000;font-size:11px;font-weight:bold;fill:#000000;"><tspan x="5" y="16" class="highcharts-text-outline" fill="#FFFFFF" stroke="#FFFFFF" stroke-width="2px" stroke-linejoin="round">0</tspan><tspan x="5" y="16">0</tspan></text></g><g class="highcharts-label highcharts-data-label highcharts-data-label-color-undefined highcharts-data-label-hidden" data-z-index="1" transform="translate(282,144)" opacity="0" style="pointer-events:none;"><text x="5" data-z-index="1" y="16" style="color:#000000;font-size:11px;font-weight:bold;fill:#000000;"><tspan x="5" y="16" class="highcharts-text-outline" fill="#FFFFFF" stroke="#FFFFFF" stroke-width="2px" stroke-linejoin="round">0</tspan><tspan x="5" y="16">0</tspan></text></g><g class="highcharts-label highcharts-data-label highcharts-data-label-color-undefined highcharts-data-label-hidden" data-z-index="1" transform="translate(282,144)" opacity="0" style="pointer-events:none;"><text x="5" data-z-index="1" y="16" style="color:#000000;font-size:11px;font-weight:bold;fill:#000000;"><tspan x="5" y="16" class="highcharts-text-outline" fill="#FFFFFF" stroke="#FFFFFF" stroke-width="2px" stroke-linejoin="round">0</tspan><tspan x="5" y="16">0</tspan></text></g><g class="highcharts-label highcharts-data-label highcharts-data-label-color-undefined highcharts-data-label-hidden" data-z-index="1" transform="translate(282,144)" opacity="0" style="pointer-events:none;"><text x="5" data-z-index="1" y="16" style="color:#000000;font-size:11px;font-weight:bold;fill:#000000;"><tspan x="5" y="16" class="highcharts-text-outline" fill="#FFFFFF" stroke="#FFFFFF" stroke-width="2px" stroke-linejoin="round">0</tspan><tspan x="5" y="16">0</tspan></text></g><g class="highcharts-label highcharts-data-label highcharts-data-label-color-undefined highcharts-data-label-hidden" data-z-index="1" transform="translate(282,144)" opacity="0" style="pointer-events:none;"><text x="5" data-z-index="1" y="16" style="color:#000000;font-size:11px;font-weight:bold;fill:#000000;"><tspan x="5" y="16" class="highcharts-text-outline" fill="#FFFFFF" stroke="#FFFFFF" stroke-width="2px" stroke-linejoin="round">0</tspan><tspan x="5" y="16">0</tspan></text></g><g class="highcharts-label highcharts-data-label highcharts-data-label-color-undefined highcharts-data-label-hidden" data-z-index="1" transform="translate(282,144)" opacity="0" style="pointer-events:none;"><text x="5" data-z-index="1" y="16" style="color:#000000;font-size:11px;font-weight:bold;fill:#000000;"><tspan x="5" y="16" class="highcharts-text-outline" fill="#FFFFFF" stroke="#FFFFFF" stroke-width="2px" stroke-linejoin="round">0</tspan><tspan x="5" y="16">0</tspan></text></g><g class="highcharts-label highcharts-data-label highcharts-data-label-color-undefined highcharts-data-label-hidden" data-z-index="1" transform="translate(282,144)" opacity="0" style="pointer-events:none;"><text x="5" data-z-index="1" y="16" style="color:#000000;font-size:11px;font-weight:bold;fill:#000000;"><tspan x="5" y="16" class="highcharts-text-outline" fill="#FFFFFF" stroke="#FFFFFF" stroke-width="2px" stroke-linejoin="round">0</tspan><tspan x="5" y="16">0</tspan></text></g><g class="highcharts-label highcharts-data-label highcharts-data-label-color-undefined highcharts-data-label-hidden" data-z-index="1" transform="translate(282,144)" opacity="0" style="pointer-events:none;"><text x="5" data-z-index="1" y="16" style="color:#000000;font-size:11px;font-weight:bold;fill:#000000;"><tspan x="5" y="16" class="highcharts-text-outline" fill="#FFFFFF" stroke="#FFFFFF" stroke-width="2px" stroke-linejoin="round">0</tspan><tspan x="5" y="16">0</tspan></text></g></g><g class="highcharts-data-labels highcharts-series-1 highcharts-line-series" data-z-index="6" opacity="1" transform="translate(10,10) scale(1 1)" aria-hidden="true"><g class="highcharts-label highcharts-data-label highcharts-data-label-color-undefined" data-z-index="1" transform="translate(282,55)"><text x="5" data-z-index="1" y="16" style="color:#000000;font-size:11px;font-weight:bold;fill:#000000;"><tspan x="5" y="16" class="highcharts-text-outline" fill="#FFFFFF" stroke="#FFFFFF" stroke-width="2px" stroke-linejoin="round">3</tspan><tspan x="5" y="16">3</tspan></text></g><g class="highcharts-label highcharts-data-label highcharts-data-label-color-undefined" data-z-index="1" transform="translate(334,72)"><text x="5" data-z-index="1" y="16" style="color:#000000;font-size:11px;font-weight:bold;fill:#000000;"><tspan x="5" y="16" class="highcharts-text-outline" fill="#FFFFFF" stroke="#FFFFFF" stroke-width="2px" stroke-linejoin="round">3</tspan><tspan x="5" y="16">3</tspan></text></g><g class="highcharts-label highcharts-data-label highcharts-data-label-color-undefined" data-z-index="1" transform="translate(366,116)"><text x="5" data-z-index="1" y="16" style="color:#000000;font-size:11px;font-weight:bold;fill:#000000;"><tspan x="5" y="16" class="highcharts-text-outline" fill="#FFFFFF" stroke="#FFFFFF" stroke-width="2px" stroke-linejoin="round">3</tspan><tspan x="5" y="16">3</tspan></text></g><g class="highcharts-label highcharts-data-label highcharts-data-label-color-undefined" data-z-index="1" transform="translate(366,171)"><text x="5" data-z-index="1" y="16" style="color:#000000;font-size:11px;font-weight:bold;fill:#000000;"><tspan x="5" y="16" class="highcharts-text-outline" fill="#FFFFFF" stroke="#FFFFFF" stroke-width="2px" stroke-linejoin="round">3</tspan><tspan x="5" y="16">3</tspan></text></g><g class="highcharts-label highcharts-data-label highcharts-data-label-color-undefined" data-z-index="1" transform="translate(334,215)"><text x="5" data-z-index="1" y="16" style="color:#000000;font-size:11px;font-weight:bold;fill:#000000;"><tspan x="5" y="16" class="highcharts-text-outline" fill="#FFFFFF" stroke="#FFFFFF" stroke-width="2px" stroke-linejoin="round">3</tspan><tspan x="5" y="16">3</tspan></text></g><g class="highcharts-label highcharts-data-label highcharts-data-label-color-undefined" data-z-index="1" transform="translate(282,232)"><text x="5" data-z-index="1" y="16" style="color:#000000;font-size:11px;font-weight:bold;fill:#000000;"><tspan x="5" y="16" class="highcharts-text-outline" fill="#FFFFFF" stroke="#FFFFFF" stroke-width="2px" stroke-linejoin="round">3</tspan><tspan x="5" y="16">3</tspan></text></g><g class="highcharts-label highcharts-data-label highcharts-data-label-color-undefined" data-z-index="1" transform="translate(230,215)"><text x="5" data-z-index="1" y="16" style="color:#000000;font-size:11px;font-weight:bold;fill:#000000;"><tspan x="5" y="16" class="highcharts-text-outline" fill="#FFFFFF" stroke="#FFFFFF" stroke-width="2px" stroke-linejoin="round">3</tspan><tspan x="5" y="16">3</tspan></text></g><g class="highcharts-label highcharts-data-label highcharts-data-label-color-undefined" data-z-index="1" transform="translate(198,171)"><text x="5" data-z-index="1" y="16" style="color:#000000;font-size:11px;font-weight:bold;fill:#000000;"><tspan x="5" y="16" class="highcharts-text-outline" fill="#FFFFFF" stroke="#FFFFFF" stroke-width="2px" stroke-linejoin="round">3</tspan><tspan x="5" y="16">3</tspan></text></g><g class="highcharts-label highcharts-data-label highcharts-data-label-color-undefined" data-z-index="1" transform="translate(198,116)"><text x="5" data-z-index="1" y="16" style="color:#000000;font-size:11px;font-weight:bold;fill:#000000;"><tspan x="5" y="16" class="highcharts-text-outline" fill="#FFFFFF" stroke="#FFFFFF" stroke-width="2px" stroke-linejoin="round">3</tspan><tspan x="5" y="16">3</tspan></text></g><g class="highcharts-label highcharts-data-label highcharts-data-label-color-undefined" data-z-index="1" transform="translate(230,72)"><text x="5" data-z-index="1" y="16" style="color:#000000;font-size:11px;font-weight:bold;fill:#000000;"><tspan x="5" y="16" class="highcharts-text-outline" fill="#FFFFFF" stroke="#FFFFFF" stroke-width="2px" stroke-linejoin="round">3</tspan><tspan x="5" y="16">3</tspan></text></g></g><g class="highcharts-legend" data-z-index="7" transform="translate(199,359)" aria-hidden="true"><rect fill="none" class="highcharts-legend-box" rx="0" ry="0" x="0" y="0" width="202" height="26" visibility="visible"></rect><g data-z-index="1"><g><g class="highcharts-legend-item highcharts-line-series highcharts-color-undefined highcharts-series-0" data-z-index="1" transform="translate(8,3)"><path fill="none" d="M 0 11 L 16 11" class="highcharts-graph" stroke="#0F0" stroke-width="2"></path><path fill="#0F0" d="M 8 15 A 4 4 0 1 1 8.003999999333336 14.999998000000167 Z" class="highcharts-point" opacity="1"></path><text x="21" style="color:#333333;cursor:pointer;font-size:12px;font-weight:bold;fill:#333333;" text-anchor="start" data-z-index="2" y="15"><tspan>Capaian</tspan></text></g><g class="highcharts-legend-item highcharts-line-series highcharts-color-undefined highcharts-series-1" data-z-index="1" transform="translate(97.16666793823242,3)"><path fill="none" d="M 0 11 L 16 11" class="highcharts-graph" stroke="#FF0000" stroke-width="2"></path><path fill="#FF0000" d="M 8 7 L 12 11 L 8 15 L 4 11 Z" class="highcharts-point" opacity="1"></path><text x="21" y="15" style="color:#333333;cursor:pointer;font-size:12px;font-weight:bold;fill:#333333;" text-anchor="start" data-z-index="2"><tspan>Nilai Standar</tspan></text></g></g></g></g><g class="highcharts-axis-labels highcharts-xaxis-labels" data-z-index="7" aria-hidden="true"><text x="300" style="color:#666666;cursor:default;font-size:11px;fill:#666666;" transform="translate(0,0) rotate(1 300 48.4212558417847)" text-anchor="middle" y="48.4212558417847" opacity="1"><tspan>Daya Analisa</tspan></text><text x="378.1460492922843" style="color:#666666;cursor:default;font-size:11px;fill:#666666;" transform="translate(0,0) rotate(1 378.1460492922843 73.696097041195)" text-anchor="start" y="73.696097041195" opacity="1"><tspan>Logika Berpikir</tspan></text><text x="426.44296384144064" style="color:#666666;cursor:default;font-size:11px;fill:#666666;" transform="translate(0,0) rotate(1 426.44296384144064 140.08732550361117)" text-anchor="start" y="140.08732550361117" opacity="1"><tspan>Sistematika Kerja</tspan></text><text x="426.44296384144064" style="color:#666666;cursor:default;font-size:11px;fill:#666666;" transform="translate(0,0) rotate(1 426.44296384144064 224.2862870744758)" text-anchor="start" y="224.2862870744758" opacity="1">Inisiatif</text><text x="378.1460492922843" style="color:#666666;cursor:default;font-size:11px;fill:#666666;" transform="translate(0,0) rotate(1 378.1460492922843 288.71540065807045)" text-anchor="start" y="288.71540065807045" opacity="1"><tspan>Daya Tahan Kerja</tspan></text><text x="300" style="color:#666666;cursor:default;font-size:11px;fill:#666666;" transform="translate(0,0) rotate(1 300 315.85927722420746)" text-anchor="middle" y="315.85927722420746" opacity="1">Kepemimpinan</text><text x="221.8539507077157" style="color:#666666;cursor:default;font-size:11px;fill:#666666;" transform="translate(0,0) rotate(1 221.8539507077157 288.54247640649777)" text-anchor="end" y="288.54247640649777" opacity="1"><tspan>Dorongan Berprestasi</tspan></text><text x="173.55703615855936" style="color:#666666;cursor:default;font-size:11px;fill:#666666;" transform="translate(0,0) rotate(1 173.55703615855936 222.30148408060097)" text-anchor="end" y="222.30148408060097" opacity="1"><tspan>Tanggung Jawab</tspan></text><text x="173.55703615855933" style="color:#666666;cursor:default;font-size:11px;fill:#666666;" transform="translate(0,0) rotate(1 173.55703615855933 139.64185280266926)" text-anchor="end" y="139.64185280266926" opacity="1"><tspan>Keterampilan Interpersonal</tspan></text><text x="221.85395070771568" style="color:#666666;cursor:default;font-size:11px;fill:#666666;" transform="translate(0,0) rotate(1 221.85395070771568 73.61887015602517)" text-anchor="end" y="73.61887015602517" opacity="1"><tspan>Kepercayaan Diri</tspan></text><text x="0" style="color:#666666;cursor:default;font-size:11px;fill:#666666;" transform="translate(0,0) rotate(1 0 -9999)" text-anchor="middle" y="-9999">10</text></g><g class="highcharts-axis-labels highcharts-yaxis-labels" data-z-index="7" aria-hidden="true"></g></g></svg>