<svg height="400" width="600" version="1.1" xmlns="http://www.w3.org/2000/svg"><g transform="translate(0,0)"  xmlns:xlink="http://www.w3.org/1999/xlink" version="1.1" class="highcharts-root" style="font-family:&quot;Lucida Grande&quot;, &quot;Lucida Sans Unicode&quot;, Arial, Helvetica, sans-serif;font-size:12px;" xmlns="http://www.w3.org/2000/svg" width="600" height="400" viewBox="0 0 600 400" aria-hidden="false" aria-label="Interactive chart"><desc aria-hidden="true">Created with Highcharts 8.1.2</desc><defs aria-hidden="true"><clipPath id="highcharts-ptlb7n7-70-"><rect x="0" y="0" width="580" height="336" fill="none"></rect></clipPath><clipPath id="highcharts-ptlb7n7-83"><circle cx="290" cy="168" r="117.6"></circle></clipPath><clipPath id="highcharts-ptlb7n7-96"><circle cx="290" cy="168" r="117.6"></circle></clipPath></defs><rect fill="#ffffff" class="highcharts-background" x="0" y="0" width="600" height="400" rx="0" ry="0" aria-hidden="true"></rect><rect fill="none" class="highcharts-plot-background" x="10" y="10" width="580" height="336" aria-hidden="true"></rect><g class="highcharts-pane-group" data-z-index="0" aria-hidden="true"></g><g class="highcharts-grid highcharts-xaxis-grid" data-z-index="1" aria-hidden="true"><path fill="none" stroke="#e6e6e6" stroke-width="1" data-z-index="1" class="highcharts-grid-line" d="M 300 178 L 300 60.400000000000006" opacity="1"></path><path fill="none" stroke="#e6e6e6" stroke-width="1" data-z-index="1" class="highcharts-grid-line" d="M 300 178 L 363.5793601327783 79.0685845390531" opacity="1"></path><path fill="none" stroke="#e6e6e6" stroke-width="1" data-z-index="1" class="highcharts-grid-line" d="M 300 178 L 406.97272265369133 129.14719447097815" opacity="1"></path><path fill="none" stroke="#e6e6e6" stroke-width="1" data-z-index="1" class="highcharts-grid-line" d="M 300 178 L 416.4030015651977 194.73622498093832" opacity="1"></path><path fill="none" stroke="#e6e6e6" stroke-width="1" data-z-index="1" class="highcharts-grid-line" d="M 300 178 L 388.8761499440608 255.01162231196554" opacity="1"></path><path fill="none" stroke="#e6e6e6" stroke-width="1" data-z-index="1" class="highcharts-grid-line" d="M 300 178 L 333.1317486845521 290.8363736970649" opacity="1"></path><path fill="none" stroke="#e6e6e6" stroke-width="1" data-z-index="1" class="highcharts-grid-line" d="M 300 178 L 266.8682513154479 290.8363736970649" opacity="1"></path><path fill="none" stroke="#e6e6e6" stroke-width="1" data-z-index="1" class="highcharts-grid-line" d="M 300 178 L 211.12385005593924 255.01162231196554" opacity="1"></path><path fill="none" stroke="#e6e6e6" stroke-width="1" data-z-index="1" class="highcharts-grid-line" d="M 300 178 L 183.59699843480232 194.73622498093835" opacity="1"></path><path fill="none" stroke="#e6e6e6" stroke-width="1" data-z-index="1" class="highcharts-grid-line" d="M 300 178 L 193.0272773463086 129.1471944709782" opacity="1"></path><path fill="none" stroke="#e6e6e6" stroke-width="1" data-z-index="1" class="highcharts-grid-line" d="M 300 178 L 236.42063986722175 79.06858453905308" opacity="1"></path><path fill="none" stroke="#e6e6e6" stroke-width="1" data-z-index="1" class="highcharts-grid-line" d="M 300 178 L 300 60.400000000000006" opacity="1"></path></g><g class="highcharts-grid highcharts-yaxis-grid" data-z-index="1" aria-hidden="true"><path fill="none" stroke="#e6e6e6" stroke-width="1" data-z-index="1" class="highcharts-grid-line" d="M 300 178 L 300 178 L 300 178 L 300 178 L 300 178 L 300 178 L 300 178 L 300 178 L 300 178 L 300 178 L 300 178 L 300 178 L 300 178" opacity="1"></path><path fill="none" stroke="#e6e6e6" stroke-width="1" data-z-index="1" class="highcharts-grid-line" d="M 300 119.2 L 331.78968006638917 128.53429226952656 L 353.48636132684567 153.57359723548907 L 358.2015007825988 186.36811249046917 L 344.4380749720304 216.50581115598277 L 316.56587434227606 234.41818684853246 L 283.43412565772394 234.41818684853246 L 255.5619250279696 216.50581115598277 L 241.79849921740117 186.36811249046917 L 246.5136386731543 153.5735972354891 L 268.2103199336109 128.53429226952653 L 300 119.2 L 300 119.2" opacity="1"></path><path fill="none" stroke="#e6e6e6" stroke-width="1" data-z-index="1" class="highcharts-grid-line" d="M 300 60.400000000000006 L 363.5793601327783 79.0685845390531 L 406.97272265369133 129.14719447097815 L 416.4030015651977 194.73622498093832 L 388.8761499440608 255.01162231196554 L 333.1317486845521 290.8363736970649 L 266.8682513154479 290.8363736970649 L 211.12385005593924 255.01162231196554 L 183.59699843480232 194.73622498093835 L 193.0272773463086 129.1471944709782 L 236.42063986722175 79.06858453905308 L 300 60.400000000000006 L 300 60.400000000000006" opacity="1"></path></g><rect fill="none" class="highcharts-plot-border" data-z-index="1" x="10" y="10" width="580" height="336" aria-hidden="true"></rect><g class="highcharts-axis highcharts-xaxis" data-z-index="2" aria-hidden="true"><path fill="none" class="highcharts-axis-line" data-z-index="7" d="M 300 60.400000000000006 A 117.6 117.6 0 1 1 299.8824000195999 60.40005879999511 M 300 178 A 0 0 0 1 0 300 178"></path></g><g class="highcharts-axis highcharts-yaxis" data-z-index="2" aria-hidden="true"><path fill="none" class="highcharts-axis-line" data-z-index="7" d="M 300 178 L 300 60.400000000000006"></path></g><g class="highcharts-series-group" data-z-index="3" aria-hidden="false"><g class="highcharts-series highcharts-series-0 highcharts-line-series" data-z-index="0.1" opacity="1" transform="translate(10,10) scale(1 1)" clip-path="url(#highcharts-ptlb7n7-83)" aria-hidden="true"><path fill="none" d="M 290 87.15 L 333.7108100912848 99.98465187059887 L 363.54374682441255 134.413696198797 L 370.0270635760729 179.50615467439832 L 334.4380749720309 206.50581115598217 L 306.5658743422742 224.418186848533 L 267.22192277937194 245.57500691673255 L 240.00716565646465 211.31903755047927 L 209.9729364239269 179.50615467439724 L 216.45625317558788 134.413696198796 L 274.1051599668046 143.26714613476378 L 290 87.15" class="highcharts-graph" data-z-index="1" stroke="#0F0" stroke-width="2" stroke-linejoin="round" stroke-linecap="round"></path></g><g class="highcharts-markers highcharts-series-0 highcharts-line-series" data-z-index="0.1" opacity="1" transform="translate(10,10) scale(1 1)" clip-path="none" aria-hidden="false" role="region" tabindex="-1" aria-label="Capaian, line 1 of 2 with 11 data points." style="outline: 0px;"><path fill="#0F0" d="M 290 91 A 4 4 0 1 1 290.00399999933336 90.99999800000016 Z" opacity="1" class="highcharts-point" tabindex="-1" role="img" aria-label="1. Daya Analisa, 2.75. Capaian." style="outline: 0px;"></path><path fill="#0F0" d="M 333 104 A 4 4 0 1 1 333.00399999933336 103.99999800000016 Z" opacity="1" class="highcharts-point" tabindex="-1" role="img" aria-label="2. Logika Berpikir, 2.75. Capaian." style="outline: 0px;"></path><path fill="#0F0" d="M 363 138 A 4 4 0 1 1 363.00399999933336 137.99999800000018 Z" opacity="1" class="highcharts-point" tabindex="-1" role="img" aria-label="3. Sistematika Kerja, 2.75. Capaian." style="outline: 0px;"></path><path fill="#0F0" d="M 370 184 A 4 4 0 1 1 370.00399999933336 183.99999800000018 Z" opacity="1" class="highcharts-point" tabindex="-1" role="img" aria-label="4. Inisiatif, 2.75. Capaian." style="outline: 0px;"></path><path fill="#0F0" d="M 334 211 A 4 4 0 1 1 334.00399999933336 210.99999800000018 Z" opacity="1" class="highcharts-point" tabindex="-1" role="img" aria-label="5. Daya Tahan Kerja, 2. Capaian." style="outline: 0px;"></path><path fill="#0F0" d="M 306 228 A 4 4 0 1 1 306.00399999933336 227.99999800000018 Z" opacity="1" class="highcharts-point" tabindex="-1" role="img" aria-label="6. Kepemimpinan, 2. Capaian." style="outline: 0px;"></path><path fill="#0F0" d="M 267 250 A 4 4 0 1 1 267.00399999933336 249.99999800000018 Z" opacity="1" class="highcharts-point" tabindex="-1" role="img" aria-label="7. Dorongan Berprestasi, 2.75. Capaian." style="outline: 0px;"></path><path fill="#0F0" d="M 240 215 A 4 4 0 1 1 240.00399999933333 214.99999800000018 Z" opacity="1" class="highcharts-point" tabindex="-1" role="img" aria-label="8. Tanggung Jawab, 2.25. Capaian." style="outline: 0px;"></path><path fill="#0F0" d="M 209 184 A 4 4 0 1 1 209.00399999933333 183.99999800000018 Z" opacity="1" class="highcharts-point" tabindex="-1" role="img" aria-label="9. Keterampilan Interpersonal, 2.75. Capaian." style="outline: 0px;"></path><path fill="#0F0" d="M 216 138 A 4 4 0 1 1 216.00399999933333 137.99999800000018 Z" opacity="1" class="highcharts-point" tabindex="-1" role="img" aria-label="10. Kepercayaan Diri, 2.75. Capaian." style="outline: 0px;"></path><path fill="#0F0" d="M 274 147 A 4 4 0 1 1 274.00399999933336 146.99999800000018 Z" opacity="1" class="highcharts-point" tabindex="-1" role="img" aria-label="11. Stabilitas Emosi, 1. Capaian." style="outline: 0px;"></path></g><g class="highcharts-series highcharts-series-1 highcharts-line-series" data-z-index="0.1" opacity="1" transform="translate(10,10) scale(1 1)" clip-path="url(#highcharts-ptlb7n7-96)" aria-hidden="true"><path fill="none" d="M 290 79.80000000000001 L 337.68452009958344 93.80143840428967 L 370.2295419902683 131.3603958532331 L 377.30225117389773 180.55216873570726 L 356.65711245804636 225.75871673397324 L 314.84881151341125 252.6272802727995 L 265.15118848658756 252.6272802727991 L 223.34288754195288 225.75871673397234 L 202.6977488261021 180.55216873570606 L 209.77045800973224 131.360395853232 L 242.3154799004139 93.80143840429139 L 290 79.80000000000001" class="highcharts-graph" data-z-index="1" stroke="#FF0000" stroke-width="2" stroke-linejoin="round" stroke-linecap="round"></path></g><g class="highcharts-markers highcharts-series-1 highcharts-line-series" data-z-index="0.1" opacity="1" transform="translate(10,10) scale(1 1)" clip-path="none" aria-hidden="false" role="region" tabindex="-1" aria-label="Nilai Standar, line 2 of 2 with 11 data points." style="outline: 0px;"><path fill="#FF0000" d="M 290 76 L 294 80 L 290 84 L 286 80 Z" opacity="1" class="highcharts-point" tabindex="-1" role="img" aria-label="1. Daya Analisa, 3. Nilai Standar." style="outline: 0px;"></path><path fill="#FF0000" d="M 337 90 L 341 94 L 337 98 L 333 94 Z" opacity="1" class="highcharts-point" tabindex="-1" role="img" aria-label="2. Logika Berpikir, 3. Nilai Standar." style="outline: 0px;"></path><path fill="#FF0000" d="M 370 127 L 374 131 L 370 135 L 366 131 Z" opacity="1" class="highcharts-point" tabindex="-1" role="img" aria-label="3. Sistematika Kerja, 3. Nilai Standar." style="outline: 0px;"></path><path fill="#FF0000" d="M 377 177 L 381 181 L 377 185 L 373 181 Z" opacity="1" class="highcharts-point" tabindex="-1" role="img" aria-label="4. Inisiatif, 3. Nilai Standar." style="outline: 0px;"></path><path fill="#FF0000" d="M 356 222 L 360 226 L 356 230 L 352 226 Z" opacity="1" class="highcharts-point" tabindex="-1" role="img" aria-label="5. Daya Tahan Kerja, 3. Nilai Standar." style="outline: 0px;"></path><path fill="#FF0000" d="M 314 249 L 318 253 L 314 257 L 310 253 Z" opacity="1" class="highcharts-point" tabindex="-1" role="img" aria-label="6. Kepemimpinan, 3. Nilai Standar." style="outline: 0px;"></path><path fill="#FF0000" d="M 265 249 L 269 253 L 265 257 L 261 253 Z" opacity="1" class="highcharts-point" tabindex="-1" role="img" aria-label="7. Dorongan Berprestasi, 3. Nilai Standar." style="outline: 0px;"></path><path fill="#FF0000" d="M 223 222 L 227 226 L 223 230 L 219 226 Z" opacity="1" class="highcharts-point" tabindex="-1" role="img" aria-label="8. Tanggung Jawab, 3. Nilai Standar." style="outline: 0px;"></path><path fill="#FF0000" d="M 202 177 L 206 181 L 202 185 L 198 181 Z" opacity="1" class="highcharts-point" tabindex="-1" role="img" aria-label="9. Keterampilan Interpersonal, 3. Nilai Standar." style="outline: 0px;"></path><path fill="#FF0000" d="M 209 127 L 213 131 L 209 135 L 205 131 Z" opacity="1" class="highcharts-point" tabindex="-1" role="img" aria-label="10. Kepercayaan Diri, 3. Nilai Standar." style="outline: 0px;"></path><path fill="#FF0000" d="M 242 90 L 246 94 L 242 98 L 238 94 Z" opacity="1" class="highcharts-point" tabindex="-1" role="img" aria-label="11. Stabilitas Emosi, 3. Nilai Standar." style="outline: 0px;"></path></g></g><text x="220" text-anchor="middle" class="highcharts-title" data-z-index="4" style="color:#333333;font-size:18px;fill:#333333;" y="24" aria-hidden="true"></text><text x="300" text-anchor="middle" class="highcharts-subtitle" data-z-index="4" style="color:#666666;fill:#666666;" y="25" aria-hidden="true"></text><text x="10" text-anchor="start" class="highcharts-caption" data-z-index="4" style="color:#666666;fill:#666666;" y="398" aria-hidden="true"></text><g class="highcharts-data-labels highcharts-series-0 highcharts-line-series" data-z-index="6" opacity="1" transform="translate(10,10) scale(1 1)" aria-hidden="true"><g class="highcharts-label highcharts-data-label highcharts-data-label-color-undefined" data-z-index="1" transform="translate(270,61)"><text x="5" data-z-index="1" y="16" style="color:#000000;font-size:11px;font-weight:bold;fill:#000000;"><tspan x="5" y="16" class="highcharts-text-outline" fill="#FFFFFF" stroke="#FFFFFF" stroke-width="2px" stroke-linejoin="round" style="">2.75</tspan><tspan x="5" y="16">2.75</tspan></text></g><g class="highcharts-label highcharts-data-label highcharts-data-label-color-undefined" data-z-index="1" transform="translate(314,74)"><text x="5" data-z-index="1" y="16" style="color:#000000;font-size:11px;font-weight:bold;fill:#000000;"><tspan x="5" y="16" class="highcharts-text-outline" fill="#FFFFFF" stroke="#FFFFFF" stroke-width="2px" stroke-linejoin="round">2.75</tspan><tspan x="5" y="16">2.75</tspan></text></g><g class="highcharts-label highcharts-data-label highcharts-data-label-color-undefined" data-z-index="1" transform="translate(343,108)"><text x="5" data-z-index="1" y="16" style="color:#000000;font-size:11px;font-weight:bold;fill:#000000;"><tspan x="5" y="16" class="highcharts-text-outline" fill="#FFFFFF" stroke="#FFFFFF" stroke-width="2px" stroke-linejoin="round">2.75</tspan><tspan x="5" y="16">2.75</tspan></text></g><g class="highcharts-label highcharts-data-label highcharts-data-label-color-undefined" data-z-index="1" transform="translate(350,154)"><text x="5" data-z-index="1" y="16" style="color:#000000;font-size:11px;font-weight:bold;fill:#000000;"><tspan x="5" y="16" class="highcharts-text-outline" fill="#FFFFFF" stroke="#FFFFFF" stroke-width="2px" stroke-linejoin="round">2.75</tspan><tspan x="5" y="16">2.75</tspan></text></g><g class="highcharts-label highcharts-data-label highcharts-data-label-color-undefined" data-z-index="1" transform="translate(325,181)"><text x="5" data-z-index="1" y="16" style="color:#000000;font-size:11px;font-weight:bold;fill:#000000;"><tspan x="5" y="16" class="highcharts-text-outline" fill="#FFFFFF" stroke="#FFFFFF" stroke-width="2px" stroke-linejoin="round" style="">2</tspan><tspan x="5" y="16">2</tspan></text></g><g class="highcharts-label highcharts-data-label highcharts-data-label-color-undefined" data-z-index="1" transform="translate(297,198)"><text x="5" data-z-index="1" y="16" style="color:#000000;font-size:11px;font-weight:bold;fill:#000000;"><tspan x="5" y="16" class="highcharts-text-outline" fill="#FFFFFF" stroke="#FFFFFF" stroke-width="2px" stroke-linejoin="round">2</tspan><tspan x="5" y="16">2</tspan></text></g><g class="highcharts-label highcharts-data-label highcharts-data-label-color-undefined" data-z-index="1" transform="translate(247,220)"><text x="5" data-z-index="1" y="16" style="color:#000000;font-size:11px;font-weight:bold;fill:#000000;"><tspan x="5" y="16" class="highcharts-text-outline" fill="#FFFFFF" stroke="#FFFFFF" stroke-width="2px" stroke-linejoin="round">2.75</tspan><tspan x="5" y="16">2.75</tspan></text></g><g class="highcharts-label highcharts-data-label highcharts-data-label-color-undefined" data-z-index="1" transform="translate(220,185)"><text x="5" data-z-index="1" y="16" style="color:#000000;font-size:11px;font-weight:bold;fill:#000000;"><tspan x="5" y="16" class="highcharts-text-outline" fill="#FFFFFF" stroke="#FFFFFF" stroke-width="2px" stroke-linejoin="round">2.25</tspan><tspan x="5" y="16">2.25</tspan></text></g><g class="highcharts-label highcharts-data-label highcharts-data-label-color-undefined" data-z-index="1" transform="translate(190,154)"><text x="5" data-z-index="1" y="16" style="color:#000000;font-size:11px;font-weight:bold;fill:#000000;"><tspan x="5" y="16" class="highcharts-text-outline" fill="#FFFFFF" stroke="#FFFFFF" stroke-width="2px" stroke-linejoin="round">2.75</tspan><tspan x="5" y="16">2.75</tspan></text></g><g class="highcharts-label highcharts-data-label highcharts-data-label-color-undefined" data-z-index="1" transform="translate(196,108)"><text x="5" data-z-index="1" y="16" style="color:#000000;font-size:11px;font-weight:bold;fill:#000000;"><tspan x="5" y="16" class="highcharts-text-outline" fill="#FFFFFF" stroke="#FFFFFF" stroke-width="2px" stroke-linejoin="round">2.75</tspan><tspan x="5" y="16">2.75</tspan></text></g><g class="highcharts-label highcharts-data-label highcharts-data-label-color-undefined" data-z-index="1" transform="translate(265,117)"><text x="5" data-z-index="1" y="16" style="color:#000000;font-size:11px;font-weight:bold;fill:#000000;"><tspan x="5" y="16" class="highcharts-text-outline" fill="#FFFFFF" stroke="#FFFFFF" stroke-width="2px" stroke-linejoin="round">1</tspan><tspan x="5" y="16">1</tspan></text></g></g><g class="highcharts-data-labels highcharts-series-1 highcharts-line-series" data-z-index="6" opacity="1" transform="translate(10,10) scale(1 1)" aria-hidden="true"><g class="highcharts-label highcharts-data-label highcharts-data-label-color-undefined highcharts-data-label-hidden" data-z-index="1" transform="translate(281,54)" opacity="0" style="pointer-events:none;"><text x="5" data-z-index="1" y="16" style="color:#000000;font-size:11px;font-weight:bold;fill:#000000;"><tspan x="5" y="16" class="highcharts-text-outline" fill="#FFFFFF" stroke="#FFFFFF" stroke-width="2px" stroke-linejoin="round">3</tspan><tspan x="5" y="16">3</tspan></text></g><g class="highcharts-label highcharts-data-label highcharts-data-label-color-undefined highcharts-data-label-hidden" data-z-index="1" transform="translate(328,68)" opacity="0" style="pointer-events:none;"><text x="5" data-z-index="1" y="16" style="color:#000000;font-size:11px;font-weight:bold;fill:#000000;"><tspan x="5" y="16" class="highcharts-text-outline" fill="#FFFFFF" stroke="#FFFFFF" stroke-width="2px" stroke-linejoin="round">3</tspan><tspan x="5" y="16">3</tspan></text></g><g class="highcharts-label highcharts-data-label highcharts-data-label-color-undefined highcharts-data-label-hidden" data-z-index="1" transform="translate(361,105)" opacity="0" style="pointer-events:none;"><text x="5" data-z-index="1" y="16" style="color:#000000;font-size:11px;font-weight:bold;fill:#000000;"><tspan x="5" y="16" class="highcharts-text-outline" fill="#FFFFFF" stroke="#FFFFFF" stroke-width="2px" stroke-linejoin="round">3</tspan><tspan x="5" y="16">3</tspan></text></g><g class="highcharts-label highcharts-data-label highcharts-data-label-color-undefined highcharts-data-label-hidden" data-z-index="1" transform="translate(368,155)" opacity="0" style="pointer-events:none;"><text x="5" data-z-index="1" y="16" style="color:#000000;font-size:11px;font-weight:bold;fill:#000000;"><tspan x="5" y="16" class="highcharts-text-outline" fill="#FFFFFF" stroke="#FFFFFF" stroke-width="2px" stroke-linejoin="round">3</tspan><tspan x="5" y="16">3</tspan></text></g><g class="highcharts-label highcharts-data-label highcharts-data-label-color-undefined" data-z-index="1" transform="translate(347,200)"><text x="5" data-z-index="1" y="16" style="color:#000000;font-size:11px;font-weight:bold;fill:#000000;"><tspan x="5" y="16" class="highcharts-text-outline" fill="#FFFFFF" stroke="#FFFFFF" stroke-width="2px" stroke-linejoin="round">3</tspan><tspan x="5" y="16">3</tspan></text></g><g class="highcharts-label highcharts-data-label highcharts-data-label-color-undefined" data-z-index="1" transform="translate(305,227)"><text x="5" data-z-index="1" y="16" style="color:#000000;font-size:11px;font-weight:bold;fill:#000000;"><tspan x="5" y="16" class="highcharts-text-outline" fill="#FFFFFF" stroke="#FFFFFF" stroke-width="2px" stroke-linejoin="round">3</tspan><tspan x="5" y="16">3</tspan></text></g><g class="highcharts-label highcharts-data-label highcharts-data-label-color-undefined highcharts-data-label-hidden" data-z-index="1" transform="translate(256,227)" opacity="0" style="pointer-events:none;"><text x="5" data-z-index="1" y="16" style="color:#000000;font-size:11px;font-weight:bold;fill:#000000;"><tspan x="5" y="16" class="highcharts-text-outline" fill="#FFFFFF" stroke="#FFFFFF" stroke-width="2px" stroke-linejoin="round">3</tspan><tspan x="5" y="16">3</tspan></text></g><g class="highcharts-label highcharts-data-label highcharts-data-label-color-undefined highcharts-data-label-hidden" data-z-index="1" transform="translate(214,200)" opacity="0" style="pointer-events:none;"><text x="5" data-z-index="1" y="16" style="color:#000000;font-size:11px;font-weight:bold;fill:#000000;"><tspan x="5" y="16" class="highcharts-text-outline" fill="#FFFFFF" stroke="#FFFFFF" stroke-width="2px" stroke-linejoin="round">3</tspan><tspan x="5" y="16">3</tspan></text></g><g class="highcharts-label highcharts-data-label highcharts-data-label-color-undefined highcharts-data-label-hidden" data-z-index="1" transform="translate(193,155)" opacity="0" style="pointer-events:none;"><text x="5" data-z-index="1" y="16" style="color:#000000;font-size:11px;font-weight:bold;fill:#000000;"><tspan x="5" y="16" class="highcharts-text-outline" fill="#FFFFFF" stroke="#FFFFFF" stroke-width="2px" stroke-linejoin="round">3</tspan><tspan x="5" y="16">3</tspan></text></g><g class="highcharts-label highcharts-data-label highcharts-data-label-color-undefined highcharts-data-label-hidden" data-z-index="1" transform="translate(200,105)" opacity="0" style="pointer-events:none;"><text x="5" data-z-index="1" y="16" style="color:#000000;font-size:11px;font-weight:bold;fill:#000000;"><tspan x="5" y="16" class="highcharts-text-outline" fill="#FFFFFF" stroke="#FFFFFF" stroke-width="2px" stroke-linejoin="round">3</tspan><tspan x="5" y="16">3</tspan></text></g><g class="highcharts-label highcharts-data-label highcharts-data-label-color-undefined" data-z-index="1" transform="translate(233,68)"><text x="5" data-z-index="1" y="16" style="color:#000000;font-size:11px;font-weight:bold;fill:#000000;"><tspan x="5" y="16" class="highcharts-text-outline" fill="#FFFFFF" stroke="#FFFFFF" stroke-width="2px" stroke-linejoin="round">3</tspan><tspan x="5" y="16">3</tspan></text></g></g><g class="highcharts-legend" data-z-index="7" transform="translate(191,358)" aria-hidden="true"><rect fill="none" class="highcharts-legend-box" rx="0" ry="0" x="0" y="0" width="218" height="27" visibility="visible"></rect><g data-z-index="1"><g><g class="highcharts-legend-item highcharts-line-series highcharts-color-undefined highcharts-series-0" data-z-index="1" transform="translate(8,3)"><path fill="none" d="M 0 11 L 16 11" class="highcharts-graph" stroke="#0F0" stroke-width="2"></path><path fill="#0F0" d="M 8 15 A 4 4 0 1 1 8.003999999333336 14.999998000000167 Z" class="highcharts-point" opacity="1"></path><text x="21" style="color:#333333;cursor:pointer;font-size:12px;font-weight:bold;fill:#333333;" text-anchor="start" data-z-index="2" y="15"><tspan>Capaian</tspan></text></g><g class="highcharts-legend-item highcharts-line-series highcharts-color-undefined highcharts-series-1" data-z-index="1" transform="translate(102.796875,3)"><path fill="none" d="M 0 11 L 16 11" class="highcharts-graph" stroke="#FF0000" stroke-width="2"></path><path fill="#FF0000" d="M 8 7 L 12 11 L 8 15 L 4 11 Z" class="highcharts-point" opacity="1"></path><text x="21" y="15" style="color:#333333;cursor:pointer;font-size:12px;font-weight:bold;fill:#333333;" text-anchor="start" data-z-index="2"><tspan>Nilai Standar</tspan></text></g></g></g></g><g class="highcharts-axis-labels highcharts-xaxis-labels" data-z-index="7" aria-hidden="true"><text x="300" style="color:#666666;cursor:default;font-size:11px;fill:#666666;" transform="translate(0,0) rotate(1 300 47.74700432069166)" text-anchor="middle" y="47.74700432069166" opacity="1"><tspan>Daya Analisa</tspan></text><text x="371.6889723946123" style="color:#666666;cursor:default;font-size:11px;fill:#666666;" transform="translate(0,0) rotate(1 371.6889723946123 68.69246568963555)" text-anchor="start" y="68.69246568963555" opacity="1"><tspan>Logika Berpikir</tspan></text><text x="420.61720258400914" style="color:#666666;cursor:default;font-size:11px;fill:#666666;" transform="translate(0,0) rotate(1 420.61720258400914 125.03202347570776)" text-anchor="start" y="125.03202347570776" opacity="1"><tspan>Sistematika Kerja</tspan></text><text x="431.25032319341165" style="color:#666666;cursor:default;font-size:11px;fill:#666666;" transform="translate(0,0) rotate(1 431.25032319341165 201.04812211063708)" text-anchor="start" y="201.04812211063708" opacity="1">Inisiatif</text><text x="400.2123935593746" style="color:#666666;cursor:default;font-size:11px;fill:#666666;" transform="translate(0,0) rotate(1 400.2123935593746 266.9380436037759)" text-anchor="start" y="266.9380436037759" opacity="1"><tspan>Daya Tahan Kerja</tspan></text><text x="337.3577370371736" style="color:#666666;cursor:default;font-size:11px;fill:#666666;" transform="translate(0,0) rotate(1 337.3577370371736 309.1062437934088)" text-anchor="start" y="309.1062437934088" opacity="1">Kepemimpinan</text><text x="262.64226296282646" style="color:#666666;cursor:default;font-size:11px;fill:#666666;" transform="translate(0,0) rotate(1 262.64226296282646 307.12244066589017)" text-anchor="end" y="307.12244066589017" opacity="1"><tspan>Dorongan Berprestasi</tspan></text><text x="199.78760644062538" style="color:#666666;cursor:default;font-size:11px;fill:#666666;" transform="translate(0,0) rotate(1 199.78760644062538 266.96749453963884)" text-anchor="end" y="266.96749453963884" opacity="1"><tspan>Tanggung Jawab</tspan></text><text x="168.74967680658833" style="color:#666666;cursor:default;font-size:11px;fill:#666666;" transform="translate(0,0) rotate(1 168.74967680658833 198.4823817842925)" text-anchor="end" y="198.4823817842925" opacity="1"><tspan>Keterampilan Interpersonal</tspan></text><text x="179.38279741599086" style="color:#666666;cursor:default;font-size:11px;fill:#666666;" transform="translate(0,0) rotate(1 179.38279741599086 125.05697496303611)" text-anchor="end" y="125.05697496303611" opacity="1"><tspan>Kepercayaan Diri</tspan></text><text x="228.31102760538778" style="color:#666666;cursor:default;font-size:11px;fill:#666666;" transform="translate(0,0) rotate(1 228.31102760538778 68.64887102384564)" text-anchor="end" y="68.64887102384564" opacity="1"><tspan>Stabilitas Emosi</tspan></text><text x="0" style="color:#666666;cursor:default;font-size:11px;fill:#666666;" transform="translate(0,0) rotate(1 0 -9999)" text-anchor="middle" y="-9999">11</text></g><g class="highcharts-axis-labels highcharts-yaxis-labels" data-z-index="7" aria-hidden="true"></g></g></svg>