<svg height="400" width="600" version="1.1" xmlns="http://www.w3.org/2000/svg"><g transform="translate(0,0)"  xmlns:xlink="http://www.w3.org/1999/xlink" version="1.1" class="highcharts-root" style="font-family:&quot;Lucida Grande&quot;, &quot;Lucida Sans Unicode&quot;, Arial, Helvetica, sans-serif;font-size:12px;" xmlns="http://www.w3.org/2000/svg" width="600" height="400" viewBox="0 0 600 400" aria-hidden="false" aria-label="Interactive chart"><desc aria-hidden="true">Created with Highcharts 8.1.2</desc><defs aria-hidden="true"><clipPath id="highcharts-o5vicr8-86-"><rect x="0" y="0" width="580" height="338" fill="none"></rect></clipPath><clipPath id="highcharts-o5vicr8-107"><circle cx="290" cy="169" r="118.3"></circle></clipPath><clipPath id="highcharts-o5vicr8-128"><circle cx="290" cy="169" r="118.3"></circle></clipPath></defs><rect fill="#ffffff" class="highcharts-background" x="0" y="0" width="600" height="400" rx="0" ry="0" aria-hidden="true"></rect><rect fill="none" class="highcharts-plot-background" x="10" y="10" width="580" height="338" aria-hidden="true"></rect><g class="highcharts-pane-group" data-z-index="0" aria-hidden="true"></g><g class="highcharts-grid highcharts-xaxis-grid" data-z-index="1" aria-hidden="true"><path fill="none" stroke="#e6e6e6" stroke-width="1" data-z-index="1" class="highcharts-grid-line" d="M 300 179 L 300 60.7" opacity="1"></path><path fill="none" stroke="#e6e6e6" stroke-width="1" data-z-index="1" class="highcharts-grid-line" d="M 300 179 L 338.4119472069141 67.10982030681492" opacity="1"></path><path fill="none" stroke="#e6e6e6" stroke-width="1" data-z-index="1" class="highcharts-grid-line" d="M 300 179 L 372.6613639111877 85.64467773840664" opacity="1"></path><path fill="none" stroke="#e6e6e6" stroke-width="1" data-z-index="1" class="highcharts-grid-line" d="M 300 179 L 399.0367943784571 114.29603289411689" opacity="1"></path><path fill="none" stroke="#e6e6e6" stroke-width="1" data-z-index="1" class="highcharts-grid-line" d="M 300 179 L 414.6800514606228 149.95906687124346" opacity="1"></path><path fill="none" stroke="#e6e6e6" stroke-width="1" data-z-index="1" class="highcharts-grid-line" d="M 300 179 L 417.89594552268903 188.7691365693769" opacity="1"></path><path fill="none" stroke="#e6e6e6" stroke-width="1" data-z-index="1" class="highcharts-grid-line" d="M 300 179 L 408.3359845432933 226.52056873644628" opacity="1"></path><path fill="none" stroke="#e6e6e6" stroke-width="1" data-z-index="1" class="highcharts-grid-line" d="M 300 179 L 387.0361386326315 259.12240992332516" opacity="1"></path><path fill="none" stroke="#e6e6e6" stroke-width="1" data-z-index="1" class="highcharts-grid-line" d="M 300 179 L 356.3045765962858 283.04174476772766" opacity="1"></path><path fill="none" stroke="#e6e6e6" stroke-width="1" data-z-index="1" class="highcharts-grid-line" d="M 300 179 L 319.4715400302108 295.68654219254205" opacity="1"></path><path fill="none" stroke="#e6e6e6" stroke-width="1" data-z-index="1" class="highcharts-grid-line" d="M 300 179 L 280.5284599697892 295.68654219254205" opacity="1"></path><path fill="none" stroke="#e6e6e6" stroke-width="1" data-z-index="1" class="highcharts-grid-line" d="M 300 179 L 243.6954234037142 283.04174476772766" opacity="1"></path><path fill="none" stroke="#e6e6e6" stroke-width="1" data-z-index="1" class="highcharts-grid-line" d="M 300 179 L 212.96386136736857 259.1224099233252" opacity="1"></path><path fill="none" stroke="#e6e6e6" stroke-width="1" data-z-index="1" class="highcharts-grid-line" d="M 300 179 L 191.66401545670672 226.52056873644634" opacity="1"></path><path fill="none" stroke="#e6e6e6" stroke-width="1" data-z-index="1" class="highcharts-grid-line" d="M 300 179 L 182.10405447731097 188.76913656937694" opacity="1"></path><path fill="none" stroke="#e6e6e6" stroke-width="1" data-z-index="1" class="highcharts-grid-line" d="M 300 179 L 185.3199485393772 149.9590668712435" opacity="1"></path><path fill="none" stroke="#e6e6e6" stroke-width="1" data-z-index="1" class="highcharts-grid-line" d="M 300 179 L 200.96320562154284 114.29603289411693" opacity="1"></path><path fill="none" stroke="#e6e6e6" stroke-width="1" data-z-index="1" class="highcharts-grid-line" d="M 300 179 L 227.33863608881228 85.64467773840666" opacity="1"></path><path fill="none" stroke="#e6e6e6" stroke-width="1" data-z-index="1" class="highcharts-grid-line" d="M 300 179 L 261.5880527930859 67.10982030681492" opacity="1"></path><path fill="none" stroke="#e6e6e6" stroke-width="1" data-z-index="1" class="highcharts-grid-line" d="M 300 179 L 300 60.7" opacity="1"></path></g><g class="highcharts-grid highcharts-yaxis-grid" data-z-index="1" aria-hidden="true"><path fill="none" stroke="#e6e6e6" stroke-width="1" data-z-index="1" class="highcharts-grid-line" d="M 300 179 L 300 179 L 300 179 L 300 179 L 300 179 L 300 179 L 300 179 L 300 179 L 300 179 L 300 179 L 300 179 L 300 179 L 300 179 L 300 179 L 300 179 L 300 179 L 300 179 L 300 179 L 300 179 L 300 179 L 300 179" opacity="1"></path><path fill="none" stroke="#e6e6e6" stroke-width="1" data-z-index="1" class="highcharts-grid-line" d="M 300 119.85 L 319.20597360345704 123.05491015340746 L 336.33068195559383 132.32233886920332 L 349.51839718922855 146.64801644705844 L 357.34002573031137 164.47953343562173 L 358.94797276134454 183.88456828468847 L 354.16799227164665 202.76028436822313 L 343.51806931631575 219.06120496166258 L 328.1522882981429 231.02087238386383 L 309.7357700151054 237.34327109627102 L 290.2642299848946 237.34327109627102 L 271.8477117018571 231.02087238386383 L 256.48193068368425 219.0612049616626 L 245.83200772835335 202.76028436822315 L 241.05202723865548 183.88456828468847 L 242.6599742696886 164.47953343562176 L 250.48160281077142 146.64801644705847 L 263.66931804440617 132.32233886920332 L 280.79402639654296 123.05491015340746 L 300 119.85 L 300 119.85" opacity="1"></path><path fill="none" stroke="#e6e6e6" stroke-width="1" data-z-index="1" class="highcharts-grid-line" d="M 300 60.7 L 338.4119472069141 67.10982030681492 L 372.6613639111877 85.64467773840664 L 399.0367943784571 114.29603289411689 L 414.6800514606228 149.95906687124346 L 417.89594552268903 188.7691365693769 L 408.3359845432933 226.52056873644628 L 387.0361386326315 259.12240992332516 L 356.3045765962858 283.04174476772766 L 319.4715400302108 295.68654219254205 L 280.5284599697892 295.68654219254205 L 243.6954234037142 283.04174476772766 L 212.96386136736857 259.1224099233252 L 191.66401545670672 226.52056873644634 L 182.10405447731097 188.76913656937694 L 185.3199485393772 149.9590668712435 L 200.96320562154284 114.29603289411693 L 227.33863608881228 85.64467773840666 L 261.5880527930859 67.10982030681492 L 300 60.7 L 300 60.7" opacity="1"></path></g><rect fill="none" class="highcharts-plot-border" data-z-index="1" x="10" y="10" width="580" height="338" aria-hidden="true"></rect><g class="highcharts-axis highcharts-xaxis" data-z-index="2" aria-hidden="true"><path fill="none" class="highcharts-axis-line" data-z-index="7" d="M 300 60.7 A 118.3 118.3 0 1 1 299.8817000197166 60.70005914999507 M 300 179 A 0 0 0 1 0 300 179"></path></g><g class="highcharts-axis highcharts-yaxis" data-z-index="2" aria-hidden="true"><path fill="none" class="highcharts-axis-line" data-z-index="7" d="M 300 179 L 300 60.7"></path></g><g class="highcharts-series-group" data-z-index="3" aria-hidden="false"><g class="highcharts-series highcharts-series-0 highcharts-line-series" data-z-index="0.1" opacity="1" transform="translate(10,10) scale(1 1)" clip-path="url(#highcharts-o5vicr8-107)" aria-hidden="true"><path fill="none" d="M 290 109.85 L 318.80896040518576 85.08236523011125 L 326.33068195559406 122.32233886920349 L 364.2775957838427 120.47202467058744 L 347.3400257303118 154.4795334356234 L 378.42195914201704 176.32685242702928 L 344.16799227164677 192.7602843682228 L 333.51806931631467 209.06120496166372 L 332.2284324472176 247.03130857579401 L 304.6036550226589 256.51490664440644 L 275.3963449773399 256.5149066444062 L 261.84771170185945 221.02087238386508 L 224.72289602552715 229.09180744249468 L 208.74801159252934 204.64042655233308 L 201.57804085798358 176.32685242703687 L 203.98996140453258 147.21930015343392 L 240.48160281077196 136.6480164470576 L 253.66931804440844 122.32233886920156 L 270.79402639654194 113.05491015340783 L 290 109.85" class="highcharts-graph" data-z-index="1" stroke="#0F0" stroke-width="2" stroke-linejoin="round" stroke-linecap="round"></path></g><g class="highcharts-markers highcharts-series-0 highcharts-line-series" data-z-index="0.1" opacity="1" transform="translate(10,10) scale(1 1)" clip-path="none" aria-hidden="false" role="region" tabindex="-1" aria-label="Capaian, line 1 of 2 with 19 data points." style="outline: 0px;"><path fill="#0F0" d="M 290 114 A 4 4 0 1 1 290.00399999933336 113.99999800000016 Z" opacity="1" class="highcharts-point" tabindex="-1" role="img" aria-label="1. Kepercayaan Diri, 2. Capaian." style="outline: 0px;"></path><path fill="#0F0" d="M 318 89 A 4 4 0 1 1 318.00399999933336 88.99999800000016 Z" opacity="1" class="highcharts-point" tabindex="-1" role="img" aria-label="2. Inisiatif, 3. Capaian." style="outline: 0px;"></path><path fill="#0F0" d="M 326 126 A 4 4 0 1 1 326.00399999933336 125.99999800000016 Z" opacity="1" class="highcharts-point" tabindex="-1" role="img" aria-label="3. Dorongan Berprestasi, 2. Capaian." style="outline: 0px;"></path><path fill="#0F0" d="M 364 124 A 4 4 0 1 1 364.00399999933336 123.99999800000016 Z" opacity="1" class="highcharts-point" tabindex="-1" role="img" aria-label="4. Berpikir Konseptual, 3. Capaian." style="outline: 0px;"></path><path fill="#0F0" d="M 347 158 A 4 4 0 1 1 347.00399999933336 157.99999800000018 Z" opacity="1" class="highcharts-point" tabindex="-1" role="img" aria-label="5. Kemampuan Analisis, 2. Capaian." style="outline: 0px;"></path><path fill="#0F0" d="M 378 180 A 4 4 0 1 1 378.00399999933336 179.99999800000018 Z" opacity="1" class="highcharts-point" tabindex="-1" role="img" aria-label="6. Kecerdasan Umum, 3. Capaian." style="outline: 0px;"></path><path fill="#0F0" d="M 344 197 A 4 4 0 1 1 344.00399999933336 196.99999800000018 Z" opacity="1" class="highcharts-point" tabindex="-1" role="img" aria-label="7. Sistematika Berpikir, 2. Capaian." style="outline: 0px;"></path><path fill="#0F0" d="M 333 213 A 4 4 0 1 1 333.00399999933336 212.99999800000018 Z" opacity="1" class="highcharts-point" tabindex="-1" role="img" aria-label="8. Inisiatif, 2. Capaian." style="outline: 0px;"></path><path fill="#0F0" d="M 332 251 A 4 4 0 1 1 332.00399999933336 250.99999800000018 Z" opacity="1" class="highcharts-point" tabindex="-1" role="img" aria-label="9. Daya Tahan Kerja, 3. Capaian." style="outline: 0px;"></path><path fill="#0F0" d="M 304 261 A 4 4 0 1 1 304.00399999933336 260.9999980000002 Z" opacity="1" class="highcharts-point" tabindex="-1" role="img" aria-label="10. Ketelitian Kerja, 3. Capaian." style="outline: 0px;"></path><path fill="#0F0" d="M 275 261 A 4 4 0 1 1 275.00399999933336 260.9999980000002 Z" opacity="1" class="highcharts-point" tabindex="-1" role="img" aria-label="11. Keterampilan Interpersonal, 3. Capaian." style="outline: 0px;"></path><path fill="#0F0" d="M 261 225 A 4 4 0 1 1 261.00399999933336 224.99999800000018 Z" opacity="1" class="highcharts-point" tabindex="-1" role="img" aria-label="12. Daya Analisa, 2. Capaian." style="outline: 0px;"></path><path fill="#0F0" d="M 224 233 A 4 4 0 1 1 224.00399999933333 232.99999800000018 Z" opacity="1" class="highcharts-point" tabindex="-1" role="img" aria-label="13. Logika Berpikir, 3. Capaian." style="outline: 0px;"></path><path fill="#0F0" d="M 208 209 A 4 4 0 1 1 208.00399999933333 208.99999800000018 Z" opacity="1" class="highcharts-point" tabindex="-1" role="img" aria-label="14. Berpikir Sistematis, 3. Capaian." style="outline: 0px;"></path><path fill="#0F0" d="M 201 180 A 4 4 0 1 1 201.00399999933333 179.99999800000018 Z" opacity="1" class="highcharts-point" tabindex="-1" role="img" aria-label="15. Sistematika Kerja, 3. Capaian." style="outline: 0px;"></path><path fill="#0F0" d="M 203 151 A 4 4 0 1 1 203.00399999933333 150.99999800000018 Z" opacity="1" class="highcharts-point" tabindex="-1" role="img" aria-label="16. Daya Tahan Kerja, 3. Capaian." style="outline: 0px;"></path><path fill="#0F0" d="M 240 141 A 4 4 0 1 1 240.00399999933333 140.99999800000018 Z" opacity="1" class="highcharts-point" tabindex="-1" role="img" aria-label="17. Kepemimpinan, 2. Capaian." style="outline: 0px;"></path><path fill="#0F0" d="M 253 126 A 4 4 0 1 1 253.00399999933333 125.99999800000016 Z" opacity="1" class="highcharts-point" tabindex="-1" role="img" aria-label="18. Dorongan Berprestasi, 2. Capaian." style="outline: 0px;"></path><path fill="#0F0" d="M 270 117 A 4 4 0 1 1 270.00399999933336 116.99999800000016 Z" opacity="1" class="highcharts-point" tabindex="-1" role="img" aria-label="19. Tanggung Jawab, 2. Capaian." style="outline: 0px;"></path></g><g class="highcharts-series highcharts-series-1 highcharts-line-series" data-z-index="0.1" opacity="1" transform="translate(10,10) scale(1 1)" clip-path="url(#highcharts-o5vicr8-128)" aria-hidden="true"><path fill="none" d="M 290 80.275 L 318.80896040518576 85.08236523011125 L 344.4960229333911 98.98350830380524 L 364.2775957838427 120.47202467058744 L 376.01003859546773 147.2193001534351 L 378.42195914201704 176.32685242702928 L 371.2519884074702 204.64042655233422 L 355.277103974472 229.09180744249556 L 332.2284324472176 247.03130857579401 L 304.6036550226589 256.51490664440644 L 275.3963449773399 256.5149066444062 L 247.77156755278918 247.03130857579765 L 224.72289602552715 229.09180744249468 L 208.74801159252934 204.64042655233308 L 201.57804085798358 176.32685242703687 L 203.98996140453258 147.21930015343392 L 215.72240421615797 120.47202467058645 L 235.50397706661263 98.98350830380234 L 261.1910395948129 85.08236523011173 L 290 80.275" class="highcharts-graph" data-z-index="1" stroke="#FF0000" stroke-width="2" stroke-linejoin="round" stroke-linecap="round"></path></g><g class="highcharts-markers highcharts-series-1 highcharts-line-series" data-z-index="0.1" opacity="1" transform="translate(10,10) scale(1 1)" clip-path="none" aria-hidden="false" role="region" tabindex="-1" aria-label="Nilai Standar, line 2 of 2 with 19 data points." style="outline: 0px;"><path fill="#FF0000" d="M 290 76 L 294 80 L 290 84 L 286 80 Z" opacity="1" class="highcharts-point" tabindex="-1" role="img" aria-label="1. Kepercayaan Diri, 3. Nilai Standar." style="outline: 0px;"></path><path fill="#FF0000" d="M 318 81 L 322 85 L 318 89 L 314 85 Z" opacity="1" class="highcharts-point" tabindex="-1" role="img" aria-label="2. Inisiatif, 3. Nilai Standar." style="outline: 0px;"></path><path fill="#FF0000" d="M 344 95 L 348 99 L 344 103 L 340 99 Z" opacity="1" class="highcharts-point" tabindex="-1" role="img" aria-label="3. Dorongan Berprestasi, 3. Nilai Standar." style="outline: 0px;"></path><path fill="#FF0000" d="M 364 116 L 368 120 L 364 124 L 360 120 Z" opacity="1" class="highcharts-point" tabindex="-1" role="img" aria-label="4. Berpikir Konseptual, 3. Nilai Standar." style="outline: 0px;"></path><path fill="#FF0000" d="M 376 143 L 380 147 L 376 151 L 372 147 Z" opacity="1" class="highcharts-point" tabindex="-1" role="img" aria-label="5. Kemampuan Analisis, 3. Nilai Standar." style="outline: 0px;"></path><path fill="#FF0000" d="M 378 172 L 382 176 L 378 180 L 374 176 Z" opacity="1" class="highcharts-point" tabindex="-1" role="img" aria-label="6. Kecerdasan Umum, 3. Nilai Standar." style="outline: 0px;"></path><path fill="#FF0000" d="M 371 201 L 375 205 L 371 209 L 367 205 Z" opacity="1" class="highcharts-point" tabindex="-1" role="img" aria-label="7. Sistematika Berpikir, 3. Nilai Standar." style="outline: 0px;"></path><path fill="#FF0000" d="M 355 225 L 359 229 L 355 233 L 351 229 Z" opacity="1" class="highcharts-point" tabindex="-1" role="img" aria-label="8. Inisiatif, 3. Nilai Standar." style="outline: 0px;"></path><path fill="#FF0000" d="M 332 243 L 336 247 L 332 251 L 328 247 Z" opacity="1" class="highcharts-point" tabindex="-1" role="img" aria-label="9. Daya Tahan Kerja, 3. Nilai Standar." style="outline: 0px;"></path><path fill="#FF0000" d="M 304 253 L 308 257 L 304 261 L 300 257 Z" opacity="1" class="highcharts-point" tabindex="-1" role="img" aria-label="10. Ketelitian Kerja, 3. Nilai Standar." style="outline: 0px;"></path><path fill="#FF0000" d="M 275 253 L 279 257 L 275 261 L 271 257 Z" opacity="1" class="highcharts-point" tabindex="-1" role="img" aria-label="11. Keterampilan Interpersonal, 3. Nilai Standar." style="outline: 0px;"></path><path fill="#FF0000" d="M 247 243 L 251 247 L 247 251 L 243 247 Z" opacity="1" class="highcharts-point" tabindex="-1" role="img" aria-label="12. Daya Analisa, 3. Nilai Standar." style="outline: 0px;"></path><path fill="#FF0000" d="M 224 225 L 228 229 L 224 233 L 220 229 Z" opacity="1" class="highcharts-point" tabindex="-1" role="img" aria-label="13. Logika Berpikir, 3. Nilai Standar." style="outline: 0px;"></path><path fill="#FF0000" d="M 208 201 L 212 205 L 208 209 L 204 205 Z" opacity="1" class="highcharts-point" tabindex="-1" role="img" aria-label="14. Berpikir Sistematis, 3. Nilai Standar." style="outline: 0px;"></path><path fill="#FF0000" d="M 201 172 L 205 176 L 201 180 L 197 176 Z" opacity="1" class="highcharts-point" tabindex="-1" role="img" aria-label="15. Sistematika Kerja, 3. Nilai Standar." style="outline: 0px;"></path><path fill="#FF0000" d="M 203 143 L 207 147 L 203 151 L 199 147 Z" opacity="1" class="highcharts-point" tabindex="-1" role="img" aria-label="16. Daya Tahan Kerja, 3. Nilai Standar." style="outline: 0px;"></path><path fill="#FF0000" d="M 215 116 L 219 120 L 215 124 L 211 120 Z" opacity="1" class="highcharts-point" tabindex="-1" role="img" aria-label="17. Kepemimpinan, 3. Nilai Standar." style="outline: 0px;"></path><path fill="#FF0000" d="M 235 95 L 239 99 L 235 103 L 231 99 Z" opacity="1" class="highcharts-point" tabindex="-1" role="img" aria-label="18. Dorongan Berprestasi, 3. Nilai Standar." style="outline: 0px;"></path><path fill="#FF0000" d="M 261 81 L 265 85 L 261 89 L 257 85 Z" opacity="1" class="highcharts-point" tabindex="-1" role="img" aria-label="19. Tanggung Jawab, 3. Nilai Standar." style="outline: 0px;"></path></g></g><text x="220" text-anchor="middle" class="highcharts-title" data-z-index="4" style="color:#333333;font-size:18px;fill:#333333;" y="24" aria-hidden="true"></text><text x="300" text-anchor="middle" class="highcharts-subtitle" data-z-index="4" style="color:#666666;fill:#666666;" y="24" aria-hidden="true"></text><text x="10" text-anchor="start" class="highcharts-caption" data-z-index="4" style="color:#666666;fill:#666666;" y="397" aria-hidden="true"></text><g class="highcharts-data-labels highcharts-series-0 highcharts-line-series" data-z-index="6" opacity="1" transform="translate(10,10) scale(1 1)" aria-hidden="true"><g class="highcharts-label highcharts-data-label highcharts-data-label-color-undefined" data-z-index="1" transform="translate(281,88)"><text x="5" data-z-index="1" y="16" style="color:#000000;font-size:11px;font-weight:bold;fill:#000000;"><tspan x="5" y="16" class="highcharts-text-outline" fill="#FFFFFF" stroke="#FFFFFF" stroke-width="2px" stroke-linejoin="round" style="">2</tspan><tspan x="5" y="16">2</tspan></text></g><g class="highcharts-label highcharts-data-label highcharts-data-label-color-undefined" data-z-index="1" transform="translate(310,63)"><text x="5" data-z-index="1" y="16" style="color:#000000;font-size:11px;font-weight:bold;fill:#000000;"><tspan x="5" y="16" class="highcharts-text-outline" fill="#FFFFFF" stroke="#FFFFFF" stroke-width="2px" stroke-linejoin="round">3</tspan><tspan x="5" y="16">3</tspan></text></g><g class="highcharts-label highcharts-data-label highcharts-data-label-color-undefined" data-z-index="1" transform="translate(317,100)"><text x="5" data-z-index="1" y="16" style="color:#000000;font-size:11px;font-weight:bold;fill:#000000;"><tspan x="5" y="16" class="highcharts-text-outline" fill="#FFFFFF" stroke="#FFFFFF" stroke-width="2px" stroke-linejoin="round">2</tspan><tspan x="5" y="16">2</tspan></text></g><g class="highcharts-label highcharts-data-label highcharts-data-label-color-undefined" data-z-index="1" transform="translate(355,98)"><text x="5" data-z-index="1" y="16" style="color:#000000;font-size:11px;font-weight:bold;fill:#000000;"><tspan x="5" y="16" class="highcharts-text-outline" fill="#FFFFFF" stroke="#FFFFFF" stroke-width="2px" stroke-linejoin="round">3</tspan><tspan x="5" y="16">3</tspan></text></g><g class="highcharts-label highcharts-data-label highcharts-data-label-color-undefined" data-z-index="1" transform="translate(338,132)"><text x="5" data-z-index="1" y="16" style="color:#000000;font-size:11px;font-weight:bold;fill:#000000;"><tspan x="5" y="16" class="highcharts-text-outline" fill="#FFFFFF" stroke="#FFFFFF" stroke-width="2px" stroke-linejoin="round">2</tspan><tspan x="5" y="16">2</tspan></text></g><g class="highcharts-label highcharts-data-label highcharts-data-label-color-undefined" data-z-index="1" transform="translate(369,154)"><text x="5" data-z-index="1" y="16" style="color:#000000;font-size:11px;font-weight:bold;fill:#000000;"><tspan x="5" y="16" class="highcharts-text-outline" fill="#FFFFFF" stroke="#FFFFFF" stroke-width="2px" stroke-linejoin="round">3</tspan><tspan x="5" y="16">3</tspan></text></g><g class="highcharts-label highcharts-data-label highcharts-data-label-color-undefined" data-z-index="1" transform="translate(335,171)"><text x="5" data-z-index="1" y="16" style="color:#000000;font-size:11px;font-weight:bold;fill:#000000;"><tspan x="5" y="16" class="highcharts-text-outline" fill="#FFFFFF" stroke="#FFFFFF" stroke-width="2px" stroke-linejoin="round">2</tspan><tspan x="5" y="16">2</tspan></text></g><g class="highcharts-label highcharts-data-label highcharts-data-label-color-undefined" data-z-index="1" transform="translate(325,187)"><text x="5" data-z-index="1" y="16" style="color:#000000;font-size:11px;font-weight:bold;fill:#000000;"><tspan x="5" y="16" class="highcharts-text-outline" fill="#FFFFFF" stroke="#FFFFFF" stroke-width="2px" stroke-linejoin="round">2</tspan><tspan x="5" y="16">2</tspan></text></g><g class="highcharts-label highcharts-data-label highcharts-data-label-color-undefined" data-z-index="1" transform="translate(323,225)"><text x="5" data-z-index="1" y="16" style="color:#000000;font-size:11px;font-weight:bold;fill:#000000;"><tspan x="5" y="16" class="highcharts-text-outline" fill="#FFFFFF" stroke="#FFFFFF" stroke-width="2px" stroke-linejoin="round">3</tspan><tspan x="5" y="16">3</tspan></text></g><g class="highcharts-label highcharts-data-label highcharts-data-label-color-undefined" data-z-index="1" transform="translate(296,235)"><text x="5" data-z-index="1" y="16" style="color:#000000;font-size:11px;font-weight:bold;fill:#000000;"><tspan x="5" y="16" class="highcharts-text-outline" fill="#FFFFFF" stroke="#FFFFFF" stroke-width="2px" stroke-linejoin="round">3</tspan><tspan x="5" y="16">3</tspan></text></g><g class="highcharts-label highcharts-data-label highcharts-data-label-color-undefined" data-z-index="1" transform="translate(266,235)"><text x="5" data-z-index="1" y="16" style="color:#000000;font-size:11px;font-weight:bold;fill:#000000;"><tspan x="5" y="16" class="highcharts-text-outline" fill="#FFFFFF" stroke="#FFFFFF" stroke-width="2px" stroke-linejoin="round">3</tspan><tspan x="5" y="16">3</tspan></text></g><g class="highcharts-label highcharts-data-label highcharts-data-label-color-undefined" data-z-index="1" transform="translate(253,199)"><text x="5" data-z-index="1" y="16" style="color:#000000;font-size:11px;font-weight:bold;fill:#000000;"><tspan x="5" y="16" class="highcharts-text-outline" fill="#FFFFFF" stroke="#FFFFFF" stroke-width="2px" stroke-linejoin="round">2</tspan><tspan x="5" y="16">2</tspan></text></g><g class="highcharts-label highcharts-data-label highcharts-data-label-color-undefined" data-z-index="1" transform="translate(216,207)"><text x="5" data-z-index="1" y="16" style="color:#000000;font-size:11px;font-weight:bold;fill:#000000;"><tspan x="5" y="16" class="highcharts-text-outline" fill="#FFFFFF" stroke="#FFFFFF" stroke-width="2px" stroke-linejoin="round">3</tspan><tspan x="5" y="16">3</tspan></text></g><g class="highcharts-label highcharts-data-label highcharts-data-label-color-undefined" data-z-index="1" transform="translate(200,183)"><text x="5" data-z-index="1" y="16" style="color:#000000;font-size:11px;font-weight:bold;fill:#000000;"><tspan x="5" y="16" class="highcharts-text-outline" fill="#FFFFFF" stroke="#FFFFFF" stroke-width="2px" stroke-linejoin="round">3</tspan><tspan x="5" y="16">3</tspan></text></g><g class="highcharts-label highcharts-data-label highcharts-data-label-color-undefined" data-z-index="1" transform="translate(193,154)"><text x="5" data-z-index="1" y="16" style="color:#000000;font-size:11px;font-weight:bold;fill:#000000;"><tspan x="5" y="16" class="highcharts-text-outline" fill="#FFFFFF" stroke="#FFFFFF" stroke-width="2px" stroke-linejoin="round">3</tspan><tspan x="5" y="16">3</tspan></text></g><g class="highcharts-label highcharts-data-label highcharts-data-label-color-undefined" data-z-index="1" transform="translate(195,125)"><text x="5" data-z-index="1" y="16" style="color:#000000;font-size:11px;font-weight:bold;fill:#000000;"><tspan x="5" y="16" class="highcharts-text-outline" fill="#FFFFFF" stroke="#FFFFFF" stroke-width="2px" stroke-linejoin="round">3</tspan><tspan x="5" y="16">3</tspan></text></g><g class="highcharts-label highcharts-data-label highcharts-data-label-color-undefined" data-z-index="1" transform="translate(231,115)"><text x="5" data-z-index="1" y="16" style="color:#000000;font-size:11px;font-weight:bold;fill:#000000;"><tspan x="5" y="16" class="highcharts-text-outline" fill="#FFFFFF" stroke="#FFFFFF" stroke-width="2px" stroke-linejoin="round">2</tspan><tspan x="5" y="16">2</tspan></text></g><g class="highcharts-label highcharts-data-label highcharts-data-label-color-undefined" data-z-index="1" transform="translate(245,100)"><text x="5" data-z-index="1" y="16" style="color:#000000;font-size:11px;font-weight:bold;fill:#000000;"><tspan x="5" y="16" class="highcharts-text-outline" fill="#FFFFFF" stroke="#FFFFFF" stroke-width="2px" stroke-linejoin="round">2</tspan><tspan x="5" y="16">2</tspan></text></g><g class="highcharts-label highcharts-data-label highcharts-data-label-color-undefined" data-z-index="1" transform="translate(262,91)"><text x="5" data-z-index="1" y="16" style="color:#000000;font-size:11px;font-weight:bold;fill:#000000;"><tspan x="5" y="16" class="highcharts-text-outline" fill="#FFFFFF" stroke="#FFFFFF" stroke-width="2px" stroke-linejoin="round">2</tspan><tspan x="5" y="16">2</tspan></text></g></g><g class="highcharts-data-labels highcharts-series-1 highcharts-line-series" data-z-index="6" opacity="1" transform="translate(10,10) scale(1 1)" aria-hidden="true"><g class="highcharts-label highcharts-data-label highcharts-data-label-color-undefined" data-z-index="1" transform="translate(281,58)"><text x="5" data-z-index="1" y="16" style="color:#000000;font-size:11px;font-weight:bold;fill:#000000;"><tspan x="5" y="16" class="highcharts-text-outline" fill="#FFFFFF" stroke="#FFFFFF" stroke-width="2px" stroke-linejoin="round">3</tspan><tspan x="5" y="16">3</tspan></text></g><g class="highcharts-label highcharts-data-label highcharts-data-label-color-undefined highcharts-data-label-hidden" data-z-index="1" transform="translate(310,63)" opacity="0" style="pointer-events:none;"><text x="5" data-z-index="1" y="16" style="color:#000000;font-size:11px;font-weight:bold;fill:#000000;"><tspan x="5" y="16" class="highcharts-text-outline" fill="#FFFFFF" stroke="#FFFFFF" stroke-width="2px" stroke-linejoin="round">3</tspan><tspan x="5" y="16">3</tspan></text></g><g class="highcharts-label highcharts-data-label highcharts-data-label-color-undefined" data-z-index="1" transform="translate(335,77)"><text x="5" data-z-index="1" y="16" style="color:#000000;font-size:11px;font-weight:bold;fill:#000000;"><tspan x="5" y="16" class="highcharts-text-outline" fill="#FFFFFF" stroke="#FFFFFF" stroke-width="2px" stroke-linejoin="round">3</tspan><tspan x="5" y="16">3</tspan></text></g><g class="highcharts-label highcharts-data-label highcharts-data-label-color-undefined highcharts-data-label-hidden" data-z-index="1" transform="translate(355,98)" opacity="0" style="pointer-events:none;"><text x="5" data-z-index="1" y="16" style="color:#000000;font-size:11px;font-weight:bold;fill:#000000;"><tspan x="5" y="16" class="highcharts-text-outline" fill="#FFFFFF" stroke="#FFFFFF" stroke-width="2px" stroke-linejoin="round">3</tspan><tspan x="5" y="16">3</tspan></text></g><g class="highcharts-label highcharts-data-label highcharts-data-label-color-undefined" data-z-index="1" transform="translate(367,125)"><text x="5" data-z-index="1" y="16" style="color:#000000;font-size:11px;font-weight:bold;fill:#000000;"><tspan x="5" y="16" class="highcharts-text-outline" fill="#FFFFFF" stroke="#FFFFFF" stroke-width="2px" stroke-linejoin="round">3</tspan><tspan x="5" y="16">3</tspan></text></g><g class="highcharts-label highcharts-data-label highcharts-data-label-color-undefined highcharts-data-label-hidden" data-z-index="1" transform="translate(369,154)" opacity="0" style="pointer-events:none;"><text x="5" data-z-index="1" y="16" style="color:#000000;font-size:11px;font-weight:bold;fill:#000000;"><tspan x="5" y="16" class="highcharts-text-outline" fill="#FFFFFF" stroke="#FFFFFF" stroke-width="2px" stroke-linejoin="round">3</tspan><tspan x="5" y="16">3</tspan></text></g><g class="highcharts-label highcharts-data-label highcharts-data-label-color-undefined" data-z-index="1" transform="translate(362,183)"><text x="5" data-z-index="1" y="16" style="color:#000000;font-size:11px;font-weight:bold;fill:#000000;"><tspan x="5" y="16" class="highcharts-text-outline" fill="#FFFFFF" stroke="#FFFFFF" stroke-width="2px" stroke-linejoin="round">3</tspan><tspan x="5" y="16">3</tspan></text></g><g class="highcharts-label highcharts-data-label highcharts-data-label-color-undefined" data-z-index="1" transform="translate(346,207)"><text x="5" data-z-index="1" y="16" style="color:#000000;font-size:11px;font-weight:bold;fill:#000000;"><tspan x="5" y="16" class="highcharts-text-outline" fill="#FFFFFF" stroke="#FFFFFF" stroke-width="2px" stroke-linejoin="round">3</tspan><tspan x="5" y="16">3</tspan></text></g><g class="highcharts-label highcharts-data-label highcharts-data-label-color-undefined highcharts-data-label-hidden" data-z-index="1" transform="translate(323,225)" opacity="0" style="pointer-events:none;"><text x="5" data-z-index="1" y="16" style="color:#000000;font-size:11px;font-weight:bold;fill:#000000;"><tspan x="5" y="16" class="highcharts-text-outline" fill="#FFFFFF" stroke="#FFFFFF" stroke-width="2px" stroke-linejoin="round">3</tspan><tspan x="5" y="16">3</tspan></text></g><g class="highcharts-label highcharts-data-label highcharts-data-label-color-undefined highcharts-data-label-hidden" data-z-index="1" transform="translate(296,235)" opacity="0" style="pointer-events:none;"><text x="5" data-z-index="1" y="16" style="color:#000000;font-size:11px;font-weight:bold;fill:#000000;"><tspan x="5" y="16" class="highcharts-text-outline" fill="#FFFFFF" stroke="#FFFFFF" stroke-width="2px" stroke-linejoin="round">3</tspan><tspan x="5" y="16">3</tspan></text></g><g class="highcharts-label highcharts-data-label highcharts-data-label-color-undefined highcharts-data-label-hidden" data-z-index="1" transform="translate(266,235)" opacity="0" style="pointer-events:none;"><text x="5" data-z-index="1" y="16" style="color:#000000;font-size:11px;font-weight:bold;fill:#000000;"><tspan x="5" y="16" class="highcharts-text-outline" fill="#FFFFFF" stroke="#FFFFFF" stroke-width="2px" stroke-linejoin="round">3</tspan><tspan x="5" y="16">3</tspan></text></g><g class="highcharts-label highcharts-data-label highcharts-data-label-color-undefined" data-z-index="1" transform="translate(239,225)"><text x="5" data-z-index="1" y="16" style="color:#000000;font-size:11px;font-weight:bold;fill:#000000;"><tspan x="5" y="16" class="highcharts-text-outline" fill="#FFFFFF" stroke="#FFFFFF" stroke-width="2px" stroke-linejoin="round">3</tspan><tspan x="5" y="16">3</tspan></text></g><g class="highcharts-label highcharts-data-label highcharts-data-label-color-undefined highcharts-data-label-hidden" data-z-index="1" transform="translate(216,207)" opacity="0" style="pointer-events:none;"><text x="5" data-z-index="1" y="16" style="color:#000000;font-size:11px;font-weight:bold;fill:#000000;"><tspan x="5" y="16" class="highcharts-text-outline" fill="#FFFFFF" stroke="#FFFFFF" stroke-width="2px" stroke-linejoin="round">3</tspan><tspan x="5" y="16">3</tspan></text></g><g class="highcharts-label highcharts-data-label highcharts-data-label-color-undefined highcharts-data-label-hidden" data-z-index="1" transform="translate(200,183)" opacity="0" style="pointer-events:none;"><text x="5" data-z-index="1" y="16" style="color:#000000;font-size:11px;font-weight:bold;fill:#000000;"><tspan x="5" y="16" class="highcharts-text-outline" fill="#FFFFFF" stroke="#FFFFFF" stroke-width="2px" stroke-linejoin="round">3</tspan><tspan x="5" y="16">3</tspan></text></g><g class="highcharts-label highcharts-data-label highcharts-data-label-color-undefined highcharts-data-label-hidden" data-z-index="1" transform="translate(193,154)" opacity="0" style="pointer-events:none;"><text x="5" data-z-index="1" y="16" style="color:#000000;font-size:11px;font-weight:bold;fill:#000000;"><tspan x="5" y="16" class="highcharts-text-outline" fill="#FFFFFF" stroke="#FFFFFF" stroke-width="2px" stroke-linejoin="round">3</tspan><tspan x="5" y="16">3</tspan></text></g><g class="highcharts-label highcharts-data-label highcharts-data-label-color-undefined highcharts-data-label-hidden" data-z-index="1" transform="translate(195,125)" opacity="0" style="pointer-events:none;"><text x="5" data-z-index="1" y="16" style="color:#000000;font-size:11px;font-weight:bold;fill:#000000;"><tspan x="5" y="16" class="highcharts-text-outline" fill="#FFFFFF" stroke="#FFFFFF" stroke-width="2px" stroke-linejoin="round">3</tspan><tspan x="5" y="16">3</tspan></text></g><g class="highcharts-label highcharts-data-label highcharts-data-label-color-undefined" data-z-index="1" transform="translate(207,98)"><text x="5" data-z-index="1" y="16" style="color:#000000;font-size:11px;font-weight:bold;fill:#000000;"><tspan x="5" y="16" class="highcharts-text-outline" fill="#FFFFFF" stroke="#FFFFFF" stroke-width="2px" stroke-linejoin="round">3</tspan><tspan x="5" y="16">3</tspan></text></g><g class="highcharts-label highcharts-data-label highcharts-data-label-color-undefined" data-z-index="1" transform="translate(227,77)"><text x="5" data-z-index="1" y="16" style="color:#000000;font-size:11px;font-weight:bold;fill:#000000;"><tspan x="5" y="16" class="highcharts-text-outline" fill="#FFFFFF" stroke="#FFFFFF" stroke-width="2px" stroke-linejoin="round">3</tspan><tspan x="5" y="16">3</tspan></text></g><g class="highcharts-label highcharts-data-label highcharts-data-label-color-undefined" data-z-index="1" transform="translate(252,63)"><text x="5" data-z-index="1" y="16" style="color:#000000;font-size:11px;font-weight:bold;fill:#000000;"><tspan x="5" y="16" class="highcharts-text-outline" fill="#FFFFFF" stroke="#FFFFFF" stroke-width="2px" stroke-linejoin="round">3</tspan><tspan x="5" y="16">3</tspan></text></g></g><g class="highcharts-legend" data-z-index="7" transform="translate(204,360)" aria-hidden="true"><rect fill="none" class="highcharts-legend-box" rx="0" ry="0" x="0" y="0" width="191" height="25" visibility="visible"></rect><g data-z-index="1"><g><g class="highcharts-legend-item highcharts-line-series highcharts-color-undefined highcharts-series-0" data-z-index="1" transform="translate(8,3)"><path fill="none" d="M 0 11 L 16 11" class="highcharts-graph" stroke="#0F0" stroke-width="2"></path><path fill="#0F0" d="M 8 15 A 4 4 0 1 1 8.003999999333336 14.999998000000167 Z" class="highcharts-point" opacity="1"></path><text x="21" style="color:#333333;cursor:pointer;font-size:12px;font-weight:bold;fill:#333333;" text-anchor="start" data-z-index="2" y="15"><tspan>Capaian</tspan></text></g><g class="highcharts-legend-item highcharts-line-series highcharts-color-undefined highcharts-series-1" data-z-index="1" transform="translate(92.34375,3)"><path fill="none" d="M 0 11 L 16 11" class="highcharts-graph" stroke="#FF0000" stroke-width="2"></path><path fill="#FF0000" d="M 8 7 L 12 11 L 8 15 L 4 11 Z" class="highcharts-point" opacity="1"></path><text x="21" y="15" style="color:#333333;cursor:pointer;font-size:12px;font-weight:bold;fill:#333333;" text-anchor="start" data-z-index="2"><tspan>Nilai Standar</tspan></text></g></g></g></g><g class="highcharts-axis-labels highcharts-xaxis-labels" data-z-index="7" aria-hidden="true"><text x="300" style="color:#666666;cursor:default;font-size:11px;fill:#666666;" transform="translate(0,0) rotate(1 300 49.99859081688627)" text-anchor="middle" y="49.99859081688627" opacity="1"><tspan>Kepercayaan Diri</tspan></text><text x="343.28243924498435" style="color:#666666;cursor:default;font-size:11px;fill:#666666;" transform="translate(0,0) rotate(1 343.28243924498435 57.5944703796392)" text-anchor="middle" y="57.5944703796392" opacity="0">Inisiatif</text><text x="381.87455460153274" style="color:#666666;cursor:default;font-size:11px;fill:#666666;" transform="translate(0,0) rotate(1 381.87455460153274 77.91077577040461)" text-anchor="start" y="77.91077577040461" opacity="1"><tspan>Dorongan Berprestasi</tspan></text><text x="411.5942915523951" style="color:#666666;cursor:default;font-size:11px;fill:#666666;" transform="translate(0,0) rotate(1 411.5942915523951 110.26673467792757)" text-anchor="start" y="110.26673467792757" opacity="1"><tspan>Berpikir Konseptual</tspan></text><text x="429.2210554497127" style="color:#666666;cursor:default;font-size:11px;fill:#666666;" transform="translate(0,0) rotate(1 429.2210554497127 150.41339523377172)" text-anchor="start" y="150.41339523377172" opacity="1"><tspan>Kemampuan Analisis</tspan></text><text x="432.84471291778914" style="color:#666666;cursor:default;font-size:11px;fill:#666666;" transform="translate(0,0) rotate(1 432.84471291778914 194.2308813717368)" text-anchor="start" y="194.2308813717368" opacity="1"><tspan>Kecerdasan Umum</tspan></text><text x="422.0725844431192" style="color:#666666;cursor:default;font-size:11px;fill:#666666;" transform="translate(0,0) rotate(1 422.0725844431192 236.7034718554506)" text-anchor="start" y="236.7034718554506" opacity="1"><tspan>Sistematika Berpikir</tspan></text><text x="398.0719972927285" style="color:#666666;cursor:default;font-size:11px;fill:#666666;" transform="translate(0,0) rotate(1 398.0719972927285 273.9535421960451)" text-anchor="start" y="273.9535421960451" opacity="1">Inisiatif</text><text x="363.44378749184193" style="color:#666666;cursor:default;font-size:11px;fill:#666666;" transform="translate(0,0) rotate(1 363.44378749184193 300.51839811940624)" text-anchor="start" y="300.51839811940624" opacity="1"><tspan>Daya Tahan Kerja</tspan></text><text x="321.94045888442184" style="color:#666666;cursor:default;font-size:11px;fill:#666666;" transform="translate(0,0) rotate(1 321.94045888442184 314.8429994522526)" text-anchor="start" y="314.8429994522526" opacity="1"><tspan>Ketelitian Kerja</tspan></text><text x="278.05954111557816" style="color:#666666;cursor:default;font-size:11px;fill:#666666;" transform="translate(0,0) rotate(1 278.05954111557816 314.34519682801414)" text-anchor="end" y="314.34519682801414" opacity="1"><tspan>Keterampilan Interpersonal</tspan></text><text x="236.5562125081581" style="color:#666666;cursor:default;font-size:11px;fill:#666666;" transform="translate(0,0) rotate(1 236.5562125081581 300.7053297539806)" text-anchor="end" y="300.7053297539806" opacity="1"><tspan>Daya Analisa</tspan></text><text x="201.92800270727156" style="color:#666666;cursor:default;font-size:11px;fill:#666666;" transform="translate(0,0) rotate(1 201.92800270727156 273.64239851253046)" text-anchor="end" y="273.64239851253046" opacity="1"><tspan>Logika Berpikir</tspan></text><text x="177.92741555688087" style="color:#666666;cursor:default;font-size:11px;fill:#666666;" transform="translate(0,0) rotate(1 177.92741555688087 236.76019217637187)" text-anchor="end" y="236.76019217637187" opacity="1"><tspan>Berpikir Sistematis</tspan></text><text x="167.1552870822109" style="color:#666666;cursor:default;font-size:11px;fill:#666666;" transform="translate(0,0) rotate(1 167.1552870822109 194.28841977420979)" text-anchor="end" y="194.28841977420979" opacity="1"><tspan>Sistematika Kerja</tspan></text><text x="170.77894455028724" style="color:#666666;cursor:default;font-size:11px;fill:#666666;" transform="translate(0,0) rotate(1 170.77894455028724 150.5613316477128)" text-anchor="end" y="150.5613316477128" opacity="1"><tspan>Daya Tahan Kerja</tspan></text><text x="188.40570844760492" style="color:#666666;cursor:default;font-size:11px;fill:#666666;" transform="translate(0,0) rotate(1 188.40570844760492 110.45939288336419)" text-anchor="end" y="110.45939288336419" opacity="1">Kepemimpinan</text><text x="218.12544539846726" style="color:#666666;cursor:default;font-size:11px;fill:#666666;" transform="translate(0,0) rotate(1 218.12544539846726 77.91077577040463)" text-anchor="end" y="77.91077577040463" opacity="1"><tspan>Dorongan Berprestasi</tspan></text><text x="256.71756075501565" style="color:#666666;cursor:default;font-size:11px;fill:#666666;" transform="translate(0,0) rotate(1 256.71756075501565 57.25660269876741)" text-anchor="end" y="57.25660269876741" opacity="1"><tspan>Tanggung Jawab</tspan></text><text x="0" style="color:#666666;cursor:default;font-size:11px;fill:#666666;" transform="translate(0,0) rotate(1 0 -9999)" text-anchor="middle" y="-9999">19</text></g><g class="highcharts-axis-labels highcharts-yaxis-labels" data-z-index="7" aria-hidden="true"></g></g></svg>