<svg height="400" width="600" version="1.1" xmlns="http://www.w3.org/2000/svg"><g transform="translate(0,0)"  xmlns:xlink="http://www.w3.org/1999/xlink" version="1.1" class="highcharts-root" style="font-family:&quot;Lucida Grande&quot;, &quot;Lucida Sans Unicode&quot;, Arial, Helvetica, sans-serif;font-size:12px;" xmlns="http://www.w3.org/2000/svg" width="600" height="400" viewBox="0 0 600 400" aria-hidden="false" aria-label="Interactive chart"><desc aria-hidden="true">Created with Highcharts 8.1.2</desc><defs aria-hidden="true"><clipPath id="highcharts-yk4rnqy-70-"><rect x="0" y="0" width="580" height="336" fill="none"></rect></clipPath><clipPath id="highcharts-yk4rnqy-83"><circle cx="290" cy="168" r="117.6"></circle></clipPath><clipPath id="highcharts-yk4rnqy-96"><circle cx="290" cy="168" r="117.6"></circle></clipPath></defs><rect fill="#ffffff" class="highcharts-background" x="0" y="0" width="600" height="400" rx="0" ry="0" aria-hidden="true"></rect><rect fill="none" class="highcharts-plot-background" x="10" y="10" width="580" height="336" aria-hidden="true"></rect><g class="highcharts-pane-group" data-z-index="0" aria-hidden="true"></g><g class="highcharts-grid highcharts-xaxis-grid" data-z-index="1" aria-hidden="true"><path fill="none" stroke="#e6e6e6" stroke-width="1" data-z-index="1" class="highcharts-grid-line" d="M 300 178 L 300 60.400000000000006" opacity="1"></path><path fill="none" stroke="#e6e6e6" stroke-width="1" data-z-index="1" class="highcharts-grid-line" d="M 300 178 L 363.5793601327783 79.0685845390531" opacity="1"></path><path fill="none" stroke="#e6e6e6" stroke-width="1" data-z-index="1" class="highcharts-grid-line" d="M 300 178 L 406.97272265369133 129.14719447097815" opacity="1"></path><path fill="none" stroke="#e6e6e6" stroke-width="1" data-z-index="1" class="highcharts-grid-line" d="M 300 178 L 416.4030015651977 194.73622498093832" opacity="1"></path><path fill="none" stroke="#e6e6e6" stroke-width="1" data-z-index="1" class="highcharts-grid-line" d="M 300 178 L 388.8761499440608 255.01162231196554" opacity="1"></path><path fill="none" stroke="#e6e6e6" stroke-width="1" data-z-index="1" class="highcharts-grid-line" d="M 300 178 L 333.1317486845521 290.8363736970649" opacity="1"></path><path fill="none" stroke="#e6e6e6" stroke-width="1" data-z-index="1" class="highcharts-grid-line" d="M 300 178 L 266.8682513154479 290.8363736970649" opacity="1"></path><path fill="none" stroke="#e6e6e6" stroke-width="1" data-z-index="1" class="highcharts-grid-line" d="M 300 178 L 211.12385005593924 255.01162231196554" opacity="1"></path><path fill="none" stroke="#e6e6e6" stroke-width="1" data-z-index="1" class="highcharts-grid-line" d="M 300 178 L 183.59699843480232 194.73622498093835" opacity="1"></path><path fill="none" stroke="#e6e6e6" stroke-width="1" data-z-index="1" class="highcharts-grid-line" d="M 300 178 L 193.0272773463086 129.1471944709782" opacity="1"></path><path fill="none" stroke="#e6e6e6" stroke-width="1" data-z-index="1" class="highcharts-grid-line" d="M 300 178 L 236.42063986722175 79.06858453905308" opacity="1"></path><path fill="none" stroke="#e6e6e6" stroke-width="1" data-z-index="1" class="highcharts-grid-line" d="M 300 178 L 300 60.400000000000006" opacity="1"></path></g><g class="highcharts-grid highcharts-yaxis-grid" data-z-index="1" aria-hidden="true"><path fill="none" stroke="#e6e6e6" stroke-width="1" data-z-index="1" class="highcharts-grid-line" d="M 300 178 L 300 178 L 300 178 L 300 178 L 300 178 L 300 178 L 300 178 L 300 178 L 300 178 L 300 178 L 300 178 L 300 178 L 300 178" opacity="1"></path><path fill="none" stroke="#e6e6e6" stroke-width="1" data-z-index="1" class="highcharts-grid-line" d="M 300 138.8 L 321.19312004425944 145.0228615130177 L 335.65757421789715 161.71573149032605 L 338.8010005217326 183.57874166031277 L 329.6253833146869 203.67054077065518 L 311.04391622818406 215.6121245656883 L 288.95608377181594 215.6121245656883 L 270.3746166853131 203.67054077065518 L 261.19899947826747 183.57874166031277 L 264.34242578210285 161.71573149032608 L 278.80687995574056 145.0228615130177 L 300 138.8 L 300 138.8" opacity="1"></path><path fill="none" stroke="#e6e6e6" stroke-width="1" data-z-index="1" class="highcharts-grid-line" d="M 300 99.60000000000001 L 342.38624008851883 112.0457230260354 L 371.31514843579424 145.4314629806521 L 377.6020010434651 189.15748332062554 L 359.25076662937386 229.34108154131036 L 322.08783245636806 253.2242491313766 L 277.91216754363194 253.2242491313766 L 240.74923337062617 229.34108154131036 L 222.39799895653488 189.15748332062554 L 228.68485156420576 145.43146298065213 L 257.61375991148117 112.04572302603539 L 300 99.60000000000001 L 300 99.60000000000001" opacity="1"></path><path fill="none" stroke="#e6e6e6" stroke-width="1" data-z-index="1" class="highcharts-grid-line" d="M 300 60.400000000000006 L 363.5793601327783 79.0685845390531 L 406.97272265369133 129.14719447097815 L 416.4030015651977 194.73622498093832 L 388.8761499440608 255.01162231196554 L 333.1317486845521 290.8363736970649 L 266.8682513154479 290.8363736970649 L 211.12385005593924 255.01162231196554 L 183.59699843480232 194.73622498093835 L 193.0272773463086 129.1471944709782 L 236.42063986722175 79.06858453905308 L 300 60.400000000000006 L 300 60.400000000000006" opacity="1"></path></g><rect fill="none" class="highcharts-plot-border" data-z-index="1" x="10" y="10" width="580" height="336" aria-hidden="true"></rect><g class="highcharts-axis highcharts-xaxis" data-z-index="2" aria-hidden="true"><path fill="none" class="highcharts-axis-line" data-z-index="7" d="M 300 60.400000000000006 A 117.6 117.6 0 1 1 299.8824000195999 60.40005879999511 M 300 178 A 0 0 0 1 0 300 178"></path></g><g class="highcharts-axis highcharts-yaxis" data-z-index="2" aria-hidden="true"><path fill="none" class="highcharts-axis-line" data-z-index="7" d="M 300 178 L 300 60.400000000000006"></path></g><g class="highcharts-series-group" data-z-index="3" aria-hidden="false"><g class="highcharts-series highcharts-series-0 highcharts-line-series" data-z-index="0.1" opacity="1" transform="translate(10,10) scale(1 1)" clip-path="url(#highcharts-yk4rnqy-83)" aria-hidden="true"><path fill="none" d="M 290 89.60000000000001 L 332.3862400885186 102.04572302603526 L 339.02916454960837 145.609130799198 L 348.2015007825985 176.3681124904715 L 319.62538331468727 193.67054077065478 L 301.0439162281828 205.61212456568865 L 274.814615186248 219.7166712778217 L 249.26509794230452 203.29699355964976 L 251.19899947826758 173.57874166031382 L 236.51363867315482 143.57359723548802 L 260.8594599391418 122.65643458040029 L 290 89.60000000000001" class="highcharts-graph" data-z-index="1" stroke="#0F0" stroke-width="2" stroke-linejoin="round" stroke-linecap="round"></path></g><g class="highcharts-markers highcharts-series-0 highcharts-line-series" data-z-index="0.1" opacity="1" transform="translate(10,10) scale(1 1)" clip-path="none" aria-hidden="false" role="region" tabindex="-1" aria-label="Capaian, line 1 of 2 with 11 data points." style="outline: 0px;"><path fill="#0F0" d="M 290 94 A 4 4 0 1 1 290.00399999933336 93.99999800000016 Z" opacity="1" class="highcharts-point" tabindex="-1" role="img" aria-label="1. Daya Analisa, 4. Capaian." style="outline: 0px;"></path><path fill="#0F0" d="M 332 106 A 4 4 0 1 1 332.00399999933336 105.99999800000016 Z" opacity="1" class="highcharts-point" tabindex="-1" role="img" aria-label="2. Logika Berpikir, 4. Capaian." style="outline: 0px;"></path><path fill="#0F0" d="M 339 150 A 4 4 0 1 1 339.00399999933336 149.99999800000018 Z" opacity="1" class="highcharts-point" tabindex="-1" role="img" aria-label="3. Sistematika Kerja, 2.75. Capaian." style="outline: 0px;"></path><path fill="#0F0" d="M 348 180 A 4 4 0 1 1 348.00399999933336 179.99999800000018 Z" opacity="1" class="highcharts-point" tabindex="-1" role="img" aria-label="4. Inisiatif, 3. Capaian." style="outline: 0px;"></path><path fill="#0F0" d="M 319 198 A 4 4 0 1 1 319.00399999933336 197.99999800000018 Z" opacity="1" class="highcharts-point" tabindex="-1" role="img" aria-label="5. Daya Tahan Kerja, 2. Capaian." style="outline: 0px;"></path><path fill="#0F0" d="M 301 210 A 4 4 0 1 1 301.00399999933336 209.99999800000018 Z" opacity="1" class="highcharts-point" tabindex="-1" role="img" aria-label="6. Kepemimpinan, 2. Capaian." style="outline: 0px;"></path><path fill="#0F0" d="M 274 224 A 4 4 0 1 1 274.00399999933336 223.99999800000018 Z" opacity="1" class="highcharts-point" tabindex="-1" role="img" aria-label="7. Dorongan Berprestasi, 2.75. Capaian." style="outline: 0px;"></path><path fill="#0F0" d="M 249 207 A 4 4 0 1 1 249.00399999933333 206.99999800000018 Z" opacity="1" class="highcharts-point" tabindex="-1" role="img" aria-label="8. Tanggung Jawab, 2.75. Capaian." style="outline: 0px;"></path><path fill="#0F0" d="M 251 178 A 4 4 0 1 1 251.00399999933333 177.99999800000018 Z" opacity="1" class="highcharts-point" tabindex="-1" role="img" aria-label="9. Keterampilan Interpersonal, 2. Capaian." style="outline: 0px;"></path><path fill="#0F0" d="M 236 148 A 4 4 0 1 1 236.00399999933333 147.99999800000018 Z" opacity="1" class="highcharts-point" tabindex="-1" role="img" aria-label="10. Kepercayaan Diri, 3. Capaian." style="outline: 0px;"></path><path fill="#0F0" d="M 260 127 A 4 4 0 1 1 260.00399999933336 126.99999800000016 Z" opacity="1" class="highcharts-point" tabindex="-1" role="img" aria-label="11. Stabilitas Emosi, 2.75. Capaian." style="outline: 0px;"></path></g><g class="highcharts-series highcharts-series-1 highcharts-line-series" data-z-index="0.1" opacity="1" transform="translate(10,10) scale(1 1)" clip-path="url(#highcharts-yk4rnqy-96)" aria-hidden="true"><path fill="none" d="M 290 109.2 L 321.789680066389 118.53429226952645 L 343.4863613268455 143.57359723548873 L 348.2015007825985 176.3681124904715 L 334.4380749720309 206.50581115598217 L 306.5658743422742 224.418186848533 L 273.4341256577251 224.41818684853277 L 245.56192502796858 206.50581115598158 L 231.7984992174014 176.3681124904707 L 236.51363867315482 143.57359723548802 L 258.21031993360924 118.53429226952758 L 290 109.2" class="highcharts-graph" data-z-index="1" stroke="#FF0000" stroke-width="2" stroke-linejoin="round" stroke-linecap="round"></path></g><g class="highcharts-markers highcharts-series-1 highcharts-line-series" data-z-index="0.1" opacity="1" transform="translate(10,10) scale(1 1)" clip-path="none" aria-hidden="false" role="region" tabindex="-1" aria-label="Nilai Standar, line 2 of 2 with 11 data points." style="outline: 0px;"><path fill="#FF0000" d="M 290 105 L 294 109 L 290 113 L 286 109 Z" opacity="1" class="highcharts-point" tabindex="-1" role="img" aria-label="1. Daya Analisa, 3. Nilai Standar." style="outline: 0px;"></path><path fill="#FF0000" d="M 321 115 L 325 119 L 321 123 L 317 119 Z" opacity="1" class="highcharts-point" tabindex="-1" role="img" aria-label="2. Logika Berpikir, 3. Nilai Standar." style="outline: 0px;"></path><path fill="#FF0000" d="M 343 140 L 347 144 L 343 148 L 339 144 Z" opacity="1" class="highcharts-point" tabindex="-1" role="img" aria-label="3. Sistematika Kerja, 3. Nilai Standar." style="outline: 0px;"></path><path fill="#FF0000" d="M 348 172 L 352 176 L 348 180 L 344 176 Z" opacity="1" class="highcharts-point" tabindex="-1" role="img" aria-label="4. Inisiatif, 3. Nilai Standar." style="outline: 0px;"></path><path fill="#FF0000" d="M 334 203 L 338 207 L 334 211 L 330 207 Z" opacity="1" class="highcharts-point" tabindex="-1" role="img" aria-label="5. Daya Tahan Kerja, 3. Nilai Standar." style="outline: 0px;"></path><path fill="#FF0000" d="M 306 220 L 310 224 L 306 228 L 302 224 Z" opacity="1" class="highcharts-point" tabindex="-1" role="img" aria-label="6. Kepemimpinan, 3. Nilai Standar." style="outline: 0px;"></path><path fill="#FF0000" d="M 273 220 L 277 224 L 273 228 L 269 224 Z" opacity="1" class="highcharts-point" tabindex="-1" role="img" aria-label="7. Dorongan Berprestasi, 3. Nilai Standar." style="outline: 0px;"></path><path fill="#FF0000" d="M 245 203 L 249 207 L 245 211 L 241 207 Z" opacity="1" class="highcharts-point" tabindex="-1" role="img" aria-label="8. Tanggung Jawab, 3. Nilai Standar." style="outline: 0px;"></path><path fill="#FF0000" d="M 231 172 L 235 176 L 231 180 L 227 176 Z" opacity="1" class="highcharts-point" tabindex="-1" role="img" aria-label="9. Keterampilan Interpersonal, 3. Nilai Standar." style="outline: 0px;"></path><path fill="#FF0000" d="M 236 140 L 240 144 L 236 148 L 232 144 Z" opacity="1" class="highcharts-point" tabindex="-1" role="img" aria-label="10. Kepercayaan Diri, 3. Nilai Standar." style="outline: 0px;"></path><path fill="#FF0000" d="M 258 115 L 262 119 L 258 123 L 254 119 Z" opacity="1" class="highcharts-point" tabindex="-1" role="img" aria-label="11. Stabilitas Emosi, 3. Nilai Standar." style="outline: 0px;"></path></g></g><text x="220" text-anchor="middle" class="highcharts-title" data-z-index="4" style="color:#333333;font-size:18px;fill:#333333;" y="24" aria-hidden="true"></text><text x="300" text-anchor="middle" class="highcharts-subtitle" data-z-index="4" style="color:#666666;fill:#666666;" y="25" aria-hidden="true"></text><text x="10" text-anchor="start" class="highcharts-caption" data-z-index="4" style="color:#666666;fill:#666666;" y="398" aria-hidden="true"></text><g class="highcharts-data-labels highcharts-series-0 highcharts-line-series" data-z-index="6" opacity="1" transform="translate(10,10) scale(1 1)" aria-hidden="true"><g class="highcharts-label highcharts-data-label highcharts-data-label-color-undefined" data-z-index="1" transform="translate(281,64)"><text x="5" data-z-index="1" y="16" style="color:#000000;font-size:11px;font-weight:bold;fill:#000000;"><tspan x="5" y="16" class="highcharts-text-outline" fill="#FFFFFF" stroke="#FFFFFF" stroke-width="2px" stroke-linejoin="round" style="">4</tspan><tspan x="5" y="16">4</tspan></text></g><g class="highcharts-label highcharts-data-label highcharts-data-label-color-undefined" data-z-index="1" transform="translate(323,76)"><text x="5" data-z-index="1" y="16" style="color:#000000;font-size:11px;font-weight:bold;fill:#000000;"><tspan x="5" y="16" class="highcharts-text-outline" fill="#FFFFFF" stroke="#FFFFFF" stroke-width="2px" stroke-linejoin="round">4</tspan><tspan x="5" y="16">4</tspan></text></g><g class="highcharts-label highcharts-data-label highcharts-data-label-color-undefined" data-z-index="1" transform="translate(319,120)"><text x="5" data-z-index="1" y="16" style="color:#000000;font-size:11px;font-weight:bold;fill:#000000;"><tspan x="5" y="16" class="highcharts-text-outline" fill="#FFFFFF" stroke="#FFFFFF" stroke-width="2px" stroke-linejoin="round" style="">2.75</tspan><tspan x="5" y="16">2.75</tspan></text></g><g class="highcharts-label highcharts-data-label highcharts-data-label-color-undefined" data-z-index="1" transform="translate(339,150)"><text x="5" data-z-index="1" y="16" style="color:#000000;font-size:11px;font-weight:bold;fill:#000000;"><tspan x="5" y="16" class="highcharts-text-outline" fill="#FFFFFF" stroke="#FFFFFF" stroke-width="2px" stroke-linejoin="round">3</tspan><tspan x="5" y="16">3</tspan></text></g><g class="highcharts-label highcharts-data-label highcharts-data-label-color-undefined" data-z-index="1" transform="translate(310,168)"><text x="5" data-z-index="1" y="16" style="color:#000000;font-size:11px;font-weight:bold;fill:#000000;"><tspan x="5" y="16" class="highcharts-text-outline" fill="#FFFFFF" stroke="#FFFFFF" stroke-width="2px" stroke-linejoin="round">2</tspan><tspan x="5" y="16">2</tspan></text></g><g class="highcharts-label highcharts-data-label highcharts-data-label-color-undefined" data-z-index="1" transform="translate(292,180)"><text x="5" data-z-index="1" y="16" style="color:#000000;font-size:11px;font-weight:bold;fill:#000000;"><tspan x="5" y="16" class="highcharts-text-outline" fill="#FFFFFF" stroke="#FFFFFF" stroke-width="2px" stroke-linejoin="round">2</tspan><tspan x="5" y="16">2</tspan></text></g><g class="highcharts-label highcharts-data-label highcharts-data-label-color-undefined" data-z-index="1" transform="translate(255,194)"><text x="5" data-z-index="1" y="16" style="color:#000000;font-size:11px;font-weight:bold;fill:#000000;"><tspan x="5" y="16" class="highcharts-text-outline" fill="#FFFFFF" stroke="#FFFFFF" stroke-width="2px" stroke-linejoin="round">2.75</tspan><tspan x="5" y="16">2.75</tspan></text></g><g class="highcharts-label highcharts-data-label highcharts-data-label-color-undefined" data-z-index="1" transform="translate(229,177)"><text x="5" data-z-index="1" y="16" style="color:#000000;font-size:11px;font-weight:bold;fill:#000000;"><tspan x="5" y="16" class="highcharts-text-outline" fill="#FFFFFF" stroke="#FFFFFF" stroke-width="2px" stroke-linejoin="round">2.75</tspan><tspan x="5" y="16">2.75</tspan></text></g><g class="highcharts-label highcharts-data-label highcharts-data-label-color-undefined" data-z-index="1" transform="translate(242,148)"><text x="5" data-z-index="1" y="16" style="color:#000000;font-size:11px;font-weight:bold;fill:#000000;"><tspan x="5" y="16" class="highcharts-text-outline" fill="#FFFFFF" stroke="#FFFFFF" stroke-width="2px" stroke-linejoin="round">2</tspan><tspan x="5" y="16">2</tspan></text></g><g class="highcharts-label highcharts-data-label highcharts-data-label-color-undefined" data-z-index="1" transform="translate(227,118)"><text x="5" data-z-index="1" y="16" style="color:#000000;font-size:11px;font-weight:bold;fill:#000000;"><tspan x="5" y="16" class="highcharts-text-outline" fill="#FFFFFF" stroke="#FFFFFF" stroke-width="2px" stroke-linejoin="round">3</tspan><tspan x="5" y="16">3</tspan></text></g><g class="highcharts-label highcharts-data-label highcharts-data-label-color-undefined" data-z-index="1" transform="translate(241,97)"><text x="5" data-z-index="1" y="16" style="color:#000000;font-size:11px;font-weight:bold;fill:#000000;"><tspan x="5" y="16" class="highcharts-text-outline" fill="#FFFFFF" stroke="#FFFFFF" stroke-width="2px" stroke-linejoin="round">2.75</tspan><tspan x="5" y="16">2.75</tspan></text></g></g><g class="highcharts-data-labels highcharts-series-1 highcharts-line-series" data-z-index="6" opacity="1" transform="translate(10,10) scale(1 1)" aria-hidden="true"><g class="highcharts-label highcharts-data-label highcharts-data-label-color-undefined" data-z-index="1" transform="translate(281,83)"><text x="5" data-z-index="1" y="16" style="color:#000000;font-size:11px;font-weight:bold;fill:#000000;"><tspan x="5" y="16" class="highcharts-text-outline" fill="#FFFFFF" stroke="#FFFFFF" stroke-width="2px" stroke-linejoin="round">3</tspan><tspan x="5" y="16">3</tspan></text></g><g class="highcharts-label highcharts-data-label highcharts-data-label-color-undefined" data-z-index="1" transform="translate(312,93)"><text x="5" data-z-index="1" y="16" style="color:#000000;font-size:11px;font-weight:bold;fill:#000000;"><tspan x="5" y="16" class="highcharts-text-outline" fill="#FFFFFF" stroke="#FFFFFF" stroke-width="2px" stroke-linejoin="round">3</tspan><tspan x="5" y="16">3</tspan></text></g><g class="highcharts-label highcharts-data-label highcharts-data-label-color-undefined highcharts-data-label-hidden" data-z-index="1" transform="translate(334,118)" opacity="0" style="pointer-events:none;"><text x="5" data-z-index="1" y="16" style="color:#000000;font-size:11px;font-weight:bold;fill:#000000;"><tspan x="5" y="16" class="highcharts-text-outline" fill="#FFFFFF" stroke="#FFFFFF" stroke-width="2px" stroke-linejoin="round">3</tspan><tspan x="5" y="16">3</tspan></text></g><g class="highcharts-label highcharts-data-label highcharts-data-label-color-undefined highcharts-data-label-hidden" data-z-index="1" transform="translate(339,150)" opacity="0" style="pointer-events:none;"><text x="5" data-z-index="1" y="16" style="color:#000000;font-size:11px;font-weight:bold;fill:#000000;"><tspan x="5" y="16" class="highcharts-text-outline" fill="#FFFFFF" stroke="#FFFFFF" stroke-width="2px" stroke-linejoin="round">3</tspan><tspan x="5" y="16">3</tspan></text></g><g class="highcharts-label highcharts-data-label highcharts-data-label-color-undefined" data-z-index="1" transform="translate(325,181)"><text x="5" data-z-index="1" y="16" style="color:#000000;font-size:11px;font-weight:bold;fill:#000000;"><tspan x="5" y="16" class="highcharts-text-outline" fill="#FFFFFF" stroke="#FFFFFF" stroke-width="2px" stroke-linejoin="round">3</tspan><tspan x="5" y="16">3</tspan></text></g><g class="highcharts-label highcharts-data-label highcharts-data-label-color-undefined" data-z-index="1" transform="translate(297,198)"><text x="5" data-z-index="1" y="16" style="color:#000000;font-size:11px;font-weight:bold;fill:#000000;"><tspan x="5" y="16" class="highcharts-text-outline" fill="#FFFFFF" stroke="#FFFFFF" stroke-width="2px" stroke-linejoin="round">3</tspan><tspan x="5" y="16">3</tspan></text></g><g class="highcharts-label highcharts-data-label highcharts-data-label-color-undefined highcharts-data-label-hidden" data-z-index="1" transform="translate(264,198)" opacity="0" style="pointer-events:none;"><text x="5" data-z-index="1" y="16" style="color:#000000;font-size:11px;font-weight:bold;fill:#000000;"><tspan x="5" y="16" class="highcharts-text-outline" fill="#FFFFFF" stroke="#FFFFFF" stroke-width="2px" stroke-linejoin="round">3</tspan><tspan x="5" y="16">3</tspan></text></g><g class="highcharts-label highcharts-data-label highcharts-data-label-color-undefined highcharts-data-label-hidden" data-z-index="1" transform="translate(236,181)" opacity="0" style="pointer-events:none;"><text x="5" data-z-index="1" y="16" style="color:#000000;font-size:11px;font-weight:bold;fill:#000000;"><tspan x="5" y="16" class="highcharts-text-outline" fill="#FFFFFF" stroke="#FFFFFF" stroke-width="2px" stroke-linejoin="round">3</tspan><tspan x="5" y="16">3</tspan></text></g><g class="highcharts-label highcharts-data-label highcharts-data-label-color-undefined" data-z-index="1" transform="translate(222,150)"><text x="5" data-z-index="1" y="16" style="color:#000000;font-size:11px;font-weight:bold;fill:#000000;"><tspan x="5" y="16" class="highcharts-text-outline" fill="#FFFFFF" stroke="#FFFFFF" stroke-width="2px" stroke-linejoin="round">3</tspan><tspan x="5" y="16">3</tspan></text></g><g class="highcharts-label highcharts-data-label highcharts-data-label-color-undefined highcharts-data-label-hidden" data-z-index="1" transform="translate(227,118)" opacity="0" style="pointer-events:none;"><text x="5" data-z-index="1" y="16" style="color:#000000;font-size:11px;font-weight:bold;fill:#000000;"><tspan x="5" y="16" class="highcharts-text-outline" fill="#FFFFFF" stroke="#FFFFFF" stroke-width="2px" stroke-linejoin="round">3</tspan><tspan x="5" y="16">3</tspan></text></g><g class="highcharts-label highcharts-data-label highcharts-data-label-color-undefined highcharts-data-label-hidden" data-z-index="1" transform="translate(249,93)" opacity="0" style="pointer-events:none;"><text x="5" data-z-index="1" y="16" style="color:#000000;font-size:11px;font-weight:bold;fill:#000000;"><tspan x="5" y="16" class="highcharts-text-outline" fill="#FFFFFF" stroke="#FFFFFF" stroke-width="2px" stroke-linejoin="round">3</tspan><tspan x="5" y="16">3</tspan></text></g></g><g class="highcharts-legend" data-z-index="7" transform="translate(191,358)" aria-hidden="true"><rect fill="none" class="highcharts-legend-box" rx="0" ry="0" x="0" y="0" width="218" height="27" visibility="visible"></rect><g data-z-index="1"><g><g class="highcharts-legend-item highcharts-line-series highcharts-color-undefined highcharts-series-0" data-z-index="1" transform="translate(8,3)"><path fill="none" d="M 0 11 L 16 11" class="highcharts-graph" stroke="#0F0" stroke-width="2"></path><path fill="#0F0" d="M 8 15 A 4 4 0 1 1 8.003999999333336 14.999998000000167 Z" class="highcharts-point" opacity="1"></path><text x="21" style="color:#333333;cursor:pointer;font-size:12px;font-weight:bold;fill:#333333;" text-anchor="start" data-z-index="2" y="15"><tspan>Capaian</tspan></text></g><g class="highcharts-legend-item highcharts-line-series highcharts-color-undefined highcharts-series-1" data-z-index="1" transform="translate(102.796875,3)"><path fill="none" d="M 0 11 L 16 11" class="highcharts-graph" stroke="#FF0000" stroke-width="2"></path><path fill="#FF0000" d="M 8 7 L 12 11 L 8 15 L 4 11 Z" class="highcharts-point" opacity="1"></path><text x="21" y="15" style="color:#333333;cursor:pointer;font-size:12px;font-weight:bold;fill:#333333;" text-anchor="start" data-z-index="2"><tspan>Nilai Standar</tspan></text></g></g></g></g><g class="highcharts-axis-labels highcharts-xaxis-labels" data-z-index="7" aria-hidden="true"><text x="300" style="color:#666666;cursor:default;font-size:11px;fill:#666666;" transform="translate(0,0) rotate(1 300 47.74700432069166)" text-anchor="middle" y="47.74700432069166" opacity="1"><tspan>Daya Analisa</tspan></text><text x="371.6889723946123" style="color:#666666;cursor:default;font-size:11px;fill:#666666;" transform="translate(0,0) rotate(1 371.6889723946123 68.69246568963555)" text-anchor="start" y="68.69246568963555" opacity="1"><tspan>Logika Berpikir</tspan></text><text x="420.61720258400914" style="color:#666666;cursor:default;font-size:11px;fill:#666666;" transform="translate(0,0) rotate(1 420.61720258400914 125.03202347570776)" text-anchor="start" y="125.03202347570776" opacity="1"><tspan>Sistematika Kerja</tspan></text><text x="431.25032319341165" style="color:#666666;cursor:default;font-size:11px;fill:#666666;" transform="translate(0,0) rotate(1 431.25032319341165 201.04812211063708)" text-anchor="start" y="201.04812211063708" opacity="1">Inisiatif</text><text x="400.2123935593746" style="color:#666666;cursor:default;font-size:11px;fill:#666666;" transform="translate(0,0) rotate(1 400.2123935593746 266.9380436037759)" text-anchor="start" y="266.9380436037759" opacity="1"><tspan>Daya Tahan Kerja</tspan></text><text x="337.3577370371736" style="color:#666666;cursor:default;font-size:11px;fill:#666666;" transform="translate(0,0) rotate(1 337.3577370371736 309.1062437934088)" text-anchor="start" y="309.1062437934088" opacity="1">Kepemimpinan</text><text x="262.64226296282646" style="color:#666666;cursor:default;font-size:11px;fill:#666666;" transform="translate(0,0) rotate(1 262.64226296282646 307.12244066589017)" text-anchor="end" y="307.12244066589017" opacity="1"><tspan>Dorongan Berprestasi</tspan></text><text x="199.78760644062538" style="color:#666666;cursor:default;font-size:11px;fill:#666666;" transform="translate(0,0) rotate(1 199.78760644062538 266.96749453963884)" text-anchor="end" y="266.96749453963884" opacity="1"><tspan>Tanggung Jawab</tspan></text><text x="168.74967680658833" style="color:#666666;cursor:default;font-size:11px;fill:#666666;" transform="translate(0,0) rotate(1 168.74967680658833 198.4823817842925)" text-anchor="end" y="198.4823817842925" opacity="1"><tspan>Keterampilan Interpersonal</tspan></text><text x="179.38279741599086" style="color:#666666;cursor:default;font-size:11px;fill:#666666;" transform="translate(0,0) rotate(1 179.38279741599086 125.05697496303611)" text-anchor="end" y="125.05697496303611" opacity="1"><tspan>Kepercayaan Diri</tspan></text><text x="228.31102760538778" style="color:#666666;cursor:default;font-size:11px;fill:#666666;" transform="translate(0,0) rotate(1 228.31102760538778 68.64887102384564)" text-anchor="end" y="68.64887102384564" opacity="1"><tspan>Stabilitas Emosi</tspan></text><text x="0" style="color:#666666;cursor:default;font-size:11px;fill:#666666;" transform="translate(0,0) rotate(1 0 -9999)" text-anchor="middle" y="-9999">11</text></g><g class="highcharts-axis-labels highcharts-yaxis-labels" data-z-index="7" aria-hidden="true"></g></g></svg>