<svg height="400" width="600" version="1.1" xmlns="http://www.w3.org/2000/svg"><g transform="translate(0,0)"  xmlns:xlink="http://www.w3.org/1999/xlink" version="1.1" class="highcharts-root" style="font-family:&quot;Lucida Grande&quot;, &quot;Lucida Sans Unicode&quot;, Arial, Helvetica, sans-serif;font-size:12px;" xmlns="http://www.w3.org/2000/svg" width="600" height="400" viewBox="0 0 600 400" aria-hidden="false" aria-label="Interactive chart"><desc aria-hidden="true">Created with Highcharts 8.1.2</desc><defs aria-hidden="true"><clipPath id="highcharts-73d548k-68-"><rect x="0" y="0" width="454" height="375" fill="none"></rect></clipPath><clipPath id="highcharts-73d548k-80"><circle cx="227" cy="187.5" r="150"></circle></clipPath><clipPath id="highcharts-73d548k-92"><circle cx="227" cy="187.5" r="150"></circle></clipPath></defs><rect fill="#ffffff" class="highcharts-background" x="0" y="0" width="600" height="400" rx="0" ry="0" aria-hidden="true"></rect><rect fill="none" class="highcharts-plot-background" x="10" y="10" width="454" height="375" aria-hidden="true"></rect><g class="highcharts-pane-group" data-z-index="0" aria-hidden="true"></g><g class="highcharts-grid highcharts-xaxis-grid" data-z-index="1" aria-hidden="true"><path fill="none" stroke="#e6e6e6" stroke-width="1" data-z-index="1" class="highcharts-grid-line" d="M 237 197.5 L 237 47.5" opacity="1"></path><path fill="none" stroke="#e6e6e6" stroke-width="1" data-z-index="1" class="highcharts-grid-line" d="M 237 197.5 L 325.167787843871 76.14745084375788" opacity="1"></path><path fill="none" stroke="#e6e6e6" stroke-width="1" data-z-index="1" class="highcharts-grid-line" d="M 237 197.5 L 379.658477444273 151.1474508437579" opacity="1"></path><path fill="none" stroke="#e6e6e6" stroke-width="1" data-z-index="1" class="highcharts-grid-line" d="M 237 197.5 L 379.658477444273 243.8525491562421" opacity="1"></path><path fill="none" stroke="#e6e6e6" stroke-width="1" data-z-index="1" class="highcharts-grid-line" d="M 237 197.5 L 325.167787843871 318.8525491562421" opacity="1"></path><path fill="none" stroke="#e6e6e6" stroke-width="1" data-z-index="1" class="highcharts-grid-line" d="M 237 197.5 L 237 347.5" opacity="1"></path><path fill="none" stroke="#e6e6e6" stroke-width="1" data-z-index="1" class="highcharts-grid-line" d="M 237 197.5 L 148.83221215612906 318.8525491562421" opacity="1"></path><path fill="none" stroke="#e6e6e6" stroke-width="1" data-z-index="1" class="highcharts-grid-line" d="M 237 197.5 L 94.34152255572698 243.85254915624213" opacity="1"></path><path fill="none" stroke="#e6e6e6" stroke-width="1" data-z-index="1" class="highcharts-grid-line" d="M 237 197.5 L 94.34152255572695 151.1474508437579" opacity="1"></path><path fill="none" stroke="#e6e6e6" stroke-width="1" data-z-index="1" class="highcharts-grid-line" d="M 237 197.5 L 148.832212156129 76.1474508437579" opacity="1"></path><path fill="none" stroke="#e6e6e6" stroke-width="1" data-z-index="1" class="highcharts-grid-line" d="M 237 197.5 L 236.99999999999997 47.5" opacity="1"></path></g><g class="highcharts-grid highcharts-yaxis-grid" data-z-index="1" aria-hidden="true"><path fill="none" stroke="#e6e6e6" stroke-width="1" data-z-index="1" class="highcharts-grid-line" d="M 237 197.5 L 237 197.5 L 237 197.5 L 237 197.5 L 237 197.5 L 237 197.5 L 237 197.5 L 237 197.5 L 237 197.5 L 237 197.5 L 237 197.5 L 237 197.5" opacity="1"></path><path fill="none" stroke="#e6e6e6" stroke-width="1" data-z-index="1" class="highcharts-grid-line" d="M 237 147.5 L 266.38926261462365 157.04915028125262 L 284.5528258147577 182.04915028125262 L 284.5528258147577 212.95084971874738 L 266.38926261462365 237.95084971874738 L 237 247.5 L 207.61073738537635 237.95084971874738 L 189.44717418524232 212.95084971874738 L 189.44717418524232 182.04915028125265 L 207.61073738537635 157.04915028125265 L 237 147.5 L 237 147.5" opacity="1"></path><path fill="none" stroke="#e6e6e6" stroke-width="1" data-z-index="1" class="highcharts-grid-line" d="M 237 97.5 L 295.7785252292473 116.59830056250526 L 332.10565162951536 166.59830056250527 L 332.10565162951536 228.40169943749473 L 295.7785252292473 278.40169943749476 L 237 297.5 L 178.2214747707527 278.40169943749476 L 141.89434837048464 228.40169943749476 L 141.89434837048464 166.59830056250527 L 178.22147477075268 116.59830056250527 L 236.99999999999997 97.5 L 237 97.5" opacity="1"></path><path fill="none" stroke="#e6e6e6" stroke-width="1" data-z-index="1" class="highcharts-grid-line" d="M 237 47.5 L 325.167787843871 76.14745084375788 L 379.658477444273 151.1474508437579 L 379.658477444273 243.8525491562421 L 325.167787843871 318.8525491562421 L 237 347.5 L 148.83221215612906 318.8525491562421 L 94.34152255572698 243.85254915624213 L 94.34152255572695 151.1474508437579 L 148.832212156129 76.1474508437579 L 236.99999999999997 47.5 L 237 47.5" opacity="1"></path></g><rect fill="none" class="highcharts-plot-border" data-z-index="1" x="10" y="10" width="454" height="375" aria-hidden="true"></rect><g class="highcharts-axis highcharts-xaxis" data-z-index="2" aria-hidden="true"><path fill="none" class="highcharts-axis-line" data-z-index="7" d="M 237 47.5 A 150 150 0 1 1 236.85000002499993 47.50007499999376 M 237 197.5 A 0 0 0 1 0 237 197.5"></path></g><g class="highcharts-axis highcharts-yaxis" data-z-index="2" aria-hidden="true"><path fill="none" class="highcharts-axis-line" data-z-index="7" d="M 237 197.5 L 237 47.5"></path></g><g class="highcharts-series-group" data-z-index="3" aria-hidden="false"><g class="highcharts-series highcharts-series-0 highcharts-line-series" data-z-index="0.1" opacity="1" transform="translate(10,10) scale(1 1)" clip-path="url(#highcharts-73d548k-80)" aria-hidden="true"><path fill="none" d="M 227 87.5 L 271.08389392193556 126.823725421879 L 280.4969290416021 170.1177940664083 L 292.3851354952913 208.74491836327923 L 260.0629204414532 233.00720593358966 L 226.99999999999946 262.5 L 182.91610607806157 248.17627457811892 L 155.67076127786373 210.67627457812182 L 161.61486450470886 166.25508163672035 L 179.24244825123475 121.76736920703684 L 227 87.5" class="highcharts-graph" data-z-index="1" stroke="#0F0" stroke-width="2" stroke-linejoin="round" stroke-linecap="round"></path></g><g class="highcharts-markers highcharts-series-0 highcharts-line-series" data-z-index="0.1" opacity="1" transform="translate(10,10) scale(1 1)" clip-path="none" aria-hidden="false" role="region" tabindex="-1" style="outline: 0px;" aria-label="Capaian, line 1 of 2 with 10 data points."><path fill="#0F0" d="M 227 92 A 4 4 0 1 1 227.00399999933333 91.99999800000016 Z" opacity="1" class="highcharts-point" tabindex="-1" style="outline: 0px;" role="img" aria-label="1. Daya Analisa, 4. Capaian."></path><path fill="#0F0" d="M 271 131 A 4 4 0 1 1 271.00399999933336 130.99999800000018 Z" opacity="1" class="highcharts-point" tabindex="-1" style="outline: 0px;" role="img" aria-label="2. Logika Berpikir, 3. Capaian."></path><path fill="#0F0" d="M 280 174 A 4 4 0 1 1 280.00399999933336 173.99999800000018 Z" opacity="1" class="highcharts-point" tabindex="-1" style="outline: 0px;" role="img" aria-label="3. Sistematika Kerja, 2.25. Capaian."></path><path fill="#0F0" d="M 292 213 A 4 4 0 1 1 292.00399999933336 212.99999800000018 Z" opacity="1" class="highcharts-point" tabindex="-1" style="outline: 0px;" role="img" aria-label="4. Inisiatif, 2.75. Capaian."></path><path fill="#0F0" d="M 260 237 A 4 4 0 1 1 260.00399999933336 236.99999800000018 Z" opacity="1" class="highcharts-point" tabindex="-1" style="outline: 0px;" role="img" aria-label="5. Daya Tahan Kerja, 2.25. Capaian."></path><path fill="#0F0" d="M 226 267 A 4 4 0 1 1 226.00399999933333 266.9999980000002 Z" opacity="1" class="highcharts-point" tabindex="-1" style="outline: 0px;" role="img" aria-label="6. Kepemimpinan, 3. Capaian."></path><path fill="#0F0" d="M 182 252 A 4 4 0 1 1 182.00399999933333 251.99999800000018 Z" opacity="1" class="highcharts-point" tabindex="-1" style="outline: 0px;" role="img" aria-label="7. Dorongan Berprestasi, 3. Capaian."></path><path fill="#0F0" d="M 155 215 A 4 4 0 1 1 155.00399999933333 214.99999800000018 Z" opacity="1" class="highcharts-point" tabindex="-1" style="outline: 0px;" role="img" aria-label="8. Tanggung Jawab, 3. Capaian."></path><path fill="#0F0" d="M 161 170 A 4 4 0 1 1 161.00399999933333 169.99999800000018 Z" opacity="1" class="highcharts-point" tabindex="-1" style="outline: 0px;" role="img" aria-label="9. Keterampilan Interpersonal, 2.75. Capaian."></path><path fill="#0F0" d="M 179 126 A 4 4 0 1 1 179.00399999933333 125.99999800000016 Z" opacity="1" class="highcharts-point" tabindex="-1" style="outline: 0px;" role="img" aria-label="10. Kepercayaan Diri, 3.25. Capaian."></path></g><g class="highcharts-series highcharts-series-1 highcharts-line-series" data-z-index="0.1" opacity="1" transform="translate(10,10) scale(1 1)" clip-path="url(#highcharts-73d548k-92)" aria-hidden="true"><path fill="none" d="M 227 112.5 L 271.08389392193556 126.823725421879 L 298.3292387221361 164.3237254218777 L 298.329238722136 210.6762745781228 L 271.0838939219376 248.17627457811955 L 226.99999999999946 262.5 L 182.91610607806157 248.17627457811892 L 155.67076127786373 210.67627457812182 L 155.6707612778642 164.32372542187673 L 182.91610607806282 126.82372542188017 L 227 112.5" class="highcharts-graph" data-z-index="1" stroke="#FF0000" stroke-width="2" stroke-linejoin="round" stroke-linecap="round"></path></g><g class="highcharts-markers highcharts-series-1 highcharts-line-series" data-z-index="0.1" opacity="1" transform="translate(10,10) scale(1 1)" clip-path="none" aria-hidden="false" role="region" tabindex="-1" style="outline: 0px;" aria-label="Nilai Standar, line 2 of 2 with 10 data points."><path fill="#FF0000" d="M 227 109 L 231 113 L 227 117 L 223 113 Z" opacity="1" class="highcharts-point" tabindex="-1" style="outline: 0px;" role="img" aria-label="1. Daya Analisa, 3. Nilai Standar."></path><path fill="#FF0000" d="M 271 123 L 275 127 L 271 131 L 267 127 Z" opacity="1" class="highcharts-point" tabindex="-1" style="outline: 0px;" role="img" aria-label="2. Logika Berpikir, 3. Nilai Standar."></path><path fill="#FF0000" d="M 298 160 L 302 164 L 298 168 L 294 164 Z" opacity="1" class="highcharts-point" tabindex="-1" style="outline: 0px;" role="img" aria-label="3. Sistematika Kerja, 3. Nilai Standar."></path><path fill="#FF0000" d="M 298 207 L 302 211 L 298 215 L 294 211 Z" opacity="1" class="highcharts-point" tabindex="-1" style="outline: 0px;" role="img" aria-label="4. Inisiatif, 3. Nilai Standar."></path><path fill="#FF0000" d="M 271 244 L 275 248 L 271 252 L 267 248 Z" opacity="1" class="highcharts-point" tabindex="-1" style="outline: 0px;" role="img" aria-label="5. Daya Tahan Kerja, 3. Nilai Standar."></path><path fill="#FF0000" d="M 226 259 L 230 263 L 226 267 L 222 263 Z" opacity="1" class="highcharts-point" tabindex="-1" style="outline: 0px;" role="img" aria-label="6. Kepemimpinan, 3. Nilai Standar."></path><path fill="#FF0000" d="M 182 244 L 186 248 L 182 252 L 178 248 Z" opacity="1" class="highcharts-point" tabindex="-1" style="outline: 0px;" role="img" aria-label="7. Dorongan Berprestasi, 3. Nilai Standar."></path><path fill="#FF0000" d="M 155 207 L 159 211 L 155 215 L 151 211 Z" opacity="1" class="highcharts-point" tabindex="-1" style="outline: 0px;" role="img" aria-label="8. Tanggung Jawab, 3. Nilai Standar."></path><path fill="#FF0000" d="M 155 160 L 159 164 L 155 168 L 151 164 Z" opacity="1" class="highcharts-point" tabindex="-1" style="outline: 0px;" role="img" aria-label="9. Keterampilan Interpersonal, 3. Nilai Standar."></path><path fill="#FF0000" d="M 182 123 L 186 127 L 182 131 L 178 127 Z" opacity="1" class="highcharts-point" tabindex="-1" style="outline: 0px;" role="img" aria-label="10. Kepercayaan Diri, 3. Nilai Standar."></path></g></g><text x="220" text-anchor="middle" class="highcharts-title" data-z-index="4" style="color:#333333;font-size:18px;fill:#333333;" y="24" aria-hidden="true"></text><text x="300" text-anchor="middle" class="highcharts-subtitle" data-z-index="4" style="color:#666666;fill:#666666;" y="25" aria-hidden="true"></text><text x="10" text-anchor="start" class="highcharts-caption" data-z-index="4" style="color:#666666;fill:#666666;" y="398" aria-hidden="true"></text><g class="highcharts-data-labels highcharts-series-0 highcharts-line-series" data-z-index="6" opacity="1" transform="translate(10,10) scale(1 1)" aria-hidden="true"><g class="highcharts-label highcharts-data-label highcharts-data-label-color-undefined" data-z-index="1" transform="translate(219,63)"><text x="5" data-z-index="1" y="16" style="color:#000000;font-size:11px;font-weight:bold;fill:#000000;"><tspan x="5" y="16" class="highcharts-text-outline" fill="#FFFFFF" stroke="#FFFFFF" stroke-width="2px" stroke-linejoin="round" style="">4</tspan><tspan x="5" y="16">4</tspan></text></g><g class="highcharts-label highcharts-data-label highcharts-data-label-color-undefined" data-z-index="1" transform="translate(263,102)"><text x="5" data-z-index="1" y="16" style="color:#000000;font-size:11px;font-weight:bold;fill:#000000;"><tspan x="5" y="16" class="highcharts-text-outline" fill="#FFFFFF" stroke="#FFFFFF" stroke-width="2px" stroke-linejoin="round">3</tspan><tspan x="5" y="16">3</tspan></text></g><g class="highcharts-label highcharts-data-label highcharts-data-label-color-undefined" data-z-index="1" transform="translate(264,145)"><text x="5" data-z-index="1" y="16" style="color:#000000;font-size:11px;font-weight:bold;fill:#000000;"><tspan x="5" y="16" class="highcharts-text-outline" fill="#FFFFFF" stroke="#FFFFFF" stroke-width="2px" stroke-linejoin="round" style="">2.25</tspan><tspan x="5" y="16">2.25</tspan></text></g><g class="highcharts-label highcharts-data-label highcharts-data-label-color-undefined" data-z-index="1" transform="translate(276,184)"><text x="5" data-z-index="1" y="16" style="color:#000000;font-size:11px;font-weight:bold;fill:#000000;"><tspan x="5" y="16" class="highcharts-text-outline" fill="#FFFFFF" stroke="#FFFFFF" stroke-width="2px" stroke-linejoin="round">2.75</tspan><tspan x="5" y="16">2.75</tspan></text></g><g class="highcharts-label highcharts-data-label highcharts-data-label-color-undefined" data-z-index="1" transform="translate(243,208)"><text x="5" data-z-index="1" y="16" style="color:#000000;font-size:11px;font-weight:bold;fill:#000000;"><tspan x="5" y="16" class="highcharts-text-outline" fill="#FFFFFF" stroke="#FFFFFF" stroke-width="2px" stroke-linejoin="round">2.25</tspan><tspan x="5" y="16">2.25</tspan></text></g><g class="highcharts-label highcharts-data-label highcharts-data-label-color-undefined" data-z-index="1" transform="translate(219,238)"><text x="5" data-z-index="1" y="16" style="color:#000000;font-size:11px;font-weight:bold;fill:#000000;"><tspan x="5" y="16" class="highcharts-text-outline" fill="#FFFFFF" stroke="#FFFFFF" stroke-width="2px" stroke-linejoin="round">3</tspan><tspan x="5" y="16">3</tspan></text></g><g class="highcharts-label highcharts-data-label highcharts-data-label-color-undefined" data-z-index="1" transform="translate(175,223)"><text x="5" data-z-index="1" y="16" style="color:#000000;font-size:11px;font-weight:bold;fill:#000000;"><tspan x="5" y="16" class="highcharts-text-outline" fill="#FFFFFF" stroke="#FFFFFF" stroke-width="2px" stroke-linejoin="round">3</tspan><tspan x="5" y="16">3</tspan></text></g><g class="highcharts-label highcharts-data-label highcharts-data-label-color-undefined" data-z-index="1" transform="translate(147,186)"><text x="5" data-z-index="1" y="16" style="color:#000000;font-size:11px;font-weight:bold;fill:#000000;"><tspan x="5" y="16" class="highcharts-text-outline" fill="#FFFFFF" stroke="#FFFFFF" stroke-width="2px" stroke-linejoin="round">3</tspan><tspan x="5" y="16">3</tspan></text></g><g class="highcharts-label highcharts-data-label highcharts-data-label-color-undefined" data-z-index="1" transform="translate(145,141)"><text x="5" data-z-index="1" y="16" style="color:#000000;font-size:11px;font-weight:bold;fill:#000000;"><tspan x="5" y="16" class="highcharts-text-outline" fill="#FFFFFF" stroke="#FFFFFF" stroke-width="2px" stroke-linejoin="round">2.75</tspan><tspan x="5" y="16">2.75</tspan></text></g><g class="highcharts-label highcharts-data-label highcharts-data-label-color-undefined" data-z-index="1" transform="translate(163,97)"><text x="5" data-z-index="1" y="16" style="color:#000000;font-size:11px;font-weight:bold;fill:#000000;"><tspan x="5" y="16" class="highcharts-text-outline" fill="#FFFFFF" stroke="#FFFFFF" stroke-width="2px" stroke-linejoin="round">3.25</tspan><tspan x="5" y="16">3.25</tspan></text></g></g><g class="highcharts-data-labels highcharts-series-1 highcharts-line-series" data-z-index="6" opacity="1" transform="translate(10,10) scale(1 1)" aria-hidden="true"><g class="highcharts-label highcharts-data-label highcharts-data-label-color-undefined" data-z-index="1" transform="translate(219,88)"><text x="5" data-z-index="1" y="16" style="color:#000000;font-size:11px;font-weight:bold;fill:#000000;"><tspan x="5" y="16" class="highcharts-text-outline" fill="#FFFFFF" stroke="#FFFFFF" stroke-width="2px" stroke-linejoin="round">3</tspan><tspan x="5" y="16">3</tspan></text></g><g class="highcharts-label highcharts-data-label highcharts-data-label-color-undefined highcharts-data-label-hidden" data-z-index="1" transform="translate(263,102)" opacity="0" style="pointer-events:none;"><text x="5" data-z-index="1" y="16" style="color:#000000;font-size:11px;font-weight:bold;fill:#000000;"><tspan x="5" y="16" class="highcharts-text-outline" fill="#FFFFFF" stroke="#FFFFFF" stroke-width="2px" stroke-linejoin="round">3</tspan><tspan x="5" y="16">3</tspan></text></g><g class="highcharts-label highcharts-data-label highcharts-data-label-color-undefined" data-z-index="1" transform="translate(290,139)"><text x="5" data-z-index="1" y="16" style="color:#000000;font-size:11px;font-weight:bold;fill:#000000;"><tspan x="5" y="16" class="highcharts-text-outline" fill="#FFFFFF" stroke="#FFFFFF" stroke-width="2px" stroke-linejoin="round">3</tspan><tspan x="5" y="16">3</tspan></text></g><g class="highcharts-label highcharts-data-label highcharts-data-label-color-undefined highcharts-data-label-hidden" data-z-index="1" transform="translate(290,186)" opacity="0" style="pointer-events:none;"><text x="5" data-z-index="1" y="16" style="color:#000000;font-size:11px;font-weight:bold;fill:#000000;"><tspan x="5" y="16" class="highcharts-text-outline" fill="#FFFFFF" stroke="#FFFFFF" stroke-width="2px" stroke-linejoin="round">3</tspan><tspan x="5" y="16">3</tspan></text></g><g class="highcharts-label highcharts-data-label highcharts-data-label-color-undefined highcharts-data-label-hidden" data-z-index="1" transform="translate(263,223)" opacity="0" style="pointer-events:none;"><text x="5" data-z-index="1" y="16" style="color:#000000;font-size:11px;font-weight:bold;fill:#000000;"><tspan x="5" y="16" class="highcharts-text-outline" fill="#FFFFFF" stroke="#FFFFFF" stroke-width="2px" stroke-linejoin="round">3</tspan><tspan x="5" y="16">3</tspan></text></g><g class="highcharts-label highcharts-data-label highcharts-data-label-color-undefined highcharts-data-label-hidden" data-z-index="1" transform="translate(219,238)" opacity="0" style="pointer-events:none;"><text x="5" data-z-index="1" y="16" style="color:#000000;font-size:11px;font-weight:bold;fill:#000000;"><tspan x="5" y="16" class="highcharts-text-outline" fill="#FFFFFF" stroke="#FFFFFF" stroke-width="2px" stroke-linejoin="round">3</tspan><tspan x="5" y="16">3</tspan></text></g><g class="highcharts-label highcharts-data-label highcharts-data-label-color-undefined highcharts-data-label-hidden" data-z-index="1" transform="translate(175,223)" opacity="0" style="pointer-events:none;"><text x="5" data-z-index="1" y="16" style="color:#000000;font-size:11px;font-weight:bold;fill:#000000;"><tspan x="5" y="16" class="highcharts-text-outline" fill="#FFFFFF" stroke="#FFFFFF" stroke-width="2px" stroke-linejoin="round">3</tspan><tspan x="5" y="16">3</tspan></text></g><g class="highcharts-label highcharts-data-label highcharts-data-label-color-undefined highcharts-data-label-hidden" data-z-index="1" transform="translate(147,186)" opacity="0" style="pointer-events:none;"><text x="5" data-z-index="1" y="16" style="color:#000000;font-size:11px;font-weight:bold;fill:#000000;"><tspan x="5" y="16" class="highcharts-text-outline" fill="#FFFFFF" stroke="#FFFFFF" stroke-width="2px" stroke-linejoin="round">3</tspan><tspan x="5" y="16">3</tspan></text></g><g class="highcharts-label highcharts-data-label highcharts-data-label-color-undefined highcharts-data-label-hidden" data-z-index="1" transform="translate(147,139)" opacity="0" style="pointer-events:none;"><text x="5" data-z-index="1" y="16" style="color:#000000;font-size:11px;font-weight:bold;fill:#000000;"><tspan x="5" y="16" class="highcharts-text-outline" fill="#FFFFFF" stroke="#FFFFFF" stroke-width="2px" stroke-linejoin="round">3</tspan><tspan x="5" y="16">3</tspan></text></g><g class="highcharts-label highcharts-data-label highcharts-data-label-color-undefined highcharts-data-label-hidden" data-z-index="1" transform="translate(175,102)" opacity="0" style="pointer-events:none;"><text x="5" data-z-index="1" y="16" style="color:#000000;font-size:11px;font-weight:bold;fill:#000000;"><tspan x="5" y="16" class="highcharts-text-outline" fill="#FFFFFF" stroke="#FFFFFF" stroke-width="2px" stroke-linejoin="round">3</tspan><tspan x="5" y="16">3</tspan></text></g></g><g class="highcharts-legend" data-z-index="7" transform="translate(476,177)" aria-hidden="true"><rect fill="none" class="highcharts-legend-box" rx="0" ry="0" x="0" y="0" width="113" height="41" visibility="visible"></rect><g data-z-index="1"><g><g class="highcharts-legend-item highcharts-line-series highcharts-color-undefined highcharts-series-0" data-z-index="1" transform="translate(8,3)"><path fill="none" d="M 0 11 L 16 11" class="highcharts-graph" stroke="#0F0" stroke-width="2"></path><path fill="#0F0" d="M 8 15 A 4 4 0 1 1 8.003999999333336 14.999998000000167 Z" class="highcharts-point" opacity="1"></path><text x="21" style="color:#333333;cursor:pointer;font-size:12px;font-weight:bold;fill:#333333;" text-anchor="start" data-z-index="2" y="15"><tspan>Capaian</tspan></text></g><g class="highcharts-legend-item highcharts-line-series highcharts-color-undefined highcharts-series-1" data-z-index="1" transform="translate(8,18)"><path fill="none" d="M 0 11 L 16 11" class="highcharts-graph" stroke="#FF0000" stroke-width="2"></path><path fill="#FF0000" d="M 8 7 L 12 11 L 8 15 L 4 11 Z" class="highcharts-point" opacity="1"></path><text x="21" y="15" style="color:#333333;cursor:pointer;font-size:12px;font-weight:bold;fill:#333333;" text-anchor="start" data-z-index="2"><tspan>Nilai Standar</tspan></text></g></g></g></g><g class="highcharts-axis-labels highcharts-xaxis-labels" data-z-index="7" aria-hidden="true"><text x="237" style="color:#666666;cursor:default;font-size:11px;fill:#666666;" transform="translate(0,0) rotate(1 237 35.37125584178469)" text-anchor="middle" y="35.37125584178469" opacity="1"><tspan>Daya Analisa</tspan></text><text x="333.98456662825805" style="color:#666666;cursor:default;font-size:11px;fill:#666666;" transform="translate(0,0) rotate(1 333.98456662825805 66.76710237147793)" text-anchor="start" y="66.76710237147793" opacity="1"><tspan>Logika Berpikir</tspan></text><text x="393.9243251887003" style="color:#666666;cursor:default;font-size:11px;fill:#666666;" transform="translate(0,0) rotate(1 393.9243251887003 149.1833308338941)" text-anchor="start" y="149.1833308338941" opacity="1"><tspan>Sistematika Kerja</tspan></text><text x="393.9243251887003" style="color:#666666;cursor:default;font-size:11px;fill:#666666;" transform="translate(0,0) rotate(1 393.9243251887003 253.19028174419287)" text-anchor="start" y="253.19028174419287" opacity="1">Inisiatif</text><text x="333.98456662825805" style="color:#666666;cursor:default;font-size:11px;fill:#666666;" transform="translate(0,0) rotate(1 333.98456662825805 333.64439532778755)" text-anchor="start" y="333.64439532778755" opacity="1"><tspan>Daya Tahan Kerja</tspan></text><text x="237" style="color:#666666;cursor:default;font-size:11px;fill:#666666;" transform="translate(0,0) rotate(1 237 366.9092772242075)" text-anchor="middle" y="366.9092772242075" opacity="1">Kepemimpinan</text><text x="140.01543337174195" style="color:#666666;cursor:default;font-size:11px;fill:#666666;" transform="translate(0,0) rotate(1 140.01543337174195 333.47147107621487)" text-anchor="end" y="333.47147107621487" opacity="1"><tspan>Dorongan Berprestasi</tspan></text><text x="80.07567481129968" style="color:#666666;cursor:default;font-size:11px;fill:#666666;" transform="translate(0,0) rotate(1 80.07567481129968 251.20547875031804)" text-anchor="end" y="251.20547875031804" opacity="1"><tspan>Tanggung Jawab</tspan></text><text x="80.07567481129965" style="color:#666666;cursor:default;font-size:11px;fill:#666666;" transform="translate(0,0) rotate(1 80.07567481129965 148.7378581329522)" text-anchor="end" y="148.7378581329522" opacity="1"><tspan>Keterampilan Interpersonal</tspan></text><text x="140.01543337174192" style="color:#666666;cursor:default;font-size:11px;fill:#666666;" transform="translate(0,0) rotate(1 140.01543337174192 66.68987548630808)" text-anchor="end" y="66.68987548630808" opacity="1"><tspan>Kepercayaan Diri</tspan></text><text x="0" style="color:#666666;cursor:default;font-size:11px;fill:#666666;" transform="translate(0,0) rotate(1 0 -9999)" text-anchor="middle" y="-9999">10</text></g><g class="highcharts-axis-labels highcharts-yaxis-labels" data-z-index="7" aria-hidden="true"></g></g></svg>