<svg height="400" width="600" version="1.1" xmlns="http://www.w3.org/2000/svg"><g transform="translate(0,0)"  xmlns:xlink="http://www.w3.org/1999/xlink" version="1.1" class="highcharts-root" style="font-family:&quot;Lucida Grande&quot;, &quot;Lucida Sans Unicode&quot;, Arial, Helvetica, sans-serif;font-size:12px;" xmlns="http://www.w3.org/2000/svg" width="600" height="400" viewBox="0 0 600 400" aria-hidden="false" aria-label="Interactive chart"><desc aria-hidden="true">Created with Highcharts 8.1.2</desc><defs aria-hidden="true"><clipPath id="highcharts-5y3t92i-70-"><rect x="0" y="0" width="580" height="335" fill="none"></rect></clipPath><clipPath id="highcharts-5y3t92i-83"><circle cx="290" cy="167.5" r="117.25"></circle></clipPath><clipPath id="highcharts-5y3t92i-96"><circle cx="290" cy="167.5" r="117.25"></circle></clipPath></defs><rect fill="#ffffff" class="highcharts-background" x="0" y="0" width="600" height="400" rx="0" ry="0" aria-hidden="true"></rect><rect fill="none" class="highcharts-plot-background" x="10" y="10" width="580" height="335" aria-hidden="true"></rect><g class="highcharts-pane-group" data-z-index="0" aria-hidden="true"></g><g class="highcharts-grid highcharts-xaxis-grid" data-z-index="1" aria-hidden="true"><path fill="none" stroke="#e6e6e6" stroke-width="1" data-z-index="1" class="highcharts-grid-line" d="M 300 177.5 L 300 60.25" opacity="1"></path><path fill="none" stroke="#e6e6e6" stroke-width="1" data-z-index="1" class="highcharts-grid-line" d="M 300 177.5 L 363.39013584666884 78.86302327554402" opacity="1"></path><path fill="none" stroke="#e6e6e6" stroke-width="1" data-z-index="1" class="highcharts-grid-line" d="M 300 177.5 L 406.6543514553173 128.7925897255288" opacity="1"></path><path fill="none" stroke="#e6e6e6" stroke-width="1" data-z-index="1" class="highcharts-grid-line" d="M 300 177.5 L 416.05656406053936 194.18641478754267" opacity="1"></path><path fill="none" stroke="#e6e6e6" stroke-width="1" data-z-index="1" class="highcharts-grid-line" d="M 300 177.5 L 388.6116375930368 254.28242105508468" opacity="1"></path><path fill="none" stroke="#e6e6e6" stroke-width="1" data-z-index="1" class="highcharts-grid-line" d="M 300 177.5 L 333.03314228965763 290.0005511562998" opacity="1"></path><path fill="none" stroke="#e6e6e6" stroke-width="1" data-z-index="1" class="highcharts-grid-line" d="M 300 177.5 L 266.9668577103424 290.0005511562998" opacity="1"></path><path fill="none" stroke="#e6e6e6" stroke-width="1" data-z-index="1" class="highcharts-grid-line" d="M 300 177.5 L 211.3883624069632 254.28242105508468" opacity="1"></path><path fill="none" stroke="#e6e6e6" stroke-width="1" data-z-index="1" class="highcharts-grid-line" d="M 300 177.5 L 183.94343593946064 194.18641478754267" opacity="1"></path><path fill="none" stroke="#e6e6e6" stroke-width="1" data-z-index="1" class="highcharts-grid-line" d="M 300 177.5 L 193.34564854468272 128.79258972552884" opacity="1"></path><path fill="none" stroke="#e6e6e6" stroke-width="1" data-z-index="1" class="highcharts-grid-line" d="M 300 177.5 L 236.60986415333122 78.863023275544" opacity="1"></path><path fill="none" stroke="#e6e6e6" stroke-width="1" data-z-index="1" class="highcharts-grid-line" d="M 300 177.5 L 300 60.25" opacity="1"></path></g><g class="highcharts-grid highcharts-yaxis-grid" data-z-index="1" aria-hidden="true"><path fill="none" stroke="#e6e6e6" stroke-width="1" data-z-index="1" class="highcharts-grid-line" d="M 300 177.5 L 300 177.5 L 300 177.5 L 300 177.5 L 300 177.5 L 300 177.5 L 300 177.5 L 300 177.5 L 300 177.5 L 300 177.5 L 300 177.5 L 300 177.5 L 300 177.5" opacity="1"></path><path fill="none" stroke="#e6e6e6" stroke-width="1" data-z-index="1" class="highcharts-grid-line" d="M 300 118.875 L 331.6950679233344 128.18151163777202 L 353.32717572765864 153.14629486276442 L 358.0282820302697 185.84320739377134 L 344.3058187965184 215.89121052754234 L 316.5165711448288 233.7502755781499 L 283.4834288551712 233.7502755781499 L 255.6941812034816 215.89121052754234 L 241.97171796973032 185.84320739377134 L 246.67282427234136 153.14629486276442 L 268.3049320766656 128.181511637772 L 300 118.875 L 300 118.875" opacity="1"></path><path fill="none" stroke="#e6e6e6" stroke-width="1" data-z-index="1" class="highcharts-grid-line" d="M 300 60.25 L 363.39013584666884 78.86302327554402 L 406.6543514553173 128.7925897255288 L 416.05656406053936 194.18641478754267 L 388.6116375930368 254.28242105508468 L 333.03314228965763 290.0005511562998 L 266.9668577103424 290.0005511562998 L 211.3883624069632 254.28242105508468 L 183.94343593946064 194.18641478754267 L 193.34564854468272 128.79258972552884 L 236.60986415333122 78.863023275544 L 300 60.25 L 300 60.25" opacity="1"></path></g><rect fill="none" class="highcharts-plot-border" data-z-index="1" x="10" y="10" width="580" height="335" aria-hidden="true"></rect><g class="highcharts-axis highcharts-xaxis" data-z-index="2" aria-hidden="true"><path fill="none" class="highcharts-axis-line" data-z-index="7" d="M 300 60.25 A 117.25 117.25 0 1 1 299.8827500195416 60.25005862499512 M 300 177.5 A 0 0 0 1 0 300 177.5"></path></g><g class="highcharts-axis highcharts-yaxis" data-z-index="2" aria-hidden="true"><path fill="none" class="highcharts-axis-line" data-z-index="7" d="M 300 177.5 L 300 60.25"></path></g><g class="highcharts-series-group" data-z-index="3" aria-hidden="false"><g class="highcharts-series highcharts-series-0 highcharts-line-series" data-z-index="0.1" opacity="1" transform="translate(10,10) scale(1 1)" clip-path="url(#highcharts-5y3t92i-83)" aria-hidden="true"><path fill="none" d="M 290 108.875 L 317.7331844329175 124.3463226830504 L 363.3248666255304 134.01365543630058 L 377.042423045404 180.01481109066052 L 350.9205008452135 220.28791447536992 L 314.7748567172404 251.8754133672257 L 273.4834288551723 223.75027557815022 L 229.0794991547858 220.28791447536906 L 231.97171796973055 175.8432073937729 L 210.00923640851278 130.969442294145 L 246.41928160541295 99.68707850193793 L 290 108.875" class="highcharts-graph" data-z-index="1" stroke="#0F0" stroke-width="2" stroke-linejoin="round" stroke-linecap="round"></path></g><g class="highcharts-markers highcharts-series-0 highcharts-line-series" data-z-index="0.1" opacity="1" transform="translate(10,10) scale(1 1)" clip-path="none" aria-hidden="false" role="region" tabindex="-1" aria-label="Capaian, line 1 of 2 with 11 data points." style="outline: 0px;"><path fill="#0F0" d="M 290 113 A 4 4 0 1 1 290.00399999933336 112.99999800000016 Z" opacity="1" class="highcharts-point" tabindex="-1" role="img" aria-label="1. Daya Tahan Kerja, 2. Capaian." style="outline: 0px;"></path><path fill="#0F0" d="M 317 128 A 4 4 0 1 1 317.00399999933336 127.99999800000016 Z" opacity="1" class="highcharts-point" tabindex="-1" role="img" aria-label="2. Kepemimpinan, 1.75. Capaian." style="outline: 0px;"></path><path fill="#0F0" d="M 363 138 A 4 4 0 1 1 363.00399999933336 137.99999800000018 Z" opacity="1" class="highcharts-point" tabindex="-1" role="img" aria-label="3. Keterampilan Interpersonal, 2.75. Capaian." style="outline: 0px;"></path><path fill="#0F0" d="M 377 184 A 4 4 0 1 1 377.00399999933336 183.99999800000018 Z" opacity="1" class="highcharts-point" tabindex="-1" role="img" aria-label="4. Daya Analisa, 3. Capaian." style="outline: 0px;"></path><path fill="#0F0" d="M 350 224 A 4 4 0 1 1 350.00399999933336 223.99999800000018 Z" opacity="1" class="highcharts-point" tabindex="-1" role="img" aria-label="5. Logika Berpikir, 2.75. Capaian." style="outline: 0px;"></path><path fill="#0F0" d="M 314 256 A 4 4 0 1 1 314.00399999933336 255.99999800000018 Z" opacity="1" class="highcharts-point" tabindex="-1" role="img" aria-label="6. Inisiatif, 3. Capaian." style="outline: 0px;"></path><path fill="#0F0" d="M 273 228 A 4 4 0 1 1 273.00399999933336 227.99999800000018 Z" opacity="1" class="highcharts-point" tabindex="-1" role="img" aria-label="7. Dorongan Berprestasi, 2. Capaian." style="outline: 0px;"></path><path fill="#0F0" d="M 229 224 A 4 4 0 1 1 229.00399999933333 223.99999800000018 Z" opacity="1" class="highcharts-point" tabindex="-1" role="img" aria-label="8. Kepercayaan Diri, 2.75. Capaian." style="outline: 0px;"></path><path fill="#0F0" d="M 231 180 A 4 4 0 1 1 231.00399999933333 179.99999800000018 Z" opacity="1" class="highcharts-point" tabindex="-1" role="img" aria-label="9. Stabilitas Emosi, 2. Capaian." style="outline: 0px;"></path><path fill="#0F0" d="M 210 135 A 4 4 0 1 1 210.00399999933333 134.99999800000018 Z" opacity="1" class="highcharts-point" tabindex="-1" role="img" aria-label="10. Sistematika Kerja, 3. Capaian." style="outline: 0px;"></path><path fill="#0F0" d="M 246 104 A 4 4 0 1 1 246.00399999933333 103.99999800000016 Z" opacity="1" class="highcharts-point" tabindex="-1" role="img" aria-label="11. Tanggung Jawab, 2.75. Capaian." style="outline: 0px;"></path></g><g class="highcharts-series highcharts-series-1 highcharts-line-series" data-z-index="0.1" opacity="1" transform="translate(10,10) scale(1 1)" clip-path="url(#highcharts-5y3t92i-96)" aria-hidden="true"><path fill="none" d="M 290 79.5625 L 337.5426018850014 93.52226745665784 L 369.99076359148773 130.9694422941461 L 377.042423045404 180.01481109066052 L 356.45872819477836 225.08681579131263 L 314.7748567172404 251.8754133672257 L 265.22514328275844 251.87541336722535 L 223.54127180522084 225.08681579131172 L 202.95757695459582 180.01481109065932 L 210.00923640851278 130.969442294145 L 242.45739811499595 93.52226745665956 L 290 79.5625" class="highcharts-graph" data-z-index="1" stroke="#FF0000" stroke-width="2" stroke-linejoin="round" stroke-linecap="round"></path></g><g class="highcharts-markers highcharts-series-1 highcharts-line-series" data-z-index="0.1" opacity="1" transform="translate(10,10) scale(1 1)" clip-path="none" aria-hidden="false" role="region" tabindex="-1" aria-label="Nilai Standar, line 2 of 2 with 11 data points." style="outline: 0px;"><path fill="#FF0000" d="M 290 76 L 294 80 L 290 84 L 286 80 Z" opacity="1" class="highcharts-point" tabindex="-1" role="img" aria-label="1. Daya Tahan Kerja, 3. Nilai Standar." style="outline: 0px;"></path><path fill="#FF0000" d="M 337 90 L 341 94 L 337 98 L 333 94 Z" opacity="1" class="highcharts-point" tabindex="-1" role="img" aria-label="2. Kepemimpinan, 3. Nilai Standar." style="outline: 0px;"></path><path fill="#FF0000" d="M 369 127 L 373 131 L 369 135 L 365 131 Z" opacity="1" class="highcharts-point" tabindex="-1" role="img" aria-label="3. Keterampilan Interpersonal, 3. Nilai Standar." style="outline: 0px;"></path><path fill="#FF0000" d="M 377 176 L 381 180 L 377 184 L 373 180 Z" opacity="1" class="highcharts-point" tabindex="-1" role="img" aria-label="4. Daya Analisa, 3. Nilai Standar." style="outline: 0px;"></path><path fill="#FF0000" d="M 356 221 L 360 225 L 356 229 L 352 225 Z" opacity="1" class="highcharts-point" tabindex="-1" role="img" aria-label="5. Logika Berpikir, 3. Nilai Standar." style="outline: 0px;"></path><path fill="#FF0000" d="M 314 248 L 318 252 L 314 256 L 310 252 Z" opacity="1" class="highcharts-point" tabindex="-1" role="img" aria-label="6. Inisiatif, 3. Nilai Standar." style="outline: 0px;"></path><path fill="#FF0000" d="M 265 248 L 269 252 L 265 256 L 261 252 Z" opacity="1" class="highcharts-point" tabindex="-1" role="img" aria-label="7. Dorongan Berprestasi, 3. Nilai Standar." style="outline: 0px;"></path><path fill="#FF0000" d="M 223 221 L 227 225 L 223 229 L 219 225 Z" opacity="1" class="highcharts-point" tabindex="-1" role="img" aria-label="8. Kepercayaan Diri, 3. Nilai Standar." style="outline: 0px;"></path><path fill="#FF0000" d="M 202 176 L 206 180 L 202 184 L 198 180 Z" opacity="1" class="highcharts-point" tabindex="-1" role="img" aria-label="9. Stabilitas Emosi, 3. Nilai Standar." style="outline: 0px;"></path><path fill="#FF0000" d="M 210 127 L 214 131 L 210 135 L 206 131 Z" opacity="1" class="highcharts-point" tabindex="-1" role="img" aria-label="10. Sistematika Kerja, 3. Nilai Standar." style="outline: 0px;"></path><path fill="#FF0000" d="M 242 90 L 246 94 L 242 98 L 238 94 Z" opacity="1" class="highcharts-point" tabindex="-1" role="img" aria-label="11. Tanggung Jawab, 3. Nilai Standar." style="outline: 0px;"></path></g></g><text x="220" text-anchor="middle" class="highcharts-title" data-z-index="4" style="color:#333333;font-size:18px;fill:#333333;" y="24" aria-hidden="true"></text><text x="300" text-anchor="middle" class="highcharts-subtitle" data-z-index="4" style="color:#666666;fill:#666666;" y="25" aria-hidden="true"></text><text x="10" text-anchor="start" class="highcharts-caption" data-z-index="4" style="color:#666666;fill:#666666;" y="398" aria-hidden="true"></text><g class="highcharts-data-labels highcharts-series-0 highcharts-line-series" data-z-index="6" opacity="1" transform="translate(10,10) scale(1 1)" aria-hidden="true"><g class="highcharts-label highcharts-data-label highcharts-data-label-color-undefined" data-z-index="1" transform="translate(280,85)"><text x="5" data-z-index="1" y="16" style="color:#000000;font-size:11px;font-weight:bold;fill:#000000;"><tspan x="5" y="16" class="highcharts-text-outline" fill="#FFFFFF" stroke="#FFFFFF" stroke-width="2px" stroke-linejoin="round" style="">2</tspan><tspan x="5" y="16">2</tspan></text></g><g class="highcharts-label highcharts-data-label highcharts-data-label-color-undefined" data-z-index="1" transform="translate(297,100)"><text x="5" data-z-index="1" y="16" style="color:#000000;font-size:11px;font-weight:bold;fill:#000000;"><tspan x="5" y="16" class="highcharts-text-outline" fill="#FFFFFF" stroke="#FFFFFF" stroke-width="2px" stroke-linejoin="round" style="">1.75</tspan><tspan x="5" y="16">1.75</tspan></text></g><g class="highcharts-label highcharts-data-label highcharts-data-label-color-undefined" data-z-index="1" transform="translate(343,110)"><text x="5" data-z-index="1" y="16" style="color:#000000;font-size:11px;font-weight:bold;fill:#000000;"><tspan x="5" y="16" class="highcharts-text-outline" fill="#FFFFFF" stroke="#FFFFFF" stroke-width="2px" stroke-linejoin="round">2.75</tspan><tspan x="5" y="16">2.75</tspan></text></g><g class="highcharts-label highcharts-data-label highcharts-data-label-color-undefined" data-z-index="1" transform="translate(367,156)"><text x="5" data-z-index="1" y="16" style="color:#000000;font-size:11px;font-weight:bold;fill:#000000;"><tspan x="5" y="16" class="highcharts-text-outline" fill="#FFFFFF" stroke="#FFFFFF" stroke-width="2px" stroke-linejoin="round">3</tspan><tspan x="5" y="16">3</tspan></text></g><g class="highcharts-label highcharts-data-label highcharts-data-label-color-undefined" data-z-index="1" transform="translate(331,196)"><text x="5" data-z-index="1" y="16" style="color:#000000;font-size:11px;font-weight:bold;fill:#000000;"><tspan x="5" y="16" class="highcharts-text-outline" fill="#FFFFFF" stroke="#FFFFFF" stroke-width="2px" stroke-linejoin="round">2.75</tspan><tspan x="5" y="16">2.75</tspan></text></g><g class="highcharts-label highcharts-data-label highcharts-data-label-color-undefined" data-z-index="1" transform="translate(305,228)"><text x="5" data-z-index="1" y="16" style="color:#000000;font-size:11px;font-weight:bold;fill:#000000;"><tspan x="5" y="16" class="highcharts-text-outline" fill="#FFFFFF" stroke="#FFFFFF" stroke-width="2px" stroke-linejoin="round">3</tspan><tspan x="5" y="16">3</tspan></text></g><g class="highcharts-label highcharts-data-label highcharts-data-label-color-undefined" data-z-index="1" transform="translate(264,200)"><text x="5" data-z-index="1" y="16" style="color:#000000;font-size:11px;font-weight:bold;fill:#000000;"><tspan x="5" y="16" class="highcharts-text-outline" fill="#FFFFFF" stroke="#FFFFFF" stroke-width="2px" stroke-linejoin="round">2</tspan><tspan x="5" y="16">2</tspan></text></g><g class="highcharts-label highcharts-data-label highcharts-data-label-color-undefined" data-z-index="1" transform="translate(209,196)"><text x="5" data-z-index="1" y="16" style="color:#000000;font-size:11px;font-weight:bold;fill:#000000;"><tspan x="5" y="16" class="highcharts-text-outline" fill="#FFFFFF" stroke="#FFFFFF" stroke-width="2px" stroke-linejoin="round">2.75</tspan><tspan x="5" y="16">2.75</tspan></text></g><g class="highcharts-label highcharts-data-label highcharts-data-label-color-undefined" data-z-index="1" transform="translate(222,152)"><text x="5" data-z-index="1" y="16" style="color:#000000;font-size:11px;font-weight:bold;fill:#000000;"><tspan x="5" y="16" class="highcharts-text-outline" fill="#FFFFFF" stroke="#FFFFFF" stroke-width="2px" stroke-linejoin="round">2</tspan><tspan x="5" y="16">2</tspan></text></g><g class="highcharts-label highcharts-data-label highcharts-data-label-color-undefined" data-z-index="1" transform="translate(200,107)"><text x="5" data-z-index="1" y="16" style="color:#000000;font-size:11px;font-weight:bold;fill:#000000;"><tspan x="5" y="16" class="highcharts-text-outline" fill="#FFFFFF" stroke="#FFFFFF" stroke-width="2px" stroke-linejoin="round">3</tspan><tspan x="5" y="16">3</tspan></text></g><g class="highcharts-label highcharts-data-label highcharts-data-label-color-undefined" data-z-index="1" transform="translate(226,76)"><text x="5" data-z-index="1" y="16" style="color:#000000;font-size:11px;font-weight:bold;fill:#000000;"><tspan x="5" y="16" class="highcharts-text-outline" fill="#FFFFFF" stroke="#FFFFFF" stroke-width="2px" stroke-linejoin="round">2.75</tspan><tspan x="5" y="16">2.75</tspan></text></g></g><g class="highcharts-data-labels highcharts-series-1 highcharts-line-series" data-z-index="6" opacity="1" transform="translate(10,10) scale(1 1)" aria-hidden="true"><g class="highcharts-label highcharts-data-label highcharts-data-label-color-undefined" data-z-index="1" transform="translate(280,56)"><text x="5" data-z-index="1" y="16" style="color:#000000;font-size:11px;font-weight:bold;fill:#000000;"><tspan x="5" y="16" class="highcharts-text-outline" fill="#FFFFFF" stroke="#FFFFFF" stroke-width="2px" stroke-linejoin="round">3</tspan><tspan x="5" y="16">3</tspan></text></g><g class="highcharts-label highcharts-data-label highcharts-data-label-color-undefined" data-z-index="1" transform="translate(328,70)"><text x="5" data-z-index="1" y="16" style="color:#000000;font-size:11px;font-weight:bold;fill:#000000;"><tspan x="5" y="16" class="highcharts-text-outline" fill="#FFFFFF" stroke="#FFFFFF" stroke-width="2px" stroke-linejoin="round">3</tspan><tspan x="5" y="16">3</tspan></text></g><g class="highcharts-label highcharts-data-label highcharts-data-label-color-undefined highcharts-data-label-hidden" data-z-index="1" transform="translate(360,107)" opacity="0" style="pointer-events:none;"><text x="5" data-z-index="1" y="16" style="color:#000000;font-size:11px;font-weight:bold;fill:#000000;"><tspan x="5" y="16" class="highcharts-text-outline" fill="#FFFFFF" stroke="#FFFFFF" stroke-width="2px" stroke-linejoin="round">3</tspan><tspan x="5" y="16">3</tspan></text></g><g class="highcharts-label highcharts-data-label highcharts-data-label-color-undefined highcharts-data-label-hidden" data-z-index="1" transform="translate(367,156)" opacity="0" style="pointer-events:none;"><text x="5" data-z-index="1" y="16" style="color:#000000;font-size:11px;font-weight:bold;fill:#000000;"><tspan x="5" y="16" class="highcharts-text-outline" fill="#FFFFFF" stroke="#FFFFFF" stroke-width="2px" stroke-linejoin="round">3</tspan><tspan x="5" y="16">3</tspan></text></g><g class="highcharts-label highcharts-data-label highcharts-data-label-color-undefined highcharts-data-label-hidden" data-z-index="1" transform="translate(347,201)" opacity="0" style="pointer-events:none;"><text x="5" data-z-index="1" y="16" style="color:#000000;font-size:11px;font-weight:bold;fill:#000000;"><tspan x="5" y="16" class="highcharts-text-outline" fill="#FFFFFF" stroke="#FFFFFF" stroke-width="2px" stroke-linejoin="round">3</tspan><tspan x="5" y="16">3</tspan></text></g><g class="highcharts-label highcharts-data-label highcharts-data-label-color-undefined highcharts-data-label-hidden" data-z-index="1" transform="translate(305,228)" opacity="0" style="pointer-events:none;"><text x="5" data-z-index="1" y="16" style="color:#000000;font-size:11px;font-weight:bold;fill:#000000;"><tspan x="5" y="16" class="highcharts-text-outline" fill="#FFFFFF" stroke="#FFFFFF" stroke-width="2px" stroke-linejoin="round">3</tspan><tspan x="5" y="16">3</tspan></text></g><g class="highcharts-label highcharts-data-label highcharts-data-label-color-undefined" data-z-index="1" transform="translate(256,228)"><text x="5" data-z-index="1" y="16" style="color:#000000;font-size:11px;font-weight:bold;fill:#000000;"><tspan x="5" y="16" class="highcharts-text-outline" fill="#FFFFFF" stroke="#FFFFFF" stroke-width="2px" stroke-linejoin="round">3</tspan><tspan x="5" y="16">3</tspan></text></g><g class="highcharts-label highcharts-data-label highcharts-data-label-color-undefined highcharts-data-label-hidden" data-z-index="1" transform="translate(214,201)" opacity="0" style="pointer-events:none;"><text x="5" data-z-index="1" y="16" style="color:#000000;font-size:11px;font-weight:bold;fill:#000000;"><tspan x="5" y="16" class="highcharts-text-outline" fill="#FFFFFF" stroke="#FFFFFF" stroke-width="2px" stroke-linejoin="round">3</tspan><tspan x="5" y="16">3</tspan></text></g><g class="highcharts-label highcharts-data-label highcharts-data-label-color-undefined" data-z-index="1" transform="translate(193,156)"><text x="5" data-z-index="1" y="16" style="color:#000000;font-size:11px;font-weight:bold;fill:#000000;"><tspan x="5" y="16" class="highcharts-text-outline" fill="#FFFFFF" stroke="#FFFFFF" stroke-width="2px" stroke-linejoin="round">3</tspan><tspan x="5" y="16">3</tspan></text></g><g class="highcharts-label highcharts-data-label highcharts-data-label-color-undefined highcharts-data-label-hidden" data-z-index="1" transform="translate(200,107)" opacity="0" style="pointer-events:none;"><text x="5" data-z-index="1" y="16" style="color:#000000;font-size:11px;font-weight:bold;fill:#000000;"><tspan x="5" y="16" class="highcharts-text-outline" fill="#FFFFFF" stroke="#FFFFFF" stroke-width="2px" stroke-linejoin="round">3</tspan><tspan x="5" y="16">3</tspan></text></g><g class="highcharts-label highcharts-data-label highcharts-data-label-color-undefined highcharts-data-label-hidden" data-z-index="1" transform="translate(233,70)" opacity="0" style="pointer-events:none;"><text x="5" data-z-index="1" y="16" style="color:#000000;font-size:11px;font-weight:bold;fill:#000000;"><tspan x="5" y="16" class="highcharts-text-outline" fill="#FFFFFF" stroke="#FFFFFF" stroke-width="2px" stroke-linejoin="round">3</tspan><tspan x="5" y="16">3</tspan></text></g></g><g class="highcharts-legend" data-z-index="7" transform="translate(190,357)" aria-hidden="true"><rect fill="none" class="highcharts-legend-box" rx="0" ry="0" x="0" y="0" width="219" height="28" visibility="visible"></rect><g data-z-index="1"><g><g class="highcharts-legend-item highcharts-line-series highcharts-color-undefined highcharts-series-0" data-z-index="1" transform="translate(8,3)"><path fill="none" d="M 0 11 L 16 11" class="highcharts-graph" stroke="#0F0" stroke-width="2"></path><path fill="#0F0" d="M 8 15 A 4 4 0 1 1 8.003999999333336 14.999998000000167 Z" class="highcharts-point" opacity="1"></path><text x="21" style="color:#333333;cursor:pointer;font-size:12px;font-weight:bold;fill:#333333;" text-anchor="start" data-z-index="2" y="15"><tspan>Capaian</tspan></text></g><g class="highcharts-legend-item highcharts-line-series highcharts-color-undefined highcharts-series-1" data-z-index="1" transform="translate(102.75977325439453,3)"><path fill="none" d="M 0 11 L 16 11" class="highcharts-graph" stroke="#FF0000" stroke-width="2"></path><path fill="#FF0000" d="M 8 7 L 12 11 L 8 15 L 4 11 Z" class="highcharts-point" opacity="1"></path><text x="21" y="15" style="color:#333333;cursor:pointer;font-size:12px;font-weight:bold;fill:#333333;" text-anchor="start" data-z-index="2"><tspan>Nilai Standar</tspan></text></g></g></g></g><g class="highcharts-axis-labels highcharts-xaxis-labels" data-z-index="7" aria-hidden="true"><text x="300" style="color:#666666;cursor:default;font-size:11px;fill:#666666;" transform="translate(0,0) rotate(1 300 48.35131976435107)" text-anchor="middle" y="48.35131976435107" opacity="1"><tspan>Daya Tahan Kerja</tspan></text><text x="371.4997481085028" style="color:#666666;cursor:default;font-size:11px;fill:#666666;" transform="translate(0,0) rotate(1 371.4997481085028 69.84994929269128)" text-anchor="start" y="69.84994929269128" opacity="1">Kepemimpinan</text><text x="420.2988313856351" style="color:#666666;cursor:default;font-size:11px;fill:#666666;" transform="translate(0,0) rotate(1 420.2988313856351 125.17270237845537)" text-anchor="start" y="125.17270237845537" opacity="1"><tspan>Keterampilan Interpersonal</tspan></text><text x="430.90388568875335" style="color:#666666;cursor:default;font-size:11px;fill:#666666;" transform="translate(0,0) rotate(1 430.90388568875335 199.66575935961424)" text-anchor="start" y="199.66575935961424" opacity="1"><tspan>Daya Analisa</tspan></text><text x="399.9478812083506" style="color:#666666;cursor:default;font-size:11px;fill:#666666;" transform="translate(0,0) rotate(1 399.9478812083506 267.3464258684928)" text-anchor="start" y="267.3464258684928" opacity="1"><tspan>Logika Berpikir</tspan></text><text x="337.25913064227905" style="color:#666666;cursor:default;font-size:11px;fill:#666666;" transform="translate(0,0) rotate(1 337.25913064227905 308.2975101477353)" text-anchor="middle" y="308.2975101477353" opacity="1">Inisiatif</text><text x="262.74086935772095" style="color:#666666;cursor:default;font-size:11px;fill:#666666;" transform="translate(0,0) rotate(1 262.74086935772095 307.28641455703325)" text-anchor="end" y="307.28641455703325" opacity="1"><tspan>Dorongan Berprestasi</tspan></text><text x="200.05211879164938" style="color:#666666;cursor:default;font-size:11px;fill:#666666;" transform="translate(0,0) rotate(1 200.05211879164938 267.2459629506939)" text-anchor="end" y="267.2459629506939" opacity="1"><tspan>Kepercayaan Diri</tspan></text><text x="169.09611431124665" style="color:#666666;cursor:default;font-size:11px;fill:#666666;" transform="translate(0,0) rotate(1 169.09611431124665 199.51984052065905)" text-anchor="end" y="199.51984052065905" opacity="1"><tspan>Stabilitas Emosi</tspan></text><text x="179.70116861436492" style="color:#666666;cursor:default;font-size:11px;fill:#666666;" transform="translate(0,0) rotate(1 179.70116861436492 125.67517308734261)" text-anchor="end" y="125.67517308734261" opacity="1"><tspan>Sistematika Kerja</tspan></text><text x="228.50025189149724" style="color:#666666;cursor:default;font-size:11px;fill:#666666;" transform="translate(0,0) rotate(1 228.50025189149724 69.37706887581236)" text-anchor="end" y="69.37706887581236" opacity="1"><tspan>Tanggung Jawab</tspan></text><text x="0" style="color:#666666;cursor:default;font-size:11px;fill:#666666;" transform="translate(0,0) rotate(1 0 -9999)" text-anchor="middle" y="-9999">11</text></g><g class="highcharts-axis-labels highcharts-yaxis-labels" data-z-index="7" aria-hidden="true"></g></g></svg>